<svg xmlns="http://www.w3.org/2000/svg" xmlns:xlink="http://www.w3.org/1999/xlink" viewBox="0 0 117.84 144.81"><defs><style>.cls-1{isolation:isolate;}.cls-2{fill:url(#Безымянный_градиент_139);}.cls-3{fill:url(#Безымянный_градиент_139-2);}.cls-4{fill:url(#Безымянный_градиент_134);}.cls-12,.cls-13,.cls-14,.cls-15,.cls-16,.cls-5,.cls-7,.cls-8{stroke-miterlimit:10;}.cls-5{fill:url(#Безымянный_градиент_125);stroke:url(#Безымянный_градиент_125-2);}.cls-6{opacity:0.2;}.cls-12,.cls-13,.cls-14,.cls-15,.cls-7{stroke:#007861;}.cls-7{fill:url(#Безымянный_градиент_144);}.cls-8{fill:#848484;stroke:gray;}.cls-9{opacity:0.1;}.cls-10,.cls-16{fill:#fff;}.cls-11{fill:#666;fill-rule:evenodd;opacity:0.6;mix-blend-mode:screen;}.cls-12,.cls-15{fill:none;}.cls-12,.cls-13{stroke-width:0.75px;}.cls-14{stroke-width:2px;}.cls-15,.cls-16{stroke-width:0.25px;}.cls-16{font-size:17.57px;stroke:#000;font-family:Constantia;}.cls-17{letter-spacing:-0.03em;}.cls-18{letter-spacing:-0.07em;}</style><linearGradient id="Безымянный_градиент_139" x1="36.5" y1="50.66" x2="114.17" y2="50.66" gradientUnits="userSpaceOnUse"><stop offset="0" stop-color="#23243b"/><stop offset="1" stop-color="#535672"/></linearGradient><linearGradient id="Безымянный_градиент_139-2" x1="32.28" y1="107.76" x2="50.62" y2="107.76" xlink:href="#Безымянный_градиент_139"/><linearGradient id="Безымянный_градиент_134" x1="8.67" y1="77.79" x2="117.84" y2="77.79" gradientUnits="userSpaceOnUse"><stop offset="0" stop-color="#8f90a7"/><stop offset="0.51" stop-color="#c7c9da"/><stop offset="1" stop-color="#fff"/></linearGradient><linearGradient id="Безымянный_градиент_125" x1="0.5" y1="70.38" x2="79.52" y2="70.38" gradientUnits="userSpaceOnUse"><stop offset="0" stop-color="#135965"/><stop offset="0.51" stop-color="#22797a"/><stop offset="1" stop-color="#4d9981"/></linearGradient><linearGradient id="Безымянный_градиент_125-2" x1="0" y1="70.38" x2="80.02" y2="70.38" xlink:href="#Безымянный_градиент_125"/><linearGradient id="Безымянный_градиент_144" x1="0.86" y1="15.21" x2="30.29" y2="15.21" gradientUnits="userSpaceOnUse"><stop offset="0" stop-color="#c7c9da"/><stop offset="1" stop-color="#fff"/></linearGradient></defs><g class="cls-1"><g id="Слой_2" data-name="Слой 2"><g id="Объекты"><path class="cls-2" d="M114.08,16.29h0l-.07,0A186.34,186.34,0,0,0,77.46,33.54c-7.77,5.06-14.85,10-22.32,18.28C39.92,68.71,37.72,85.32,36.66,85.15c-.7-.12,1-7.08,2.67-12a65.85,65.85,0,0,1,3.28-8A72.1,72.1,0,0,1,50,53.31a80.49,80.49,0,0,1,5.25-6.24c2.53-2.72,4.66-4.65,6.43-6.24,1.12-1,2.72-2.44,4.84-4.17,0,0,1.67-1.36,3.49-2.74A158.09,158.09,0,0,1,89.4,21.47c2.83-1.49,6.69-3.37,11.42-5.29l13.15,0s.2,0,.2,0S114.13,16.28,114.08,16.29Z"/><path class="cls-3" d="M50.62,144.78h0l0,0S46.65,134,41.37,119.4a111.91,111.91,0,0,1-3.27-19.29C37.22,89,36.63,80.14,42,75c2.42-2.32,5.49-3.36,5.25-3.95s-5.4-.44-8.61,2.15c-4,3.24-4.85,8.39-6.19,17.23-1.43,9.43,6.65,52.31,9.66,54.39Z"/><path class="cls-4" d="M117.84,10.85a.11.11,0,0,1-.07.09A158.91,158.91,0,0,0,72.09,32.37C59.76,40.83,54.9,46.89,52.66,50c-2,2.78-8.47,12.07-11.95,29.73-5.32,27,.64,51.52,5.1,65.13H8.67v-134h109C117.77,10.76,117.84,10.81,117.84,10.85Z"/><path class="cls-5" d="M79.43,78.1C76,77.59,71.17,77,65.32,76.45a112.49,112.49,0,0,0-14.39-.67C44,76,39.87,76.11,35.15,78c-6.87,2.78-7.33,6.29-12.58,8.66C18.45,88.54,11.66,89.67.5,85q.18-16.2.37-32.4l78.65-.11Z"/><circle class="cls-6" cx="17.64" cy="17.66" r="13.73"/><path class="cls-7" d="M30.29,15.21A14.72,14.72,0,1,1,15.58.5,14.72,14.72,0,0,1,30.29,15.21Z"/><line class="cls-8" x1="8.67" y1="130.76" x2="41.94" y2="130.76"/><line class="cls-8" x1="8.67" y1="116.7" x2="39.53" y2="116.7"/><line class="cls-8" x1="8.64" y1="102.65" x2="38.62" y2="102.65"/><line class="cls-8" x1="8.67" y1="46.42" x2="55.49" y2="46.42"/><line class="cls-8" x1="8.67" y1="32.37" x2="72.09" y2="32.37"/><line class="cls-8" x1="31.35" y1="18.31" x2="97.45" y2="18.31"/><g class="cls-9"><path class="cls-10" d="M47.39,72.14A22.86,22.86,0,0,0,35.28,74.2c-1,.49-1.16.68-8.56,5.74-4.88,3.33-5.62,3.82-6.9,4.31a18.48,18.48,0,0,1-10,.72l-.09-.54a19.11,19.11,0,0,0,9.78-1.35c2.18-1,2.63-1.69,6.73-4.49,4.67-3.18,7-4.81,10.07-5.82A22,22,0,0,1,47.39,72.14Z"/></g><path class="cls-11" d="M49.73,48.94a49.78,49.78,0,0,1,27-22.31c-1-.06-2-.1-3.11-.12s-2.39,0-3.52,0A46.3,46.3,0,0,0,42.91,47.92a28.69,28.69,0,0,1,4.49.48C48.23,48.55,49,48.74,49.73,48.94Z"/><path class="cls-11" d="M39.67,129.47a112.57,112.57,0,0,1-3-35.08H35.44c-.36,0-.72,0-1.07,0a67.88,67.88,0,0,0-.54,35.09H35.9C37.18,129.43,38.43,129.44,39.67,129.47Z"/><circle class="cls-12" cx="15.58" cy="15.21" r="12.41"/><line class="cls-13" x1="8.68" y1="7.6" x2="23.2" y2="7.6"/><line class="cls-13" x1="21.26" y1="9.36" x2="22.95" y2="7.67"/><line class="cls-13" x1="22.95" y1="21.84" x2="21.26" y2="20.14"/><line class="cls-14" x1="7.91" y1="22.41" x2="23.2" y2="22.41"/><line class="cls-13" x1="8.27" y1="21.83" x2="15.23" y2="14.94"/><line class="cls-14" x1="15.4" y1="15.11" x2="8.12" y2="7.83"/><line class="cls-15" x1="3.17" y1="15.56" x2="11.76" y2="15.56"/><line class="cls-15" x1="15.94" y1="3.06" x2="11.76" y2="15.56"/><line class="cls-12" x1="17.64" y1="21.48" x2="15.94" y2="3.06"/><line class="cls-15" x1="22.19" y1="15.3" x2="17.73" y2="21.56"/><line class="cls-15" x1="23.29" y1="17.74" x2="22.19" y2="15.3"/><line class="cls-15" x1="27.75" y1="17.66" x2="23.2" y2="17.66"/><text class="cls-16" transform="translate(4.41 69.35)"><tspan class="cls-17">С</tspan><tspan x="10.84" y="0">О </tspan><tspan class="cls-18" x="29.38" y="0">Р</tspan><tspan x="38.31" y="0">АН</tspan></text></g></g></g></svg>