<svg xmlns="http://www.w3.org/2000/svg" xmlns:xlink="http://www.w3.org/1999/xlink" viewBox="0 0 56.03 29.35"><defs><style>.cls-1{fill:url(#Безымянный_градиент_11);}.cls-2{fill:url(#Безымянный_градиент_11-2);}.cls-3{fill:url(#Безымянный_градиент_11-3);}.cls-4{fill:url(#Безымянный_градиент_11-4);}.cls-5{fill:url(#Безымянный_градиент_11-5);}.cls-6{fill:url(#Безымянный_градиент_11-6);}.cls-7{fill:url(#Безымянный_градиент_11-7);}.cls-8{fill:url(#Безымянный_градиент_11-8);}.cls-9{fill:url(#Безымянный_градиент_11-9);}.cls-10{fill:url(#Безымянный_градиент_11-10);}.cls-11{fill:url(#Безымянный_градиент_11-11);}.cls-12{fill:#8f90a6;}.cls-13{fill:#fff;}.cls-13,.cls-14{opacity:0.2;isolation:isolate;}.cls-15{fill:#555770;}</style><linearGradient id="Безымянный_градиент_11" y1="-69.7" x2="37.55" y2="-69.7" gradientTransform="matrix(1, 0, 0, -1, 0, -55.72)" gradientUnits="userSpaceOnUse"><stop offset="0" stop-color="#6bbe8a"/><stop offset="1" stop-color="#22797a"/></linearGradient><linearGradient id="Безымянный_градиент_11-2" y1="-75.7" x2="15.04" y2="-75.7" xlink:href="#Безымянный_градиент_11"/><linearGradient id="Безымянный_градиент_11-3" x1="7.33" y1="-67.73" x2="16.11" y2="-67.73" xlink:href="#Безымянный_градиент_11"/><linearGradient id="Безымянный_градиент_11-4" x1="16.9" y1="-69.12" x2="20.86" y2="-69.12" xlink:href="#Безымянный_градиент_11"/><linearGradient id="Безымянный_градиент_11-5" x1="19" y1="-70.92" x2="30" y2="-70.92" xlink:href="#Безымянный_градиент_11"/><linearGradient id="Безымянный_градиент_11-6" x1="23.23" y1="-75.61" x2="38.48" y2="-75.61" xlink:href="#Безымянный_градиент_11"/><linearGradient id="Безымянный_градиент_11-7" x1="19.6" y1="-75.05" x2="31.29" y2="-75.05" xlink:href="#Безымянный_градиент_11"/><linearGradient id="Безымянный_градиент_11-8" x1="18.31" y1="-71.93" x2="23.46" y2="-71.93" xlink:href="#Безымянный_градиент_11"/><linearGradient id="Безымянный_градиент_11-9" x1="16.28" y1="-70.78" x2="17.22" y2="-70.78" xlink:href="#Безымянный_градиент_11"/><linearGradient id="Безымянный_градиент_11-10" x1="9.98" y1="-67.57" x2="13.63" y2="-67.57" xlink:href="#Безымянный_градиент_11"/><linearGradient id="Безымянный_градиент_11-11" x1="3.71" y1="-76.76" x2="12.89" y2="-76.76" xlink:href="#Безымянный_градиент_11"/></defs><g id="Слой_2" data-name="Слой 2"><g id="Слой_1-2" data-name="Слой 1"><g id="Прочее"><path class="cls-1" d="M31.86,12.72A17.84,17.84,0,0,0,24.15,17a19,19,0,0,0-4.75,6.58c0,.13-.11.27-.18.43a33.56,33.56,0,0,1,2.15-8.54c1.85-4.5,4.75-7,8.37-10a12.63,12.63,0,0,0-3.41,1.37,16,16,0,0,0-4.41,3.87,21.78,21.78,0,0,0-1.66,2.58,26.25,26.25,0,0,0-2.35,7c-.13.6-.29,1.24-.44,1.9A92.42,92.42,0,0,1,18,12.36c.52-4.16,1.83-8,2.64-12.09a20.7,20.7,0,0,0-1.51,2.3,48.62,48.62,0,0,0-2.8,10.18,25.73,25.73,0,0,0-.2,4.39,23.82,23.82,0,0,0-2-7.78,12.37,12.37,0,0,0-2.93-3.8A7,7,0,0,0,7.06,4.25c4.91,3.52,6,9.68,6.43,15.68A7.74,7.74,0,0,0,9.8,16.3a11.85,11.85,0,0,0-9-.43,4.73,4.73,0,0,0-.57.43l-.18.18a9.4,9.4,0,0,1,8.1,2.66,13.48,13.48,0,0,1,3.58,4.93,20.66,20.66,0,0,1,1,3.62H23.88a.27.27,0,0,0-.07-.08c.15-.61.33-1.22.52-1.81a19.26,19.26,0,0,1,3.51-6.93,21,21,0,0,1,9.71-6.43C36.05,11.72,33.34,12.38,31.86,12.72Z"/><path class="cls-2" d="M7.67,14.94a10.48,10.48,0,0,0-3.44-.3l-.65.13A7.26,7.26,0,0,0,.18,16.3L0,16.48H.27A10.81,10.81,0,0,1,9,16.32c3.31,1.27,5,6,5.91,9,0,.06.13,0,.12-.07C14.37,20.68,12.49,16.23,7.67,14.94Z"/><path class="cls-3" d="M14.29,9.51a13.6,13.6,0,0,0-2.24-3.19A7,7,0,0,0,7.33,4.25c1,.48,3.07,1.47,3.17,1.55a11,11,0,0,1,3.1,4.11c1.49,3,1.82,6.54,2.39,9.82,0,.09.12,0,.12-.06A28.44,28.44,0,0,0,14.29,9.51Z"/><path class="cls-4" d="M20.86,0q-.49.65-.93,1.32a38.79,38.79,0,0,0-2.44,10.41,46.6,46.6,0,0,0,0,15c0,.18.27,0,.27-.12A98.26,98.26,0,0,1,20.86,0Z"/><path class="cls-5" d="M27.74,6.14C21.67,10,19,18,19,24.91c0,.17.22.07.24-.05C20.35,17,23.61,10.12,30,5.39A13,13,0,0,0,27.74,6.14Z"/><path class="cls-6" d="M27.84,18.87a21.61,21.61,0,0,1,10.64-6.73c-3.68-.33-7.07,1.61-9.77,4-2.87,2.58-5.89,7.4-5.44,11.53h.62A19.82,19.82,0,0,1,27.84,18.87Z"/><path class="cls-7" d="M31.27,13.08a18.4,18.4,0,0,0-7.67,5c-1.87,2.09-3.64,4.62-4,7.47,0,.13.17.08.19,0,1.46-5.84,6.14-10,11.47-12.37C31.3,13.14,31.3,13.06,31.27,13.08Z"/><path class="cls-8" d="M23.43,9.46A18.46,18.46,0,0,0,18.33,23c0,.05.08,0,.08,0A22.3,22.3,0,0,1,23.46,9.52S23.45,9.44,23.43,9.46Z"/><path class="cls-9" d="M17.22,10.44h0c-.26,1.46-.65,2.88-.79,4.36a30.08,30.08,0,0,0,0,4.84c0,.08.14,0,.14-.05,0-1.61,0-3.23.08-4.83C16.69,13.32,17,11.88,17.22,10.44Z"/><path class="cls-10" d="M12.57,11.29a11.29,11.29,0,0,0-2.57-5h0a14.72,14.72,0,0,1,2.39,5.36c.48,1.9.69,3.83,1.15,5.73,0,.07.11,0,.11-.05A32.55,32.55,0,0,0,12.57,11.29Z"/><path class="cls-11" d="M9.74,19.64a9.44,9.44,0,0,0-6-3.43s-.07.05,0,.06c4.53,1.25,7.58,5.22,9,9.57,0,.07.15,0,.13-.08A14.08,14.08,0,0,0,9.74,19.64Z"/><path class="cls-12" d="M55.63,27.2c1.62-2.85-2.11-9.94-7-10.25-5.38-.34-9.85,7.68-8.29,10.49.9,1.62,3.88,1.65,7.16,1.67S54.52,29.14,55.63,27.2Z"/><path class="cls-13" d="M42.43,20.3c1.89-.18,3.48-.64,4.15-1.82A3.12,3.12,0,0,0,47,17.14,8.78,8.78,0,0,0,42.43,20.3Z"/><path class="cls-14" d="M55.63,27.2A3.85,3.85,0,0,0,56,24.84a6.86,6.86,0,0,0-4.31-2.14c-3.52-.23-6.65,3.13-8,6.26q1.91.16,3.81.15C50.87,29.14,54.52,29.14,55.63,27.2Z"/><path class="cls-15" d="M33.84,27.76c.46-1.39-2.61-4.65-5.85-4.42-2.75.19-5.21,2.87-4.78,4.18.35,1.06,2.61,1.19,4.59,1.3C29.31,28.91,33.38,29.14,33.84,27.76Z"/><path class="cls-13" d="M27.39,23.71a.87.87,0,0,0,.05-.28,6.22,6.22,0,0,0-2.78,1.37C26,24.71,27.15,24.43,27.39,23.71Z"/><path class="cls-14" d="M24.9,28.52a20.22,20.22,0,0,0,2.9.3c1.51.09,5.58.32,6-1.06a.81.81,0,0,0,0-.31,6.22,6.22,0,0,0-4.48-1.75A6.07,6.07,0,0,0,24.9,28.52Z"/><path class="cls-12" d="M41,28.39c.81-1.42-1-5-3.49-5.12-2.69-.17-4.93,3.84-4.15,5.24.45.82,1.94.83,3.58.84S40.48,29.38,41,28.39Z"/><path class="cls-13" d="M34.43,24.94a2.51,2.51,0,0,0,2.08-.9,1.51,1.51,0,0,0,.18-.69A4.44,4.44,0,0,0,34.43,24.94Z"/><path class="cls-14" d="M41,28.39a1.92,1.92,0,0,0,.17-1.18,3.49,3.49,0,0,0-2.15-1.07c-1.76-.11-3.33,1.57-4,3.14.56.06,1.22.06,1.9.07C38.65,29.36,40.48,29.38,41,28.39Z"/><path class="cls-14" d="M41.2,27.26v-.05h0c-.21-1.64-1.75-3.82-3.66-3.94a2.71,2.71,0,0,0-.85.09h0a3.1,3.1,0,0,0-.6.23h0a3.65,3.65,0,0,0-.54.32l-.12.09a4.82,4.82,0,0,0-.43.36l-.07.07a5.35,5.35,0,0,0-.45.5h0c-1,1.22-1.48,2.8-1,3.57.27.48.89.67,1.68.76h0a4.63,4.63,0,0,1,.82,0h1c1.67,0,3.5,0,4-1a1.23,1.23,0,0,0,.16-.49v-.08A2.08,2.08,0,0,0,41.2,27.26Z"/></g></g></g></svg>