<svg xmlns="http://www.w3.org/2000/svg" viewBox="0 0 122.05 135.68"><defs><style>.cls-1{fill:#35293a;}.cls-2{fill:#534759;}.cls-3{fill:#215e2b;}.cls-4{fill:#4e5c08;}.cls-5{fill:#376840;}.cls-6{fill:#30663c;}.cls-7{fill:#538445;}.cls-8{fill:#3a7749;}.cls-9{fill:#5b934e;}.cls-10{fill:#a0c697;}.cls-11{fill:#447f50;}</style></defs><g id="Слой_2" data-name="Слой 2"><g id="Слой_1-2" data-name="Слой 1"><path class="cls-1" d="M50.49,63.13c2.92,5.28,10.2,20.43,10.68,26.45-.26,14.44-1.23,28.93-1.5,34.44a56.52,56.52,0,0,0,13,0s-3.8-17.58-4.58-30.18c0,0,6-15.54,10.74-28.66,0,0-10.49,18.29-11.8,20.91,0,0-3.05-20.78-3.94-36.66,0,0-.53,24.67-1,32.28C62,81.76,55.17,68.2,50.49,63.13Z"/><path class="cls-2" d="M54,68.88l.19.37c1.16,2.17,7.07,13.5,8,20.06,0,0-.59,28.3-1.3,33.35,0,0,1.3,1.06,5.41,1.18S71,122.43,71,122.43s-4.58-21.49-4.11-28.54c0,0,6.34-16.08,8-20.31,0,0-6.58,12.92-8.69,14.79,0,0-2.82-22.07-2.82-27.47s-.23,16.55-.94,23C62.45,83.91,57.05,73.34,54,68.88Z"/><path class="cls-3" d="M73.76,40.33c4.34-9.79,15.31-15.8,24.82-13.87,14.75,3,23.61,24.68,14.83,37.51-5.69,8.3-18.5,12.48-29,7.25C73,65.59,68.87,51.33,73.76,40.33Z"/><path class="cls-4" d="M94.25,25.69a4.41,4.41,0,0,0-.73-1.39,3.32,3.32,0,0,0-.63-.61,2.34,2.34,0,0,0-.77-.35,2,2,0,0,0-.91,0,3.8,3.8,0,0,0-.47.18,3.08,3.08,0,0,0-.48.32,5.82,5.82,0,0,0-1.68,2.93,5.19,5.19,0,0,0-1.67-1.26,4.3,4.3,0,0,0-1.84-.41,5.63,5.63,0,0,0-3.41,1.17,6.38,6.38,0,0,0-2.06,2.57,3,3,0,0,0-.18,2.32,14.26,14.26,0,0,0-2.86-1,4.61,4.61,0,0,0-2.18.19,4.76,4.76,0,0,0-1.17.59,6,6,0,0,0-1.14,1c-.17.21-.34.43-.49.65s-.25.43-.36.65a4.67,4.67,0,0,0-.42,1.26,4,4,0,0,0,0,1.19,4.56,4.56,0,0,0,.26,1.09,9.17,9.17,0,0,0,2.74,3.46,25.62,25.62,0,0,0,4.28.32A3.64,3.64,0,0,0,81.22,39a4.38,4.38,0,0,0,.4-3.62c-.29-1.19-.79-2.26-.86-2.77a3.68,3.68,0,0,0,2.13.45,7.28,7.28,0,0,0,2.57-.57c1.64-.71,3-2.1,3.36-5.14a11.26,11.26,0,0,0,2.55,1.84,1.71,1.71,0,0,0,.44.13,1.28,1.28,0,0,0,.39,0,1.23,1.23,0,0,0,.64-.22,1.87,1.87,0,0,0,.51-.5,3.62,3.62,0,0,0,.41-.68,6.86,6.86,0,0,0,.52-1.46,8.32,8.32,0,0,0,.78,1.44A8.85,8.85,0,0,0,96,29.08a5.18,5.18,0,0,0,2.08,1.37,3.36,3.36,0,0,0,1.18.15,2.82,2.82,0,0,0,.65-.08,5.69,5.69,0,0,0,1.45-.47,7.61,7.61,0,0,0,.81-.4A14,14,0,0,0,104,28.44a5.93,5.93,0,0,0-.12-2.22,4.51,4.51,0,0,0-.33-1,5.29,5.29,0,0,0-1.15-1.54,5.81,5.81,0,0,0-.76-.54,5,5,0,0,0-1.75-.66,5.14,5.14,0,0,0-3.48.56A4.7,4.7,0,0,0,94.25,25.69Z"/><path class="cls-5" d="M117.25,50.2a4.74,4.74,0,0,0,1.37-.77,2.55,2.55,0,0,0,.94-1.38,1.83,1.83,0,0,0,0-.87,2,2,0,0,0-.17-.47,3.55,3.55,0,0,0-.32-.47,4.33,4.33,0,0,0-1.09-.91,8.27,8.27,0,0,0-1.8-.79,5.17,5.17,0,0,0,1.33-1.61,4.52,4.52,0,0,0,.36-.88,4.45,4.45,0,0,0,.15-.9,4.61,4.61,0,0,0,0-.91,6.54,6.54,0,0,0-.18-.88,5.33,5.33,0,0,0-.29-.85c-.13-.27-.28-.53-.43-.78a6.56,6.56,0,0,0-1.71-1.83,7.06,7.06,0,0,0-.65-.4,3,3,0,0,0-2.28-.39,14.71,14.71,0,0,0,1.25-2.74,4.47,4.47,0,0,0,.06-2.18,4.61,4.61,0,0,0-.45-1.22,6.55,6.55,0,0,0-.91-1.25A5.55,5.55,0,0,0,110,26.17a4.31,4.31,0,0,0-2.31,0,5.27,5.27,0,0,0-1,.38,7.59,7.59,0,0,0-1,.57A15.43,15.43,0,0,0,104,28.53c-.16.71-.33,1.44-.48,2.15q-.11.54-.18,1.05c0,.34-.09.69-.11,1a5,5,0,0,0,.19,1.8,3.2,3.2,0,0,0,1,1.47,3.13,3.13,0,0,0,.83.52,3.08,3.08,0,0,0,.89.28,6.37,6.37,0,0,0,1.85,0c1.23-.16,2.34-.54,2.85-.56a3.76,3.76,0,0,0-.65,2.08V39a2.54,2.54,0,0,0,.06.67,7.53,7.53,0,0,0,.3,1.33c.08.22.17.43.27.64s.21.42.34.62a5,5,0,0,0,.45.56,4.42,4.42,0,0,0,.53.53,4.79,4.79,0,0,0,.65.46,6.18,6.18,0,0,0,.77.39,8.71,8.71,0,0,0,2,.54,15.44,15.44,0,0,0-1.18,1.49,4.85,4.85,0,0,0-.66,1.12,2.32,2.32,0,0,0-.13.45,1.41,1.41,0,0,0,0,.41,1.45,1.45,0,0,0,.23.67,3,3,0,0,0,1.2.93,7.14,7.14,0,0,0,1.48.49,6.8,6.8,0,0,0-1.42.84c-.2.16-.4.32-.59.5s-.36.35-.52.53a5.17,5.17,0,0,0-1.21,2.33,4.43,4.43,0,0,0,0,1.26,5.7,5.7,0,0,0,.41,1.35,11.06,11.06,0,0,0,2.21,3.12,5.58,5.58,0,0,0,3.83-1.47,4.69,4.69,0,0,0,1.06-1.51,4.91,4.91,0,0,0,.44-1.73,5.12,5.12,0,0,0-.85-3.29,5.29,5.29,0,0,0-.51-.66,6.53,6.53,0,0,0-.63-.55A5,5,0,0,0,117.25,50.2Z"/><path class="cls-6" d="M94.55,74a4.52,4.52,0,0,0,.69,1.41,3.27,3.27,0,0,0,.6.63,2.24,2.24,0,0,0,.75.39,1.64,1.64,0,0,0,.88,0,2.28,2.28,0,0,0,1-.45,5.71,5.71,0,0,0,1.82-2.84,5.75,5.75,0,0,0,.76.8,4.59,4.59,0,0,0,2.63,1.1,5.71,5.71,0,0,0,3.48-.94,6.36,6.36,0,0,0,2.23-2.46,3,3,0,0,0,.31-2.31,11,11,0,0,1,1.1.51,7.63,7.63,0,0,0,1.73.57,5.4,5.4,0,0,0,1.06.07,3.78,3.78,0,0,0,1.16-.21,4.53,4.53,0,0,0,1.21-.59,4.81,4.81,0,0,0,.62-.47,5.67,5.67,0,0,0,.59-.61,6.22,6.22,0,0,0,.91-1.36,5.51,5.51,0,0,0,.43-1.32,5.82,5.82,0,0,1,.08-.62,3.11,3.11,0,0,0,0-.61,4.74,4.74,0,0,0-.27-1.11,5.93,5.93,0,0,0-1.22-1.87,15,15,0,0,0-1.73-1.46L113.16,60a17.87,17.87,0,0,0-2.07,0,7.4,7.4,0,0,0-.93.12l-.41.11a3.17,3.17,0,0,0-.4.14,2.3,2.3,0,0,0-.68.43,2.85,2.85,0,0,0-.59.66,2.3,2.3,0,0,0-.23.4,1.94,1.94,0,0,0-.17.42,3.72,3.72,0,0,0-.17.87,6.76,6.76,0,0,0,0,.9,4.78,4.78,0,0,0,.14.91,15.45,15.45,0,0,0,.45,1.65,7.32,7.32,0,0,1,.29,1.14,3.77,3.77,0,0,0-2-.58,7.1,7.1,0,0,0-2.58.39,5.08,5.08,0,0,0-2.26,1.56,5.92,5.92,0,0,0-.86,1.4c-.12.3-.23.6-.32.91a9.39,9.39,0,0,0-.24,1.05,10.58,10.58,0,0,0-2.51-2,2.15,2.15,0,0,0-.83-.2,1.47,1.47,0,0,0-.67.19,1.94,1.94,0,0,0-.54.49,4.73,4.73,0,0,0-.44.66,7.53,7.53,0,0,0-.57,1.45,7.7,7.7,0,0,0-1.69-2.64,5,5,0,0,0-2.21-1.37A3.81,3.81,0,0,0,89.39,69a4.61,4.61,0,0,0-1.37.3,7.35,7.35,0,0,0-.76.34,7,7,0,0,0-.79.45,13.87,13.87,0,0,0-1.73,1.32A6.66,6.66,0,0,0,85,73.6a7.61,7.61,0,0,0,.39.93,6.12,6.12,0,0,0,.54.79,4.94,4.94,0,0,0,3.12,1.74,5.23,5.23,0,0,0,3.36-.6,4.91,4.91,0,0,0,2.15-2.52Z"/><path class="cls-6" d="M71.31,50.2a4.74,4.74,0,0,0-1.41.69,2.6,2.6,0,0,0-1,1.33,2.17,2.17,0,0,0-.08.43,3.38,3.38,0,0,0,0,.45,2.44,2.44,0,0,0,.44,1,4.13,4.13,0,0,0,1,1A7.46,7.46,0,0,0,72,56a4.8,4.8,0,0,0-1.94,3.37,5.76,5.76,0,0,0,.91,3.5,7.4,7.4,0,0,0,.53.72,5.86,5.86,0,0,0,.6.62,5.58,5.58,0,0,0,1.3.92,3.8,3.8,0,0,0,1.26.41,2,2,0,0,0,1-.08,10.88,10.88,0,0,1-.52,1.09,7.64,7.64,0,0,0-.6,1.72,4.72,4.72,0,0,0,.09,2.21,5.31,5.31,0,0,0,.22.6,4.47,4.47,0,0,0,.33.61c.14.22.29.42.44.62s.38.4.58.59a5.83,5.83,0,0,0,1.29.92,4.53,4.53,0,0,0,1.27.47,4.19,4.19,0,0,0,2.3-.14A6.51,6.51,0,0,0,83,73a12.94,12.94,0,0,0,1.6-1.54,26.41,26.41,0,0,0,.44-4.26,4.71,4.71,0,0,0-.32-1.78,3,3,0,0,0-.44-.73,3.39,3.39,0,0,0-.67-.64,4.28,4.28,0,0,0-.42-.26,4.08,4.08,0,0,0-.42-.19,3.17,3.17,0,0,0-.44-.12,3.11,3.11,0,0,0-.44-.07,6.54,6.54,0,0,0-1.82.11c-1.21.23-2.3.66-2.82.71a2.59,2.59,0,0,0,.43-.92,5.25,5.25,0,0,0,.17-1.18,7,7,0,0,0-.06-1.29,3.89,3.89,0,0,0-.12-.65,4.67,4.67,0,0,0-.18-.64c-.59-1.68-1.87-3.17-4.88-3.74a12.25,12.25,0,0,0,1.28-1.41,5.17,5.17,0,0,0,.71-1.08,1.77,1.77,0,0,0,.21-.84,1,1,0,0,0-.06-.35,1,1,0,0,0-.13-.32,2.9,2.9,0,0,0-1.14-1,7.32,7.32,0,0,0-1.45-.58,7.4,7.4,0,0,0,2.64-1.7,4.94,4.94,0,0,0,.85-1.08c.11-.19.22-.38.31-.57a4.22,4.22,0,0,0,.2-.6A3.61,3.61,0,0,0,76.16,45a4.72,4.72,0,0,0-.33-1.38A7.12,7.12,0,0,0,75,42.1a11.14,11.14,0,0,0-1.36-1.7,6.64,6.64,0,0,0-2.21.31,5.33,5.33,0,0,0-1.69.95,5.07,5.07,0,0,0-1.69,3.12,4.31,4.31,0,0,0,0,.88,6.11,6.11,0,0,0,.09.86,5.25,5.25,0,0,0,.59,1.59A5,5,0,0,0,71.31,50.2Z"/><path class="cls-7" d="M77.16,32c5.28-8.88,17.13-10.5,25.14-7.63,12.72,4.54,20.14,22,13.55,32-6.14,9.33-23.12,10.23-32.77,1.92C76.45,52.6,71.73,41.2,77.16,32Z"/><path class="cls-8" d="M98.15,23a4.65,4.65,0,0,0-.41-1.5,2.43,2.43,0,0,0-1.06-1.2,1.63,1.63,0,0,0-.79-.17,2.11,2.11,0,0,0-.94.29,4.38,4.38,0,0,0-1,.87,8.57,8.57,0,0,0-1,1.6,4.53,4.53,0,0,0-2.76-2.5,5.05,5.05,0,0,0-3.34.22,5.77,5.77,0,0,0-2.43,1.91,2.92,2.92,0,0,0-.62,2.17c-.22-.13-.54-.41-1-.72A7.43,7.43,0,0,0,81.31,23a4,4,0,0,0-2.13-.28,4.73,4.73,0,0,0-2.54,1.12A5,5,0,0,0,75,26.14a3.76,3.76,0,0,0-.2,1.15,5,5,0,0,0,0,.55c0,.19.06.37.1.55a8.87,8.87,0,0,0,2.33,3.68,39.81,39.81,0,0,0,4.1,1l.45,0h.44a3.46,3.46,0,0,0,.79-.06,2.26,2.26,0,0,0,1.3-.7A2.77,2.77,0,0,0,85,30.93a7.89,7.89,0,0,0,.08-.85v-.89a11.89,11.89,0,0,0-.21-1.67,7.36,7.36,0,0,1-.13-1.15,3.79,3.79,0,0,0,1.84,1,5.75,5.75,0,0,0,2.37.17,3.92,3.92,0,0,0,2.27-1,6.87,6.87,0,0,0,1.81-3A17.93,17.93,0,0,0,94.09,25a4.72,4.72,0,0,0,.86.87,1.65,1.65,0,0,0,.72.34,1.08,1.08,0,0,0,.64-.08,2.75,2.75,0,0,0,1.06-1,6.51,6.51,0,0,0,.74-1.34,7.88,7.88,0,0,0,1.13,2.84,4.15,4.15,0,0,0,1.77,1.6,2.57,2.57,0,0,0,1.09.26,4.06,4.06,0,0,0,1.3-.15,7.69,7.69,0,0,0,1.55-.61,12.52,12.52,0,0,0,1.82-1.12,6.39,6.39,0,0,0,.13-2.18,4.82,4.82,0,0,0-.56-1.77,4.39,4.39,0,0,0-1.12-1.31,4.77,4.77,0,0,0-1.48-.78,4.7,4.7,0,0,0-3.18.19A4.9,4.9,0,0,0,98.15,23Z"/><path class="cls-8" d="M118.7,46.67a4.52,4.52,0,0,0,1.39-.69,2.37,2.37,0,0,0,1-1.29,1.63,1.63,0,0,0,0-.82,2.1,2.1,0,0,0-.48-.86,2.63,2.63,0,0,0-.45-.43,4.44,4.44,0,0,0-.62-.41,8,8,0,0,0-1.78-.7,5.12,5.12,0,0,0,1.36-1.53,4.28,4.28,0,0,0,.55-1.67,5,5,0,0,0-.83-3.17c-.15-.22-.31-.44-.48-.65a5.71,5.71,0,0,0-.55-.55c-.2-.17-.39-.32-.59-.46a4.65,4.65,0,0,0-.62-.34,3,3,0,0,0-2.21-.28,15.23,15.23,0,0,0,1.34-2.64,4.36,4.36,0,0,0,.16-2.06,4.55,4.55,0,0,0-1.14-2.31,6.32,6.32,0,0,0-1.07-.93,4.83,4.83,0,0,0-1.11-.5,3.37,3.37,0,0,0-1.1-.16,4.3,4.3,0,0,0-1,.14,6.7,6.7,0,0,0-2,.91,16.1,16.1,0,0,0-1.74,1.34c-.2.68-.44,1.4-.64,2.09a13.47,13.47,0,0,0-.45,2,7.12,7.12,0,0,0-.07.92,4.71,4.71,0,0,0,.11.84,2.95,2.95,0,0,0,.91,1.43,3.1,3.1,0,0,0,1.61.74,5.72,5.72,0,0,0,1.8-.05c1.2-.19,2.29-.59,2.79-.63a3.7,3.7,0,0,0-.71,2v1.23a6,6,0,0,0,.1.61,4.21,4.21,0,0,0,.16.61c.54,1.58,1.82,2.9,4.82,3.26-.51.52-.94,1-1.25,1.37-.14.18-.27.36-.4.55s-.19.31-.28.47a1.71,1.71,0,0,0-.18.77,1.16,1.16,0,0,0,.2.6,3.08,3.08,0,0,0,1.18.84,8.63,8.63,0,0,0,1.47.46,8.56,8.56,0,0,0-2.59,1.6c-.16.16-.3.31-.44.47s-.26.31-.38.48a3.64,3.64,0,0,0-.46,1,4.71,4.71,0,0,0-.09.52,4.86,4.86,0,0,0,0,.54,3.82,3.82,0,0,0,.11.57c.06.2.15.41.23.62a14.48,14.48,0,0,0,2.06,3.13,5.1,5.1,0,0,0,3.92-.86,3.63,3.63,0,0,0,.67-.63,4.12,4.12,0,0,0,.52-.72,4.73,4.73,0,0,0,.35-.8,3.51,3.51,0,0,0,.2-.85,4.32,4.32,0,0,0-.07-1.68,5.53,5.53,0,0,0-.24-.79,4.1,4.1,0,0,0-.39-.71,4.23,4.23,0,0,0-1.1-1.17A5,5,0,0,0,118.7,46.67Z"/><path class="cls-8" d="M95.11,64.12a3.55,3.55,0,0,0,1.43,2.71,1.73,1.73,0,0,0,1.72-.08,5.67,5.67,0,0,0,2.12-2.43A5.18,5.18,0,0,0,101.56,66a4.73,4.73,0,0,0,.72.55,4,4,0,0,0,.79.36,4.54,4.54,0,0,0,1.67.24A5.55,5.55,0,0,0,107.81,66a4.65,4.65,0,0,0,.59-.49,3.57,3.57,0,0,0,.48-.55,2.91,2.91,0,0,0,.71-2.13A12.86,12.86,0,0,0,112,64.58a4.4,4.4,0,0,0,2.11.41,5,5,0,0,0,1.27-.29,5.48,5.48,0,0,0,1.35-.77,5.94,5.94,0,0,0,1.12-1.12,5.55,5.55,0,0,0,.66-1.19,4,4,0,0,0,.14-2.31,8.06,8.06,0,0,0-2.34-3.69c-1.41-.34-2.85-.78-4.08-1a5.56,5.56,0,0,0-1.63-.11,2,2,0,0,0-.67.19,1.87,1.87,0,0,0-.59.42,2.16,2.16,0,0,0-.44.63,3,3,0,0,0-.25.76,7.12,7.12,0,0,0-.12,1.72c0,1.17.26,2.35.21,2.83a4.74,4.74,0,0,0-2.37-1.22,5.59,5.59,0,0,0-.59-.11,6.12,6.12,0,0,0-1.21,0c-1.61.18-3.19,1.1-4.22,4a9.67,9.67,0,0,0-1.91-2.41A1.27,1.27,0,0,0,97.08,61a4.66,4.66,0,0,0-1.84,2.31,7,7,0,0,0-.45-1.55,6.4,6.4,0,0,0-.69-1.29,4.34,4.34,0,0,0-1.86-1.61,3.31,3.31,0,0,0-.56-.17,3,3,0,0,0-.6-.07,4.61,4.61,0,0,0-1.33.2,8,8,0,0,0-1.53.68,15.28,15.28,0,0,0-1.75,1.23,6.59,6.59,0,0,0,0,2.17,4.87,4.87,0,0,0,.64,1.74,4.23,4.23,0,0,0,1.14,1.24,7.31,7.31,0,0,0,.7.43,5.29,5.29,0,0,0,.76.27,4.65,4.65,0,0,0,4.42-1.12A5.09,5.09,0,0,0,95.11,64.12Z"/><path class="cls-8" d="M74.37,40.88a5.34,5.34,0,0,0-1.42.64,3.31,3.31,0,0,0-.62.56,2.1,2.1,0,0,0-.39.7,1.67,1.67,0,0,0,0,.83,2.19,2.19,0,0,0,.45.9,4.15,4.15,0,0,0,1,.87,7.59,7.59,0,0,0,1.77.73,4.64,4.64,0,0,0-1.94,3.2,5,5,0,0,0,.83,3.2,5.76,5.76,0,0,0,2.27,2,4.26,4.26,0,0,0,1.2.36,2.25,2.25,0,0,0,1-.1,16.32,16.32,0,0,0-1.29,2.66,4.58,4.58,0,0,0-.11,2.08,4.21,4.21,0,0,0,.41,1.16,4.88,4.88,0,0,0,.85,1.16,5.25,5.25,0,0,0,1.14.91,4.48,4.48,0,0,0,1.15.49,4.14,4.14,0,0,0,2.18-.08,6.4,6.4,0,0,0,1.92-1,15.27,15.27,0,0,0,1.67-1.44c.17-.7.35-1.41.52-2.12a13.7,13.7,0,0,0,.34-2,4.59,4.59,0,0,0-.12-1.73,2.12,2.12,0,0,0-.32-.72,2.83,2.83,0,0,0-.58-.62A4,4,0,0,0,82.91,53a16.49,16.49,0,0,0-1.65.4,7.18,7.18,0,0,1-1.13.28,2.24,2.24,0,0,0,.47-.87,4.28,4.28,0,0,0,.22-1.12,5.72,5.72,0,0,0-.26-2.43,4.09,4.09,0,0,0-1.48-2.06A6.8,6.8,0,0,0,75.77,46a17.66,17.66,0,0,0,1.28-1.35,4.61,4.61,0,0,0,.7-1,1.66,1.66,0,0,0,.21-.75,1,1,0,0,0-.19-.59,1.69,1.69,0,0,0-.48-.48,3.1,3.1,0,0,0-.66-.39,8,8,0,0,0-1.44-.52,7.68,7.68,0,0,0,1.46-.66,6.91,6.91,0,0,0,1.18-.82,4.05,4.05,0,0,0,1.38-1.84,3.29,3.29,0,0,0-.14-2.29,8.43,8.43,0,0,0-.72-1.48,14.83,14.83,0,0,0-1.22-1.75,6.71,6.71,0,0,0-2.19,0,4.88,4.88,0,0,0-1.75.72,4.47,4.47,0,0,0-1.87,2.87,4.77,4.77,0,0,0,.52,3.23,3.88,3.88,0,0,0,2.53,2Z"/><path class="cls-9" d="M77.42,29c3.94-6.1,19.54-5,28.68,2.67,6.46,5.39,12.07,16,8.11,21.77s-15.31,4.25-22.3.81C81.14,48.94,73.44,35.14,77.42,29Z"/><path class="cls-9" d="M102.66,28.75a4.36,4.36,0,0,0,.11-1.57,3.41,3.41,0,0,0-.19-.84,2.36,2.36,0,0,0-.45-.72,2.13,2.13,0,0,0-1.81-.62,4.8,4.8,0,0,0-1.38.38,9.36,9.36,0,0,0-1.7,1A5.13,5.13,0,0,0,92,21.71a6.72,6.72,0,0,0-3.27.66,4.18,4.18,0,0,0-1.09.78,2.08,2.08,0,0,0-.56.89,13.73,13.73,0,0,0-1.65-2.55,4.59,4.59,0,0,0-1.93-1.21,5.55,5.55,0,0,0-3.18,0,6.53,6.53,0,0,0-3.08,1.78,5.07,5.07,0,0,0-.87,1.23c-.1.21-.18.42-.26.64a3.61,3.61,0,0,0-.15.65A4.61,4.61,0,0,0,76.26,27a6.94,6.94,0,0,0,1.16,1.94,13.7,13.7,0,0,1,2,.75,18.26,18.26,0,0,1,1.75.93l.36.21.34.2a3.83,3.83,0,0,0,.61.3,1.62,1.62,0,0,0,1.26-.06A4.85,4.85,0,0,0,86,28.7c.54-1.09.84-2.26,1.11-2.68a2.78,2.78,0,0,0,.51.88,5.25,5.25,0,0,0,.88.82,7.27,7.27,0,0,0,2.44,1.22c1.83.49,3.93.28,6-2a16.47,16.47,0,0,0,.56,1.85A5.66,5.66,0,0,0,98.14,30a1.64,1.64,0,0,0,1.34.83,1.83,1.83,0,0,0,.74-.13,4.5,4.5,0,0,0,.74-.33,6.38,6.38,0,0,0,1.24-.95,7.54,7.54,0,0,0,.2,3.17,5.39,5.39,0,0,0,.53,1.29,4.32,4.32,0,0,0,.79,1,4.65,4.65,0,0,0,2.49,1.22,9.26,9.26,0,0,0,4-.29,5.92,5.92,0,0,0,.76-4,5.22,5.22,0,0,0-1.89-3,5.35,5.35,0,0,0-3.26-1.16A5,5,0,0,0,102.66,28.75Z"/><path class="cls-9" d="M107.53,57.45a4.73,4.73,0,0,0,.92,1.3,4,4,0,0,0,.73.51,2.49,2.49,0,0,0,.88.23,2.12,2.12,0,0,0,1-.18,1.92,1.92,0,0,0,.5-.29,2.22,2.22,0,0,0,.48-.44,3.2,3.2,0,0,0,.43-.61,4.44,4.44,0,0,0,.35-.77,5.21,5.21,0,0,0,.21-1,5.06,5.06,0,0,0,0-1.1,3.46,3.46,0,0,0,1.08.33,2.86,2.86,0,0,0,1.09,0,4,4,0,0,0,2-1,5.13,5.13,0,0,0,.8-.88c.11-.17.22-.34.32-.52a4.53,4.53,0,0,0,.27-.54l.21-.56c.06-.19.1-.38.15-.57a6.13,6.13,0,0,0,.14-1.13,6,6,0,0,0-1-3.64,2.92,2.92,0,0,0-2-1.36c.18-.21.51-.46.9-.82.2-.18.41-.38.62-.61a7.26,7.26,0,0,0,.59-.78,4.66,4.66,0,0,0,.75-2.13,5.36,5.36,0,0,0-.52-2.84,4.74,4.74,0,0,0-3.88-3,7.15,7.15,0,0,0-2.21.16,20.15,20.15,0,0,0-2.13.66c-.41.6-.84,1.22-1.22,1.84a12,12,0,0,0-1,1.87,4,4,0,0,0,.18,3.73,3.54,3.54,0,0,0,1.39,1.35,5.23,5.23,0,0,0,.84.37,6.88,6.88,0,0,0,.89.24l.89.15.8.11a7.51,7.51,0,0,1,1.17.19,2.86,2.86,0,0,0-.76.67,8.15,8.15,0,0,0-.65,1,12,12,0,0,0-.91,2.08,4.05,4.05,0,0,0-.12.47v.45a.81.81,0,0,1,0,.22v.24a4.54,4.54,0,0,0,.09.51c.08.37.2.81.34,1.35.06.26.14.56.22.88s.18.66.28,1c-1.43-.5-2.24-.93-2.85-1.08l-.41-.07a1.93,1.93,0,0,0-.34,0,1.16,1.16,0,0,0-.54.3,5.45,5.45,0,0,0-1.07,2.79,8.4,8.4,0,0,0-2-2.4A5,5,0,0,0,103,53.07a4.56,4.56,0,0,0-2.76.49,9.37,9.37,0,0,0-3,2.6,6,6,0,0,0,1.82,3.69,5.1,5.1,0,0,0,3.29,1.32,5.43,5.43,0,0,0,3.33-1A4.68,4.68,0,0,0,107.53,57.45Z"/><path class="cls-9" d="M77.3,39.2a5.13,5.13,0,0,0-1,1.18,4.41,4.41,0,0,0-.35.8,2.23,2.23,0,0,0-.07.85,1.81,1.81,0,0,0,.3.85,2.37,2.37,0,0,0,.77.74,6,6,0,0,0,3.32.71,5.46,5.46,0,0,0-.72,2,5.59,5.59,0,0,0,0,1,7.06,7.06,0,0,0,.15.92,5.89,5.89,0,0,0,2,3,6.87,6.87,0,0,0,3,1.43,4.57,4.57,0,0,0,1.33,0,2.12,2.12,0,0,0,1-.36,16.81,16.81,0,0,0-.34,3,4.79,4.79,0,0,0,.63,2.12,5.41,5.41,0,0,0,2.11,2,4.72,4.72,0,0,0,5,.12,10,10,0,0,0,3-3.27,20.09,20.09,0,0,0-.47-4.3,4,4,0,0,0-2.34-2.86,4.63,4.63,0,0,0-3.73.26c-1.14.51-2.09,1.21-2.57,1.38a2.61,2.61,0,0,0,.14-1,4.43,4.43,0,0,0-.2-1.2,6.54,6.54,0,0,0-.49-1.27,7.45,7.45,0,0,0-.74-1.2,5.73,5.73,0,0,0-6-2.08A9.67,9.67,0,0,0,81.8,41a2,2,0,0,0-.13-.88,1.32,1.32,0,0,0-.44-.58,2.3,2.3,0,0,0-.66-.34,4.11,4.11,0,0,0-.79-.17,6.7,6.7,0,0,0-1.55,0,7.59,7.59,0,0,0,1.07-1.26,8.07,8.07,0,0,0,.75-1.31,5.72,5.72,0,0,0,.57-2.4,3.17,3.17,0,0,0-.82-2c-.79-.93-1.54-1.91-2.24-2.92a4.1,4.1,0,0,0-2.79.53,4.73,4.73,0,0,0-.46.32q-.21.18-.42.39a3.62,3.62,0,0,0-.36.42c-.11.16-.22.31-.32.48s-.17.32-.25.49a4.71,4.71,0,0,0-.21.52,2.78,2.78,0,0,1-.14.53,5.12,5.12,0,0,0-.1.54v1l.06.51a5.36,5.36,0,0,0,1.76,3.25,5,5,0,0,0,1.48.86A4.75,4.75,0,0,0,77.3,39.2Z"/><path class="cls-10" d="M80.06,28.5c-1.45,2.94,7.64,10.14,14,15.21s14.79,11.72,17.38,9.67-.48-12.5-7.31-18.91C95.58,26.42,81.62,25.34,80.06,28.5Z"/><path class="cls-10" d="M94.57,43.55A4,4,0,0,0,95,40.66c-.37-.81-1.47-1.11-4.13,0,1-2.83,0-4.59-1.39-5.49l-.13-.08s-.1-.06-.11-.05h-1.4a17.68,17.68,0,0,0-2.3.18A10.56,10.56,0,0,1,88.06,34a9.39,9.39,0,0,1,1.63-.45,4.2,4.2,0,0,1,1-.06,7,7,0,0,1-.76-.19,20.93,20.93,0,0,1-2.51-.91,53.88,53.88,0,0,1-7.32-3.87c-.34-.07-.69-.12-1-.16s-.69-.06-1-.07a6.73,6.73,0,0,0-1,.07,4.28,4.28,0,0,0-.92.23,2.45,2.45,0,0,0-1.39,1.1,3.43,3.43,0,0,0-.19.44,3.09,3.09,0,0,0-.07.52,3.14,3.14,0,0,0,.26,1.32,5.6,5.6,0,0,0,2.1,2.47,5.32,5.32,0,0,0,.67.42c.24.13.48.24.71.34a7.75,7.75,0,0,0,1.38.47,11.25,11.25,0,0,0,2.38.31h1.52A1.59,1.59,0,0,0,83,37.79a5.18,5.18,0,0,0,.65,1.46c.17.27.36.54.55.79s.21.26.33.39a.65.65,0,0,1,.13.16l.11.12c1.19,1.35,3.2,2,5.77.47-.57,2.85,0,3.89.87,4.06a4,4,0,0,0,2.73-1.06,4.76,4.76,0,0,0,.84,5.3c1.26,1.12,3.44,1.28,6-.55.92-3,.3-5-1-5.88S96.43,42.29,94.57,43.55Z"/><path class="cls-10" d="M110.31,44.2c-.42.11-.94.27-1.4.42a4.13,4.13,0,0,0-1,.41c-.17.15-.11.31.45.73s1.6,1.11,3.4,2.65c-1.76-.51-2.9-.89-3.6-1.07a1.43,1.43,0,0,0-.71-.06c-.14,0-.2.19-.23.4a8,8,0,0,0,.08,1.76,14.58,14.58,0,0,0,.5,2.45,38.84,38.84,0,0,1-2.14-4.22,20,20,0,0,1-.82-2.16,4.82,4.82,0,0,1-.22-1,2.28,2.28,0,0,1-.11.45,4.82,4.82,0,0,1-.66,1.17,10.09,10.09,0,0,1-1.25,1.44,9,9,0,0,1-.8.71L101,49l-.38,1A5,5,0,0,0,100.3,51a5.67,5.67,0,0,0,.12,2.39A5.92,5.92,0,0,0,101,54.7a7.29,7.29,0,0,0,.92,1.28,9.43,9.43,0,0,0,1.34,1.19,8.57,8.57,0,0,0,.81.52c.29.16.59.3.9.44a5.92,5.92,0,0,0,.87.29,3.26,3.26,0,0,0,.75.12,3.42,3.42,0,0,0,.64,0,3.8,3.8,0,0,0,.51-.15,2,2,0,0,0,1.09-1.31,9.28,9.28,0,0,0,.13-2.63A4.76,4.76,0,0,0,111,56.26l.37.14.38.09a1.74,1.74,0,0,0,.39,0,1.27,1.27,0,0,0,.39,0,3.57,3.57,0,0,0,.8-.18,2.3,2.3,0,0,0,.39-.17c.11-.08.23-.15.34-.24a4.61,4.61,0,0,0,.58-.59l.21-.36c.06-.12.11-.25.16-.38a3.43,3.43,0,0,0,.1-1.77,7.16,7.16,0,0,0-2.61-4,2.27,2.27,0,0,0,2.24-1,1.44,1.44,0,0,0,.15-.91,2.55,2.55,0,0,0-.36-.91A4.16,4.16,0,0,0,113,44.69a5.73,5.73,0,0,0-1.73-.55,2.73,2.73,0,0,0,1.2-.89,3,3,0,0,0,.59-1.46,4.41,4.41,0,0,0,0-.89,3.84,3.84,0,0,0,0-.48V40a3.73,3.73,0,0,0-2.61-3.2,4.81,4.81,0,0,0-1.73-.2,7.44,7.44,0,0,0-2.08.45c-1.67,2.7-1.81,4.52-1,5.7a3.17,3.17,0,0,0,.78.77c.15.1.26.07.42.1l.5.06C108,43.73,109,43.94,110.31,44.2Z"/><path class="cls-10" d="M88.12,27.51c.3.49.68,1.1,1,1.64A12.74,12.74,0,0,0,90,30.44c.24.25.4.27.67-.07.14-.16.32-.41.58-.76a10.65,10.65,0,0,1,1.13-1.29c.2,3,1.45,4.21,2.92,4.64a5.12,5.12,0,0,0,2.27.06,3.52,3.52,0,0,0,1.84-.88c0,.48-.4,1.59-.56,2.76a3.67,3.67,0,0,0,.69,3.18,2.22,2.22,0,0,0,1.36.68,4.6,4.6,0,0,0,1.69-.17A25.77,25.77,0,0,0,106.48,37a10.35,10.35,0,0,0,2-3.76,3.77,3.77,0,0,0-.06-2,4.06,4.06,0,0,0-1.42-1.9,4,4,0,0,0-2.2-.84,4.38,4.38,0,0,0-1.92.39,19.42,19.42,0,0,0-2.44,1.56,2.88,2.88,0,0,0-.27-2.11,5,5,0,0,0-1.82-2,4.13,4.13,0,0,0-2.85-.61,4.76,4.76,0,0,0-3,2,4.55,4.55,0,0,0-.72-1.8,4.27,4.27,0,0,0-1.09-1.15,2.57,2.57,0,0,0-2-.54,1.37,1.37,0,0,0-1,1,3.1,3.1,0,0,0,0,1.42A7.93,7.93,0,0,0,84.37,24a6,6,0,0,0-3.79-.42,2.35,2.35,0,0,0-1.86,1.88,2.83,2.83,0,0,0,.18,1.47A4.85,4.85,0,0,0,80,28.57c1.5.41,2.82.82,3.92,1.21s2,.74,2.66,1c1.35.59,1.89.88,2.07.79s0-.51-.11-1.21S88.31,28.66,88.12,27.51Z"/><path class="cls-6" d="M16.46,74.77c-9.1-8.38-8.58-22.61-1.83-31.52C22.29,33.16,38,29.92,48,37.88c10.71,8.51,10.3,26.12.61,35.55C40.37,81.39,25.77,83.34,16.46,74.77Z"/><path class="cls-5" d="M10.55,50.2a3.57,3.57,0,0,0-3,1.14,2.09,2.09,0,0,0-.33.82,2.57,2.57,0,0,0,.1,1.07,6,6,0,0,0,2,2.69,5.36,5.36,0,0,0-1.83,1,5,5,0,0,0-1.11,1.52,5.76,5.76,0,0,0-.29,3.64,6.45,6.45,0,0,0,1.55,3,3,3,0,0,0,2.08,1.08,14.25,14.25,0,0,0-2,2.32,4.81,4.81,0,0,0-.62,2.15A5.09,5.09,0,0,0,7.25,72a6.56,6.56,0,0,0,.61,1.5,6.71,6.71,0,0,0,1,1.3,4.7,4.7,0,0,0,1.08.86,4.2,4.2,0,0,0,2.26.59,5.1,5.1,0,0,0,1.11-.12,8,8,0,0,0,1.08-.34,14.93,14.93,0,0,0,2-1c.31-.66.65-1.34.94-2a9.63,9.63,0,0,0,.42-1,9,9,0,0,0,.33-1A4.72,4.72,0,0,0,18.31,69a2.43,2.43,0,0,0-.18-.83A3.5,3.5,0,0,0,17,66.66a3.21,3.21,0,0,0-.78-.46,6.29,6.29,0,0,0-1.76-.48c-1.21-.17-2.38-.13-2.88-.25a3.74,3.74,0,0,0,1.23-1.8,7.35,7.35,0,0,0,.5-2.58c0-1.8-.72-3.65-3.37-5.21a10,10,0,0,0,2.71-1.72,1.88,1.88,0,0,0,.47-.73,1.15,1.15,0,0,0,.05-.71,4.6,4.6,0,0,0-1.93-2.35,7.42,7.42,0,0,0,3-.78,5,5,0,0,0,2-1.73A4.3,4.3,0,0,0,17,45.25a7.17,7.17,0,0,0-.27-1.72,11.5,11.5,0,0,0-.74-2.06,6.54,6.54,0,0,0-2.19-.41,5.34,5.34,0,0,0-1.93.37A5.17,5.17,0,0,0,9.2,43.86a5.31,5.31,0,0,0-.48,3.39A4.86,4.86,0,0,0,10.55,50.2Z"/><path class="cls-4" d="M40.42,33.71a4.44,4.44,0,0,0-.32-1.56A2.77,2.77,0,0,0,39,30.83a2,2,0,0,0-.87-.25,2.17,2.17,0,0,0-.51,0,3.5,3.5,0,0,0-.55.17,3.92,3.92,0,0,0-1.21.8,7.38,7.38,0,0,0-1.27,1.52,5.11,5.11,0,0,0-1.24-1.71,4.82,4.82,0,0,0-.78-.56,4.41,4.41,0,0,0-.86-.38,5.4,5.4,0,0,0-1.83-.25,7.06,7.06,0,0,0-.91.11,6.88,6.88,0,0,0-.89.24,8.33,8.33,0,0,0-.82.34,5.66,5.66,0,0,0-.75.44,5.94,5.94,0,0,0-1.19,1.05,3.87,3.87,0,0,0-.71,1.12,2.14,2.14,0,0,0-.18,1A15.94,15.94,0,0,0,22,32.68a5.66,5.66,0,0,0-1-.36l-.55-.11h-.6a5.23,5.23,0,0,0-2.71.83,6.84,6.84,0,0,0-1.22,1,4.9,4.9,0,0,0-.8,1.07,4.38,4.38,0,0,0-.42,1.11,5.34,5.34,0,0,0-.1,1.13,6.45,6.45,0,0,0,.48,2.17,16.22,16.22,0,0,0,1,2c.65.3,1.34.64,2,.94a14.47,14.47,0,0,0,2,.72,5.09,5.09,0,0,0,.93.18,4.51,4.51,0,0,0,.9,0,3.72,3.72,0,0,0,.87-.23,4.48,4.48,0,0,0,.84-.51,3.6,3.6,0,0,0,1.17-1.53,4,4,0,0,0,.15-.45,3.74,3.74,0,0,0,.12-.45,5.66,5.66,0,0,0,.13-.92c.11-1.22,0-2.4.06-2.91a3.69,3.69,0,0,0,1.91,1.07,7.25,7.25,0,0,0,1.3.24h1.36c1.81-.21,3.56-1.11,4.82-3.92.41.63.77,1.17,1.09,1.58a7.13,7.13,0,0,0,.89.93,2,2,0,0,0,.39.26,1.31,1.31,0,0,0,.37.15,1.16,1.16,0,0,0,.69,0,2.73,2.73,0,0,0,1.24-.87,5.87,5.87,0,0,0,.92-1.24,8.81,8.81,0,0,0,.36,1.6,8.47,8.47,0,0,0,.6,1.38A6.7,6.7,0,0,0,42,38.65a6.33,6.33,0,0,0,.46.44,2.87,2.87,0,0,0,.5.36c.18.1.36.2.54.28a3.52,3.52,0,0,0,.61.18,5.07,5.07,0,0,0,1.4.11,5,5,0,0,0,.81-.1c.29-.05.58-.11.89-.19A14.86,14.86,0,0,0,49.26,39a6.08,6.08,0,0,0,.41-2.19,5,5,0,0,0-1.45-3.49,5.14,5.14,0,0,0-.72-.59,4.41,4.41,0,0,0-.79-.46,8,8,0,0,0-.86-.32,6.63,6.63,0,0,0-.89-.16,5.1,5.1,0,0,0-1.74.12,4.8,4.8,0,0,0-2.76,1.86Z"/><path class="cls-6" d="M55,63.67a5.22,5.22,0,0,0,1.57-.21,2.64,2.64,0,0,0,1.39-1,1.63,1.63,0,0,0,.32-.82,2.3,2.3,0,0,0-.11-1.07,4.66,4.66,0,0,0-.68-1.26,8.06,8.06,0,0,0-1.39-1.41,5.19,5.19,0,0,0,1.82-1,4.62,4.62,0,0,0,1.11-1.52,5.69,5.69,0,0,0,.29-3.62,6.48,6.48,0,0,0-1.54-3,3,3,0,0,0-2.06-1.1,14,14,0,0,0,2-2.28,5.24,5.24,0,0,0,.44-1,3.89,3.89,0,0,0,.21-1.17,5,5,0,0,0-.12-1.34,5.83,5.83,0,0,0-.58-1.5A6.53,6.53,0,0,0,56.77,39a6,6,0,0,0-1.06-.88,4.32,4.32,0,0,0-2.27-.63,6.31,6.31,0,0,0-2.19.42,14.93,14.93,0,0,0-2,1c-.32.66-.66,1.32-1,2a17.08,17.08,0,0,0-.78,1.94,4.85,4.85,0,0,0-.26,1.77,2.31,2.31,0,0,0,.16.83,2.8,2.8,0,0,0,.43.82,3.05,3.05,0,0,0,.64.7,4,4,0,0,0,.76.48,6.86,6.86,0,0,0,.86.32c.3.08.61.14.91.19,1.2.2,2.38.16,2.89.29A3.79,3.79,0,0,0,52.6,50a7.71,7.71,0,0,0-.51,2.6,5.34,5.34,0,0,0,.7,2.71,5.72,5.72,0,0,0,1,1.29,8.21,8.21,0,0,0,1.66,1.21,18.28,18.28,0,0,0-1.67.94,5.54,5.54,0,0,0-1,.81,2.15,2.15,0,0,0-.48.74,1.7,1.7,0,0,0,0,.71,2.85,2.85,0,0,0,.77,1.32,7,7,0,0,0,1.18,1,7.71,7.71,0,0,0-3,.81,6.87,6.87,0,0,0-1.16.77,5.1,5.1,0,0,0-.46.47,4.91,4.91,0,0,0-.39.51,4.42,4.42,0,0,0-.63,2.63,7.74,7.74,0,0,0,.29,1.72,12.29,12.29,0,0,0,.76,2,6.61,6.61,0,0,0,2.2.38,5.28,5.28,0,0,0,1.92-.4,5,5,0,0,0,2.59-2.46,5.43,5.43,0,0,0,.45-3.39,4.88,4.88,0,0,0-.61-1.56A4.68,4.68,0,0,0,55,63.67Z"/><path class="cls-6" d="M25.26,80a4.75,4.75,0,0,0,.31,1.54,2.63,2.63,0,0,0,1.06,1.33,1.88,1.88,0,0,0,.86.26A2.17,2.17,0,0,0,28.56,83a5.65,5.65,0,0,0,2.5-2.29,5.1,5.1,0,0,0,1.22,1.72,4.64,4.64,0,0,0,.77.57,4.74,4.74,0,0,0,.86.39,5.18,5.18,0,0,0,1.83.27,6.09,6.09,0,0,0,1.8-.33,6.52,6.52,0,0,0,2.79-1.79,4.12,4.12,0,0,0,.72-1.12,2,2,0,0,0,.19-1,14.61,14.61,0,0,0,2.42,1.8,4.76,4.76,0,0,0,2.15.51,5.67,5.67,0,0,0,1.3-.19,5.61,5.61,0,0,0,1.43-.65,5.54,5.54,0,0,0,2-2,4.24,4.24,0,0,0,.53-2.26,6.48,6.48,0,0,0-.5-2.17,13.83,13.83,0,0,0-1-2c-.65-.29-1.34-.63-2-.92a15.85,15.85,0,0,0-2-.71,5.65,5.65,0,0,0-.93-.17,4.41,4.41,0,0,0-.89,0A3.67,3.67,0,0,0,41.37,72a3.67,3.67,0,0,0-.46.82,6.54,6.54,0,0,0-.41,1.8c-.12,1.23,0,2.4-.08,2.91a2.55,2.55,0,0,0-.78-.64,4.53,4.53,0,0,0-1.12-.45,7,7,0,0,0-1.29-.25,7.72,7.72,0,0,0-1.36,0c-1.81.18-3.58,1.06-4.86,3.86a10.63,10.63,0,0,0-2-2.53,2,2,0,0,0-.76-.41,1.34,1.34,0,0,0-.69,0,3.09,3.09,0,0,0-1.25.86,6.65,6.65,0,0,0-.93,1.25,8,8,0,0,0-.94-3,2.49,2.49,0,0,0-.19-.3l-.18-.3a3.35,3.35,0,0,0-.42-.51,4.78,4.78,0,0,0-.45-.45,4.67,4.67,0,0,0-.51-.36,3.55,3.55,0,0,0-.55-.28,3.82,3.82,0,0,0-.6-.19,5.52,5.52,0,0,0-1.41-.1,7.74,7.74,0,0,0-1.72.29,13.64,13.64,0,0,0-2.05.76A6.78,6.78,0,0,0,16,77a5.34,5.34,0,0,0,.4,1.94,5,5,0,0,0,1.05,1.54,5.78,5.78,0,0,0,.71.6,6.18,6.18,0,0,0,.79.45,4.71,4.71,0,0,0,.86.32,4.76,4.76,0,0,0,1.76.18H22l.42-.09A4.78,4.78,0,0,0,25.26,80Z"/><path class="cls-7" d="M8.77,65.6c7.6,9.49,23.83,8.76,32.86.25,8.84-8.33,10.83-24.16,2-32.49-8.66-8.12-23.48-5.17-31.4,2.93C5,43.69,1.89,57,8.77,65.6Z"/><path class="cls-8" d="M31.66,71a7.35,7.35,0,0,0-.94-1.22A3,3,0,0,0,29.47,69a1.1,1.1,0,0,0-.67,0,1.81,1.81,0,0,0-.71.44,5.84,5.84,0,0,0-.78,1c-.14.22-.28.47-.43.74l-.48.91c-1.42-2.69-3.17-3.43-4.86-3.45a7.69,7.69,0,0,0-1.26.13l-.61.17a4,4,0,0,0-.58.2c-.18.07-.36.16-.54.25s-.32.18-.48.29a2.63,2.63,0,0,0-.71.7c-.11-.48,0-1.69-.14-2.86a6.51,6.51,0,0,0-.37-1.74,3.11,3.11,0,0,0-.38-.75,2.45,2.45,0,0,0-.58-.62,2.56,2.56,0,0,0-1.46-.56,3.23,3.23,0,0,0-.82,0c-.28,0-.57.11-.88.19a9.65,9.65,0,0,0-1,.32l-1,.38-2,.84a15.1,15.1,0,0,0-1.13,1.9,7.83,7.83,0,0,0-.4,1.05,5.81,5.81,0,0,0-.2,1.09,5.32,5.32,0,0,0,.06,1.13,5,5,0,0,0,.4,1.14A5.49,5.49,0,0,0,9.57,74a6,6,0,0,0,1.45.63,4.92,4.92,0,0,0,1.32.16,4.55,4.55,0,0,0,2.1-.6,13.63,13.63,0,0,0,2.29-2,2.15,2.15,0,0,0,.22,1,3.65,3.65,0,0,0,.32.54c.14.18.29.36.44.52a5.37,5.37,0,0,0,.57.5,4.66,4.66,0,0,0,.66.43,6.17,6.17,0,0,0,1.58.64,5,5,0,0,0,.86.14,4.41,4.41,0,0,0,.89,0A4.62,4.62,0,0,0,24,75.52a3.77,3.77,0,0,0,.78-.45,4.65,4.65,0,0,0,1.69-2.43c.23.3.45.57.67.81a7.45,7.45,0,0,0,.65.61,3.85,3.85,0,0,0,1.2.71,2.44,2.44,0,0,0,1,.15,1.7,1.7,0,0,0,.78-.3,2.4,2.4,0,0,0,.92-1.35,4.51,4.51,0,0,0,.22-1.55,5.28,5.28,0,0,0,1.2,1.16,4.82,4.82,0,0,0,1.48.67,4.88,4.88,0,0,0,3.24-.25,4.67,4.67,0,0,0,1.41-1,4.93,4.93,0,0,0,.56-.65,4.69,4.69,0,0,0,.44-.79,4.91,4.91,0,0,0,.43-1.85,6.47,6.47,0,0,0-.31-2.18,15.7,15.7,0,0,0-2-.91,8.57,8.57,0,0,0-1.66-.41,4.33,4.33,0,0,0-.72,0,3.79,3.79,0,0,0-.67.06,3.73,3.73,0,0,0-1.15.43,4.25,4.25,0,0,0-1,.79A5.6,5.6,0,0,0,32.38,68a8.27,8.27,0,0,0-.55,1.38A8.42,8.42,0,0,0,31.66,71Z"/><path class="cls-8" d="M48.7,44.56a8.07,8.07,0,0,0-1.35.74,2.91,2.91,0,0,0-1,1.09,1.26,1.26,0,0,0-.1.66,2.32,2.32,0,0,0,.32.76,6.26,6.26,0,0,0,.85.93c.37.34.88.73,1.47,1.17-2.9.94-4,2.53-4.24,4.24a6.83,6.83,0,0,0,.09,2.55,3.76,3.76,0,0,0,1,1.91,6.58,6.58,0,0,1-1.17-.08c-.5-.05-1.1-.11-1.7-.11a6.1,6.1,0,0,0-1.8.24,3.31,3.31,0,0,0-1.54,1A3.41,3.41,0,0,0,38.91,63a26.94,26.94,0,0,0,1.46,4,9.5,9.5,0,0,0,4,1.81,4.05,4.05,0,0,0,1.1,0,3.3,3.3,0,0,0,1.11-.32,5.13,5.13,0,0,0,2.09-1.8,4.93,4.93,0,0,0,.94-2.56A4.61,4.61,0,0,0,49.2,62a7.69,7.69,0,0,0-.94-1.52,7.71,7.71,0,0,1-.73-1,3,3,0,0,0,2.17-.67,6,6,0,0,0,2-2.48A5.23,5.23,0,0,0,52,52.93,4.64,4.64,0,0,0,49.61,50a5.71,5.71,0,0,0,2.54-2.12,2,2,0,0,0,.15-1.82,2.58,2.58,0,0,0-1.19-1.14,4.91,4.91,0,0,0-1.5-.45A4.69,4.69,0,0,0,51.79,42a4.63,4.63,0,0,0,.35-1.64,6.17,6.17,0,0,0,0-.86,5,5,0,0,0-.2-.85,3.39,3.39,0,0,0-.15-.41,2.93,2.93,0,0,0-.19-.4,5.08,5.08,0,0,0-.49-.75,4.76,4.76,0,0,0-.63-.64,4.49,4.49,0,0,0-.76-.53,4.64,4.64,0,0,0-1.85-.57,6.06,6.06,0,0,0-2.2.2,17.34,17.34,0,0,0-1,1.91,9.89,9.89,0,0,0-.53,1.59c0,.23-.08.46-.11.69a3.31,3.31,0,0,0,0,.63,2.9,2.9,0,0,0,.09.59l.09.27a.74.74,0,0,0,.1.27,4.08,4.08,0,0,0,.29.5,4.25,4.25,0,0,0,.37.47,5.77,5.77,0,0,0,1,.85A7.86,7.86,0,0,0,48.7,44.56Z"/><path class="cls-8" d="M22.89,30.25a7.09,7.09,0,0,0,1,1.18,2.85,2.85,0,0,0,1.27.78,1.4,1.4,0,0,0,1.37-.5,5.23,5.23,0,0,0,.75-1c.26-.45.54-1,.86-1.68a8.54,8.54,0,0,0,1.16,1.64,5.58,5.58,0,0,0,.61.58,4.44,4.44,0,0,0,.62.45,5.2,5.2,0,0,0,.62.32,3.83,3.83,0,0,0,.63.2,4.08,4.08,0,0,0,1.25.15,6.44,6.44,0,0,0,2.41-.52,3.73,3.73,0,0,0,1.72-1.23c.1.5,0,1.66.09,2.86a6.4,6.4,0,0,0,.1.88,6.17,6.17,0,0,0,.2.85,3,3,0,0,0,.89,1.36,2.32,2.32,0,0,0,.69.42,2.43,2.43,0,0,0,.74.18,3.66,3.66,0,0,0,.81,0,6.51,6.51,0,0,0,.9-.17,14.06,14.06,0,0,0,2-.63l2-.77a14.14,14.14,0,0,0,1.2-1.87,6.29,6.29,0,0,0,.68-2.11,4.2,4.2,0,0,0,0-1.12,4,4,0,0,0-.36-1.16,5.13,5.13,0,0,0-.77-1.13,6.26,6.26,0,0,0-1.23-1,5.27,5.27,0,0,0-2.78-.89,5.15,5.15,0,0,0-1.17.16,4.54,4.54,0,0,0-1,.4,13.25,13.25,0,0,0-2.32,1.91,2.9,2.9,0,0,0-1-2.08A6.13,6.13,0,0,0,32.21,25a6.89,6.89,0,0,0-.89.15,3.69,3.69,0,0,0-.84.31,4.66,4.66,0,0,0-.77.47,4.57,4.57,0,0,0-.67.65,5.36,5.36,0,0,0-1,1.83A7.72,7.72,0,0,0,26.69,27a4,4,0,0,0-1.22-.67,1.91,1.91,0,0,0-1.79.2,2.68,2.68,0,0,0-.88,1.38,5.09,5.09,0,0,0-.17,1.55,5,5,0,0,0-4.35-1.87,7.62,7.62,0,0,0-.81.14,7.15,7.15,0,0,0-.77.29,4.86,4.86,0,0,0-1.38.95,4.7,4.7,0,0,0-1,1.45,5.13,5.13,0,0,0-.41,1.85,6.92,6.92,0,0,0,.32,2.17c2.83,1.57,4.79,1.63,6.2.79a3.59,3.59,0,0,0,.5-.37,3.73,3.73,0,0,0,.45-.44,5.3,5.3,0,0,0,.74-1.14A7.25,7.25,0,0,0,22.89,30.25Z"/><path class="cls-8" d="M5.51,56.7A7.44,7.44,0,0,0,6.87,56a2.83,2.83,0,0,0,1-1.06,1.36,1.36,0,0,0-.21-1.41,5.22,5.22,0,0,0-.82-.94c-.37-.35-.86-.74-1.44-1.2,2.92-.86,4-2.42,4.34-4.13a6.28,6.28,0,0,0,.11-1.3,6,6,0,0,0-.14-1.26,5,5,0,0,0-.36-1.11,2.36,2.36,0,0,0-.58-.82c.5,0,1.66.22,2.87.23A4.16,4.16,0,0,0,15,41.78a1.57,1.57,0,0,0,.3-.38,1.83,1.83,0,0,0,.23-.38,2.49,2.49,0,0,0,.25-.8,4.12,4.12,0,0,0,0-.86,6,6,0,0,0-.14-.93,12.85,12.85,0,0,0-.62-2c-.26-.67-.55-1.36-.82-2a19.18,19.18,0,0,0-1.9-1.15,6.85,6.85,0,0,0-2.08-.67,4.05,4.05,0,0,0-1.1,0,4,4,0,0,0-1.11.3,4.74,4.74,0,0,0-1.09.68c-.17.15-.35.31-.52.49s-.33.4-.49.61a4.88,4.88,0,0,0-1,2.53,4.59,4.59,0,0,0,.38,2.1A16.44,16.44,0,0,0,7,41.82a2.42,2.42,0,0,0-1,.06,4.54,4.54,0,0,0-1.15.56,6.26,6.26,0,0,0-1.12,1,7.06,7.06,0,0,0-.89,1.4,6.09,6.09,0,0,0-.49,1.66,5,5,0,0,0,.08,1.76,4.68,4.68,0,0,0,2.33,3,7.73,7.73,0,0,0-1.65,1,4.44,4.44,0,0,0-.93,1.05A2,2,0,0,0,2,55.14,2.51,2.51,0,0,0,3.16,56.3a4.39,4.39,0,0,0,1.49.47,5.17,5.17,0,0,0-1.32,1,4.84,4.84,0,0,0-.87,1.4,5.06,5.06,0,0,0-.07,3.39,4.76,4.76,0,0,0,2.3,2.72,3.61,3.61,0,0,0,.89.36,4.27,4.27,0,0,0,1,.17,6,6,0,0,0,2.19-.27,15.63,15.63,0,0,0,.94-1.93c.12-.3.22-.58.3-.85s.14-.51.19-.75a3.67,3.67,0,0,0-.21-2.4,4.53,4.53,0,0,0-1.65-1.77,6.91,6.91,0,0,0-1.28-.7A7.61,7.61,0,0,0,5.51,56.7Z"/><path class="cls-9" d="M3.91,56.62c2.22,7.92,19.75,15.79,31.39,7.1,12.32-9.22,8.09-29.6.74-33.47C26,25,.73,45.35,3.91,56.62Z"/><path class="cls-9" d="M28.71,66.42a7.37,7.37,0,0,0-1-1.23,3,3,0,0,0-1.33-.85,1.37,1.37,0,0,0-.75,0,2.58,2.58,0,0,0-.84.39,7.9,7.9,0,0,0-1,.92c-.18.2-.38.44-.58.69s-.43.54-.66.85a9.4,9.4,0,0,0-.51-1,9.28,9.28,0,0,0-.56-.83,7.23,7.23,0,0,0-1.25-1.22A6.51,6.51,0,0,0,17.39,63l-.74-.09h-.74A9.57,9.57,0,0,0,14.5,63a3.91,3.91,0,0,0-2.1.89,6,6,0,0,1,0-1.2,17,17,0,0,0,0-1.75,5.07,5.07,0,0,0-1.29-3.54,2.08,2.08,0,0,0-.34-.32l-.35-.25a2,2,0,0,0-.36-.17,1.9,1.9,0,0,0-.36-.12,4.9,4.9,0,0,0-.78-.09c-.29,0-.58,0-.88,0h-1l-1,.08a16.15,16.15,0,0,1-2.2,0,8.53,8.53,0,0,0-1.68,1.55,5,5,0,0,0-.63,1,5.89,5.89,0,0,0-.24.58,4.44,4.44,0,0,0-.16.6,5.46,5.46,0,0,0-.08,1.34A5,5,0,0,0,1.4,63c.1.25.21.5.33.74s.29.47.46.71a6.73,6.73,0,0,0,.59.71,7.6,7.6,0,0,0,.71.68,7.33,7.33,0,0,0,1.53,1c.25.11.49.2.73.28a4.26,4.26,0,0,0,.69.15,4.8,4.8,0,0,0,2.35-.19,6.85,6.85,0,0,0,1.66-.85c.45-.29.79-.56,1-.68a3.16,3.16,0,0,0,.88,2.28A7.35,7.35,0,0,0,13.59,69c.26.18.53.35.8.5a7.21,7.21,0,0,0,4.84.75,5,5,0,0,0,1.83-.86,4.7,4.7,0,0,0,.76-.72,5.3,5.3,0,0,0,.64-.93c.22.32.45.62.67.88a6.14,6.14,0,0,0,.68.67,4.38,4.38,0,0,0,1.31.82,2.91,2.91,0,0,0,1.16.21,2.64,2.64,0,0,0,1-.26,3,3,0,0,0,1.21-1.34,4.3,4.3,0,0,0,.37-1.58,4.8,4.8,0,0,0,1.31,1.15,5.18,5.18,0,0,0,1.69.6,6,6,0,0,0,3.8-.68,5.82,5.82,0,0,0,2.7-3,5.39,5.39,0,0,0,.34-2.07,6.25,6.25,0,0,0-.55-2.24A13.39,13.39,0,0,0,36,60.48a8.33,8.33,0,0,0-1.8-.07,5.13,5.13,0,0,0-2.66.84,6.17,6.17,0,0,0-1.81,2.06,8.27,8.27,0,0,0-.65,1.42A8.17,8.17,0,0,0,28.71,66.42Z"/><path class="cls-9" d="M39.21,33.93a9,9,0,0,0-.84,1.27,4.89,4.89,0,0,0-.3.75,2.19,2.19,0,0,0-.11.76,1.09,1.09,0,0,0,.06.36,1.51,1.51,0,0,0,.14.35,2.41,2.41,0,0,0,.63.68,6.28,6.28,0,0,0,1.18.67c.49.23,1.11.46,1.84.72a6.55,6.55,0,0,0-2.36,6.24,8.94,8.94,0,0,0,.93,2.75,3.89,3.89,0,0,0,1.51,1.7,7.67,7.67,0,0,1-1.15.36c-.49.13-1.08.3-1.67.52a6.79,6.79,0,0,0-.87.39,6.25,6.25,0,0,0-.82.51,2.74,2.74,0,0,0-.36.32,3.76,3.76,0,0,0-.34.35,3.91,3.91,0,0,0-.3.41,4.17,4.17,0,0,0-.26.46,3,3,0,0,0-.2.49,3.88,3.88,0,0,0-.14.45,3.62,3.62,0,0,0-.06.46,3.23,3.23,0,0,0,0,.44,5.44,5.44,0,0,0,.14.9,5.74,5.74,0,0,0,.31.91,18.93,18.93,0,0,0,1,1.89c.37.63.79,1.29,1.14,1.91a11.88,11.88,0,0,0,2.15.67,5.94,5.94,0,0,0,2.3.07,5.15,5.15,0,0,0,1.17-.37,4.78,4.78,0,0,0,1.1-.73c.18-.16.36-.33.53-.51a5.16,5.16,0,0,0,.47-.63,6.87,6.87,0,0,0,.44-.74c.14-.27.25-.56.37-.86a7,7,0,0,0,.27-.89,5.72,5.72,0,0,0,.12-.83,4.82,4.82,0,0,0,0-.76,4.17,4.17,0,0,0-.08-.7,4.63,4.63,0,0,0-.37-1.2,5.49,5.49,0,0,0-.58-.95,6.08,6.08,0,0,0-1.33-1.3,12,12,0,0,1-1-.76,3.22,3.22,0,0,0,1.87-1.58,7.42,7.42,0,0,0,.86-5.43,6,6,0,0,0-.3-1,4.42,4.42,0,0,0-.46-.89,4.63,4.63,0,0,0-.61-.79,4.46,4.46,0,0,0-.77-.67,5.17,5.17,0,0,0-2-.82A5.9,5.9,0,0,0,43.92,36a2.58,2.58,0,0,0-.16-1.17,2.23,2.23,0,0,0-.22-.47,2.3,2.3,0,0,0-.32-.38,2.38,2.38,0,0,0-.77-.52,3.35,3.35,0,0,0-.89-.24,4.38,4.38,0,0,0-1.61.13,4.37,4.37,0,0,0,.41-.77,3.56,3.56,0,0,0,.23-.85,4.22,4.22,0,0,0-.09-1.87,1.74,1.74,0,0,0-.14-.48,3.52,3.52,0,0,0-.22-.49,4.68,4.68,0,0,0-.6-.94A6.27,6.27,0,0,0,35,25.71a3.11,3.11,0,0,0-.61,0,4.09,4.09,0,0,0-.6.07,4.9,4.9,0,0,0-3.88,3.72,20.32,20.32,0,0,0,2.55,3c.18.16.33.33.49.45l.21.19.2.17a2.66,2.66,0,0,0,.67.39,3.67,3.67,0,0,0,.79.15,1.88,1.88,0,0,1,.56.06h.65A12.38,12.38,0,0,0,39.21,33.93Z"/><path class="cls-9" d="M7.11,46.34a4.44,4.44,0,0,0,3.15-.08,2,2,0,0,0,.93-1.46A9.33,9.33,0,0,0,11,41.43a6.22,6.22,0,0,0,6.67-1.6,8,8,0,0,0,1.73-2.51A3.64,3.64,0,0,0,19.73,35c.5.2,1.42.95,2.59,1.48a5,5,0,0,0,4.13.22,4.18,4.18,0,0,0,2.66-2.87,29.52,29.52,0,0,0,.82-4.27,8.38,8.38,0,0,0-3-3.41,5.39,5.39,0,0,0-5.33.1,5.9,5.9,0,0,0-2.23,1.92,5.13,5.13,0,0,0-.8,2.1,19.54,19.54,0,0,0,0,3.06,3.25,3.25,0,0,0-2.36-.44A7.68,7.68,0,0,0,13,34.12,6.6,6.6,0,0,0,10.5,37a5.33,5.33,0,0,0-.1,4,6.59,6.59,0,0,0-3.49.26,2.39,2.39,0,0,0-1.42,1.46,3.66,3.66,0,0,0,.84,3.17,5,5,0,0,0-3.39.6,6.06,6.06,0,0,0-2.56,7.3,5.4,5.4,0,0,0,.55,1,4.51,4.51,0,0,0,.77.86,5,5,0,0,0,1,.63,4.29,4.29,0,0,0,1.16.34c1.25-1.08,2.24-1.8,2.94-2.44a4.19,4.19,0,0,0,1.34-2.06,6.38,6.38,0,0,0,.09-2.75A7.66,7.66,0,0,0,7.11,46.34Z"/><path class="cls-10" d="M14.37,52.81c2,4.17,11,6,16.36,2.08,7.75-5.6,4-20-.73-21.63C24.31,31.31,11.1,46.2,14.37,52.81Z"/><path class="cls-10" d="M34.26,48.76a9.91,9.91,0,0,0-1.53.15,3.6,3.6,0,0,0-1.34.48,1.11,1.11,0,0,0-.34.46,1.46,1.46,0,0,0,0,.72,4,4,0,0,0,.11.5,2.6,2.6,0,0,0,.17.63c.16.48.32,1,.54,1.77a13.56,13.56,0,0,0-3.32-.88A3.82,3.82,0,0,0,26.4,53a7.89,7.89,0,0,0-1.86,1.33A4.28,4.28,0,0,0,23.33,56a6.05,6.05,0,0,1-.41-1.1q-.23-.7-.54-1.59a4.56,4.56,0,0,0-1.78-2.58,1.31,1.31,0,0,0-1.11-.08,1.74,1.74,0,0,0-.27.14L19,51a4.12,4.12,0,0,1-.65.44,12.18,12.18,0,0,1-3.94,1.34A6.87,6.87,0,0,0,13,54.54a4.27,4.27,0,0,0-.43,1.09,4,4,0,0,0-.11,1.24,4.19,4.19,0,0,0,.34,1.35,6,6,0,0,0,.37.71c.14.22.29.42.45.63a6.31,6.31,0,0,0,2.87,1.95,5.33,5.33,0,0,0,3.16.18,4.53,4.53,0,0,0,2-1.13,6.58,6.58,0,0,0,1.09-1.48c.25-.46.43-.84.58-1.06A2.86,2.86,0,0,0,25,59.66a6,6,0,0,0,3.49.34,5.6,5.6,0,0,0,3.41-2.1A4,4,0,0,0,32.65,56a3.35,3.35,0,0,0,0-1,3.94,3.94,0,0,0-.29-1,5.3,5.3,0,0,0,2.8-.22,3.3,3.3,0,0,0,.62-.32,2.41,2.41,0,0,0,.82-.83,1.82,1.82,0,0,0,.29-.93,2.44,2.44,0,0,0-.56-1.64,4.26,4.26,0,0,0-1.19-1A4.63,4.63,0,0,0,36,48.9a4.82,4.82,0,0,0,.77-.33,4.23,4.23,0,0,0,1.32-1.06,5.26,5.26,0,0,0,1.21-3.26A4.86,4.86,0,0,0,38,40.92a5.44,5.44,0,0,0-3.71-1.69,11.72,11.72,0,0,0-2.57,2.87,3.9,3.9,0,0,0-.6,2.42,4.55,4.55,0,0,0,1,2.22,9.34,9.34,0,0,0,1,1.08c.19.18.39.36.6.53S34,48.6,34.26,48.76Z"/><path class="cls-10" d="M16.56,43.71a4.54,4.54,0,0,0,3,0,1.46,1.46,0,0,0,.72-1.31,9.24,9.24,0,0,0-.55-3.12c2.9,1,4.76.2,6-1a5.88,5.88,0,0,0,.79-.94,3.6,3.6,0,0,0,.29-.5,1.62,1.62,0,0,1,.13-.45,11.35,11.35,0,0,0,.45-2,5.73,5.73,0,0,1,.73,1.86,5.91,5.91,0,0,1,.2,2.4,1.37,1.37,0,0,1-.19.59A1.72,1.72,0,0,1,28.5,39l.12-.05h.15l.39.08c.28,0,.57.09.89.11,1.26.1,2.8,0,4.25,0a8.26,8.26,0,0,0,3-3.18,4,4,0,0,0,.32-1.12v-.62a2.63,2.63,0,0,0-.06-.39,1.89,1.89,0,0,0-.11-.44,7.33,7.33,0,0,0-.82-1.83c-.21-.31-.44-.62-.68-.94a9.24,9.24,0,0,0-.9-.87,6.06,6.06,0,0,0-.88-.62c-.31-.16-.6-.31-.88-.43l-.86-.23a6.27,6.27,0,0,1-.79-.11,4.26,4.26,0,0,0-2.28.6A4.36,4.36,0,0,0,28,30.24a11.44,11.44,0,0,0-1,2.16,2.34,2.34,0,0,0-2.22-.94,7.47,7.47,0,0,0-.94.09,8.46,8.46,0,0,0-.85.16,6.6,6.6,0,0,0-1.65.68A5.47,5.47,0,0,0,19,35a4.79,4.79,0,0,0,.19,3.82,5.89,5.89,0,0,0-3.3.17,1.93,1.93,0,0,0-1.22,1.35,3.49,3.49,0,0,0,1.11,2.92,4.73,4.73,0,0,0-3.23.54,5,5,0,0,0-2.21,2.71,5.22,5.22,0,0,0-.28,2,4.84,4.84,0,0,0,.15,1.07,4.74,4.74,0,0,0,.4,1.11,3.94,3.94,0,0,0,1.49,1.64,3.87,3.87,0,0,0,2.21.49,17.93,17.93,0,0,1,1.51-1.51A11.67,11.67,0,0,1,17,50.42l.23-.15.2-.13a2.24,2.24,0,0,0,.32-.37,2.49,2.49,0,0,0,.39-.9A5.06,5.06,0,0,0,18,46.49,8,8,0,0,0,16.56,43.71Z"/><path class="cls-5" d="M33.53,32.08C30.35,45.16,48.2,61.87,66.88,61.43S94.45,46.31,91.34,33,41.09,1,33.53,32.08Z"/><path class="cls-6" d="M48.15,55.73A6.73,6.73,0,0,0,48.42,54a3.09,3.09,0,0,0-.33-1.74,1.73,1.73,0,0,0-1.56-.83,5.74,5.74,0,0,0-1.49.13c-.3.06-.63.14-1,.24s-.73.2-1.15.34a7.94,7.94,0,0,0,.26-4.24,5.73,5.73,0,0,0-.65-1.53,3.57,3.57,0,0,0-.46-.64,5.57,5.57,0,0,0-.52-.57,6.77,6.77,0,0,0-1.15-.91,8.5,8.5,0,0,0-1.31-.67,6.51,6.51,0,0,0-1.31-.36,2.93,2.93,0,0,0-1.18,0c.28-.51,1.33-1.47,2.15-2.58a7.51,7.51,0,0,0,1.08-1.75,2.62,2.62,0,0,0,.29-.91,2.09,2.09,0,0,0,0-.93,1.92,1.92,0,0,0-.22-.81,2,2,0,0,0-.47-.64,7,7,0,0,0-1.52-1.11l-1-.55-1.07-.58c-.74-.39-1.52-.8-2.25-1.23a12.39,12.39,0,0,0-2.56.39,7.29,7.29,0,0,0-1.26.45,6.28,6.28,0,0,0-1.12.72A5.19,5.19,0,0,0,27,36.05a8.33,8.33,0,0,0-.27,1.72,9.58,9.58,0,0,0,.23,2,8.27,8.27,0,0,0,.74,1.82,6.38,6.38,0,0,0,1,1.25A5.26,5.26,0,0,0,31,44.07a14.75,14.75,0,0,0,3.51.18,2.55,2.55,0,0,0-.59,1,4.35,4.35,0,0,0-.19,1.52A6.4,6.4,0,0,0,34,48.61a6.88,6.88,0,0,0,.84,1.8,8.35,8.35,0,0,0,.6.83c.24.25.48.49.74.72A5.54,5.54,0,0,0,38,53a5.65,5.65,0,0,0,4.45-.34q-.09.62-.12,1.23a8.34,8.34,0,0,0,0,1,5.35,5.35,0,0,0,.37,1.58,2.25,2.25,0,0,0,1.58,1.39,3.13,3.13,0,0,0,1.88-.29,6.1,6.1,0,0,0,1.51-1,6.37,6.37,0,0,0,0,1.95,5.91,5.91,0,0,0,1.68,3.33,5.54,5.54,0,0,0,1.56,1.11,6.31,6.31,0,0,0,.91.35,8.75,8.75,0,0,0,1,.18,4.18,4.18,0,0,0,1,0,5.67,5.67,0,0,0,1-.18,5,5,0,0,0,1-.37,6.31,6.31,0,0,0,1-.6,8.06,8.06,0,0,0,1.79-1.85A13.11,13.11,0,0,0,58,58a7.24,7.24,0,0,0-.41-1,7.12,7.12,0,0,0-.48-.85,5,5,0,0,0-.54-.68,6.37,6.37,0,0,0-.59-.57,4.07,4.07,0,0,0-.65-.43,5.24,5.24,0,0,0-.68-.31,5.44,5.44,0,0,0-1.5-.27,7.36,7.36,0,0,0-1.62.16,8.55,8.55,0,0,0-1.67.6A8.45,8.45,0,0,0,48.15,55.73Z"/><path class="cls-6" d="M85.72,53.1a8.9,8.9,0,0,0-1.67-.65,3.34,3.34,0,0,0-1.72-.11,1.34,1.34,0,0,0-.66.38,1.78,1.78,0,0,0-.25.36,2.58,2.58,0,0,0-.21.48A7.73,7.73,0,0,0,81,55c-.06.59-.06,1.34-.07,2.2a8.52,8.52,0,0,0-3.85-1.66,3.75,3.75,0,0,0-.82,0,4.22,4.22,0,0,0-.79.07,6.19,6.19,0,0,0-1.44.46l-.67.35a5.39,5.39,0,0,0-.63.43,8.17,8.17,0,0,0-1.12,1,4.3,4.3,0,0,0-1.24,2.2c-.38-.44-.92-1.75-1.73-2.91a6.72,6.72,0,0,0-1.48-1.58,5,5,0,0,0-.45-.29A3.62,3.62,0,0,0,66.2,55a4.72,4.72,0,0,0-.53-.18l-.58-.1A3.76,3.76,0,0,0,63,55c-.15.08-.3.16-.45.26a4.15,4.15,0,0,0-.43.3,6.54,6.54,0,0,0-.81.77,16.69,16.69,0,0,0-1.45,2c-.45.72-.89,1.48-1.31,2.21a22.21,22.21,0,0,0,.29,2.57,8,8,0,0,0,.84,2.42,4.93,4.93,0,0,0,.75,1,4,4,0,0,0,1,.83,6.51,6.51,0,0,0,1.37.57,7.68,7.68,0,0,0,1.72.19,4.49,4.49,0,0,0,.9-.06,5.29,5.29,0,0,0,.81-.17c.25-.07.49-.15.73-.24a4.65,4.65,0,0,0,.62-.34,5.35,5.35,0,0,0,1.74-1.77,18.6,18.6,0,0,0,1.33-3.23A3.53,3.53,0,0,0,72.72,64a7.09,7.09,0,0,0,1.76.38,8.34,8.34,0,0,0,1,0,4.21,4.21,0,0,0,1-.12A6.62,6.62,0,0,0,79.37,63a9,9,0,0,0,.77-.74,5.39,5.39,0,0,0,1.19-4.35,7.94,7.94,0,0,0,2.16.76,4.22,4.22,0,0,0,1.66,0,3.66,3.66,0,0,0,.65-.17,2.58,2.58,0,0,0,.51-.29,2.1,2.1,0,0,0,.68-.77,3,3,0,0,0,.19-2,5.42,5.42,0,0,0-.7-1.71,5.28,5.28,0,0,0,1.92.4,6.63,6.63,0,0,0,1-.07l.49-.09c.15-.05.31-.09.46-.15a5.3,5.3,0,0,0,1.74-1,5,5,0,0,0,.74-.71,5.76,5.76,0,0,0,.44-7,7.2,7.2,0,0,0-1.84-1.81,16.26,16.26,0,0,0-2.46.58,10.49,10.49,0,0,0-1.83.78,4.63,4.63,0,0,0-2,2.08,3.15,3.15,0,0,0-.23.65c-.06.23-.1.45-.14.68a7.82,7.82,0,0,0,0,1.53,2.7,2.7,0,0,0,.06.41.89.89,0,0,0,.07.42c.06.29.13.58.21.86A10.62,10.62,0,0,0,85.72,53.1Z"/><path class="cls-5" d="M77.18,20.7a8.38,8.38,0,0,0-.11,1.8,3.25,3.25,0,0,0,.53,1.71,1.78,1.78,0,0,0,1.66.68,10.09,10.09,0,0,0,3.55-1.12A7.84,7.84,0,0,0,83.05,28a5.76,5.76,0,0,0,1.85,2.48,7.36,7.36,0,0,0,2.46,1.22,5.39,5.39,0,0,0,2.39.24,2.93,2.93,0,0,1-.38.41l-.6.5c-.23.18-.47.36-.74.54s-.55.35-.83.51a1,1,0,0,0-.2.15l-.19.18-.37.39a7.14,7.14,0,0,0-.63.82,3.73,3.73,0,0,0-.43.9,3.39,3.39,0,0,0-.18,1,3.25,3.25,0,0,0,.49,1.87,4.65,4.65,0,0,0,.62.77,7.76,7.76,0,0,0,.8.72,20.31,20.31,0,0,0,2,1.32l2.23,1.27a9.41,9.41,0,0,0,1.28-.13c.43-.06.86-.13,1.28-.22a7.15,7.15,0,0,0,2.4-1,5.11,5.11,0,0,0,1-.85,5,5,0,0,0,.77-1.16,4.93,4.93,0,0,0,.46-1.5,6.74,6.74,0,0,0,.06-1.85,7.38,7.38,0,0,0-.41-1.79,5.63,5.63,0,0,0-.76-1.35,5,5,0,0,0-1-1,4.72,4.72,0,0,0-.52-.35,1.17,1.17,0,0,0-.27-.15c-.08-.05-.17-.09-.27-.16a5.78,5.78,0,0,0-1.12-.54,6.61,6.61,0,0,0-1-.23c-.31-.05-.59-.07-.83-.09s-.4,0-.6-.07a3.22,3.22,0,0,0,.74-2.71A7.24,7.24,0,0,0,91,24.44a6.27,6.27,0,0,0-3.45-2.29,5.63,5.63,0,0,0-4.38.87,7.3,7.3,0,0,0-.7-3.79A2.2,2.2,0,0,0,80.8,18a3.06,3.06,0,0,0-1.83.48,6.31,6.31,0,0,0-1.4,1.18,6.33,6.33,0,0,0-.12-1.94A6,6,0,0,0,74,13.57a5.49,5.49,0,0,0-3.79-.18,6.45,6.45,0,0,0-1.93,1,8.92,8.92,0,0,0-1.77,1.86c.58,3.73,2.23,5.64,4.23,6.23a5.54,5.54,0,0,0,3.2-.05,6.81,6.81,0,0,0,1.64-.7A7.53,7.53,0,0,0,77.18,20.7Z"/><path class="cls-6" d="M39.05,22.25a10.4,10.4,0,0,0,1.67.67,4.53,4.53,0,0,0,.89.18,2.21,2.21,0,0,0,.81,0,1.37,1.37,0,0,0,.64-.36,1.93,1.93,0,0,0,.45-.8,6.87,6.87,0,0,0,.28-1.42c.07-.59.11-1.32.16-2.18.35.27.69.52,1,.72a8.21,8.21,0,0,0,1,.56,7.22,7.22,0,0,0,1.74.62,5.21,5.21,0,0,0,3-.26,8,8,0,0,0,2.56-1.55,4.29,4.29,0,0,0,1.41-2.09c.35.49.77,1.79,1.51,3A6.82,6.82,0,0,0,57.54,21a4.25,4.25,0,0,0,2.09,1,4.38,4.38,0,0,0,4.09-1.47,21.76,21.76,0,0,0,2.85-4.14,13,13,0,0,0-1-5A5.09,5.09,0,0,0,61,8.65a5.68,5.68,0,0,0-3,.62,5.53,5.53,0,0,0-1.86,1.64A18.46,18.46,0,0,0,54.59,14a3.59,3.59,0,0,0-2-1.83,7.23,7.23,0,0,0-3.73-.56,6.5,6.5,0,0,0-3.8,1.75,5.13,5.13,0,0,0-1.18,1.86,5.61,5.61,0,0,0-.29,1.14,6.84,6.84,0,0,0,0,1.28,8,8,0,0,0-2.13-.85,4.57,4.57,0,0,0-1.69-.1,2.73,2.73,0,0,0-1.19.44,2.16,2.16,0,0,0-.71.79,2.68,2.68,0,0,0-.29,1,3.35,3.35,0,0,0,.06,1,4.94,4.94,0,0,0,.68,1.7,5.7,5.7,0,0,0-2-.44,5.55,5.55,0,0,0-4.93,3,5.84,5.84,0,0,0-.7,1.95,7.41,7.41,0,0,0-.07,1.05,5.59,5.59,0,0,0,.13,1,6.14,6.14,0,0,0,.93,2A8.06,8.06,0,0,0,33.56,32,13,13,0,0,0,36,31.45a8.83,8.83,0,0,0,1.83-.82c.24-.15.48-.31.7-.48a4.6,4.6,0,0,0,.56-.52,4.17,4.17,0,0,0,.77-1.17,5.28,5.28,0,0,0,.28-2.84A8,8,0,0,0,39.8,24,9.25,9.25,0,0,0,39.05,22.25Z"/><path class="cls-8" d="M38.42,15.63c-4.93,8.41-4,23.56,8,33.35,10,8.16,40.93,4.72,45.8-4.45,7.56-14.23-4.48-28.29-19.35-31.12C61.1,11.2,52.2-7.94,38.42,15.63Z"/><path class="cls-8" d="M42.37,44.2a7.91,7.91,0,0,0,.87-1.59,3.41,3.41,0,0,0,.3-1.75,1.54,1.54,0,0,0-.33-.75,2.29,2.29,0,0,0-.81-.6A7.11,7.11,0,0,0,41,39.05c-.61-.12-1.32-.24-2.21-.34a8.24,8.24,0,0,0,2-3.79,6,6,0,0,0-.28-3.21,8.81,8.81,0,0,0-1.56-2.64,4.39,4.39,0,0,0-2.07-1.48c.49-.34,1.83-.75,3.07-1.43a7.33,7.33,0,0,0,1.75-1.22,3.9,3.9,0,0,0,1.1-1.82,3.25,3.25,0,0,0,0-2,3.84,3.84,0,0,0-.39-.91,8.47,8.47,0,0,0-.58-.89,19.67,19.67,0,0,0-1.58-1.84c-.57-.61-1.18-1.24-1.75-1.87a14.87,14.87,0,0,0-2.58-.38,7.21,7.21,0,0,0-2.61.33,6,6,0,0,0-1.22.61,5.34,5.34,0,0,0-1.07,1,6.78,6.78,0,0,0-1.39,3.23,6.29,6.29,0,0,0,.32,3.41,5.48,5.48,0,0,0,1.53,2.09,16.66,16.66,0,0,0,3.07,1.75,3.53,3.53,0,0,0-1.85,2,7.57,7.57,0,0,0-.56,3.85,6.65,6.65,0,0,0,1.74,3.88A5.53,5.53,0,0,0,38.08,39a9.63,9.63,0,0,0-1,2.1,5,5,0,0,0-.22,1.67A3,3,0,0,0,37.18,44a2.32,2.32,0,0,0,.69.77,3.06,3.06,0,0,0,1.91.46,5.58,5.58,0,0,0,1.8-.43,5.81,5.81,0,0,0-.68,1.85,6.37,6.37,0,0,0,0,1.95,6.28,6.28,0,0,0,1.87,3.48l.39.33c.14.11.25.2.44.33l.53.32a5.52,5.52,0,0,0,2.86.7,6.13,6.13,0,0,0,4.34-2.18,15,15,0,0,0-.86-4.44c-.11-.26-.2-.51-.32-.73a4.3,4.3,0,0,0-.32-.6l-.18-.25a1.84,1.84,0,0,0-.17-.22l-.24-.24a1.76,1.76,0,0,0-.3-.24A5.84,5.84,0,0,0,46,43.8a8.73,8.73,0,0,0-1.77,0A9.31,9.31,0,0,0,42.37,44.2Z"/><path class="cls-8" d="M81.57,50.72a5,5,0,0,0-2.75-2.28,2,2,0,0,0-1.75.64,10.16,10.16,0,0,0-1.93,3.26c-2-3-4.53-3.54-6.79-3.14a8.25,8.25,0,0,0-3,1.25,4,4,0,0,0-1.69,2c-.33-.51-.68-1.86-1.4-3.13a5.2,5.2,0,0,0-3.56-2.83,4.32,4.32,0,0,0-2.31.1,5.65,5.65,0,0,0-1.84,1.17,30.39,30.39,0,0,0-3.18,3.88,11.1,11.1,0,0,0,.74,5.1,5.11,5.11,0,0,0,1.69,2,6.12,6.12,0,0,0,3,1,5.46,5.46,0,0,0,5-2,21.54,21.54,0,0,0,1.78-3,3.73,3.73,0,0,0,1.79,2,7.81,7.81,0,0,0,3.52,1,6,6,0,0,0,6.41-4.65,7.63,7.63,0,0,0,3.16,2.28,2.36,2.36,0,0,0,2.11-.27,4.27,4.27,0,0,0,1.32-3.44,5.88,5.88,0,0,0,3.23,2.09,6,6,0,0,0,4-.4,6.09,6.09,0,0,0,3.11-3.17,5.43,5.43,0,0,0,.44-2.42,5.08,5.08,0,0,0-.81-2.53c-1.86-.39-3.19-.79-4.29-.89a4.35,4.35,0,0,0-2.8.57,6.3,6.3,0,0,0-2.09,2.26A8.51,8.51,0,0,0,81.57,50.72Z"/><path class="cls-8" d="M46.12,6.78a10.63,10.63,0,0,0,1.54,1,4.25,4.25,0,0,0,1.58.51,1.18,1.18,0,0,0,1.15-.75A11,11,0,0,0,51,6.29c.12-.26.26-.54.42-.87s.34-.68.56-1c.38.81.72,1.49,1,2.07a9.9,9.9,0,0,0,.94,1.44,5.14,5.14,0,0,0,2.4,1.62c1.92.69,4.54.73,5.63-.24a30.76,30.76,0,0,0-.34,3.45,5.61,5.61,0,0,0,.58,2.34,5.78,5.78,0,0,0,2.19,2.25,6.74,6.74,0,0,0,3.32,1,5.33,5.33,0,0,0,2.79-.69,5.82,5.82,0,0,0,1.09-.81,5.22,5.22,0,0,0,.88-1c.44-.72.87-1.48,1.29-2.21A20.29,20.29,0,0,0,73.35,11c-.09-.43-.13-.83-.19-1.23S73,9,73,8.65a5.39,5.39,0,0,0-.64-1.87,3.28,3.28,0,0,0-1.56-1.31,5.55,5.55,0,0,0-4.58.12,34.11,34.11,0,0,0-3,1.71,3.78,3.78,0,0,0-.44-2.63A7.28,7.28,0,0,0,60.2,1.88,6.91,6.91,0,0,0,55.75.78a5.09,5.09,0,0,0-2.28.84,4.44,4.44,0,0,0-1.58,2,5,5,0,0,0-3.53-2.23,2.77,2.77,0,0,0-3.18,2.26,3.27,3.27,0,0,0,0,.54A4.94,4.94,0,0,0,45.48,6a5.36,5.36,0,0,0-3.86-.6,6.29,6.29,0,0,0-3.45,2,5.79,5.79,0,0,0-1.43,3.74,6.52,6.52,0,0,0,.39,2.19,8.81,8.81,0,0,0,1.25,2.27,11.55,11.55,0,0,0,2.56.07A8,8,0,0,0,43,15.25a5.38,5.38,0,0,0,2.65-2,5.66,5.66,0,0,0,.92-2.93A10.11,10.11,0,0,0,46.12,6.78Z"/><path class="cls-9" d="M55.56,5c-11.7-1.54-17,27.7-1.13,36.88s28.71,2.27,32.78-2.56S81.37,8.36,55.56,5Z"/><path class="cls-9" d="M46.47,31.09a7.51,7.51,0,0,0,1.36-1.22,3.57,3.57,0,0,0,.89-1.57,1.92,1.92,0,0,0-.6-1.72A12.61,12.61,0,0,0,45,24.43c3.14-1.77,4-4,4.12-6.17a8.89,8.89,0,0,0-.46-3.11A4.49,4.49,0,0,0,47.34,13a8,8,0,0,1,1.38-.06h2a7.07,7.07,0,0,0,3.52-.84c.33-.25.33-.47.26-.84a7.75,7.75,0,0,1-.16-1.6A12,12,0,0,1,55.56,5a7.69,7.69,0,0,0-.88-2.5,5,5,0,0,0-2.14-2A5.77,5.77,0,0,0,48.83.16,7.89,7.89,0,0,0,46.65,1a9.61,9.61,0,0,0-2,1.65,7,7,0,0,0-1.87,3.74,5.3,5.3,0,0,0,.37,2.78A7.3,7.3,0,0,0,44.3,11c.39.48.74.84.91,1.11a3.49,3.49,0,0,0-2.51,1.23,8,8,0,0,0-2,3.54,7.09,7.09,0,0,0,.2,4.39,5.67,5.67,0,0,0,3.35,3.21A6.82,6.82,0,0,0,41.8,27.7,2.64,2.64,0,0,0,42.05,30a3.22,3.22,0,0,0,1.66,1.17,5.25,5.25,0,0,0,1.84.25,5.6,5.6,0,0,0-1.84,3.5,6.48,6.48,0,0,0,1,4.18,6.39,6.39,0,0,0,3.64,2.77,6.07,6.07,0,0,0,4.87-.79,16.16,16.16,0,0,0,.35-4.55,5,5,0,0,0-1-2.8A6.31,6.31,0,0,0,50.14,32,9.69,9.69,0,0,0,46.47,31.09Z"/><path class="cls-9" d="M83.15,42.1a9.46,9.46,0,0,0-1.49-1,6.68,6.68,0,0,0-.87-.37,2.7,2.7,0,0,0-.85-.13,1.71,1.71,0,0,0-.79.22,2.5,2.5,0,0,0-.72.73A13.79,13.79,0,0,0,77,45a8.43,8.43,0,0,0-3.47-2.57,6.53,6.53,0,0,0-3.28-.34,9.4,9.4,0,0,0-3,1,6.1,6.1,0,0,0-1.19.78,3,3,0,0,0-.76.91c-.24-.55-.38-1.93-.83-3.31a6.57,6.57,0,0,0-.95-2A4.36,4.36,0,0,0,61.71,38a4.66,4.66,0,0,0-2.29-.48,5.81,5.81,0,0,0-1.09.2,7,7,0,0,0-1.07.43c-.36.19-.71.39-1.06.61l-1,.75c-.68.53-1.36,1.07-2,1.59a14.86,14.86,0,0,0-.55,2.55,7.5,7.5,0,0,0,0,1.34,7.83,7.83,0,0,0,.14,1.28,6.8,6.8,0,0,0,.42,1.25A5.15,5.15,0,0,0,54,48.66a5.9,5.9,0,0,0,1.18,1,7.86,7.86,0,0,0,1.65.8,6.45,6.45,0,0,0,3.37.31,5.53,5.53,0,0,0,2.38-1.07A16.62,16.62,0,0,0,65,47.07a2.54,2.54,0,0,0,.42,1.13,5.49,5.49,0,0,0,1.15,1.11,8,8,0,0,0,3.82,1.34,7.13,7.13,0,0,0,4.35-1,5.6,5.6,0,0,0,2.52-3.93,6.64,6.64,0,0,0,3.65,1.72,3.06,3.06,0,0,0,1.31-.17,2.19,2.19,0,0,0,.92-.61,2.52,2.52,0,0,0,.55-.88,3.45,3.45,0,0,0,.22-1,5,5,0,0,0-.18-1.85,5.18,5.18,0,0,0,1.47.73,5.09,5.09,0,0,0,1.64.24,4.91,4.91,0,0,0,.86-.07l.43-.09.22-.06a.85.85,0,0,0,.24-.08,8.72,8.72,0,0,0,1-.54,10.13,10.13,0,0,0,1-.72A5.62,5.62,0,0,0,91.71,41a5.83,5.83,0,0,0,.66-1.71,6.62,6.62,0,0,0-.22-3.61,3.8,3.8,0,0,0-.33-.78,4.89,4.89,0,0,0-.41-.6,5.57,5.57,0,0,0-1-1,6.61,6.61,0,0,0-2.86-1.14,18.82,18.82,0,0,0-2.19,2c-.29.31-.55.61-.77.89-.11.13-.22.26-.32.4s-.2.17-.29.25a2.76,2.76,0,0,0-.68.64,1.26,1.26,0,0,0-.15.66,3.52,3.52,0,0,0,.06.74.33.33,0,0,1,0,.14V38l-.06.33c0,.22-.06.44-.08.68a12.34,12.34,0,0,0,0,1.49A10.39,10.39,0,0,0,83.15,42.1Z"/><path class="cls-9" d="M67.16,8.92a5.2,5.2,0,0,0,.49,3.57,1.77,1.77,0,0,0,.67.55,2.45,2.45,0,0,0,1.06.21,11,11,0,0,0,3.71-.89c-.69,3.53.56,5.73,2.32,7.19a9.31,9.31,0,0,0,2.9,1.58,4.24,4.24,0,0,0,2.61.15c-.2.57-1,1.68-1.62,3a7.14,7.14,0,0,0-.59,2.17,4.68,4.68,0,0,0,.4,2.39,4.52,4.52,0,0,0,1.41,1.85,5.65,5.65,0,0,0,2,.9,30,30,0,0,0,5,.54,10.61,10.61,0,0,0,3.8-3.55A5.32,5.32,0,0,0,92,25.94a6.56,6.56,0,0,0-1-3.24,6.12,6.12,0,0,0-2.29-2.39,5.53,5.53,0,0,0-2.45-.75,19.09,19.09,0,0,0-3.53.33,3.6,3.6,0,0,0,.4-2.72,7.91,7.91,0,0,0-1.6-3.55A7,7,0,0,0,78,11.16a5.85,5.85,0,0,0-4.57.56,7.23,7.23,0,0,0-.73-3.93,2.94,2.94,0,0,0-.85-.94,2.42,2.42,0,0,0-1-.4A4.23,4.23,0,0,0,67.49,8a6.14,6.14,0,0,0-.2-2,5.93,5.93,0,0,0-.84-1.78,6.39,6.39,0,0,0-3.17-2.44,6.19,6.19,0,0,0-4.16,0,6.55,6.55,0,0,0-2,1.15,8.47,8.47,0,0,0-1.68,2,13.66,13.66,0,0,0,1,2.4,9.2,9.2,0,0,0,1.2,1.75,5.75,5.75,0,0,0,2.89,1.78,6.27,6.27,0,0,0,3.3-.14A7.78,7.78,0,0,0,65.51,10,8.32,8.32,0,0,0,67.16,8.92Z"/><path class="cls-10" d="M82.89,29.86c-2.79,3.27-18.57,5.28-22.68,1.78s-8.57-15.86-5.78-19.13,12.34,1.39,16.45,4.9S85.68,26.59,82.89,29.86Z"/><path class="cls-10" d="M56.47,27.35a4.29,4.29,0,0,0-1.49,3A2.23,2.23,0,0,0,55.92,32a3.66,3.66,0,0,0,1.25.58,5.31,5.31,0,0,0,.88.19,4.78,4.78,0,0,0,1.77-.15l.39-.13.41-.18a4,4,0,0,0,0,1.29,4.21,4.21,0,0,0,.16.61,2.89,2.89,0,0,0,.27.56c.11.18.22.36.34.53s.25.31.38.46a5.27,5.27,0,0,0,.87.77,6.4,6.4,0,0,0,4.07,1.11,6.83,6.83,0,0,0,3.47-1.15,3.48,3.48,0,0,0,1.61-2.09q.39.59.72,1.2a9.68,9.68,0,0,0,.54.82,4.58,4.58,0,0,0,.94.82,7.46,7.46,0,0,0,1.38.7,9.06,9.06,0,0,0,1.85.44c.35,0,.72.06,1.11.07h.6l.61,0,.64-.07a3,3,0,0,0,.66-.12q.66-.15,1.35-.36a6.19,6.19,0,0,0,3.41-2.32,3,3,0,0,0,.3-.63,2.63,2.63,0,0,0,.13-.62,2.94,2.94,0,0,0-.11-1.14,7.31,7.31,0,0,0-3.06-3.35,46.55,46.55,0,0,1-8.06-2,15.09,15.09,0,0,1-2.3-1,2.76,2.76,0,0,1-.58-.38,1.76,1.76,0,0,1,.34.78,5.52,5.52,0,0,1,.13,1.67,6,6,0,0,1-.11.95c-.09.32-.19.63-.27.91a8.37,8.37,0,0,1-.43,1.31,4.14,4.14,0,0,0-1.7-1.86,8,8,0,0,0-2.78-1.13,5,5,0,0,0-2.9.27,5.9,5.9,0,0,0-.7.38,3.75,3.75,0,0,0-.36.24l-.35.28-.38.31-.43.34c-.3.24-.63.48-1,.74v-.8a1.75,1.75,0,0,1,.09-.69,6.5,6.5,0,0,0,.17-.79c.06-.24.11-.41.14-.6a2.8,2.8,0,0,0,0-1,1.33,1.33,0,0,0-.88-1,6.35,6.35,0,0,0-3.24,0,8.67,8.67,0,0,0,1.83-3.13,5.29,5.29,0,0,0,.15-3,4.23,4.23,0,0,0-.24-.68,2,2,0,0,0-.17-.32c0-.07-.08-.06-.13-.1a11,11,0,0,0-1-.53,34.41,34.41,0,0,1-4.23-2.75,4.22,4.22,0,0,0-1.17.2,3.18,3.18,0,0,0-1,.52,3.66,3.66,0,0,0-.76.81A4.61,4.61,0,0,0,50,18.84a7.92,7.92,0,0,0-.25,1.27,10.75,10.75,0,0,0,0,1.39,5.51,5.51,0,0,0,.09.71c0,.21,0,.33.08.49a6,6,0,0,0,.28.94,5.75,5.75,0,0,0,6.15,3.59Z"/><path class="cls-10" d="M76.94,21.2a3.64,3.64,0,0,0,.39-1.77,2.31,2.31,0,0,0-.06-.52,2.5,2.5,0,0,0,0-.47,2.32,2.32,0,0,0-.29-.85,1.92,1.92,0,0,0-1.66-.89,9.77,9.77,0,0,0-3.6.84c.11-.42.21-.83.28-1.21a2.24,2.24,0,0,0,0-.58,5.61,5.61,0,0,0,0-.58,5.41,5.41,0,0,0-.66-2.06,6.17,6.17,0,0,0-3-2.59,7.08,7.08,0,0,0-1.87-.5,6.84,6.84,0,0,0-.91-.06h-.92a4.4,4.4,0,0,0-1.68.36,1.72,1.72,0,0,0-.87.79c-.14-.32-.29-.85-.56-1.49a7.91,7.91,0,0,0-.52-1,6.92,6.92,0,0,0-.82-1.13A7.77,7.77,0,0,0,59,6.4a7.61,7.61,0,0,0-1.65-.86,6.31,6.31,0,0,0-4.41,0l-.31.12-.28.15a5.54,5.54,0,0,0-.53.3l-.48.34-.42.37a4.8,4.8,0,0,0-.67.82l-.14.21V7.9h0L50,8c-.07.15-.15.29-.21.43a4.75,4.75,0,0,0-.26,2.5,5.71,5.71,0,0,0,.33,1.14,6.5,6.5,0,0,0,.54,1,8.19,8.19,0,0,0,.7.94c.26.29.52.57.8.83a13.88,13.88,0,0,0,1.77,1.39,16.7,16.7,0,0,1,2,.34c.66.15,1.31.33,1.94.54a10.4,10.4,0,0,1,2.89,1.43,4.77,4.77,0,0,1,.52.48,2.52,2.52,0,0,1-.25-.93,7,7,0,0,1,.07-1.77,8.86,8.86,0,0,1,1-3,13.37,13.37,0,0,0,.55,2.33,1.82,1.82,0,0,0,.34.59c.14.2.3.39.46.58a7.16,7.16,0,0,0,1.13,1A5.41,5.41,0,0,0,67.3,19a6.33,6.33,0,0,0,1.84-.19,1.78,1.78,0,0,0,.51-.14l.55-.16A5.55,5.55,0,0,0,71.38,18a7.52,7.52,0,0,0,.35,3.79,2,2,0,0,0,1.44,1.3,2.66,2.66,0,0,0,.89,0,3.74,3.74,0,0,0,.45-.12c.13-.06.25-.14.39-.22.52-.31,1.09-.65,1.54-.95-.51,1.18-.9,2.16-1.25,2.83s-.62,1-.46,1.26.28.21.65.34.91.27,1.65.52a23.76,23.76,0,0,1,2.71,1.12c1,.51,2.13,1.14,3.34,1.85A5,5,0,0,0,85.73,29a3.48,3.48,0,0,0,1.34-1.55c.06-.14.11-.29.16-.44l.09-.47a3.35,3.35,0,0,0,0-1,4,4,0,0,0-.31-1,5.74,5.74,0,0,0-.62-1c-.13-.16-.26-.31-.41-.47l-.48-.45-.25-.21L85,22.23c-.19-.13-.38-.26-.58-.38a11.23,11.23,0,0,0-1.24-.65,10.31,10.31,0,0,0-1.32-.46,9.21,9.21,0,0,0-1.29-.26,8.55,8.55,0,0,0-1.24,0A5.64,5.64,0,0,0,76.94,21.2Z"/><path class="cls-6" d="M110.89,130.08a6.53,6.53,0,0,0,2-4.37,6.72,6.72,0,0,0-1.52-4.51,4.52,4.52,0,0,0-.2-5.6c-1.8-2.36-5.08-2.24-5.47-2.22.77-2.41.46-4.84-.92-6.13a5.66,5.66,0,0,0-2.54-1.3,16.27,16.27,0,0,0-2.32-.22h0a17.76,17.76,0,0,0-1-2c-.31-.45-1-1.15-4.49-1.37-4-.25-5,.56-8.35,0-1.79-.3-1.64-.64-2.54-.58-2.75.16-3.22,2.86-6.54,3.67-1.52.37-2.15,0-3.31.69a5.39,5.39,0,0,0-2.06,2.75,7.72,7.72,0,0,0-6.26,1.31c-.23.18-3.55,2.85-2.58,6a5.26,5.26,0,0,0,3,3.06,5.14,5.14,0,0,0-4,.72,4.61,4.61,0,0,0-1.89,5c.8,2.08,4.3,3.42,7.8,1.66,8.14,4.16,14.35,4.48,18.65,3.91,5.54-.74,13.39-3.7,17.14-.46a5.81,5.81,0,0,0,3.48,1.8A5.54,5.54,0,0,0,110.89,130.08Z"/><path class="cls-11" d="M64.25,120.84c.33,5,20.92,8.73,21.6,8.92,5.8,1.64,22-.15,23.32-4.12,1.49-4.56-15-21.63-22.63-21.25C81.42,104.63,64,116.4,64.25,120.84Z"/><path class="cls-8" d="M88.2,129.68a9.17,9.17,0,0,0-.44-2,4.87,4.87,0,0,0-.38-.88,1.66,1.66,0,0,0-.22-.32.49.49,0,0,0-.12-.13H87a2.44,2.44,0,0,0-.53-.14,1.34,1.34,0,0,0-.4,0,2.49,2.49,0,0,0-.91.33,10.28,10.28,0,0,0-2.46,2.24c-.51-3.56-2.46-5-4.46-5.21a6.16,6.16,0,0,0-2.91.38,4,4,0,0,0-2,1.49c-.1-.58,0-2-.18-3.41v-.51l.09-.44a6.82,6.82,0,0,1,.23-.77.44.44,0,0,0,.61,0,.43.43,0,0,0-.06-.61.44.44,0,0,0-.69.22,12.06,12.06,0,0,1-2.13.61,29.47,29.47,0,0,1-3.25.42,30.52,30.52,0,0,1-3.58,0,7.39,7.39,0,0,0-3.91,3.13,3.35,3.35,0,0,0-.17,2.58,5.74,5.74,0,0,0,2.65,2.93,9,9,0,0,0,4.34,1.3,6.53,6.53,0,0,0,1.71-.16,5.75,5.75,0,0,0,.71-.2l.17-.07a.36.36,0,0,0,.12-.08l.23-.17a23.58,23.58,0,0,0,2.39-2.51,3.7,3.7,0,0,0,.85,2.41,6.19,6.19,0,0,0,2.5,1.94c2,.86,4.64.52,6.6-2.5a9.28,9.28,0,0,0,1.37,3.06,3,3,0,0,0,.72.66,2.11,2.11,0,0,0,.34.16.25.25,0,0,0,.17,0h.57a2,2,0,0,0,.53-.16,3,3,0,0,0,.88-.67,5.52,5.52,0,0,0,1.07-1.81A6,6,0,0,0,90,134a5,5,0,0,0,3.12,1.29,4.38,4.38,0,0,0,3.19-1.22,7.54,7.54,0,0,0,2.1-4.09c-1.73-3.4-3.73-4.62-5.54-4.45a4.5,4.5,0,0,0-2.55,1.25A9,9,0,0,0,88.2,129.68Z"/><path class="cls-8" d="M101.46,114.05a5.25,5.25,0,0,0-1,3.36,1.41,1.41,0,0,0,1.23,1,9.9,9.9,0,0,0,3.6-.21c-.23.38-.42.76-.6,1.1l-.51.87c-.31.52-.56.91-.73,1.21-.34.6-.37.88,0,1.23a7,7,0,0,0,.71.63,10.39,10.39,0,0,1,1,.87,16.94,16.94,0,0,0,1.91,1.88,19.77,19.77,0,0,1-4.06-1.62,12.16,12.16,0,0,1-1.85-1.15,2.78,2.78,0,0,1-.69-.68.14.14,0,0,1,0,.09v.26h0l-.17.17a5.36,5.36,0,0,0-1,1.83,24.37,24.37,0,0,0-.94,5,14.19,14.19,0,0,0,2.53,4.46,4.64,4.64,0,0,0,2,1.26l.3.07h.48a10,10,0,0,0,1.1-.09,10.64,10.64,0,0,0,2.44-.61,8.33,8.33,0,0,0,2.08-1.11,4.8,4.8,0,0,0,1.21-1.29,3.3,3.3,0,0,0,.47-2.45,4.84,4.84,0,0,0-.77-1.81c-.31-.48-.61-.83-.73-1.07a2.84,2.84,0,0,0,1.36,0,2.89,2.89,0,0,0,1.42-.78,3.4,3.4,0,0,0,.55-.7c.07-.13.15-.27.21-.41a4.13,4.13,0,0,0,.17-.45,4.53,4.53,0,0,0,.12-2.07,6.14,6.14,0,0,0-.85-2.26,6.79,6.79,0,0,0-1.74-2,4.89,4.89,0,0,0-4.78-.94,7.13,7.13,0,0,0,.77-3.63,1.74,1.74,0,0,0-1-1.51c-1.06-.42-2.59.2-3.49.75a6.34,6.34,0,0,0,.73-3.62,4.82,4.82,0,0,0-1.43-3,4.51,4.51,0,0,0-3.22-1.23A7.28,7.28,0,0,0,94,107.1a10.88,10.88,0,0,0-.3,4.47,3.89,3.89,0,0,0,1.49,2.51,4.62,4.62,0,0,0,2.79.8A7.88,7.88,0,0,0,101.46,114.05Z"/><path class="cls-8" d="M70.89,113.54c.84.65,2.23,1.47,3.24,1.32a1.44,1.44,0,0,0,1.17-1.14,9.39,9.39,0,0,0,.13-3.62c2.92,2.11,5.19,1.76,6.75.61a5.9,5.9,0,0,0,1.75-2.18,4.3,4.3,0,0,0,.49-2.39,14.56,14.56,0,0,1,1.37,1.76,8.43,8.43,0,0,1,1,2.45,2.57,2.57,0,0,1,.09.67v.12a.14.14,0,0,1,0,.09v.06h0a2,2,0,0,0,1.36,0A6.84,6.84,0,0,0,90,110.4a33.35,33.35,0,0,0,3.86-3.25,12.06,12.06,0,0,0,.84-5.08,4.29,4.29,0,0,0-1-2.33,5.48,5.48,0,0,0-3-1.69l-.3-.07-.33-.06c-.22,0-.45-.07-.68-.09a6.74,6.74,0,0,0-1.27,0,5.89,5.89,0,0,0-2,.58,4.74,4.74,0,0,0-1.69,1.49,5.21,5.21,0,0,0-.47.83l-.17.41a2.79,2.79,0,0,0-.1.39c-.2,1-.15,1.89-.23,2.32a3.56,3.56,0,0,0-2.28-1.26,6.27,6.27,0,0,0-3.29.33c-2.16.82-3.83,3-3,6.47a7.75,7.75,0,0,0-3.53-1.11,1.69,1.69,0,0,0-1.58.87c-.52,1-.08,2.59.37,3.54a6.69,6.69,0,0,0-1.75-.83,6.77,6.77,0,0,0-.89-.21l-.45-.05h-.54a7.62,7.62,0,0,0-2.24.85,8.29,8.29,0,0,0-2,1.59A6.13,6.13,0,0,0,61,116a3.59,3.59,0,0,0-.11,2A3.32,3.32,0,0,0,62,119.69a4.68,4.68,0,0,0,2.15,1c1.22-.49,2.35-.89,3.31-1.17.78-.23,1.57-.43,2.36-.59,1.23-.25,1.73-.3,1.88-.55s0-.68-.26-1.5v-.16a.48.48,0,0,1,0-.17v-.43a6.56,6.56,0,0,0-.09-.88A7.78,7.78,0,0,0,70.89,113.54Z"/><path class="cls-9" d="M95.21,126.85a13.5,13.5,0,0,0-.91-1.56,7,7,0,0,0-.52-.7,2.38,2.38,0,0,0-.53-.47A.81.81,0,0,0,93,124a.71.71,0,0,0-.29,0,.91.91,0,0,0-.31.12,2.57,2.57,0,0,0-.41.26,11.55,11.55,0,0,0-2.19,2.82c-1-3.45-2.78-4.59-4.65-4.7a6,6,0,0,0-2.71.55l-.3.15a1.3,1.3,0,0,0-.23.18l-.43.39a7.22,7.22,0,0,0-.79.87,10.52,10.52,0,0,1,.91-3,7.51,7.51,0,0,1,.9-1.52,3,3,0,0,1,.68-.65,4.33,4.33,0,0,1-.7.21A13.35,13.35,0,0,1,80,120a31.48,31.48,0,0,1-3.5,0c-1.24-.09-2.51-.24-3.69-.44a12.68,12.68,0,0,0-2.6.89,5.57,5.57,0,0,0-2,1.6,3.63,3.63,0,0,0-.74,2.46,4.69,4.69,0,0,0,1.7,3.06A7.3,7.3,0,0,0,73,129.25a7.19,7.19,0,0,0,4.5-.83,7.85,7.85,0,0,0,1-.61c.55-.4.94-.77,1.21-1A2,2,0,0,0,79.9,128a3.77,3.77,0,0,0,.39.64c.08.11.19.22.26.32a2.32,2.32,0,0,0,.22.3,5.89,5.89,0,0,0,2.65,1.86,4.88,4.88,0,0,0,3.45,0A5.62,5.62,0,0,0,89.81,128,6.83,6.83,0,0,0,92,131a2.08,2.08,0,0,0,.51.27,2.13,2.13,0,0,0,.56.1,1.46,1.46,0,0,0,.51,0,2.64,2.64,0,0,0,.47-.17,2,2,0,0,0,.74-.63,2.85,2.85,0,0,0,.48-.87,4.93,4.93,0,0,0,.31-1.83,4.88,4.88,0,0,0,1.36,1.43,4.15,4.15,0,0,0,.86.45,3.88,3.88,0,0,0,1,.26,4.6,4.6,0,0,0,.52.06,4.68,4.68,0,0,0,.53,0l.54-.06a2.13,2.13,0,0,0,.57-.16,3.54,3.54,0,0,0,.57-.22c.18-.08.36-.18.55-.28a5.63,5.63,0,0,0,1-.74,5.26,5.26,0,0,0,1.79-4.45,5.15,5.15,0,0,0-.31-1.15,4.05,4.05,0,0,0-.64-1,4.65,4.65,0,0,0-.93-.84,6,6,0,0,0-1.21-.61c-.47.15-.93.27-1.34.38s-.8.21-1.15.28l-1,.18c-.32,0-.55.08-.79.1-.94.1-1.35.09-1.51.33a1,1,0,0,0-.09.24v.34a.81.81,0,0,1,0,.22v.88l-.11.73a6.64,6.64,0,0,1-.11.82A3.12,3.12,0,0,0,95.21,126.85Z"/><path class="cls-9" d="M80.3,113.61c.34.43.78,1,1.17,1.43l.55.65.12.13.17.1a1.21,1.21,0,0,0,.33.15.94.94,0,0,0,.66,0,1.59,1.59,0,0,0,.68-.52,5.93,5.93,0,0,0,.74-1.17c.26-.52.55-1.17.88-2A8.24,8.24,0,0,0,88,115.65a3.9,3.9,0,0,0,2.54.81,5.69,5.69,0,0,0,2.46-.71,6.4,6.4,0,0,0,1-.7,3.52,3.52,0,0,0,.77-.86,6.27,6.27,0,0,1,0,1.37c0,.59-.11,1.28-.14,2v1.9a2.29,2.29,0,0,1,0,.37v.29a.69.69,0,0,1-.16.22,1.8,1.8,0,0,1,.49-.22,6.4,6.4,0,0,1,1.68-.26,18,18,0,0,1,5.06.63,10.73,10.73,0,0,0,1.26-.37l.62-.24.6-.3a5.75,5.75,0,0,0,1.1-.78,4.7,4.7,0,0,0,.89-1,3.92,3.92,0,0,0,.32-.65,1.37,1.37,0,0,1,.13-.35,2.45,2.45,0,0,0,.08-.37,4.48,4.48,0,0,0,.1-.81,6.36,6.36,0,0,0-.06-.87,6.8,6.8,0,0,0-2.15-3.83,7.08,7.08,0,0,0-1-.81,9,9,0,0,0-1-.58l-.23-.09-.22-.08-.43-.13a3.6,3.6,0,0,0-.81-.12,4.33,4.33,0,0,0-.72,0,3.93,3.93,0,0,0-.67.12,5.42,5.42,0,0,0-1.15.46A7.54,7.54,0,0,0,96.71,111a11.48,11.48,0,0,1-1,1,2.56,2.56,0,0,0-.2-1.19,4.17,4.17,0,0,0-.77-1.23,6,6,0,0,0-3-1.77,5.11,5.11,0,0,0-3.64.37,5.39,5.39,0,0,0-2.54,3.47A9.23,9.23,0,0,0,84.15,110a4.33,4.33,0,0,0-1.28-.87,2.15,2.15,0,0,0-1.09-.17,1.69,1.69,0,0,0-.83.34,1.62,1.62,0,0,0-.32.32l-.14.19-.17.21a3.3,3.3,0,0,0-.42.94,4.3,4.3,0,0,0,0,1.82,5.26,5.26,0,0,0-1.74-1.2,6.08,6.08,0,0,0-3.4-.32,4.29,4.29,0,0,0-.6.13,1.82,1.82,0,0,0-.57.19,6.38,6.38,0,0,0-2,1.22A4.28,4.28,0,0,0,70,116.52a3.68,3.68,0,0,0,.89,1.77,3.33,3.33,0,0,0,.39.36,5.09,5.09,0,0,0,.47.34,5.81,5.81,0,0,0,1.1.52l2-.39.88-.16.82-.13c1-.15,1.86-.23,2.5-.29,1.3-.09,1.85-.08,2-.29s0-.66-.19-1.45c-.09-.38-.18-.85-.26-1.38Z"/><path class="cls-10" d="M77.28,117.42c-2.06,4.12,5.49,14.4,15.09,10.28s6.17-9.94,1.71-11S79.37,113.3,77.28,117.42Z"/><path class="cls-10" d="M90.44,128a9.31,9.31,0,0,0-.72-1.16,4.15,4.15,0,0,0-.43-.51,1.48,1.48,0,0,0-.44-.34.57.57,0,0,0-.22-.07.88.88,0,0,0-.23,0,.77.77,0,0,0-.25.1l-.27.2a21.11,21.11,0,0,0-1.65,2,11,11,0,0,0-.43-1.69,5,5,0,0,0-.25-.64,2.57,2.57,0,0,0-.27-.52,2.66,2.66,0,0,0-1.37-1.21,5.06,5.06,0,0,0-1.85-.3,4.82,4.82,0,0,0-1,.08,2.77,2.77,0,0,0-.82.29c.14-.41.75-1.28,1.25-2.19a6.24,6.24,0,0,0,.35-.68,5.3,5.3,0,0,0,.28-.65v-.08h0l.09-.07.16-.11.18-.08a1.48,1.48,0,0,1-.42,0,6.35,6.35,0,0,1-1.33-.46,16.89,16.89,0,0,1-3.63-2.39c-.33-.07-.66-.13-1-.17a5.57,5.57,0,0,0-1,0,4.23,4.23,0,0,0-1,.14,3.88,3.88,0,0,0-.91.4,3.51,3.51,0,0,0-.77.72c-.1.16-.2.33-.29.5s-.09.19-.13.29-.07.21-.1.31-.1.46-.13.69,0,.53,0,.79v.43l.09.45a1.71,1.71,0,0,0,.12.47,4.52,4.52,0,0,0,.18.47,7,7,0,0,0,.92,1.67c.18.22.37.43.55.61l.28.25.07.06h.06l.13.07a3.26,3.26,0,0,0,1,.37,4.78,4.78,0,0,0,.92.09,11,11,0,0,0,2.6-.59,1.9,1.9,0,0,0-.28.86,3.91,3.91,0,0,0,.11,1.13,4.74,4.74,0,0,0,1.58,2.3,4.25,4.25,0,0,0,3,.94,3.47,3.47,0,0,0,.79-.17,3.24,3.24,0,0,0,.75-.36A4.08,4.08,0,0,0,86,128.86a5.31,5.31,0,0,0,.81,1.5,3.07,3.07,0,0,0,.46.49,3.12,3.12,0,0,0,.47.34,2,2,0,0,0,.45.19,1.59,1.59,0,0,0,.43.06,1.34,1.34,0,0,0,.4,0,1.75,1.75,0,0,0,.34-.15,1.73,1.73,0,0,0,.56-.48,2.32,2.32,0,0,0,.35-.66,4,4,0,0,0,.23-1.37,4.07,4.07,0,0,0,1.62,1.46,4.12,4.12,0,0,0,.67.24,4.42,4.42,0,0,0,.71.13,3.9,3.9,0,0,0,2-.32,3.37,3.37,0,0,0,.61-.36,2.84,2.84,0,0,0,.55-.49,3,3,0,0,0,.47-.6,3.69,3.69,0,0,0,.43-.78l.08-.21a1.42,1.42,0,0,0,.07-.22,2.46,2.46,0,0,1,.11-.45,3.29,3.29,0,0,1,0-.44,3.53,3.53,0,0,0,0-.46,3,3,0,0,0-.23-.87,3.37,3.37,0,0,0-.51-.83L96,124.31c-.32-.08-.61-.17-.87-.26l-.71-.24-.29-.11-.27-.1a3.59,3.59,0,0,0-.47-.12,2,2,0,0,0-.49,0,3.74,3.74,0,0,0-.45.12,1.77,1.77,0,0,0-.41.21,2.66,2.66,0,0,0-.72.66,4.53,4.53,0,0,0-.3.46,4.31,4.31,0,0,0-.22.49c-.07.18-.13.37-.19.57s-.1.4-.15.62A12,12,0,0,0,90.44,128Z"/><path class="cls-10" d="M84.31,115.5a4,4,0,0,0,1.16,2.36c.64.43,1.55.12,3.17-2,.54,2.65,2,3.63,3.6,3.78,1,.11,1.1-.22,1.66-.48l.8-.44a5.64,5.64,0,0,0,.77-.5,4.57,4.57,0,0,1-.44.92,10,10,0,0,1-.84,1.21,5.91,5.91,0,0,1-1,1,1.74,1.74,0,0,1-.61.34,1.55,1.55,0,0,1,.43,0,5.42,5.42,0,0,1,1.23.48,12.51,12.51,0,0,1,3,2.26,6,6,0,0,0,4.22,0,3.15,3.15,0,0,0,.51-.28,2.82,2.82,0,0,0,.46-.38,3.39,3.39,0,0,0,.78-1.06,4.88,4.88,0,0,0-1.54-5.94,3.9,3.9,0,0,0-2.22-.7,7.06,7.06,0,0,0-2.8.77,2,2,0,0,0-.47-2,3.9,3.9,0,0,0-1.21-1c-.12-.07-.24-.14-.37-.2l-.19-.09h-.07a5.62,5.62,0,0,0-.56-.25c-1.55-.58-3.58-.27-5,2.06-.88-2.49-2-3-2.78-2.74a3.31,3.31,0,0,0-1.61,2.16,4.33,4.33,0,0,0-1.56-2.35l-.29-.19-.16-.09-.18-.08a6.55,6.55,0,0,0-.9-.21,5.54,5.54,0,0,0-1-.06,5.67,5.67,0,0,0-1,.11,6.13,6.13,0,0,0-.92.29,5.5,5.5,0,0,0-.81.47,3.47,3.47,0,0,0-.64.63c-.09.11-.17.24-.25.36s-.13.26-.19.39,0,.13-.08.19l-.06.21a.91.91,0,0,1-.07.43,3.1,3.1,0,0,0,.39,1.74,5.51,5.51,0,0,0,.59.84l1.14.24,1,.25.81.26.63.25c.75.32,1.06.5,1.26.41s.18-.15.28-.33.11-.18.17-.3l.07-.09.1-.09.2-.21A6.75,6.75,0,0,0,84.31,115.5Z"/></g></g></svg>