<svg xmlns="http://www.w3.org/2000/svg" viewBox="0 0 95.16 125.26"><defs><style>.cls-1{fill:#35293a;}.cls-2{fill:#534759;}.cls-3{fill:#376840;}.cls-4{fill:#30663c;}.cls-5{fill:#3a7749;}.cls-6{fill:#5b934e;}.cls-7{fill:#a0c697;}.cls-8{fill:#4e5c08;}.cls-9{fill:#538445;}.cls-10{fill:#447f50;}.cls-11{fill:#2f633a;}</style></defs><g id="Слой_2" data-name="Слой 2"><g id="Слой_1-2" data-name="Слой 1"><path class="cls-1" d="M73.36,75.29A25.87,25.87,0,0,1,61.9,87c.06-2.3.17-3.82.34-6.38C63.53,62.06,60.24,40.09,60,30c-.08,8-.48,35.62-2.16,48.29,0,0-5.18-1.79-11.54-16.31a129.26,129.26,0,0,0,9.35,21.29s-1.2,22.08-3.78,31c0,0,7.76.8,11.73-1,0,0-1.84-8.32-1.78-22.26C64.89,89.16,69.79,84.8,73.36,75.29Z"/><path class="cls-2" d="M54,112.28s2.84-19.07,3.18-28.44c0,0-1.34-2.17-2.68-4.18A65.18,65.18,0,0,1,49.5,69c2,3.35,3.51,8.7,9,11,1.34-6,1.68-27.6,1.84-37.3,1,9,1.15,25.73.51,39-.34,6.85.33,7,.33,7s4.68-2.34,7.19-5.18a24.7,24.7,0,0,1-7.36,7c-.83,1.67-.33,16.9,1.34,22.25C60.69,114.45,53.66,114.62,54,112.28Z"/><path class="cls-3" d="M35,28.64c-2.83,11.68,13.1,26.6,29.77,26.2s24.61-13.49,21.83-25.4S41.71.86,35,28.64Z"/><path class="cls-4" d="M48,49.75a7.11,7.11,0,0,0,.24-1.58,2.9,2.9,0,0,0-.3-1.56,1.61,1.61,0,0,0-.52-.52,1.9,1.9,0,0,0-.87-.22,5,5,0,0,0-1.33.12c-.27,0-.56.13-.88.21s-.66.18-1,.3a6.82,6.82,0,0,0,.23-3.77A5.3,5.3,0,0,0,43,41.36a3.35,3.35,0,0,0-.42-.57,3.8,3.8,0,0,0-.46-.52,7,7,0,0,0-2.26-1.42,6,6,0,0,0-1.17-.33,2.8,2.8,0,0,0-1,0c.25-.45,1.18-1.3,1.92-2.3.18-.24.38-.5.54-.76a6.09,6.09,0,0,0,.42-.8,2.7,2.7,0,0,0,.26-.82,2.26,2.26,0,0,0,0-.82,1.9,1.9,0,0,0-.2-.73,2.16,2.16,0,0,0-.42-.57,6.62,6.62,0,0,0-1.36-1l-.9-.49-1-.51c-.66-.35-1.35-.72-2-1.11a11.75,11.75,0,0,0-2.28.35,6.25,6.25,0,0,0-1.12.41,5,5,0,0,0-1,.64,4.54,4.54,0,0,0-1.45,2.15,5.68,5.68,0,0,0-.24,1.53,7.77,7.77,0,0,0,.21,1.8,7.32,7.32,0,0,0,.65,1.62,5.4,5.4,0,0,0,.9,1.12,4.42,4.42,0,0,0,1,.71,4.51,4.51,0,0,0,1,.39,7.48,7.48,0,0,0,1.89.18,10.11,10.11,0,0,1,1.25,0,2.11,2.11,0,0,0-.53.93,3.69,3.69,0,0,0-.17,1.36,5.48,5.48,0,0,0,.27,1.6A6.75,6.75,0,0,0,36.1,45c.17.25.34.5.54.74a5.69,5.69,0,0,0,.66.64,5.14,5.14,0,0,0,1.58.93,5,5,0,0,0,4-.31c-.06.39-.09.76-.11,1.1a7.22,7.22,0,0,0,0,.93,4.33,4.33,0,0,0,.33,1.41,2,2,0,0,0,1.4,1.24,2.65,2.65,0,0,0,1.68-.26,5.24,5.24,0,0,0,1.35-.93,5.64,5.64,0,0,0,0,1.74A5.13,5.13,0,0,0,48,53.85a4.83,4.83,0,0,0,1,1.37,4.3,4.3,0,0,0,.65.55,4.93,4.93,0,0,0,.74.43,4.71,4.71,0,0,0,.81.32,6.21,6.21,0,0,0,.86.16,4.41,4.41,0,0,0,.89,0,4.69,4.69,0,0,0,.91-.16,4.86,4.86,0,0,0,.9-.33,7.86,7.86,0,0,0,.87-.54A7.11,7.11,0,0,0,57.27,54a12.08,12.08,0,0,0-.54-2.21,6.68,6.68,0,0,0-.37-.87,5.13,5.13,0,0,0-.43-.76,4.88,4.88,0,0,0-.48-.62,4.18,4.18,0,0,0-.53-.5,3,3,0,0,0-.57-.38,3.71,3.71,0,0,0-.61-.28,4,4,0,0,0-.66-.17,5.23,5.23,0,0,0-.68-.07,5.82,5.82,0,0,0-1.44.14,7,7,0,0,0-1.49.53A7.61,7.61,0,0,0,48,49.75Z"/><path class="cls-4" d="M81.55,47.41a7.54,7.54,0,0,0-1.49-.58,3,3,0,0,0-1.53-.1,1.17,1.17,0,0,0-.6.34,2.27,2.27,0,0,0-.22.32,1.78,1.78,0,0,0-.18.43,6.24,6.24,0,0,0-.22,1.28c0,.53,0,1.2-.06,2a7.67,7.67,0,0,0-3.44-1.48,3,3,0,0,0-.73,0,4,4,0,0,0-.7.06,5.24,5.24,0,0,0-1.29.41l-.6.32a4.24,4.24,0,0,0-.56.38,6,6,0,0,0-1,.88,3.7,3.7,0,0,0-1.11,2c-.34-.4-.81-1.57-1.54-2.6A6.54,6.54,0,0,0,65,49.66l-.4-.26a3.61,3.61,0,0,0-.44-.22,2.6,2.6,0,0,0-.47-.16,4.71,4.71,0,0,0-.52-.09,3.35,3.35,0,0,0-1,0,3,3,0,0,0-.88.26l-.41.23c-.13.09-.26.17-.38.27a5.87,5.87,0,0,0-.72.69,13,13,0,0,0-1.3,1.75c-.4.64-.79,1.32-1.17,2a19.57,19.57,0,0,0,.26,2.29,6.88,6.88,0,0,0,.75,2.15,4.61,4.61,0,0,0,.67.92,2.72,2.72,0,0,0,.43.4c.15.12.32.23.49.34a5.9,5.9,0,0,0,1.22.5,6.62,6.62,0,0,0,1.54.18,3.57,3.57,0,0,0,.8,0,5.93,5.93,0,0,0,.73-.16,5,5,0,0,0,.65-.22,2.94,2.94,0,0,0,.55-.3,4.81,4.81,0,0,0,1.56-1.58,16.44,16.44,0,0,0,1.18-2.88,2.29,2.29,0,0,0,.68.83,3.17,3.17,0,0,0,.54.36,2.56,2.56,0,0,0,.65.3,6,6,0,0,0,1.57.33h.88a6.94,6.94,0,0,0,.9-.12,5.81,5.81,0,0,0,1.75-.62,4.82,4.82,0,0,0,2.55-5.06,7.7,7.7,0,0,0,1.92.68,4.15,4.15,0,0,0,1.49,0,2.91,2.91,0,0,0,.58-.15,2,2,0,0,0,.45-.26,2.13,2.13,0,0,0,.61-.69,2.81,2.81,0,0,0,.17-1.74,4.92,4.92,0,0,0-.62-1.52,4.84,4.84,0,0,0,2.58.29l.43-.08.41-.13a5.11,5.11,0,0,0,1.56-.88,4.92,4.92,0,0,0,.66-.63,6.46,6.46,0,0,0,.54-.75,5,5,0,0,0,.65-3.65,3.89,3.89,0,0,0-.3-1,6.18,6.18,0,0,0-.5-.91A6.68,6.68,0,0,0,86.6,38.8a16.59,16.59,0,0,0-2.19.52,7.2,7.2,0,0,0-.88.33c-.26.12-.53.24-.75.37A4.12,4.12,0,0,0,81,41.88a3.49,3.49,0,0,0-.2.57,3.24,3.24,0,0,0-.12.62,6.18,6.18,0,0,0,0,1.36l.06.37a2.38,2.38,0,0,0,.06.37,6.49,6.49,0,0,0,.19.76A9,9,0,0,0,81.55,47.41Z"/><path class="cls-4" d="M73.93,18.49a6.2,6.2,0,0,0-.09,1.61,2.74,2.74,0,0,0,.46,1.52,1.64,1.64,0,0,0,1.49.61,9.33,9.33,0,0,0,3.16-1A7,7,0,0,0,79.17,25a5,5,0,0,0,1.65,2.22A7,7,0,0,0,83,28.32a5.12,5.12,0,0,0,2.13.21,3.89,3.89,0,0,1-.34.36c-.15.14-.34.29-.54.45s-.42.33-.66.49-.49.31-.73.44a.86.86,0,0,0-.18.14l-.17.17a3.51,3.51,0,0,0-.33.34,5.73,5.73,0,0,0-.57.73,3.36,3.36,0,0,0-.39.81,2.18,2.18,0,0,0-.11.44,3.84,3.84,0,0,0,0,.48,2.88,2.88,0,0,0,.44,1.68,4.07,4.07,0,0,0,.55.69,6.32,6.32,0,0,0,.72.64,16.9,16.9,0,0,0,1.8,1.18l2,1.13a9.12,9.12,0,0,0,1.15-.11,11.34,11.34,0,0,0,1.14-.2,6.71,6.71,0,0,0,2.15-.87,4.41,4.41,0,0,0,1.58-1.79,4.94,4.94,0,0,0,.41-1.34,6.51,6.51,0,0,0,0-1.65,4.74,4.74,0,0,0-.13-.84,6.49,6.49,0,0,0-.23-.75A5.15,5.15,0,0,0,92,29.94a4.62,4.62,0,0,0-1.32-1.17l-.23-.14-.25-.14a4.84,4.84,0,0,0-1-.48,5.69,5.69,0,0,0-.91-.2,6.52,6.52,0,0,1-.74-.09,5,5,0,0,1-.54-.06,2,2,0,0,0,.56-1,3.87,3.87,0,0,0,.12-.68,5,5,0,0,0,0-.77,6.57,6.57,0,0,0-1.38-3.32,5.7,5.7,0,0,0-3.08-2,5,5,0,0,0-3.91.77,6.47,6.47,0,0,0-.63-3.38,1.93,1.93,0,0,0-1.5-1.07,2.74,2.74,0,0,0-1.63.43,5,5,0,0,0-1.25,1,5.59,5.59,0,0,0-.11-1.73,5.12,5.12,0,0,0-.61-1.56,5.2,5.2,0,0,0-2.44-2.17A4.89,4.89,0,0,0,67.79,12a5.66,5.66,0,0,0-1.72.9,7.54,7.54,0,0,0-1.58,1.66c.52,3.33,2,5,3.77,5.56a5,5,0,0,0,2.86,0,6.58,6.58,0,0,0,1.47-.63A7.77,7.77,0,0,0,73.93,18.49Z"/><path class="cls-4" d="M39.89,19.87a8.1,8.1,0,0,0,1.5.6,6.91,6.91,0,0,0,.79.16,2.18,2.18,0,0,0,.72,0,1.3,1.3,0,0,0,.57-.32,2.14,2.14,0,0,0,.41-.72,6.68,6.68,0,0,0,.24-1.26c.07-.52.1-1.18.15-1.95.31.25.61.46.9.65a9.17,9.17,0,0,0,.86.5,6.5,6.5,0,0,0,1.55.55,4.73,4.73,0,0,0,2.71-.23,7.32,7.32,0,0,0,2.28-1.39,3.87,3.87,0,0,0,1.27-1.86c.31.44.69,1.6,1.34,2.7a6.09,6.09,0,0,0,1.22,1.51,3.74,3.74,0,0,0,1.87.86,3.92,3.92,0,0,0,3.65-1.31,19.63,19.63,0,0,0,2.55-3.7,11.56,11.56,0,0,0-.93-4.45,4.53,4.53,0,0,0-4.07-2.48,5.18,5.18,0,0,0-2.68.55,5,5,0,0,0-1.66,1.47,16.83,16.83,0,0,0-1.4,2.78A3.11,3.11,0,0,0,52,10.9a6.25,6.25,0,0,0-3.33-.5A5.79,5.79,0,0,0,45.27,12a4.44,4.44,0,0,0-1,1.65,4.88,4.88,0,0,0-.25,1,5.53,5.53,0,0,0,0,1.15,6.83,6.83,0,0,0-1.9-.77,4,4,0,0,0-1.5-.08,2.56,2.56,0,0,0-1.07.39,1.89,1.89,0,0,0-.37.32,2,2,0,0,0-.26.38,2.2,2.2,0,0,0-.26.86,3.39,3.39,0,0,0,0,.9,4.51,4.51,0,0,0,.61,1.53,4.84,4.84,0,0,0-1.72-.35,5.09,5.09,0,0,0-1.73.31,5.37,5.37,0,0,0-2.72,2.34,5.18,5.18,0,0,0-.62,1.74,3.69,3.69,0,0,0-.06.94,3.73,3.73,0,0,0,.12.94A5.13,5.13,0,0,0,33.36,27,7.12,7.12,0,0,0,35,28.65a12,12,0,0,0,2.21-.51,8.21,8.21,0,0,0,1.63-.73,7,7,0,0,0,.63-.43,4.42,4.42,0,0,0,.5-.47,3.61,3.61,0,0,0,.68-1A4.7,4.7,0,0,0,40.9,23a9.31,9.31,0,0,0-.33-1.48A9.57,9.57,0,0,0,39.89,19.87Z"/><path class="cls-5" d="M39.33,14c-4.4,7.51-3.57,21,7.14,29.77,9,7.29,36.54,4.21,40.89-4C94.11,27,83.36,14.47,70.08,12,59.57,10,51.63-7.08,39.33,14Z"/><path class="cls-5" d="M42.84,39.46A7,7,0,0,0,43.61,38a3,3,0,0,0,.27-1.56,1.37,1.37,0,0,0-.3-.67,2,2,0,0,0-.72-.54,5.76,5.76,0,0,0-1.28-.4c-.54-.11-1.18-.22-2-.31A7.76,7.76,0,0,0,41.12,32a5.39,5.39,0,0,0,0-3.66A7.65,7.65,0,0,0,39.69,26a5.56,5.56,0,0,0-.9-.85,2.79,2.79,0,0,0-.94-.48c.43-.3,1.63-.66,2.74-1.27a6.73,6.73,0,0,0,1.56-1.09,3.6,3.6,0,0,0,1-1.62,4.1,4.1,0,0,0,.1-.48,3.38,3.38,0,0,0,0-.45,3,3,0,0,0-.13-.84,3.42,3.42,0,0,0-.35-.81,6.09,6.09,0,0,0-.52-.8c-.44-.57-.91-1.12-1.4-1.64S39.79,14.52,39.28,14a12.05,12.05,0,0,0-2.3-.34,6.14,6.14,0,0,0-2.33.3,4.43,4.43,0,0,0-1.09.54,5.21,5.21,0,0,0-1,.87,5.5,5.5,0,0,0-.76,1.25,7.08,7.08,0,0,0-.28.77c-.08.27-.14.56-.2.87a5.59,5.59,0,0,0,.29,3A4.62,4.62,0,0,0,33,23.09a14.25,14.25,0,0,0,2.74,1.56,3.14,3.14,0,0,0-1.66,1.79,6.65,6.65,0,0,0-.5,3.44,6,6,0,0,0,1.56,3.46,4,4,0,0,0,.74.63,4.46,4.46,0,0,0,.89.47,5.25,5.25,0,0,0,2.15.38,8.53,8.53,0,0,0-.85,1.87,4.43,4.43,0,0,0-.2,1.49,2.55,2.55,0,0,0,.28,1.08,2,2,0,0,0,.62.69,2.78,2.78,0,0,0,1.71.41,4.92,4.92,0,0,0,1.6-.38,5.36,5.36,0,0,0-.6,1.65,5.08,5.08,0,0,0,0,1.74,5.43,5.43,0,0,0,1.67,3.1,3.17,3.17,0,0,0,.34.3,4,4,0,0,0,.39.29c.16.11.32.2.48.29s.33.17.49.24a6.82,6.82,0,0,0,1,.31,4.76,4.76,0,0,0,1,.07,5.41,5.41,0,0,0,3.86-2A13.3,13.3,0,0,0,49.93,42c-.1-.24-.18-.46-.28-.66a5.54,5.54,0,0,0-.3-.53l-.15-.22-.15-.2-.22-.22L48.57,40A5.3,5.3,0,0,0,46,39a6,6,0,0,0-1.58,0A8,8,0,0,0,42.84,39.46Z"/><path class="cls-5" d="M77.84,45.28a4.53,4.53,0,0,0-2.45-2,1.74,1.74,0,0,0-1.56.57,9.11,9.11,0,0,0-1.72,2.91A5.71,5.71,0,0,0,66.05,44a7.28,7.28,0,0,0-2.72,1.11,3.6,3.6,0,0,0-1.52,1.75c-.28-.45-.6-1.65-1.24-2.79a4.73,4.73,0,0,0-3.18-2.53,3.89,3.89,0,0,0-2.06.09,4.84,4.84,0,0,0-1.65,1,26.84,26.84,0,0,0-2.84,3.45,9.87,9.87,0,0,0,.66,4.56A4.65,4.65,0,0,0,53,52.45a5.53,5.53,0,0,0,2.69.93,4.88,4.88,0,0,0,4.47-1.81,20,20,0,0,0,1.58-2.68,3.26,3.26,0,0,0,1.6,1.77,7,7,0,0,0,3.15.92,5.37,5.37,0,0,0,5.71-4.15,6.53,6.53,0,0,0,2.83,2,2,2,0,0,0,1.88-.24,3.86,3.86,0,0,0,1.18-3.06A5.3,5.3,0,0,0,81,48a5.4,5.4,0,0,0,3.54-.35A5.52,5.52,0,0,0,87.3,44.8a5,5,0,0,0,.4-2.16A4.68,4.68,0,0,0,87,40.38c-1.66-.35-2.85-.7-3.83-.79a3.82,3.82,0,0,0-2.49.51,5.29,5.29,0,0,0-1.87,2A7.42,7.42,0,0,0,77.84,45.28Z"/><path class="cls-5" d="M80.28,16.77a4.8,4.8,0,0,0-.2,3.15,1.56,1.56,0,0,0,.46.56,2.1,2.1,0,0,0,.84.32,5.92,5.92,0,0,0,1.33,0,16.52,16.52,0,0,0,2-.22,8,8,0,0,0-.9,3.68,5.22,5.22,0,0,0,.25,1.41,4.62,4.62,0,0,0,.23.62,2.69,2.69,0,0,0,.16.29,1.59,1.59,0,0,0,.15.29,7.83,7.83,0,0,0,1.71,1.92,5.68,5.68,0,0,0,1,.68,2.78,2.78,0,0,0,1,.35c-.41.33-1.54.81-2.62,1.43a7.41,7.41,0,0,0-1.49,1,3.1,3.1,0,0,0-.56.64c-.06.11-.15.23-.21.36a2.86,2.86,0,0,0-.15.41,2.38,2.38,0,0,0-.12.84,2.25,2.25,0,0,0,.12.81,4.05,4.05,0,0,0,.33.81,7,7,0,0,0,.51.82,18.39,18.39,0,0,0,1.37,1.69c.27.25.54.51.8.79s.5.57.73.87a8.88,8.88,0,0,0,1.13.28,9.24,9.24,0,0,0,3.51-.15A4.51,4.51,0,0,0,92.75,40a4.84,4.84,0,0,0,1-.86,6.46,6.46,0,0,0,.8-1.27,8.51,8.51,0,0,0,.51-1.72c0-.33.07-.64.08-.94a4.78,4.78,0,0,0-.37-2.32,4.85,4.85,0,0,0-1.49-1.92,11.72,11.72,0,0,0-2.87-1.39,2,2,0,0,0,.83-.73,4.8,4.8,0,0,0,.6-1.3,6.63,6.63,0,0,0-.14-3.64c0-.16-.11-.32-.17-.48s-.14-.3-.21-.46a8.18,8.18,0,0,0-.52-.86,5.44,5.44,0,0,0-1.44-1.39,4.78,4.78,0,0,0-4-.54,8,8,0,0,0,.34-2,4.67,4.67,0,0,0-.21-1.49,2.56,2.56,0,0,0-.57-1,1.9,1.9,0,0,0-.78-.5,3.67,3.67,0,0,0-3.2.86,5.11,5.11,0,0,0,.13-1.74,8.85,8.85,0,0,0-.16-.87,5.64,5.64,0,0,0-.31-.81,5.29,5.29,0,0,0-.44-.77,6.13,6.13,0,0,0-.57-.69,5.7,5.7,0,0,0-1.46-1.08,4.44,4.44,0,0,0-.85-.34,4.7,4.7,0,0,0-.9-.21,5.23,5.23,0,0,0-1.89.11,5.42,5.42,0,0,0-1.84.85,6,6,0,0,0-.85.73,7.6,7.6,0,0,0-.77.93c.07.39.15.78.26,1.17a9,9,0,0,0,.33,1,7.61,7.61,0,0,0,.39.88,5.7,5.7,0,0,0,.43.76,5.37,5.37,0,0,0,1,1.13,5.72,5.72,0,0,0,.57.39,4.15,4.15,0,0,0,.6.29,4.59,4.59,0,0,0,1.32.29h.72a6,6,0,0,0,.73-.07l.76-.18c.25-.07.5-.16.76-.26A9.22,9.22,0,0,0,80.28,16.77Z"/><path class="cls-5" d="M46.21,6.06a9.2,9.2,0,0,0,1.37.85A3.84,3.84,0,0,0,49,7.37a1.11,1.11,0,0,0,1-.67c.15-.27.31-.61.52-1.08.1-.23.22-.48.36-.77s.31-.61.51-.94c.33.72.64,1.33.93,1.85A8.3,8.3,0,0,0,53.15,7a4.46,4.46,0,0,0,2.14,1.45c1.71.61,4.05.65,5-.21a26.36,26.36,0,0,0-.3,3.07,4.79,4.79,0,0,0,.52,2.1,5,5,0,0,0,2,2,6.12,6.12,0,0,0,3,.91,4.76,4.76,0,0,0,2.5-.61A5.39,5.39,0,0,0,69,15a5.66,5.66,0,0,0,.42-.43l.19-.23a1,1,0,0,0,.17-.24c.4-.64.78-1.32,1.16-2a18,18,0,0,0-.34-2.3,1.31,1.31,0,0,1,0-.28V9.28l-.07-.54a5.09,5.09,0,0,0-.17-1,5.17,5.17,0,0,0-.57-1.67A3.1,3.1,0,0,0,68.41,4.9a4.39,4.39,0,0,0-2.11-.39,6,6,0,0,0-2,.49c-1.22.52-2.18,1.32-2.68,1.53a3.3,3.3,0,0,0-.38-2.34A6.46,6.46,0,0,0,59,1.7a6.09,6.09,0,0,0-4-1,4.64,4.64,0,0,0-2,.75,4,4,0,0,0-1.41,1.76,4.5,4.5,0,0,0-3.15-2A2.64,2.64,0,0,0,46.17,2a2.63,2.63,0,0,0-.66,1.75,4.33,4.33,0,0,0,.31,1.63,4.73,4.73,0,0,0-3.45-.54,5.56,5.56,0,0,0-3.08,1.82A5.1,5.1,0,0,0,38,10a5.68,5.68,0,0,0,.34,2,8,8,0,0,0,1.12,2,9.76,9.76,0,0,0,2.29.06,7.64,7.64,0,0,0,1.83-.38A4.91,4.91,0,0,0,46,11.83a5.16,5.16,0,0,0,.83-2.61A9.45,9.45,0,0,0,46.21,6.06Z"/><path class="cls-6" d="M54.63,4.45c-10.44-1.37-15.13,24.73-1,32.93s25.63,2,29.26-2.29S77.63,7.47,54.63,4.45Z"/><path class="cls-6" d="M46.52,27.76a7.36,7.36,0,0,0,1.21-1.09,3.15,3.15,0,0,0,.79-1.4A1.72,1.72,0,0,0,48,23.74a10.87,10.87,0,0,0-2.78-1.92c2.81-1.59,3.6-3.57,3.68-5.51a8.48,8.48,0,0,0-.41-2.78,4,4,0,0,0-1.19-1.95,5.7,5.7,0,0,1,1.24-.05h1.78a6.25,6.25,0,0,0,3.14-.75.61.61,0,0,0,.25-.34,1,1,0,0,0,0-.42,5.67,5.67,0,0,1-.15-1.42,10.6,10.6,0,0,1,1.09-4.13,7.31,7.31,0,0,0-.78-2.23A4.52,4.52,0,0,0,52,.45a5.06,5.06,0,0,0-3.32-.3,7.08,7.08,0,0,0-1.94.77A7.62,7.62,0,0,0,44.88,2.4a6.12,6.12,0,0,0-1.67,3.33,4.68,4.68,0,0,0,.32,2.48,6.8,6.8,0,0,0,1,1.65,12.8,12.8,0,0,1,.81,1A3.17,3.17,0,0,0,43.1,12a7,7,0,0,0-1.76,3.16,6.26,6.26,0,0,0,.18,3.92,5,5,0,0,0,3,2.86,6.11,6.11,0,0,0-2.2,2.84,2.4,2.4,0,0,0,.24,2.07A2.83,2.83,0,0,0,44,27.87a4.84,4.84,0,0,0,1.65.22A4.86,4.86,0,0,0,44,31.21,5.73,5.73,0,0,0,44.9,35a5.65,5.65,0,0,0,3.25,2.46,5.39,5.39,0,0,0,4.35-.7,14.57,14.57,0,0,0,.31-4.06,4.52,4.52,0,0,0-.92-2.5,5.69,5.69,0,0,0-2.17-1.59A8.67,8.67,0,0,0,46.52,27.76Z"/><path class="cls-6" d="M79.26,37.59a8.14,8.14,0,0,0-1.33-.93,5.37,5.37,0,0,0-.78-.33,2.4,2.4,0,0,0-.75-.12,1.61,1.61,0,0,0-.71.2,2.24,2.24,0,0,0-.65.65,12.63,12.63,0,0,0-1.27,3.12,7.67,7.67,0,0,0-3.1-2.3,5.73,5.73,0,0,0-2.93-.3,8.39,8.39,0,0,0-2.67.88,5,5,0,0,0-1.06.7,2.65,2.65,0,0,0-.68.81c-.21-.49-.34-1.72-.73-2.95a6.42,6.42,0,0,0-.85-1.77,4.09,4.09,0,0,0-1.62-1.35,4.42,4.42,0,0,0-1-.36,4.21,4.21,0,0,0-1-.07,4.78,4.78,0,0,0-1,.19,5.7,5.7,0,0,0-1,.37,7.52,7.52,0,0,0-1,.56c-.29.2-.59.43-.89.66l-1.81,1.42a11.9,11.9,0,0,0-.5,2.28,5.92,5.92,0,0,0,0,1.19,6.33,6.33,0,0,0,.13,1.15,5.57,5.57,0,0,0,.37,1.11,5.32,5.32,0,0,0,1.68,1.9,6.76,6.76,0,0,0,1.48.72,5.78,5.78,0,0,0,3,.28,5,5,0,0,0,2.13-1A15.4,15.4,0,0,0,62.86,42a2.2,2.2,0,0,0,.44,1,4.74,4.74,0,0,0,1,1,7.16,7.16,0,0,0,3.41,1.19,6.39,6.39,0,0,0,3.89-.88,5,5,0,0,0,2.24-3.5,5.92,5.92,0,0,0,3.27,1.53,2.55,2.55,0,0,0,1.16-.15,2,2,0,0,0,.82-.54,2.49,2.49,0,0,0,.49-.79,3.47,3.47,0,0,0,.21-.9,4.84,4.84,0,0,0-.17-1.65,4.76,4.76,0,0,0,3.45.82l.47-.09.24-.07h.12l.14-.06a6.1,6.1,0,0,0,1.11-.63,5.16,5.16,0,0,0,1.82-2,5.5,5.5,0,0,0,.55-2.71q0-.35-.06-.69a2.6,2.6,0,0,0-.15-.67c-.06-.22-.13-.44-.21-.65a2.73,2.73,0,0,0-.27-.54,5.35,5.35,0,0,0-3.77-2.32,15.91,15.91,0,0,0-2.88,2.86c-.07.1-.15.21-.22.23l-.2.15-.3.25a.92.92,0,0,0-.29.44,2,2,0,0,0,0,.59v.74a2,2,0,0,0-.06.35A9.32,9.32,0,0,0,79.26,37.59Z"/><path class="cls-6" d="M65,8a4.55,4.55,0,0,0,.47,3.19,1.46,1.46,0,0,0,.6.5,2.15,2.15,0,0,0,1,.19,10.22,10.22,0,0,0,3.31-.8,6.15,6.15,0,0,0,2.07,6.42A8.27,8.27,0,0,0,75,18.88a3.79,3.79,0,0,0,2.33.13c-.18.51-.93,1.5-1.45,2.7a6.21,6.21,0,0,0-.53,1.94,4.22,4.22,0,0,0,.36,2.13A4,4,0,0,0,77,27.44a5.1,5.1,0,0,0,1.8.79,25.79,25.79,0,0,0,4.47.48,9.46,9.46,0,0,0,3.39-3.17,4.73,4.73,0,0,0,.6-2.35,6,6,0,0,0-.85-2.89,5.56,5.56,0,0,0-2-2.14,5,5,0,0,0-2.19-.66,17.5,17.5,0,0,0-3.15.29,3.27,3.27,0,0,0,.36-2.43A7.16,7.16,0,0,0,78,12.19,6.28,6.28,0,0,0,74.88,10a5.2,5.2,0,0,0-4.08.5A6.36,6.36,0,0,0,70.14,7a2.63,2.63,0,0,0-.75-.84,2.13,2.13,0,0,0-.87-.35,3.74,3.74,0,0,0-3,1.38,5.8,5.8,0,0,0-.18-1.76,5.16,5.16,0,0,0-.75-1.59,5.75,5.75,0,0,0-4.66-2.51,5.45,5.45,0,0,0-1.88.31,5.74,5.74,0,0,0-1.77,1,7.61,7.61,0,0,0-1.5,1.8,12,12,0,0,0,.85,2.15A7.85,7.85,0,0,0,56.7,8.14a5.06,5.06,0,0,0,2.58,1.59,5.77,5.77,0,0,0,3-.13A7.31,7.31,0,0,0,65.18,8Z"/><path class="cls-7" d="M79,26.66c-2.49,2.92-16.57,4.72-20.24,1.59S51.13,14.1,53.62,11.18s11,1.23,14.69,4.37S81.51,23.74,79,26.66Z"/><path class="cls-7" d="M55.45,24.42a3.83,3.83,0,0,0-1.33,2.72,2,2,0,0,0,.85,1.5,3.23,3.23,0,0,0,1.11.52,5.14,5.14,0,0,0,.78.16,4.41,4.41,0,0,0,.89,0,5.63,5.63,0,0,0,.69-.14l.35-.11.36-.16a3.63,3.63,0,0,0,0,1.14,4.94,4.94,0,0,0,.15.55,3.22,3.22,0,0,0,.23.5c.1.16.2.32.31.47A5.31,5.31,0,0,0,61,32.67a5.74,5.74,0,0,0,3.64,1,6.25,6.25,0,0,0,3.1-1,4.74,4.74,0,0,0,1-.9,2.47,2.47,0,0,0,.46-1,10.43,10.43,0,0,1,.64,1.07c.14.23.29.48.48.74a3.86,3.86,0,0,0,.84.72,5.72,5.72,0,0,0,1.23.63,7.86,7.86,0,0,0,1.66.39c.33,0,.66.06,1,.07h1.08l.58-.07a4,4,0,0,0,.59-.1c.38-.09.79-.19,1.2-.33a5.55,5.55,0,0,0,3-2.07,2.23,2.23,0,0,0,.27-.56,2.57,2.57,0,0,0,.12-.55,2.26,2.26,0,0,0,0-.52,3.86,3.86,0,0,0-.09-.49,6.48,6.48,0,0,0-2.74-3A40.31,40.31,0,0,1,71.82,25a13.76,13.76,0,0,1-2-.88,3.11,3.11,0,0,1-.52-.34,2,2,0,0,1,.31.69,5.33,5.33,0,0,1,.11,1.49,6,6,0,0,1-.1.85c-.08.29-.17.56-.24.82A9.4,9.4,0,0,1,69,28.76a2.57,2.57,0,0,0-.57-.88,4.42,4.42,0,0,0-1-.78,7,7,0,0,0-2.48-1,4.42,4.42,0,0,0-2.59.24c-.2.09-.42.21-.63.33l-.32.22-.31.25-.34.28-.38.3c-.27.21-.56.43-.88.66v-.71a4.2,4.2,0,0,1,.08-.62,2.78,2.78,0,0,1,.15-.7c0-.21.09-.37.12-.54a2.48,2.48,0,0,0,0-.86,1.17,1.17,0,0,0-.79-.89,5.66,5.66,0,0,0-2.89,0,7.86,7.86,0,0,0,1.63-2.79,4.87,4.87,0,0,0,.14-2.7,3.89,3.89,0,0,0-.22-.6,1.59,1.59,0,0,0-.15-.29c0-.06-.07-.05-.12-.09s-.47-.27-.87-.48-.9-.49-1.53-.89-1.37-.92-2.24-1.55a3.39,3.39,0,0,0-1,.17,3,3,0,0,0-.88.46,3.37,3.37,0,0,0-.68.73,3.77,3.77,0,0,0-.46,1,5.53,5.53,0,0,0-.23,1.13,6.42,6.42,0,0,0,0,1.24,4.52,4.52,0,0,0,.08.63,3.32,3.32,0,0,0,.06.44,4.78,4.78,0,0,0,.25.84,5.12,5.12,0,0,0,5.49,3.2Z"/><path class="cls-7" d="M73.71,19a3.21,3.21,0,0,0,.35-1.58,3.84,3.84,0,0,0,0-.48,2.94,2.94,0,0,0,0-.42,2,2,0,0,0-.27-.75,1.72,1.72,0,0,0-1.47-.79,8.34,8.34,0,0,0-3.22.75c.1-.38.19-.75.25-1.09a4.51,4.51,0,0,0,0-.52,4.34,4.34,0,0,0,0-.51,4.74,4.74,0,0,0-.59-1.84A5.58,5.58,0,0,0,66,9.41,6.8,6.8,0,0,0,64.38,9a7.34,7.34,0,0,0-.81-.05h-.83a3.84,3.84,0,0,0-1.5.31,1.52,1.52,0,0,0-.77.71c-.13-.28-.26-.76-.5-1.33a6.34,6.34,0,0,0-.47-.94,8,8,0,0,0-.73-1,6.75,6.75,0,0,0-1.07-1,6.21,6.21,0,0,0-1.47-.76,5.57,5.57,0,0,0-3.94,0L52,5l-.25.13a4.31,4.31,0,0,0-.47.26c-.14.1-.29.19-.42.3L50.5,6a4.1,4.1,0,0,0-.6.72l-.12.19V7h0l-.06.1-.18.38A4.85,4.85,0,0,0,49.22,9a3,3,0,0,0,.06.73,4.12,4.12,0,0,0,.18.69,6.46,6.46,0,0,0,1.46,2.37,8.9,8.9,0,0,0,1,.94c.35.29.71.55,1.07.8a16.63,16.63,0,0,1,4.54,1.19,7.61,7.61,0,0,1,1.55.87,2.49,2.49,0,0,1,.44.42,2.61,2.61,0,0,1-.22-.83,5.91,5.91,0,0,1,.07-1.57,7.5,7.5,0,0,1,.86-2.65A11.43,11.43,0,0,0,60.72,14a1.86,1.86,0,0,0,.3.53c.13.18.27.35.42.52a7.35,7.35,0,0,0,1,.93,4.81,4.81,0,0,0,2.62,1,5.68,5.68,0,0,0,1.64-.16l.46-.13a3.94,3.94,0,0,1,.49-.14,6,6,0,0,0,1-.44A7,7,0,0,0,69,19.51a1.8,1.8,0,0,0,1.29,1.15,2.1,2.1,0,0,0,.79,0,2.73,2.73,0,0,0,.41-.1c.12-.06.22-.13.34-.2.47-.27,1-.58,1.38-.85-.23.53-.42,1-.61,1.44s-.36.79-.51,1.09c-.3.6-.55.92-.4,1.12s.24.19.57.3.82.25,1.48.47a23.07,23.07,0,0,1,2.41,1c.93.46,1.91,1,3,1.65A4.49,4.49,0,0,0,81.53,26a3.09,3.09,0,0,0,1.2-1.38,1.67,1.67,0,0,1,.14-.39,2.84,2.84,0,0,0,.08-.42,4,4,0,0,0,0-.85,3.84,3.84,0,0,0-.28-.89,5,5,0,0,0-.56-.87,3.62,3.62,0,0,0-.36-.42l-.43-.4-.23-.2L80.85,20l-.52-.34a9.77,9.77,0,0,0-1.11-.58,7.06,7.06,0,0,0-1.17-.41,6.62,6.62,0,0,0-1.16-.23,6.73,6.73,0,0,0-1.1,0A4.69,4.69,0,0,0,73.71,19Z"/><path class="cls-3" d="M31.18,70.07c5.46,2.77,21.06,2.36,20.25-10-.52-8-.29-14.89-5.94-17.51C32.65,36.64,15.31,62,31.18,70.07Z"/><path class="cls-4" d="M50.23,65.26a7.29,7.29,0,0,0-1.23-.1,3.32,3.32,0,0,0-.63,0,1.75,1.75,0,0,0-.51.14.73.73,0,0,0-.36.31,1.23,1.23,0,0,0-.18.59,5.57,5.57,0,0,0,0,1,12.92,12.92,0,0,0,.07,1.53A9.14,9.14,0,0,0,45.92,68a5.34,5.34,0,0,0-1.25-.32,4.05,4.05,0,0,0-1.1,0,5,5,0,0,0-1,.29,6.27,6.27,0,0,0-1,.51,5.82,5.82,0,0,0-.84.64,4.15,4.15,0,0,0-.66.73,2,2,0,0,0-.34.74,6.78,6.78,0,0,1-.45-.84q-.3-.63-.66-1.23a3.67,3.67,0,0,0-2.4-1.84,2.84,2.84,0,0,0-2.67.87c-.2.18-.39.36-.58.56l-.58.64c-.38.42-.78.87-1.2,1.29a8.34,8.34,0,0,0-.1,1.8,5.54,5.54,0,0,0,.13.91,4.57,4.57,0,0,0,.3.88,4.08,4.08,0,0,0,3.54,2.23,4,4,0,0,0,3.66-1.52,6,6,0,0,0,.73-1.18,9.1,9.1,0,0,1,.4-.9,1.8,1.8,0,0,0,.51.68,3.38,3.38,0,0,0,.94.54,4.63,4.63,0,0,0,1.27.31A5.57,5.57,0,0,0,44,73.74a5.21,5.21,0,0,0,1.48-.47,4.69,4.69,0,0,0,1.27-1,3.53,3.53,0,0,0,.9-3.1,4.8,4.8,0,0,0,1.59.33,3.23,3.23,0,0,0,1.23-.19,2.38,2.38,0,0,0,.83-.54,1.85,1.85,0,0,0,.41-.72,1.78,1.78,0,0,0,.07-.76,2.41,2.41,0,0,0-.18-.7,3.27,3.27,0,0,0-.77-1,3.32,3.32,0,0,0,1.36-.21,3.87,3.87,0,0,0,.64-.33,2,2,0,0,0,.3-.21l.27-.25a4.55,4.55,0,0,0,.49-.58,2.2,2.2,0,0,0,.21-.32l.18-.35c.1-.24.2-.49.28-.74s.09-.52.12-.78a4.33,4.33,0,0,0-.13-1.56c0-.13-.07-.25-.11-.37l-.15-.29a4.17,4.17,0,0,0-.37-.56,5.81,5.81,0,0,0-2.68-1.84,5.67,5.67,0,0,0-2.45,2.15,3.54,3.54,0,0,0-.3.62c0,.11-.08.21-.11.32s-.06.17-.09.26a3.41,3.41,0,0,0-.14.95,1.74,1.74,0,0,0,.06.45,1.85,1.85,0,0,0,.11.45.28.28,0,0,0,.08.23,1.6,1.6,0,0,1,.1.23,4,4,0,0,0,.24.46c0,.08.09.16.14.24l.15.24a5.36,5.36,0,0,0,.34.49A10.17,10.17,0,0,0,50.23,65.26Z"/><path class="cls-4" d="M40.45,42.08A6.89,6.89,0,0,0,41,43.2a3.68,3.68,0,0,0,.37.51,1.45,1.45,0,0,0,.41.37,1,1,0,0,0,1.08,0,21,21,0,0,0,2.07-1.41,11.52,11.52,0,0,0,.44,2.8A3.38,3.38,0,0,0,46.26,47a8.58,8.58,0,0,0,1.48,1.14,3.41,3.41,0,0,0,1.63.61c-.27.31-1.08.81-1.8,1.49a4.34,4.34,0,0,0-.94,1.19,3.26,3.26,0,0,0-.34,1.68A3.45,3.45,0,0,0,48,55.94a11,11,0,0,0,3.28,1.24,10,10,0,0,0,3.11-1.65,3.62,3.62,0,0,0,1.14-3.48,4.31,4.31,0,0,0-.85-2A3.89,3.89,0,0,0,53.26,49a11.38,11.38,0,0,0-2.36-.68,2.32,2.32,0,0,0,.85-1.73,5,5,0,0,0-.66-2.94,4.8,4.8,0,0,0-2.75-2.21,3.31,3.31,0,0,0-3.2.8,4,4,0,0,0-1.42-2.44A1.94,1.94,0,0,0,42,39.38a1.66,1.66,0,0,0-.66.34,2.24,2.24,0,0,0-.49.53,3.19,3.19,0,0,0-.49,1.19,3.61,3.61,0,0,0-2.09-1.76,4.46,4.46,0,0,0-2.95.09,4.16,4.16,0,0,0-2.25,2,4.62,4.62,0,0,0-.26,3.33,8,8,0,0,0,3,1A3.66,3.66,0,0,0,38,45.77a3.9,3.9,0,0,0,1.47-1.38A8.13,8.13,0,0,0,40.45,42.08Z"/><path class="cls-8" d="M25.86,64a6.13,6.13,0,0,0,.93-.83,4.74,4.74,0,0,0,.4-.49,2.1,2.1,0,0,0,.24-.5,1.12,1.12,0,0,0-.33-1.08l-.32-.32c-.12-.11-.26-.23-.43-.36L25.8,60l-.69-.49a6.26,6.26,0,0,0,2.46-1.62,4.36,4.36,0,0,0,1-2,6.09,6.09,0,0,0,.05-2.17A3,3,0,0,0,28,52.09c.42,0,1.34.18,2.34.19a3.62,3.62,0,0,0,2.86-1.05,3.11,3.11,0,0,0,.78-2.88,19.13,19.13,0,0,0-1-3.31,7.59,7.59,0,0,0-3.26-1.43,3.47,3.47,0,0,0-1.83.26,4.47,4.47,0,0,0-1.78,1.47,4.28,4.28,0,0,0-.89,2.1,4.05,4.05,0,0,0,.21,1.76,13.48,13.48,0,0,0,1.21,2.12,2.42,2.42,0,0,0-1.81.54A5.27,5.27,0,0,0,23.05,54a4.85,4.85,0,0,0-.37,3,3.74,3.74,0,0,0,2,2.52,4.19,4.19,0,0,0-1.89,2.05,1.88,1.88,0,0,0,.11,1.68,1.75,1.75,0,0,0,.51.54,2.16,2.16,0,0,0,.64.33,3.41,3.41,0,0,0,1.27.15,3.44,3.44,0,0,0-1.1,2.52,4.43,4.43,0,0,0,1.08,2.9,4.23,4.23,0,0,0,2.79,1.49A3.87,3.87,0,0,0,29.71,71a5,5,0,0,0,1.56-.9,10.34,10.34,0,0,0,0-1.76,9.09,9.09,0,0,0-.22-1.37,3.49,3.49,0,0,0-1-1.72,4,4,0,0,0-1.68-.86A9.66,9.66,0,0,0,25.86,64Z"/><path class="cls-9" d="M25.1,64.16c2.55,3.68,12,5.78,18.46,2.88C48.9,64.62,51,50.45,48.1,46.64c-4.47-5.9-13.48-8.33-17.54-2.88C27.34,48,18,53.82,25.1,64.16Z"/><path class="cls-5" d="M44.18,66.22a11.86,11.86,0,0,0-1-.74l-.46-.34h-.07l-.13,0a.86.86,0,0,0-.27,0,.9.9,0,0,0-.51.09,1.28,1.28,0,0,0-.49.43,9.16,9.16,0,0,0-1.1,2.27c-1.38-2-2.83-2.5-4.27-2.38a5.21,5.21,0,0,0-2,.6,2.9,2.9,0,0,0-1.31,1.14c-.15-.38-.21-1.33-.47-2.27a3.61,3.61,0,0,0-1.56-2.35,1.85,1.85,0,0,0-1.17-.24,4.7,4.7,0,0,0-1.2.45,19.43,19.43,0,0,1-3,1.39c-.17.23-.34.47-.5.73a4.88,4.88,0,0,0-.4.83A4,4,0,0,0,24,67.59a3.63,3.63,0,0,0,.76,1.92,4.69,4.69,0,0,0,2,1.49,4.07,4.07,0,0,0,2.31.28,3.81,3.81,0,0,0,1.6-.72,5.91,5.91,0,0,0,1-1c.26-.33.45-.61.6-.76a2.45,2.45,0,0,0,1,1.56,5.12,5.12,0,0,0,2.39,1,4.53,4.53,0,0,0,2.8-.47,3.77,3.77,0,0,0,1.82-2.51,5.86,5.86,0,0,0,1.22,1,3.21,3.21,0,0,0,1.07.43,1.83,1.83,0,0,0,.87,0,1.63,1.63,0,0,0,.88-.62l.09-.14.1-.17a2.28,2.28,0,0,0,.25-.72,2.83,2.83,0,0,0-.13-1.29,3.15,3.15,0,0,0,2.74.28,4.32,4.32,0,0,0,2.29-1.83,3.91,3.91,0,0,0-.06-4.22,5.58,5.58,0,0,0-1.21-1.31,9.19,9.19,0,0,0-1.72.34,6.11,6.11,0,0,0-1.29.55,3.41,3.41,0,0,0-1.44,1.47A3.28,3.28,0,0,0,43.71,64,15.36,15.36,0,0,0,44.18,66.22Z"/><path class="cls-5" d="M42.34,42.33a5.68,5.68,0,0,0-.1,1.23,2.36,2.36,0,0,0,.27,1.16,1.15,1.15,0,0,0,.39.37,1.61,1.61,0,0,0,.65.13,1.69,1.69,0,0,0,.45,0,2.63,2.63,0,0,0,.55-.09c.41-.09.89-.2,1.47-.38a6.19,6.19,0,0,0-.36,2.86,2.57,2.57,0,0,0,.12.55.54.54,0,0,1,0,.18.29.29,0,0,0,0,.13v.13h0v.06a.77.77,0,0,0,.07.16V49c.51.91,1.58,2.24,2.54,2.44a5.54,5.54,0,0,1-.85.41,11,11,0,0,0-1.24.61,3.38,3.38,0,0,0-1.86,2.36,3,3,0,0,0,1,2.81,16.46,16.46,0,0,0,2.77,2.06,8.24,8.24,0,0,0,3.47-.61,3.56,3.56,0,0,0,2-3.17,3.78,3.78,0,0,0-1.49-3.43,6,6,0,0,0-1.26-.71c-.38-.18-.7-.29-.88-.4a1.83,1.83,0,0,0,.69-.48,3.23,3.23,0,0,0,.56-.9,4.68,4.68,0,0,0,.2-2.84l-.05-.2-.07-.22a1.29,1.29,0,0,0-.17-.43l-.1-.22-.13-.23a4,4,0,0,0-.28-.43L50.32,45A2,2,0,0,0,50,44.7a4.27,4.27,0,0,0-.64-.4,3.65,3.65,0,0,0-3.13,0A4.43,4.43,0,0,0,46,41.61a1.77,1.77,0,0,0-.53-.68,1.46,1.46,0,0,0-.66-.29,2.05,2.05,0,0,0-1.33.25,3.84,3.84,0,0,0-1,.79,3.79,3.79,0,0,0-.72-2.56,4.2,4.2,0,0,0-2.4-1.52,4.09,4.09,0,0,0-3,.48,3.39,3.39,0,0,0-.64.49,4.78,4.78,0,0,0-.54.65,4.25,4.25,0,0,0-.61,1.69,15.64,15.64,0,0,0,2,2.3,3,3,0,0,0,1.67.83,3.79,3.79,0,0,0,1.9-.37A6.78,6.78,0,0,0,42.34,42.33Z"/><path class="cls-5" d="M22.83,56.69a9.49,9.49,0,0,0,1.17-.4c.18-.08.36-.18.54-.28a1.9,1.9,0,0,0,.41-.34.86.86,0,0,0,.13-.2,1.05,1.05,0,0,0,.06-.24,1.52,1.52,0,0,0-.1-.6c-.05-.13-.11-.26-.17-.39s-.16-.3-.26-.48c-.21-.36-.46-.77-.79-1.29a6.09,6.09,0,0,0,2.86-.42,3.91,3.91,0,0,0,1.65-1.47c.81-1.25,1.14-3,.63-3.85a16.07,16.07,0,0,0,2.28.65,3.58,3.58,0,0,0,1.69-.15l.46-.21.23-.14.24-.18.24-.2.06-.06h0a.59.59,0,0,0,.18-.13.93.93,0,0,0,.3-.72V41a7.56,7.56,0,0,0-1.08-1.43,5.69,5.69,0,0,0-.7-.6,4.48,4.48,0,0,0-.85-.42,3.4,3.4,0,0,0-2.14,0,5.17,5.17,0,0,0-2.42,1.67,6.2,6.2,0,0,0-.47.67l-.1.17h0v.15l-.06.34v.36A4.82,4.82,0,0,0,27,43.41a23,23,0,0,0,.82,2.21,2.59,2.59,0,0,0-1.8-.08,5,5,0,0,0-2.15,1.22,4.54,4.54,0,0,0-1.36,2.46,3.71,3.71,0,0,0,.85,3,5,5,0,0,0-1.53.4,3.91,3.91,0,0,0-.57.31,3.62,3.62,0,0,0-.42.36,2,2,0,0,0-.48.79,1.8,1.8,0,0,0-.08.39,2.41,2.41,0,0,0,0,.38,1.58,1.58,0,0,0,.26.68,2.63,2.63,0,0,0,.47.53,3.24,3.24,0,0,0,1.13.6,3.3,3.3,0,0,0-1.16.71,3.24,3.24,0,0,0-.45.53,1.57,1.57,0,0,0-.2.3l-.15.31a5.08,5.08,0,0,0-.23.69,3.66,3.66,0,0,0-.1.74A4.18,4.18,0,0,0,20,61.43a3.48,3.48,0,0,0,.29.69,2.75,2.75,0,0,0,.39.63,5.29,5.29,0,0,0,.52.54l.29.23.32.2a4.58,4.58,0,0,0,3.25.37,8.6,8.6,0,0,0,1.25-2.86v-.58a2.26,2.26,0,0,0,0-.52,1.08,1.08,0,0,0-.07-.47,3.52,3.52,0,0,0-.15-.42,2.77,2.77,0,0,0-.48-.74c-.11-.12-.23-.23-.35-.34a4.16,4.16,0,0,0-.39-.32l-.23-.16-.23-.15c-.16-.11-.33-.21-.51-.31A9.4,9.4,0,0,0,22.83,56.69Z"/><path class="cls-6" d="M24.45,53.36c-3,4.78-1,16.23,10.56,11.82,12.91-4.92,12.25-19.13,10.32-21.06C40.36,39.16,31.12,42.85,24.45,53.36Z"/><path class="cls-6" d="M31,65.8a11.07,11.07,0,0,0-.45-1.13,4.21,4.21,0,0,0-.29-.51,1.64,1.64,0,0,0-.32-.37.59.59,0,0,0-.36-.13.89.89,0,0,0-.47.19,5,5,0,0,0-.67.55l-.47.41-.29.25-.32.25c0-.6.07-1.09.09-1.53s0-.78,0-1.05A1.7,1.7,0,0,0,27,61.5a3.38,3.38,0,0,0-.55-.45,6,6,0,0,0-.69-.41,3.39,3.39,0,0,0-.39-.18,3.27,3.27,0,0,0-1.14-.3A4.79,4.79,0,0,1,25,59.7l.57-.29.61-.32c.8-.46,1.54-.94,1.7-1.61a1.16,1.16,0,0,0-.18-.92,2.94,2.94,0,0,0-.35-.44c-.13-.15-.3-.31-.47-.47l-1.18-1.07c-.41-.38-.84-.79-1.24-1.22A8.44,8.44,0,0,0,22.74,53a4.24,4.24,0,0,0-1.77.19,3.09,3.09,0,0,0-.81.41,2.88,2.88,0,0,0-.69.66,4,4,0,0,0-.77,2.14,4.12,4.12,0,0,0,.08,1.21,3.7,3.7,0,0,0,.38,1,3.29,3.29,0,0,0,1.24,1.19,3.26,3.26,0,0,0,.68.32c.23.08.45.14.65.19.4.1.73.16.92.23a1.64,1.64,0,0,0-.6.54,1.76,1.76,0,0,0-.24.42,2.18,2.18,0,0,0-.17.51,3.63,3.63,0,0,0-.08,1.23,4.1,4.1,0,0,0,.4,1.36,3.88,3.88,0,0,0,2.24,2,3.26,3.26,0,0,0,.76.12,2.49,2.49,0,0,0,.77-.08,3,3,0,0,0,1.43-.82,1,1,0,0,0,.06.43,2.74,2.74,0,0,0,.09.39,4.17,4.17,0,0,0,.25.67,2.89,2.89,0,0,0,.69.9,1.51,1.51,0,0,0,1.45.34,1.68,1.68,0,0,0,.56-.34,2.35,2.35,0,0,0,.41-.53.71.71,0,0,1,0-1,.71.71,0,0,1,1.06.93,3.21,3.21,0,0,0,1,.75,3.52,3.52,0,0,0,2.41.26A3.47,3.47,0,0,0,36.28,68a3.6,3.6,0,0,0,.83-1,4,4,0,0,0,.45-1.36,5.51,5.51,0,0,0,0-1.72,12,12,0,0,0-1.34-1,5.14,5.14,0,0,0-1.17-.59,3.11,3.11,0,0,0-1-.19,2.07,2.07,0,0,0-.85.16,2.85,2.85,0,0,0-1.29,1.21,7.64,7.64,0,0,0-.48,1A7.5,7.5,0,0,0,31,65.8Z"/><path class="cls-6" d="M46.05,49.48a6,6,0,0,0-1.17.34,2.28,2.28,0,0,0-.94.62.87.87,0,0,0,0,1,8,8,0,0,0,1.61,1.78,6.79,6.79,0,0,0-1.54.31,4.31,4.31,0,0,0-1.08.52,2.87,2.87,0,0,0-.7.69,2.41,2.41,0,0,0-.4.8,3.26,3.26,0,0,0-.16.88,3.47,3.47,0,0,0,0,.91,3,3,0,0,0,.59,1.53c-.39-.06-1.26-.45-2.16-.68A4.8,4.8,0,0,0,38.74,58a1.91,1.91,0,0,0-.63.08,1.48,1.48,0,0,0-.29.12,1.69,1.69,0,0,0-.29.17,2.35,2.35,0,0,0-.75,2.34,14.68,14.68,0,0,0,.29,1.61c.13.56.28,1.13.42,1.69a14.64,14.64,0,0,0,1.28,1.21,5.63,5.63,0,0,0,1.47.88,3,3,0,0,0,1.66.17,3.43,3.43,0,0,0,1.75-1q.21-.21.39-.42c.1-.15.2-.3.28-.45a3,3,0,0,0,.33-.88,3.74,3.74,0,0,0-.08-1.63,12.72,12.72,0,0,0-1-2.11,2.33,2.33,0,0,0,1.74-.12,4.39,4.39,0,0,0,1-.59,4.67,4.67,0,0,0,.81-.91A4,4,0,0,0,47.63,57a3.09,3.09,0,0,0-.41-2.55,3.84,3.84,0,0,0-1.12-1.15,4.47,4.47,0,0,0,2.24-1.15,1.28,1.28,0,0,0,.34-1.25,2,2,0,0,0-.8-.95,3.91,3.91,0,0,0-1.12-.51A4.41,4.41,0,0,0,48,48.91a4.08,4.08,0,0,0,.9-.86,3.37,3.37,0,0,0,.6-2.42v-.36a2.77,2.77,0,0,0-.12-.41,3.76,3.76,0,0,0-.36-.79,3.5,3.5,0,0,0-.52-.68,2.61,2.61,0,0,0-.31-.27l-.35-.23a3.2,3.2,0,0,0-.39-.16l-.2-.06H47a3.1,3.1,0,0,0-.86,0,3.47,3.47,0,0,0-1.67.62,14.56,14.56,0,0,1-1,2.57c-.15.27-.28.47-.35.62a.44.44,0,0,0-.07.19.11.11,0,0,0,0,.08v.06a.11.11,0,0,0,0,.08,3,3,0,0,0,1,1.39,5.42,5.42,0,0,0,.91.66A7.47,7.47,0,0,0,46.05,49.48Z"/><path class="cls-6" d="M28.92,48.16a3.59,3.59,0,0,0,2.25.61.94.94,0,0,0,.67-.82,4.18,4.18,0,0,0,0-1,10.7,10.7,0,0,0-.18-1.45,5.19,5.19,0,0,0,2.61.91,2.17,2.17,0,0,0,.51,0,2.36,2.36,0,0,0,.46-.1,2.64,2.64,0,0,0,.8-.41,4.16,4.16,0,0,0,1.14-1.33A3.25,3.25,0,0,0,37.64,43c.26.28.69,1.14,1.18,1.9A9.89,9.89,0,0,0,39.58,46l.19.19.18.18a1,1,0,0,0,.38.19.78.78,0,0,0,.71-.2c.24-.2.52-.47.87-.81s.72-.73,1.13-1.11.84-.8,1.29-1.17a5.7,5.7,0,0,0,.38-3.48,3.08,3.08,0,0,0-1.08-1.59,4.22,4.22,0,0,0-2.34-.84,4.14,4.14,0,0,0-1.31.12,4.68,4.68,0,0,0-.53.17,3.25,3.25,0,0,0-.45.25,3.21,3.21,0,0,0-1.16,1.29,5.39,5.39,0,0,0-.43,1.36c-.08.4-.11.73-.17.93a2.25,2.25,0,0,0-1.47-1,4.18,4.18,0,0,0-2.35.14,3.63,3.63,0,0,0-1.1.62,4.78,4.78,0,0,0-.46.44,6.18,6.18,0,0,0-.36.53,3.66,3.66,0,0,0-.16,2.9,7.13,7.13,0,0,0-1.42-.46,2.8,2.8,0,0,0-1,0,1.2,1.2,0,0,0-1,.73,2.94,2.94,0,0,0,.53,2.33A4.31,4.31,0,0,0,26,47.3a3.39,3.39,0,0,0-2,1.06,3,3,0,0,0-.73,2.18,5.09,5.09,0,0,0,1.21,2.82c2.5.57,4,0,4.68-1a3.14,3.14,0,0,0,.46-1.89A5.86,5.86,0,0,0,28.92,48.16Z"/><path class="cls-7" d="M39.83,43.48c1.13,6.73-1.26,10.4-4.35,12.36-6.63,4.22-10.26,1-10.8-1.15S27.52,48,29.6,46.26C32.67,43.76,39.12,39.16,39.83,43.48Z"/><path class="cls-7" d="M32.21,57.8a3.56,3.56,0,0,0,.8.93,1.93,1.93,0,0,0,1.17.49,1.39,1.39,0,0,0,1.12-.71A4.64,4.64,0,0,0,35.7,56a3.22,3.22,0,0,0,2.9.6A3.6,3.6,0,0,0,39.83,56a4.31,4.31,0,0,0,.88-1.11,4.19,4.19,0,0,0,.45-1.27,4,4,0,0,0,0-1.2,3,3,0,0,0-.33-1,1.7,1.7,0,0,0-.54-.59,10.19,10.19,0,0,0,2.31-.47,3.32,3.32,0,0,0,.71-.4,3,3,0,0,0,.64-.6,2.7,2.7,0,0,0,.27-.39l.12-.22a2.83,2.83,0,0,0,.11-.31,4.87,4.87,0,0,0,.15-.76,8.72,8.72,0,0,0,.08-.88,5.72,5.72,0,0,0-.12-1.65c-.05-.24-.1-.46-.16-.67a2,2,0,0,0-.1-.3c0-.1-.09-.17-.13-.26a3.34,3.34,0,0,0-.61-.79,1.59,1.59,0,0,0-.33-.25l-.17-.1h-.19a4.46,4.46,0,0,0-3.07.77,25.88,25.88,0,0,1-3,3.28,6.27,6.27,0,0,1-1,.79,2.21,2.21,0,0,1-.35.16.25.25,0,0,1,.17,0l.08.07a.75.75,0,0,0,.07.12,2.35,2.35,0,0,0,.19.25,3.92,3.92,0,0,0,.46.45c.17.15.35.29.54.43.75.54,1.56,1,1.84,1.29a3.55,3.55,0,0,0-1.57.33,4.44,4.44,0,0,0-1.35.82,2.13,2.13,0,0,0-.43.6,2.53,2.53,0,0,0-.24.81,7.56,7.56,0,0,0,.21,2.68,7.31,7.31,0,0,0-2.18-1,.75.75,0,0,0-.93.27,2.16,2.16,0,0,0-.3,1,6.32,6.32,0,0,0,0,1.23,8.55,8.55,0,0,0-.8-1,4.89,4.89,0,0,0-.39-.4l-.19-.18-.19-.17a3.17,3.17,0,0,0-.34-.3L29.88,55l-.14-.12c-.06,0-.07-.07-.09-.09v-.07a.42.42,0,0,0-.14-.09c-.19-.06-.41.11-1,.46a16.54,16.54,0,0,1-2.83,1.32,3.35,3.35,0,0,0-.37.79,1.91,1.91,0,0,0-.11.41,2.54,2.54,0,0,0,0,.39,3,3,0,0,0,.08.78,3,3,0,0,0,.32.71,3.57,3.57,0,0,0,2.8,1.61,4.22,4.22,0,0,0,.87,0l.45-.08a2.92,2.92,0,0,0,.4-.1l.32-.14.3-.18a5.3,5.3,0,0,0,.52-.42,2.5,2.5,0,0,0,.23-.23,2.11,2.11,0,0,0,.18-.27,3.19,3.19,0,0,0,.3-.58A3.71,3.71,0,0,0,32.21,57.8Z"/><path class="cls-7" d="M34.13,42.69a2.48,2.48,0,0,0-.79-.88A1.67,1.67,0,0,0,32,41.58a1.63,1.63,0,0,0-.37.13l-.09,0H31.5l-.13.09a1.44,1.44,0,0,0-.4.58,4.85,4.85,0,0,0-.11,2.48,4,4,0,0,0-2.77-.7,2,2,0,0,0-.33.09l-.32.13a4.19,4.19,0,0,0-.58.34,3.58,3.58,0,0,0-.89.89,4,4,0,0,0-.75,2.14,2.31,2.31,0,0,0,.48,1.66,11.5,11.5,0,0,0-2.33-.28h-.59l-.23.11a4.27,4.27,0,0,0-.93.64,5.2,5.2,0,0,0-1.48,2.6,4.68,4.68,0,0,0,0,1.75,4.27,4.27,0,0,0,.21.72c.1.2.2.4.32.59a3.06,3.06,0,0,0,1.17,1,3.26,3.26,0,0,0,1.34.32,4.68,4.68,0,0,0,1.34-.16,9,9,0,0,0,1.23-.43,12,12,0,0,1,.89-1,9.48,9.48,0,0,1,1-.89,7.12,7.12,0,0,1,1.7-1.11,1.89,1.89,0,0,1,.48-.13A1.39,1.39,0,0,1,29.3,53a3.47,3.47,0,0,1-.44-.31l-.12-.09-.09-.15-.19-.29c-.52-.78-1.16-1.48-1.35-1.82a3.08,3.08,0,0,0,1.65,0,4.3,4.3,0,0,0,1.66-.78,2.87,2.87,0,0,0,.6-.65,2.38,2.38,0,0,0,.2-.39l.07-.21a.4.4,0,0,1,.06-.24,4.58,4.58,0,0,0-.09-2.79,6.52,6.52,0,0,0,2.31.74,1.2,1.2,0,0,0,.62-.11l.11-.06h0a.58.58,0,0,0,.05-.14,5.57,5.57,0,0,0,0-1,11,11,0,0,0-.05-1.31c.45.74.85,1.35,1.09,1.81s.37.78.54.79.2-.06.38-.19.42-.35.74-.58.71-.5,1.17-.79L39,44c.26-.16.54-.32.85-.49a7.34,7.34,0,0,0,.53-1,5.14,5.14,0,0,0,.3-.94,2.85,2.85,0,0,0-.16-1.66,2.52,2.52,0,0,0-1-1.07,2.57,2.57,0,0,0-1.38-.34,4.1,4.1,0,0,0-2.79,1.36A4.39,4.39,0,0,0,34.13,42.69Z"/><path class="cls-3" d="M58,82c-4.52,8.81,12.38,17.21,18.84,5.59S65.27,67.75,58,82Z"/><path class="cls-4" d="M71.9,91.86c-.32-.38-.65-.75-1-1.1-.19-.17-.38-.34-.56-.47a2,2,0,0,0-.52-.29c-.34-.11-.63,0-1,.42a24,24,0,0,0-1.43,2.52c-1-2.81-2-3.76-3.18-4a5.6,5.6,0,0,0-2,0,4.77,4.77,0,0,0-1.87.63,16.22,16.22,0,0,1,1.32-2.42c.29-.47.58-.93.83-1.28a7.22,7.22,0,0,0,.46-.68c0-.09-.14-.06-.45-.14a5.84,5.84,0,0,1-1.26-.54,19.63,19.63,0,0,1-3.3-2.43,9.48,9.48,0,0,0-2.19-.23,4.55,4.55,0,0,0-2.19.59,3.91,3.91,0,0,0-1.67,2.06,5.71,5.71,0,0,0,0,3.74,6.09,6.09,0,0,0,.39,1,6.28,6.28,0,0,0,.48.78,4.53,4.53,0,0,0,.54.62,5,5,0,0,0,.57.46,3.92,3.92,0,0,0,2.23.69A9.33,9.33,0,0,0,59,91.05a2.66,2.66,0,0,0,.07,2.24,5.1,5.1,0,0,0,2.15,2.37,4.65,4.65,0,0,0,3.42.56,4,4,0,0,0,2.75-2.51A4.54,4.54,0,0,0,69.7,96a1.85,1.85,0,0,0,1.83-.24,1.94,1.94,0,0,0,.53-.64,2.78,2.78,0,0,0,.26-.8,4.48,4.48,0,0,0,0-1.55,4,4,0,0,0,3,1.22,4.48,4.48,0,0,0,3.07-1.37,4.17,4.17,0,0,0,1.19-3.18A4.94,4.94,0,0,0,77.68,86a16.51,16.51,0,0,0-3.65.29,2.87,2.87,0,0,0-1.74,1,3.46,3.46,0,0,0-.47,1.86A14.85,14.85,0,0,0,71.9,91.86Z"/><path class="cls-4" d="M64,76.16a8.53,8.53,0,0,0,1.08,1,5.39,5.39,0,0,0,.59.45,2.11,2.11,0,0,0,.55.25c.35.08.65,0,1-.49a25.14,25.14,0,0,0,1.27-2.61,11.59,11.59,0,0,0,1.64,2.88,2.76,2.76,0,0,0,1.56,1,5.74,5.74,0,0,0,1.85,0,5.33,5.33,0,0,0,1.87-.56,5,5,0,0,1-.57,1c-.27.41-.61.87-.94,1.31s-.67.86-1,1.18-.47.56-.48.75.16.34.46.55.74.47,1.25.78c1,.62,2.32,1.4,3.5,2.21a11.45,11.45,0,0,0,2.19,0,5.85,5.85,0,0,0,1.09-.22,4.68,4.68,0,0,0,1-.44,3.81,3.81,0,0,0,1.57-1.84A5.56,5.56,0,0,0,83.66,80,5.26,5.26,0,0,0,82,77.13a4,4,0,0,0-2.18-.9,5.58,5.58,0,0,0-1.82.18c-.5.13-.9.28-1.15.33a2,2,0,0,0,.27-1,3.21,3.21,0,0,0,0-.62,5.16,5.16,0,0,0-.2-.67A4.85,4.85,0,0,0,76,73.1,5.15,5.15,0,0,0,74.65,72a4.7,4.7,0,0,0-3.57-.51,3.87,3.87,0,0,0-2.64,2.65A4.56,4.56,0,0,0,66,72a1.78,1.78,0,0,0-2.26,1,2.86,2.86,0,0,0-.22.81,4.43,4.43,0,0,0,.12,1.54,4.21,4.21,0,0,0-2.95-1.18,4.37,4.37,0,0,0-3,1.24,4.14,4.14,0,0,0-1.28,3A5.29,5.29,0,0,0,58,82a12,12,0,0,0,3.69,0,2.94,2.94,0,0,0,1.88-1,3.46,3.46,0,0,0,.61-2A12,12,0,0,0,64,76.16Z"/><path class="cls-9" d="M67.85,74.92c-14.09.13-10.26,13.28-1.51,14.2C77.72,90.31,84.08,74.76,67.85,74.92Z"/><path class="cls-5" d="M76.92,82.7a15,15,0,0,0-1.62.19,4.4,4.4,0,0,0-1.55.45,2.57,2.57,0,0,0-1.09,1.38c-.32.73-.59,1.81-1.21,3.43a18.87,18.87,0,0,0-3.58-2.1l-.4-.17-.39-.16-.4-.14-.33-.13c-.44-.17-.88-.28-1.31-.43s-.89-.26-1.33-.41l-.17,0-.16-.06L63,84.39l-.33-.11-.33-.11c-.21-.08-.44-.14-.64-.22s-.42-.12-.61-.18a5.78,5.78,0,0,0-.57-.12,2.09,2.09,0,0,0-.5,0,3.57,3.57,0,0,1,.78-1,6.24,6.24,0,0,1,1.34-1,3.49,3.49,0,0,1,1.41-.45,1,1,0,0,1,.69.15h0a.41.41,0,0,0,0-.09,1.12,1.12,0,0,0,.19-.24c.07-.1.17-.19.24-.31l.12-.17.14-.18c.09-.13.18-.26.26-.4a6.13,6.13,0,0,0,.56-.87,10.23,10.23,0,0,0,.54-1c.17-.38.33-.7.49-1,.33-.69.63-1.42.94-2.12a12.27,12.27,0,0,0-1.19-2,6.19,6.19,0,0,0-.84-.93,6.45,6.45,0,0,0-1.1-.78,6.67,6.67,0,0,0-1.44-.51c-.28,0-.57-.08-.88-.1h-.48a4.34,4.34,0,0,0-.51,0,8.47,8.47,0,0,0-1.12.2,10.84,10.84,0,0,0-1.25.43,5.58,5.58,0,0,0-.69.35l-.36.19-.17.11-.19.12a9.59,9.59,0,0,0-1.47,1.23,8.32,8.32,0,0,0-2,3c-.09.25-.17.5-.24.74a2.21,2.21,0,0,0-.09.36l-.06.36c0,.23-.07.46-.09.68s0,.44,0,.65v.61a5.62,5.62,0,0,0,.09.57,5,5,0,0,0,.3,1,6.16,6.16,0,0,0,.39.82,8,8,0,0,0,.48.66,3,3,0,0,0,.49.51c.17.14.34.27.5.38a4.51,4.51,0,0,0,.93.47c.56.22,1,.3,1.33.43a1.62,1.62,0,0,0-.27.5,2.76,2.76,0,0,0-.11.7,3.31,3.31,0,0,0,.07.89,5,5,0,0,0,.29,1,3,3,0,0,0,.24.55c.09.18.19.37.3.56a6.61,6.61,0,0,0,.37.55l.21.29.23.26A8.49,8.49,0,0,0,65,92.7h1.56l.73-.11c.24-.06.48-.11.71-.19A5.68,5.68,0,0,0,70.33,91a4.35,4.35,0,0,0,1.24-2.18,5.69,5.69,0,0,0,4.38.27A4.21,4.21,0,0,0,78.32,87a3.55,3.55,0,0,0,.22-2.44A2.89,2.89,0,0,0,77.62,83a3.4,3.4,0,0,0,1.74-1.11,4.87,4.87,0,0,0,1.06-2.37A5.82,5.82,0,0,0,80,76.44a7,7,0,0,0-2.19-2.81,7.94,7.94,0,0,0-1.62-1l-.21-.1-.2-.08-.41-.14a6.53,6.53,0,0,0-.76-.2,6.8,6.8,0,0,0-2.84,0,6,6,0,0,0-4,2.89,15.45,15.45,0,0,0,3,3.4,12.09,12.09,0,0,0,1.31,1l.26.2.1.08h0a1.67,1.67,0,0,0,.28.18c.19.1.42.17.71.29a6.13,6.13,0,0,1,1,.48,7.92,7.92,0,0,1,1.14.86C76.09,81.88,76.45,82.29,76.92,82.7Z"/><path class="cls-6" d="M67.66,72.69c-9.85-2.18-3.52,17,.25,13.88S77.22,74.81,67.66,72.69Z"/><path class="cls-6" d="M72,80.36l-1.33-.21A6.73,6.73,0,0,0,69.48,80c-.3,0-.47.11-.52.52s0,1.13,0,2.59a15.1,15.1,0,0,1-.1,2c-.44-.71-.8-1.3-1.09-1.79l-.41-.69c-.13-.22-.26-.45-.37-.68-.21-.45-.34-.84-.46-1.11a1.3,1.3,0,0,0-.35-.54A2.65,2.65,0,0,0,65.05,80a4.69,4.69,0,0,0-1.54-.13,6.64,6.64,0,0,1,2-1.61,4.78,4.78,0,0,1,.61-.28,2.61,2.61,0,0,1,.55-.14,1,1,0,0,1,.59.07v-.06a.83.83,0,0,1-.08-.12l-.05-.09v0H67l-.19-.07-.16-.1a.49.49,0,0,1-.12-.13.84.84,0,0,1-.16-.33v-.4a3.4,3.4,0,0,1,.16-.9,9.19,9.19,0,0,1,.36-1,16.22,16.22,0,0,1,1-2,7.86,7.86,0,0,0-.53-2.2,3.8,3.8,0,0,0-1.67-1.91l-.35-.18-.4-.13a4.14,4.14,0,0,0-.92-.17h-.53a2.24,2.24,0,0,0-.57.05c-.2,0-.41.08-.62.14l-.32.1-.29.1-.14.05-.13,0-.24.1-.48.24a2.94,2.94,0,0,0-.47.31,3.43,3.43,0,0,0-.47.36,6.7,6.7,0,0,0-1.62,2.15,7.16,7.16,0,0,0-.71,2.68,7.5,7.5,0,0,0,.18,2.31,5.65,5.65,0,0,0,1.57,2.83,3.9,3.9,0,0,0,1.74,1c.51.14.92.16,1.15.24a2.63,2.63,0,0,0-.59,1.15,6.14,6.14,0,0,0-.17,1.91,8.62,8.62,0,0,0,.48,2.35,7,7,0,0,0,1.18,2.18,4.78,4.78,0,0,0,1.73,1.39,3.32,3.32,0,0,0,2.08.26,2.67,2.67,0,0,0,1-.49,3.24,3.24,0,0,0,.74-.94A6.56,6.56,0,0,0,69.21,86a2.88,2.88,0,0,0,1,.55,2.76,2.76,0,0,0,2.46-.5,3.65,3.65,0,0,0,1-1.43,5.52,5.52,0,0,0,.16-.54,3.6,3.6,0,0,0-.15-2,3.76,3.76,0,0,0-.85-1.3,3,3,0,0,0,1.69-.41,3.78,3.78,0,0,0,.79-.59,4.94,4.94,0,0,0,.67-.84,5,5,0,0,0,.75-2.29V76a6.42,6.42,0,0,0-.1-.75,5,5,0,0,0-.21-.76,3.94,3.94,0,0,0-.32-.73,4.82,4.82,0,0,0-.41-.69,7.42,7.42,0,0,0-.49-.62,4.6,4.6,0,0,0-.56-.52,2.17,2.17,0,0,0-.29-.24l-.3-.2-.61-.34c-.21-.08-.41-.16-.62-.22a3.78,3.78,0,0,0-1.2-.2,4.62,4.62,0,0,0-3.87,2c.33,1.62.78,2.84,1,3.69a5.09,5.09,0,0,1,.14.56.34.34,0,0,0,0,.22.49.49,0,0,0,0,.17v.24h.26l.08,0c.19.16.45.34.72.59a2.09,2.09,0,0,1,.22.2l.23.22c.16.15.32.32.49.5Z"/><path class="cls-7" d="M66.45,74.91c-4.26-1.29-3.74,5.1-.34,5.26S69.84,75.93,66.45,74.91Z"/><path class="cls-7" d="M68.34,78.44A8.38,8.38,0,0,1,67,78.07a3.81,3.81,0,0,1-.57-.29,1.12,1.12,0,0,1-.33-.32c-.11-.18,0-.3.3,0a3.15,3.15,0,0,1,.38,2.36c-.25-.68-.22-1.24-.47-1.71a2.09,2.09,0,0,1,.15-1,.72.72,0,0,1,.21-.25.44.44,0,0,1,.22-.1c.13,0,.21,0,.2.13s-.36.36-.85.43-1.12,0-1.71.09a7.13,7.13,0,0,1,2.59-.4,2.75,2.75,0,0,1,.75.13,1.38,1.38,0,0,1,.6.37,1.29,1.29,0,0,1,.19.32,1.4,1.4,0,0,1,.06.41v.24a2.58,2.58,0,0,1-.08.26,1.51,1.51,0,0,1-.15.28,1.79,1.79,0,0,1-.2.28,3.16,3.16,0,0,1-.55.48l-.3.17-.3.11a2,2,0,0,1-.55.08h-.25l-.2-.07-.18-.09-.08-.06-.07-.06a1.61,1.61,0,0,1-.21-.3.89.89,0,0,1-.11-.36,2.67,2.67,0,0,1,0-.4v-.44a3.53,3.53,0,0,1,0-.46,3.86,3.86,0,0,1,.09-.49,1.05,1.05,0,0,1,.06-.24l.11-.24c.3-.63.58-1.29.85-1.94.07-.69.14-1.41.19-2.1v-.26a1.13,1.13,0,0,0,0-.26,3.07,3.07,0,0,0-.14-.52,3.89,3.89,0,0,0-.21-.51c-.09-.16-.19-.32-.29-.47a4.87,4.87,0,0,0-.35-.42,2,2,0,0,0-.46-.36A3.05,3.05,0,0,0,64,69.62h-.5a3.69,3.69,0,0,0-.47,0,4.38,4.38,0,0,0-1,.28c-.18.07-.37.15-.55.24a4.86,4.86,0,0,0-.54.33,5.27,5.27,0,0,0-1,.89,3.48,3.48,0,0,0-.41.52,5.69,5.69,0,0,0-.33.52c-.08.17-.16.34-.22.5a4.59,4.59,0,0,0-.17.48,4.25,4.25,0,0,0-.13.87,3.17,3.17,0,0,0,.06.75,2.89,2.89,0,0,0,1.18,1.82,6.28,6.28,0,0,0,2.69.87,2.16,2.16,0,0,0-1.35,1.44,2.13,2.13,0,0,0-.12.61,2.51,2.51,0,0,0,0,.67A3.31,3.31,0,0,0,63,82.88a3.22,3.22,0,0,0,1.76.25,2.49,2.49,0,0,0,1.45-.87,6.13,6.13,0,0,0,.58-1.77,2.67,2.67,0,0,0,2.33,1.72,2.63,2.63,0,0,0,.55-.09,1.88,1.88,0,0,0,.44-.24,1.43,1.43,0,0,0,.51-.72,1.59,1.59,0,0,0,0-.81,2.1,2.1,0,0,0-.35-.72,3.32,3.32,0,0,0-1.18-.92,3.13,3.13,0,0,0,1.54-.22,2.7,2.7,0,0,0,1.17-1A3.11,3.11,0,0,0,72.32,76,3.37,3.37,0,0,0,72,74.36a3.16,3.16,0,0,0-1.13-1.22,3.25,3.25,0,0,0-.74-.32,2.68,2.68,0,0,0-2.36.52,4.64,4.64,0,0,0-1.26,1.56A7.56,7.56,0,0,1,65.7,78a1.64,1.64,0,0,1-.26.33,1.19,1.19,0,0,1-.23.16c-.15,0-.26,0-.27-.08a1,1,0,0,1,.89-.62,3,3,0,0,1,1.12.09A6.33,6.33,0,0,1,68.34,78.44Z"/><path class="cls-4" d="M36.26,113.68a4.66,4.66,0,0,0,1.39-3.1,4.78,4.78,0,0,0-1-3.18,3.32,3.32,0,0,0,.62-2,3.4,3.4,0,0,0-.75-2,4.81,4.81,0,0,0-3.89-1.57c.54-1.72.33-3.44-.65-4.36a4.07,4.07,0,0,0-1.8-.92,11.51,11.51,0,0,0-1.66-.15h0A10.86,10.86,0,0,0,27.78,95c-.22-.32-.74-.82-3.19-1-2.82-.18-3.56.39-5.93,0-1.27-.21-1.16-.46-1.8-.42-1.95.12-2.29,2-4.64,2.61-1.08.26-1.53,0-2.35.49a3.78,3.78,0,0,0-1.47,2A5.43,5.43,0,0,0,4,99.53c-.17.13-2.52,2-1.84,4.25A3.76,3.76,0,0,0,4.27,106a3.56,3.56,0,0,0-2.82.51A3.27,3.27,0,0,0,.1,110c.57,1.47,3.06,2.42,5.54,1.17,5.78,3,10.19,3.18,13.24,2.78,3.94-.53,9.51-2.63,12.17-.33a4.13,4.13,0,0,0,2.47,1.28A4,4,0,0,0,36.26,113.68Z"/><path class="cls-10" d="M3.15,107.16c.23,3.56,14.85,6.2,15.33,6.33,4.12,1.17,15.64-.11,16.56-2.92C36.1,107.33,24.42,95.21,19,95.48,15.33,95.61,2.94,104,3.15,107.16Z"/><path class="cls-5" d="M20.15,113.39a6.88,6.88,0,0,0-.31-1.43,3.42,3.42,0,0,0-.27-.62,1.19,1.19,0,0,0-.16-.23.34.34,0,0,0-.08-.09h0a1.56,1.56,0,0,0-.37-.1,1.4,1.4,0,0,0-.29,0,1.64,1.64,0,0,0-.64.23,7,7,0,0,0-1.75,1.59c-.36-2.53-1.74-3.52-3.17-3.7a4.25,4.25,0,0,0-2.06.27,2.88,2.88,0,0,0-1.42,1.06c-.07-.41,0-1.41-.12-2.42v-.19a.14.14,0,0,1,0-.09v-.09l.07-.31a3.35,3.35,0,0,1,.16-.54,1.86,1.86,0,0,1,.3-.53,1.53,1.53,0,0,1-.4.21,8,8,0,0,1-1.52.43,17.87,17.87,0,0,1-2.3.3,21.52,21.52,0,0,1-2.54,0A5.22,5.22,0,0,0,.5,109.36a2.36,2.36,0,0,0-.12,1.84,4.1,4.1,0,0,0,1.88,2.08,6.54,6.54,0,0,0,3.08.92,5,5,0,0,0,1.21-.11,1.77,1.77,0,0,0,.51-.15l.12,0h.09l.16-.12A15.9,15.9,0,0,0,9.12,112a2.62,2.62,0,0,0,.61,1.71,4.24,4.24,0,0,0,1.78,1.38c1.45.61,3.29.37,4.68-1.77a6.36,6.36,0,0,0,1,2.16,2,2,0,0,0,.52.48,1.33,1.33,0,0,0,.24.11h.52a2.4,2.4,0,0,0,.38-.12,2.36,2.36,0,0,0,.62-.47,3.58,3.58,0,0,0,.76-1.29,4.19,4.19,0,0,0,1.3,2.31,3.57,3.57,0,0,0,2.22.92,3.16,3.16,0,0,0,2.26-.87,5.31,5.31,0,0,0,1.49-2.9c-1.23-2.41-2.64-3.29-3.93-3.16a3,3,0,0,0-1.81.89A6.35,6.35,0,0,0,20.15,113.39Z"/><path class="cls-5" d="M29.57,102.3a3.68,3.68,0,0,0-.69,2.38,1,1,0,0,0,.87.73,6.91,6.91,0,0,0,2.56-.15c-.17.27-.3.54-.43.78l-.37.62c-.21.37-.39.64-.51.86-.24.43-.26.62,0,.87a5.24,5.24,0,0,0,.5.44c.21.18.46.39.69.62a12.29,12.29,0,0,0,1.36,1.34,14.92,14.92,0,0,1-2.88-1.15,10,10,0,0,1-1.32-.82,1.69,1.69,0,0,1-.48-.48v.25h0a.49.49,0,0,0-.13.12A3.64,3.64,0,0,0,28,110a16.93,16.93,0,0,0-.67,3.53,9.93,9.93,0,0,0,1.8,3.16,3.19,3.19,0,0,0,1.44.89l.22,0h.34a6.85,6.85,0,0,0,.78-.07,7.45,7.45,0,0,0,1.73-.44,5.82,5.82,0,0,0,1.48-.78,3.43,3.43,0,0,0,.86-.92,2.43,2.43,0,0,0,.34-1.74,3.74,3.74,0,0,0-.55-1.28c-.23-.34-.44-.59-.52-.76a2.11,2.11,0,0,0,1,0,2.15,2.15,0,0,0,1-.55,2.74,2.74,0,0,0,.4-.5,2.59,2.59,0,0,0,.14-.29,1.75,1.75,0,0,0,.12-.32,3.27,3.27,0,0,0,.09-1.46,4.42,4.42,0,0,0-.6-1.61,5.16,5.16,0,0,0-1.24-1.39,3.46,3.46,0,0,0-3.39-.67,5.13,5.13,0,0,0,.54-2.58,1.22,1.22,0,0,0-.74-1.07,3.19,3.19,0,0,0-2.47.53,4.5,4.5,0,0,0,.51-2.57,3.48,3.48,0,0,0-1-2.12,3.23,3.23,0,0,0-2.29-.87,5.09,5.09,0,0,0-3,1.21,7.71,7.71,0,0,0-.21,3.17,2.76,2.76,0,0,0,1.06,1.78,3.17,3.17,0,0,0,2,.57A5.68,5.68,0,0,0,29.57,102.3Z"/><path class="cls-5" d="M7.86,101.93a3.74,3.74,0,0,0,2.3,1,1,1,0,0,0,.83-.81,6.79,6.79,0,0,0,.1-2.58c2.07,1.5,3.68,1.25,4.78.44a4.29,4.29,0,0,0,1.25-1.55,3,3,0,0,0,.35-1.7,11,11,0,0,1,1,1.25,6.11,6.11,0,0,1,.75,1.74,3.93,3.93,0,0,1,.06.48v.15h0a1.43,1.43,0,0,0,1,0,5,5,0,0,0,1.26-.63,26,26,0,0,0,2.73-2.3,8.58,8.58,0,0,0,.6-3.61,3.05,3.05,0,0,0-.7-1.65A4,4,0,0,0,22.07,91l-.21,0h-.23a4.1,4.1,0,0,0-.49-.06,4.51,4.51,0,0,0-.9,0,3.84,3.84,0,0,0-1.45.41,3.31,3.31,0,0,0-1.2,1.06,3.12,3.12,0,0,0-.34.59c0,.1-.09.2-.12.29a1.28,1.28,0,0,0-.07.28c-.14.72-.1,1.34-.16,1.64a2.53,2.53,0,0,0-1.62-.89,4.34,4.34,0,0,0-2.34.23c-1.53.59-2.72,2.11-2.14,4.6a5.33,5.33,0,0,0-2.51-.79,1.18,1.18,0,0,0-1.12.62,3.19,3.19,0,0,0,.26,2.51,5,5,0,0,0-1.24-.59,3.6,3.6,0,0,0-.63-.15H5.24a.54.54,0,0,0-.18,0h-.2a5,5,0,0,0-1.59.6,5.8,5.8,0,0,0-1.43,1.13A4.07,4.07,0,0,0,1,103.81a2.61,2.61,0,0,0-.08,1.44,2.3,2.3,0,0,0,.76,1.17,3.35,3.35,0,0,0,1.53.7c.87-.35,1.67-.63,2.35-.83s1.24-.33,1.67-.42c.87-.18,1.23-.22,1.33-.39s0-.48-.18-1.07v-.53a3.36,3.36,0,0,0-.06-.63A6,6,0,0,0,7.86,101.93Z"/><path class="cls-6" d="M25.13,111.38c-.2-.38-.42-.75-.65-1.1-.12-.18-.25-.35-.37-.5a1.65,1.65,0,0,0-.37-.33.5.5,0,0,0-.2-.08.34.34,0,0,0-.2,0,.47.47,0,0,0-.22.09,1.75,1.75,0,0,0-.29.18,7.77,7.77,0,0,0-1.56,2c-.69-2.45-2-3.26-3.3-3.33a4.11,4.11,0,0,0-1.92.39l-.22.1c-.07,0-.1.09-.16.13l-.3.28a4.68,4.68,0,0,0-.57.61,7.1,7.1,0,0,1,.65-2.16,5.05,5.05,0,0,1,.64-1.07,2.14,2.14,0,0,1,.48-.47,1.82,1.82,0,0,1-.5.16,11.21,11.21,0,0,1-1.73.22q-1.25.06-2.49,0c-.88-.06-1.78-.17-2.62-.31a8.59,8.59,0,0,0-1.85.63A4,4,0,0,0,5.94,108a2.52,2.52,0,0,0-.53,1.75,3.33,3.33,0,0,0,1.21,2.17,5.22,5.22,0,0,0,5.05,1,5.59,5.59,0,0,0,.87-.38c.23-.13.45-.28.67-.43.39-.29.66-.55.86-.67a1.33,1.33,0,0,0,.13.83,2.13,2.13,0,0,0,.27.46l.18.23.16.21a4.25,4.25,0,0,0,1.88,1.32,3.56,3.56,0,0,0,2.45,0,4.05,4.05,0,0,0,2.09-2.18,5,5,0,0,0,1.53,2.13,1.62,1.62,0,0,0,.37.19,1.69,1.69,0,0,0,.39.08h.37l.33-.12a1.6,1.6,0,0,0,.52-.45,2.91,2.91,0,0,0,.35-.62.76.76,0,0,1-.11-1.07.76.76,0,0,1,1.29.78,2.76,2.76,0,0,0,.61.33,2.7,2.7,0,0,0,.69.18,2.16,2.16,0,0,0,.36,0,2.41,2.41,0,0,0,.38,0h.38a3,3,0,0,0,.4-.12,2.86,2.86,0,0,0,.41-.15l.39-.2a4.18,4.18,0,0,0,.72-.53,3.77,3.77,0,0,0,1.27-3.15,3.82,3.82,0,0,0-.22-.82,3,3,0,0,0-1.12-1.32,4.57,4.57,0,0,0-.85-.44l-1,.28c-.29.08-.58.14-.82.19l-.69.13c-.2,0-.39.06-.56.07-.67.07-1,.06-1.07.24a.44.44,0,0,0-.06.16.24.24,0,0,0,0,.12.24.24,0,0,0,0,.12.43.43,0,0,0,0,.16v.4a.89.89,0,0,0,0,.23l-.08.51a1.58,1.58,0,0,1-.08.59A3.25,3.25,0,0,0,25.13,111.38Z"/><path class="cls-6" d="M14.55,102c.23.31.55.69.83,1l.39.46.08.1.12.07a.67.67,0,0,0,.23.1.64.64,0,0,0,.47,0,1.07,1.07,0,0,0,.48-.36,4.58,4.58,0,0,0,.53-.84c.19-.36.39-.83.62-1.4A5.84,5.84,0,0,0,20,103.44a2.77,2.77,0,0,0,1.8.57,3.94,3.94,0,0,0,1.74-.51,4.21,4.21,0,0,0,.75-.49,2.9,2.9,0,0,0,.55-.61,5.57,5.57,0,0,1,0,1c0,.42-.08.91-.1,1.39v1.61a.24.24,0,0,0,0,.12h0l-.12.16a.86.86,0,0,1,.35-.16,4.83,4.83,0,0,1,1.19-.18,13.3,13.3,0,0,1,3.6.44,9.07,9.07,0,0,0,.89-.26l.44-.17.42-.21a5.32,5.32,0,0,0,.79-.55,3.8,3.8,0,0,0,.63-.75c.08-.15.16-.3.23-.46l.09-.25.06-.27a5.54,5.54,0,0,0,.07-.57c0-.21,0-.41,0-.62A4.78,4.78,0,0,0,31.87,100a5.54,5.54,0,0,0-.71-.57,7.24,7.24,0,0,0-.71-.41l-.17-.07-.15-.05a1.81,1.81,0,0,0-.31-.09,2.82,2.82,0,0,0-.57-.09,2.18,2.18,0,0,0-.51,0,2.43,2.43,0,0,0-.47.08,3.91,3.91,0,0,0-.82.33,5.32,5.32,0,0,0-1.18.93c-.31.31-.54.59-.7.73a1.91,1.91,0,0,0-.14-.85,3.1,3.1,0,0,0-.55-.88,4.37,4.37,0,0,0-2.1-1.26A3.66,3.66,0,0,0,20.2,98a3.79,3.79,0,0,0-1.8,2.47,6.92,6.92,0,0,0-1-1.22,3.17,3.17,0,0,0-.92-.62,1.56,1.56,0,0,0-.77-.12,1.28,1.28,0,0,0-.59.24l-.23.23-.09.13a.61.61,0,0,0-.12.16,1.65,1.65,0,0,0-.3.66,3.12,3.12,0,0,0,0,1.29,3.87,3.87,0,0,0-1.23-.85,4.07,4.07,0,0,0-1.58-.3,4.76,4.76,0,0,0-.84.07l-.42.09-.41.14a4.56,4.56,0,0,0-1.45.87,3,3,0,0,0-1.08,2.67A2.44,2.44,0,0,0,8,105.19a3.45,3.45,0,0,0,.28.26l.33.24a4.63,4.63,0,0,0,.78.37l1.43-.28.62-.11.58-.09c.73-.12,1.33-.17,1.78-.21.92-.07,1.31-.06,1.43-.21s0-.47-.14-1c-.06-.28-.13-.61-.19-1Z"/><path class="cls-7" d="M12.45,104.69c-1.47,2.93,3.89,10.22,10.71,7.3s4.38-7.06,1.22-7.79S13.86,101.77,12.45,104.69Z"/><path class="cls-7" d="M21.74,112.16a6.36,6.36,0,0,0-.51-.83q-.15-.19-.3-.36a1.83,1.83,0,0,0-.31-.24l-.16,0h-.17a.51.51,0,0,0-.17.07.9.9,0,0,0-.19.15,12.55,12.55,0,0,0-1.18,1.44,11.69,11.69,0,0,0-.3-1.2c-.06-.17-.12-.31-.18-.45a2.58,2.58,0,0,0-.19-.37,1.91,1.91,0,0,0-1-.86,3.64,3.64,0,0,0-1.31-.22,3,3,0,0,0-.67.07,1.72,1.72,0,0,0-.59.2c.1-.29.54-.91.89-1.55.09-.16.18-.33.25-.49a3.76,3.76,0,0,0,.2-.46v-.1l.07,0,.11-.07.13-.06h-.3a3.89,3.89,0,0,1-1-.32,12.32,12.32,0,0,1-2.57-1.7,5.57,5.57,0,0,1-.67-.12,4.09,4.09,0,0,0-.7,0,3.28,3.28,0,0,0-.7.1,2.47,2.47,0,0,0-.64.29,2.23,2.23,0,0,0-.55.51,2.5,2.5,0,0,0-.21.35l-.09.2a1,1,0,0,1-.07.23,3.86,3.86,0,0,0-.09.49,5.23,5.23,0,0,0,0,.56v.3a.54.54,0,0,0,.07.32,1,1,0,0,1,.08.33,3.42,3.42,0,0,0,.13.34,4.57,4.57,0,0,0,.66,1.18,4.09,4.09,0,0,0,.39.44l.2.18h.05l.08,0a2.4,2.4,0,0,0,.69.26,2.81,2.81,0,0,0,.65.07,7.79,7.79,0,0,0,1.84-.42,1.32,1.32,0,0,0-.19.61,2.16,2.16,0,0,0,.08.8,3.34,3.34,0,0,0,1.12,1.64,3,3,0,0,0,2.1.66,2.66,2.66,0,0,0,.56-.12,2.17,2.17,0,0,0,.53-.26,2.76,2.76,0,0,0,.89-.94,3.58,3.58,0,0,0,.58,1.07,1.78,1.78,0,0,0,.32.35,1.56,1.56,0,0,0,.34.23,1.3,1.3,0,0,0,.32.14,1.57,1.57,0,0,0,.3,0,1.31,1.31,0,0,0,.28,0l.25-.1a1.59,1.59,0,0,0,.39-.34,1.63,1.63,0,0,0,.25-.47,3.09,3.09,0,0,0,.17-1,2.6,2.6,0,0,0,.71.77,3.23,3.23,0,0,0,.44.27,2.64,2.64,0,0,0,.47.17,4.54,4.54,0,0,0,.51.09,3.84,3.84,0,0,0,.48,0,2.61,2.61,0,0,0,.94-.24,2.67,2.67,0,0,0,.43-.25,2.57,2.57,0,0,0,.39-.35,3.39,3.39,0,0,0,.33-.42,3.81,3.81,0,0,0,.31-.56V112l.06-.15a.52.52,0,0,1,.07-.32c.07-.1,0-.21,0-.32v-.32a2.39,2.39,0,0,0-.53-1.21l-.75-.19-.62-.18-.5-.18-.21-.08A.7.7,0,0,0,24,109l-.33-.09a1,1,0,0,0-.35,0,1.56,1.56,0,0,0-.62.23,1.91,1.91,0,0,0-.51.47l-.21.32a2.17,2.17,0,0,0-.15.35c-.05.13-.09.27-.13.41s-.08.28-.11.44A7.07,7.07,0,0,0,21.74,112.16Z"/><path class="cls-7" d="M17.39,103.33a2.88,2.88,0,0,0,.82,1.67c.46.31,1.11.09,2.25-1.38.38,1.88,1.43,2.58,2.56,2.68.69.08.78-.15,1.18-.34l.56-.31a3.25,3.25,0,0,0,.55-.36,3,3,0,0,1-.31.65,7.34,7.34,0,0,1-.6.86,4.15,4.15,0,0,1-.69.7,1.7,1.7,0,0,1-.44.24.81.81,0,0,1,.31,0,3.54,3.54,0,0,1,.87.33,8.94,8.94,0,0,1,2.11,1.61,4.3,4.3,0,0,0,3,0,3.35,3.35,0,0,0,.36-.21,2.16,2.16,0,0,0,.33-.27,2.9,2.9,0,0,0,.55-.75,3.29,3.29,0,0,0,.19-2.31,3.33,3.33,0,0,0-1.28-1.91,2.9,2.9,0,0,0-1.58-.5,5,5,0,0,0-2,.55,1.37,1.37,0,0,0-.33-1.39,3,3,0,0,0-.86-.72l-.26-.14-.14-.07h0a2.87,2.87,0,0,0-.4-.18,2.8,2.8,0,0,0-3.52,1.46c-.62-1.77-1.39-2.15-2-2a2.35,2.35,0,0,0-1.14,1.54,3.18,3.18,0,0,0-1.11-1.67l-.21-.13-.11-.07-.13,0a3.6,3.6,0,0,0-.63-.15,4,4,0,0,0-.69,0,4.06,4.06,0,0,0-.69.08,3.63,3.63,0,0,0-.66.21,3.25,3.25,0,0,0-.57.33,2.45,2.45,0,0,0-.46.45L12,102c0,.09-.09.19-.13.28l-.06.14v.45a2.15,2.15,0,0,0,0,.62,3.61,3.61,0,0,0,.24.62,3.51,3.51,0,0,0,.42.59l.81.17L14,105l.57.19.45.17c.53.23.75.36.89.29s.13-.11.2-.23l.12-.21.06-.07.07-.06.14-.15A5.05,5.05,0,0,0,17.39,103.33Z"/><path class="cls-4" d="M67,108.56c0-1.58-.17-3.46-1.39-4.24s-2.83.39-5-.07c-2.73-.58-2.43-3-5-4.39-4.48-2.43-9.16,2.76-14,0-1.28-.73-1.58-1.45-3.13-1.88a7.24,7.24,0,0,0-6.4,1.4,5.68,5.68,0,0,0-2.44,4.52,5.51,5.51,0,0,0,2.37,4c-.15,0-3.64-.78-5.87,1.67a5.78,5.78,0,0,0-1.44,3.9c.08,2.54,2,4.25,2.78,4.94,3.17,2.76,6.66,2.37,17.16,3.33,2.86.26,5.18.53,6.65.71a6.76,6.76,0,0,0,3.62,1.74,5.12,5.12,0,0,0,3.2-.42,5.19,5.19,0,0,0,2.44-3.48,4.82,4.82,0,0,0,2,1.51,5.52,5.52,0,0,0,4.93-.75,4.82,4.82,0,0,0,2-2.85,4.69,4.69,0,0,0-.21-2.57h0a3.89,3.89,0,0,0,2.51-2.09,3.78,3.78,0,0,0-.91-4A4,4,0,0,0,67,108.56Z"/><path class="cls-11" d="M44.64,121.42a3.42,3.42,0,0,0-1.55-2.16c-.82-.35-1.94,0-3.39,2.21a4.89,4.89,0,0,0-2-2.33,4.79,4.79,0,0,0-2.89-.6,5.44,5.44,0,0,0-2.87,1.06,21.23,21.23,0,0,0,.93-2.68c.34-1.25.51-1.87.35-2.23-.62-1.44-4.56-1.85-7.31-.21a7.13,7.13,0,0,0-2.64,2.86,4.92,4.92,0,0,0,1,6,5,5,0,0,0,6.75-.91c.26,1,1.85,2.14,3.68,2.38a4.55,4.55,0,0,0,5-2.76c1.4,2.21,2.55,2.61,3.38,2.27a3.39,3.39,0,0,0,1.57-2.16,4.79,4.79,0,0,0,4.15,3.1c1.76.08,3.61-1,4.66-3.53-1.13-2.54-3-3.53-4.71-3.42A4.84,4.84,0,0,0,44.64,121.42Z"/><path class="cls-10" d="M32.68,111.53c.24,3.57,14.9,6.21,15.38,6.35,4.13,1.16,15.67-.11,16.6-2.93C65.72,111.7,54,99.55,48.55,99.81,44.9,100,32.45,108.37,32.68,111.53Z"/><path class="cls-5" d="M49.73,117.82a6.49,6.49,0,0,0-.31-1.44,3.52,3.52,0,0,0-.27-.63,1.88,1.88,0,0,0-.16-.23l-.08-.08h0a1.56,1.56,0,0,0-.37-.1h-.29a1.89,1.89,0,0,0-.65.24,7.17,7.17,0,0,0-1.75,1.59c-.36-2.53-1.75-3.53-3.18-3.71a4.31,4.31,0,0,0-2.07.27,2.94,2.94,0,0,0-1.42,1.06c-.07-.41,0-1.41-.12-2.42v-.19a.14.14,0,0,1,0-.09V112l.07-.31a3.47,3.47,0,0,1,.16-.55,1.39,1.39,0,0,1,.31-.52,3.17,3.17,0,0,1-.41.21,8.79,8.79,0,0,1-1.52.43,20,20,0,0,1-2.31.3,21.69,21.69,0,0,1-2.55,0A5.22,5.22,0,0,0,30,113.78a2.36,2.36,0,0,0-.12,1.84,4,4,0,0,0,1.88,2.09,6.63,6.63,0,0,0,3.09.93,5,5,0,0,0,1.22-.12,4.91,4.91,0,0,0,.51-.15h.11l.09-.06.16-.12a16,16,0,0,0,1.7-1.79,2.62,2.62,0,0,0,.61,1.72,4.39,4.39,0,0,0,1.78,1.38c1.46.61,3.31.37,4.7-1.78a6.22,6.22,0,0,0,1,2.17,1.94,1.94,0,0,0,.51.48.66.66,0,0,0,.24.11H48a1.23,1.23,0,0,0,.37-.12,2.26,2.26,0,0,0,.63-.47,4.11,4.11,0,0,0,.76-1.29,4.19,4.19,0,0,0,1.3,2.31,3.52,3.52,0,0,0,2.22.92A3.17,3.17,0,0,0,55.6,121a5.4,5.4,0,0,0,1.49-2.91c-1.23-2.42-2.65-3.29-3.94-3.17a3.14,3.14,0,0,0-1.82.89A6.51,6.51,0,0,0,49.73,117.82Z"/><path class="cls-5" d="M59.17,106.7a3.68,3.68,0,0,0-.69,2.38,1,1,0,0,0,.88.73,6.91,6.91,0,0,0,2.56-.15c-.17.27-.3.54-.43.79l-.37.62c-.22.37-.39.64-.51.86-.25.43-.27.62,0,.87a5.35,5.35,0,0,0,.5.45,8,8,0,0,1,.69.62,12.2,12.2,0,0,0,1.36,1.33,13.53,13.53,0,0,1-2.88-1.15,8,8,0,0,1-1.32-.81,2.07,2.07,0,0,1-.49-.49v.07a.24.24,0,0,1,0,.12V113h0l-.12.12a3.66,3.66,0,0,0-.74,1.3,17,17,0,0,0-.67,3.54,10,10,0,0,0,1.8,3.18,3.36,3.36,0,0,0,1.45.89l.22,0h.34q.39,0,.78-.06a8.07,8.07,0,0,0,1.74-.44,5.85,5.85,0,0,0,1.48-.79,3.43,3.43,0,0,0,.86-.92,2.43,2.43,0,0,0,.34-1.74,3.79,3.79,0,0,0-.55-1.29c-.23-.34-.44-.59-.52-.76a2.11,2.11,0,0,0,1,0,2.15,2.15,0,0,0,1-.55,4.78,4.78,0,0,0,.39-.5l.15-.29c0-.11.09-.21.12-.32a3.32,3.32,0,0,0,.09-1.47,4.44,4.44,0,0,0-.61-1.61,4.89,4.89,0,0,0-1.24-1.4,3.45,3.45,0,0,0-3.4-.66,5.26,5.26,0,0,0,.55-2.59,1.23,1.23,0,0,0-.74-1.07,3.12,3.12,0,0,0-2.48.53,4.53,4.53,0,0,0,.51-2.58,3.49,3.49,0,0,0-1-2.13,3.23,3.23,0,0,0-2.29-.87,5.18,5.18,0,0,0-3,1.21,7.76,7.76,0,0,0-.21,3.18,2.8,2.8,0,0,0,1.06,1.79,3.3,3.3,0,0,0,2,.56A5.83,5.83,0,0,0,59.17,106.7Z"/><path class="cls-5" d="M37.45,106.33a3.69,3.69,0,0,0,2.3.94,1,1,0,0,0,.84-.81,7,7,0,0,0,.09-2.58c2.08,1.5,3.7,1.25,4.8.43a4.19,4.19,0,0,0,1.25-1.55,3,3,0,0,0,.35-1.7,9.38,9.38,0,0,1,1,1.26,5.74,5.74,0,0,1,.75,1.74,2,2,0,0,1,.06.48v.15h0a1.33,1.33,0,0,0,1,0,5,5,0,0,0,1.26-.63,25.17,25.17,0,0,0,2.74-2.31,8.6,8.6,0,0,0,.6-3.62,3.05,3.05,0,0,0-.7-1.65,3.86,3.86,0,0,0-2.1-1.21l-.22,0-.23,0a1.38,1.38,0,0,1-.49-.06,4.51,4.51,0,0,0-.9,0,3.9,3.9,0,0,0-1.46.42,3.57,3.57,0,0,0-1.54,1.65l-.12.29a1.28,1.28,0,0,0-.07.28c-.14.73-.1,1.34-.16,1.65a2.59,2.59,0,0,0-1.63-.9,4.55,4.55,0,0,0-2.34.23c-1.53.59-2.73,2.12-2.15,4.61a5.57,5.57,0,0,0-2.51-.79,1.18,1.18,0,0,0-1.12.62,3.17,3.17,0,0,0,.26,2.52,5.23,5.23,0,0,0-1.24-.59,3.5,3.5,0,0,0-.64-.15h-.32a.54.54,0,0,0-.18,0h-.2a5.17,5.17,0,0,0-1.6.6,6.25,6.25,0,0,0-1.43,1.13,4.21,4.21,0,0,0-.88,1.44,2.44,2.44,0,0,0-.08,1.44,2.37,2.37,0,0,0,.76,1.18,3.35,3.35,0,0,0,1.53.7c.87-.35,1.68-.64,2.36-.84s1.24-.33,1.68-.42c.87-.18,1.23-.21,1.33-.39s0-.48-.18-1.07v-.11a.24.24,0,0,1,0-.12v-.3a3.36,3.36,0,0,0-.06-.63A5.92,5.92,0,0,0,37.45,106.33Z"/><path class="cls-6" d="M54.72,115.8c-.2-.38-.42-.75-.65-1.1a4.62,4.62,0,0,0-.37-.5,1.75,1.75,0,0,0-.38-.34.44.44,0,0,0-.19-.07.34.34,0,0,0-.2,0,.43.43,0,0,0-.22.09,3,3,0,0,0-.3.19,8,8,0,0,0-1.56,2c-.69-2.45-2-3.26-3.31-3.34a4.24,4.24,0,0,0-1.92.39l-.22.1-.16.13-.31.28a5.5,5.5,0,0,0-.56.62,7.16,7.16,0,0,1,.65-2.17,5.59,5.59,0,0,1,.64-1.08,1.75,1.75,0,0,1,.48-.46,4.13,4.13,0,0,1-.5.15,9.31,9.31,0,0,1-1.74.22,20.69,20.69,0,0,1-2.49,0,25.83,25.83,0,0,1-2.63-.31,8.59,8.59,0,0,0-1.85.63,3.94,3.94,0,0,0-1.45,1.14,2.57,2.57,0,0,0-.53,1.75,3.3,3.3,0,0,0,1.22,2.18,5.18,5.18,0,0,0,5.06,1,5.59,5.59,0,0,0,.87-.38c.23-.13.45-.28.67-.43.39-.29.67-.55.86-.68a1.35,1.35,0,0,0,.13.84,2.18,2.18,0,0,0,.28.46c.05.08.13.16.18.23l.16.21a4.17,4.17,0,0,0,1.88,1.32,3.47,3.47,0,0,0,2.46,0,4,4,0,0,0,2.09-2.19,4.84,4.84,0,0,0,1.54,2.14,1.62,1.62,0,0,0,.37.19,1.28,1.28,0,0,0,.39.07,1.45,1.45,0,0,0,1.23-.6,2.27,2.27,0,0,0,.34-.61,3.88,3.88,0,0,0,.22-1.31,3.44,3.44,0,0,0,2.3,1.51h1.13l.41-.11.4-.16.39-.2a4.25,4.25,0,0,0,.73-.53,3.43,3.43,0,0,0,1.05-4,3.91,3.91,0,0,0-.46-.73,2.85,2.85,0,0,0-.66-.59,4.11,4.11,0,0,0-.86-.44c-.34.1-.66.2-.95.27s-.57.15-.82.2l-.69.13-.56.07c-.67.07-1,.06-1.08.24a.44.44,0,0,0-.06.16v.8a.89.89,0,0,0,0,.23l-.08.52a1.71,1.71,0,0,1-.07.58C54.9,115,54.8,115.37,54.72,115.8Z"/><path class="cls-6" d="M44.11,106.38c.24.31.55.68.83,1l.39.46.09.09.11.08.24.1a.64.64,0,0,0,.47,0,1,1,0,0,0,.48-.37,3.78,3.78,0,0,0,.53-.83c.19-.37.39-.83.63-1.41a5.88,5.88,0,0,0,1.72,2.34,2.76,2.76,0,0,0,1.81.57,3.94,3.94,0,0,0,1.74-.51,3.77,3.77,0,0,0,.75-.5,2.62,2.62,0,0,0,.55-.6,5.57,5.57,0,0,1,0,1c0,.42-.08.91-.1,1.39V111a.44.44,0,0,1-.12.15,2.17,2.17,0,0,1,.35-.15,4.42,4.42,0,0,1,1.2-.19,12.88,12.88,0,0,1,3.6.45,7,7,0,0,0,.89-.26,4.22,4.22,0,0,0,.45-.18,4.11,4.11,0,0,0,.42-.21,3.86,3.86,0,0,0,.79-.55,3,3,0,0,0,.63-.75,4,4,0,0,0,.23-.46l.09-.25.06-.27a3.7,3.7,0,0,0,.07-.57c0-.21,0-.41,0-.62a4.91,4.91,0,0,0-1.54-2.73,5.54,5.54,0,0,0-.71-.57,5.2,5.2,0,0,0-.72-.42l-.16-.06-.16-.06-.3-.09a2.82,2.82,0,0,0-.57-.09,4.51,4.51,0,0,0-.52,0,1.86,1.86,0,0,0-.47.09,3.41,3.41,0,0,0-.82.32,5.42,5.42,0,0,0-1.19.94c-.3.31-.53.59-.7.73a1.9,1.9,0,0,0-.13-.85,3.37,3.37,0,0,0-.56-.88,4.18,4.18,0,0,0-2.1-1.26,3.58,3.58,0,0,0-2.59.27A3.77,3.77,0,0,0,48,105a7,7,0,0,0-1-1.23,3.14,3.14,0,0,0-.92-.61,1.69,1.69,0,0,0-.77-.13,1.16,1.16,0,0,0-.59.25.84.84,0,0,0-.23.23.64.64,0,0,0-.1.13l-.12.15a2,2,0,0,0-.3.67,2.81,2.81,0,0,0,0,1.29,3.66,3.66,0,0,0-1.24-.85,4.28,4.28,0,0,0-1.58-.31,6,6,0,0,0-.84.08l-.43.09-.41.14a4.56,4.56,0,0,0-1.45.87,3,3,0,0,0-1.08,2.68,2.44,2.44,0,0,0,.63,1.26,2.23,2.23,0,0,0,.27.26,2.62,2.62,0,0,0,.34.24,4.29,4.29,0,0,0,.78.37l1.43-.28.63-.11.58-.09c.73-.11,1.33-.17,1.78-.21.93-.07,1.32,0,1.43-.21s0-.47-.13-1c-.06-.28-.13-.61-.19-1Z"/><path class="cls-7" d="M42,109.09c-1.47,2.94,3.9,10.25,10.74,7.32s4.39-7.08,1.22-7.81S43.45,106.16,42,109.09Z"/><path class="cls-7" d="M51.33,116.59a6.43,6.43,0,0,0-.52-.83,2.6,2.6,0,0,0-.3-.36,1,1,0,0,0-.31-.24.3.3,0,0,0-.16,0h-.17a.36.36,0,0,0-.17.07l-.2.14a15,15,0,0,0-1.17,1.46,10.22,10.22,0,0,0-.31-1.21c-.05-.15-.11-.3-.17-.45s-.13-.27-.2-.38a1.82,1.82,0,0,0-1-.85,3.26,3.26,0,0,0-1.31-.22,2.57,2.57,0,0,0-.68.06,1.74,1.74,0,0,0-.58.2c.1-.29.53-.91.89-1.55.09-.17.18-.33.25-.49a3.76,3.76,0,0,0,.2-.46v-.06h0l.07-.05.11-.08.13-.06a.76.76,0,0,1-.3,0,4.35,4.35,0,0,1-1-.33,11.64,11.64,0,0,1-2.58-1.7c-.22-.05-.45-.09-.68-.12a4.09,4.09,0,0,0-.7,0,3.19,3.19,0,0,0-.69.1,2.93,2.93,0,0,0-.65.29,2.23,2.23,0,0,0-.55.51,2.6,2.6,0,0,0-.21.36l-.09.2a1.42,1.42,0,0,0-.07.22,3.86,3.86,0,0,0-.09.49,2.72,2.72,0,0,0,0,.57v.3a.54.54,0,0,0,.07.32,2,2,0,0,0,.08.33,3.42,3.42,0,0,0,.13.34,4.47,4.47,0,0,0,.66,1.19,5.22,5.22,0,0,0,.39.43,1.12,1.12,0,0,0,.2.18h.05l.09,0a2.66,2.66,0,0,0,.68.26,2.46,2.46,0,0,0,.66.06,7.41,7.41,0,0,0,1.85-.42,1.26,1.26,0,0,0-.2.62,2.4,2.4,0,0,0,.08.8A3.3,3.3,0,0,0,44,117.87a3,3,0,0,0,2.1.67,2.66,2.66,0,0,0,.56-.12,2.24,2.24,0,0,0,.54-.26,3,3,0,0,0,.89-1,3.68,3.68,0,0,0,.57,1.07,1.56,1.56,0,0,0,.33.35,2,2,0,0,0,.33.24,1.22,1.22,0,0,0,.33.14,1.5,1.5,0,0,0,.3,0,.66.66,0,0,0,.28,0,1.12,1.12,0,0,0,.25-.11,1.16,1.16,0,0,0,.39-.34,1.63,1.63,0,0,0,.25-.47,2.84,2.84,0,0,0,.17-1,3,3,0,0,0,.71.76,3.23,3.23,0,0,0,.44.27,4.68,4.68,0,0,0,.48.18,4.54,4.54,0,0,0,.51.09h.48a2.63,2.63,0,0,0,1.38-.5,3.17,3.17,0,0,0,.39-.34,4.46,4.46,0,0,0,.33-.43,3,3,0,0,0,.3-.56l.06-.15a.88.88,0,0,0,0-.15,1.67,1.67,0,0,1,.08-.32,1.71,1.71,0,0,0,0-.32,1.71,1.71,0,0,0,0-.32,2.29,2.29,0,0,0-.17-.62A2.58,2.58,0,0,0,56,114l-.75-.18-.63-.19-.5-.17-.21-.08-.19-.07-.33-.09a2,2,0,0,0-.35,0l-.33.08a1.59,1.59,0,0,0-.29.15,2.28,2.28,0,0,0-.51.47,1.85,1.85,0,0,0-.21.33,2.21,2.21,0,0,0-.16.35,2.8,2.8,0,0,0-.13.41,2.83,2.83,0,0,1-.11.44A6.9,6.9,0,0,0,51.33,116.59Z"/><path class="cls-7" d="M47,107.73a2.91,2.91,0,0,0,.82,1.68c.46.3,1.11.08,2.26-1.39.38,1.88,1.44,2.58,2.56,2.69.7.08.79-.16,1.19-.34l.57-.32a3.84,3.84,0,0,0,.54-.35,3,3,0,0,1-.31.65,7.34,7.34,0,0,1-.6.86,4.15,4.15,0,0,1-.69.7,1.42,1.42,0,0,1-.44.23,1.61,1.61,0,0,1,.31,0,3.54,3.54,0,0,1,.87.33,9.21,9.21,0,0,1,2.12,1.61,4.19,4.19,0,0,0,3,0c.13-.06.25-.13.37-.2a2.16,2.16,0,0,0,.33-.27,2.9,2.9,0,0,0,.55-.75,3.51,3.51,0,0,0-1.1-4.24,2.79,2.79,0,0,0-1.58-.5,5,5,0,0,0-2,.55,1.42,1.42,0,0,0-.34-1.4,3,3,0,0,0-.86-.72l-.26-.14-.13-.06h0a2.87,2.87,0,0,0-.4-.18,2.82,2.82,0,0,0-3.53,1.47c-.62-1.77-1.39-2.16-2-2A2.29,2.29,0,0,0,47,107.22a3.18,3.18,0,0,0-1.11-1.67l-.21-.13-.11-.06-.13-.06a3.5,3.5,0,0,0-.64-.15,3.89,3.89,0,0,0-.68-.05,4.06,4.06,0,0,0-.7.08,3.79,3.79,0,0,0-.65.21,2.59,2.59,0,0,0-.58.34,2.4,2.4,0,0,0-.46.44c-.06.09-.13.17-.18.25l-.13.28-.06.14a.38.38,0,0,0,0,.15v.3a2.22,2.22,0,0,0,0,.63,2.32,2.32,0,0,0,.23.62,3.56,3.56,0,0,0,.43.59l.81.17.69.18.57.19c.18.06.32.12.46.18.53.22.74.35.89.29a.52.52,0,0,0,.2-.24l.12-.21v-.06l.08-.07.14-.15A5,5,0,0,0,47,107.73Z"/></g></g></svg>