<svg xmlns="http://www.w3.org/2000/svg" viewBox="0 0 61.51 83.65"><defs><style>.cls-1{fill:#35293a;}.cls-2{fill:#534759;}.cls-3{fill:#376840;}.cls-4{fill:#30663c;}.cls-5{fill:#3a7749;}.cls-6{fill:#5b934e;}.cls-7{fill:#a0c697;}.cls-8{fill:#538445;}.cls-9{fill:#2f633a;}.cls-10{fill:#447f50;}</style></defs><g id="Слой_2" data-name="Слой 2"><g id="Слой_1-2" data-name="Слой 1"><g id="Прочее"><path class="cls-1" d="M25.87,80.25s1-18.82,1.33-24.5c-5.59-4.94-10-10.66-10.07-20,1.34,6.86,3.69,13,10.78,16.94.47-8.41,1.35-22.66,2.25-29.52.35,9.77.92,27.39.92,27.39a28.43,28.43,0,0,0,9.21-14.67c-.87,7.71-5.25,15-8.83,17.61.08,5.67.19,22.81,1.66,26.7C30.72,81.55,27.49,81.41,25.87,80.25Z"/><path class="cls-2" d="M26.67,77.63c0,1,1.9,2.6,2.88,2.67s2.39-.87,2.24-4-1.12-20.95-1.05-23A26.85,26.85,0,0,0,39.3,39.65c-1.19,4.62-5.26,10-8.91,11.77.28-4.48-.35-23-.35-23-.56,5.06-1.26,23.91-1.47,25-3.3-1.08-9.19-6.57-10.87-13.72C18.54,45,22,51,27.94,55.44,27.66,65.78,26.6,76,26.67,77.63Z"/><path class="cls-3" d="M31.69,31.28c-11.93.4-13.88,7.14-23.26,4.88S5.7,5.35,34.19,12.32C66.39,20.18,65.11,35,55.66,38.78,42.27,44.18,41.93,31,31.69,31.28Z"/><path class="cls-4" d="M11.73,37a3.45,3.45,0,0,0,.53,1.11,2,2,0,0,0,.48.48,1.44,1.44,0,0,0,.62.3,1.59,1.59,0,0,0,.75,0,1.91,1.91,0,0,0,.8-.38,4.27,4.27,0,0,0,1.35-2.3A3.86,3.86,0,0,0,19,37.44a4.44,4.44,0,0,0,2.48-.7,5.24,5.24,0,0,0,1.64-1.54,2.7,2.7,0,0,0,.57-1.62c.33.23.87,1,1.61,1.6a4.38,4.38,0,0,0,1.25.78l.35.11a1.61,1.61,0,0,0,.38.08h.84a3.24,3.24,0,0,0,.8-.2,2.48,2.48,0,0,0,.65-.37,3.61,3.61,0,0,0,1-1.13,8.81,8.81,0,0,0,.65-1.51c.18-.54.33-1.1.49-1.64a15.51,15.51,0,0,0-.66-1.58,5.56,5.56,0,0,0-1-1.41,3.48,3.48,0,0,0-1.49-.88,3.36,3.36,0,0,0-1-.14,5.13,5.13,0,0,0-1.17.14,5.58,5.58,0,0,0-.58.18l-.52.23c-.15.09-.3.18-.44.28l-.37.31a3.76,3.76,0,0,0-.91,1.42,12.81,12.81,0,0,0-.42,2.29,2.48,2.48,0,0,0-1.62-.77,5.6,5.6,0,0,0-2.44.24,4.52,4.52,0,0,0-2,1.38,5.13,5.13,0,0,0-1,2.71,11.16,11.16,0,0,0-2-1.39,1.52,1.52,0,0,0-.63-.14,1,1,0,0,0-.48.15,2.41,2.41,0,0,0-.41.37,5.9,5.9,0,0,0-.81,1.62,6.42,6.42,0,0,0-1.22-2.1c-.12-.13-.25-.27-.38-.39a4.12,4.12,0,0,0-.41-.32,3.23,3.23,0,0,0-.44-.27l-.12,0h-4a4.34,4.34,0,0,0-.56.72,3.32,3.32,0,0,0-.34.8,3.21,3.21,0,0,0,0,1.74,3.72,3.72,0,0,0,.39.86c.08.14.19.26.29.4a2.44,2.44,0,0,0,.35.37,4.32,4.32,0,0,0,1.75,1,3.89,3.89,0,0,0,.49.12H8a4,4,0,0,0,.69,0,3.05,3.05,0,0,0,.67-.13,3.81,3.81,0,0,0,.64-.24A3.55,3.55,0,0,0,11.73,37Z"/><path class="cls-4" d="M12.35,14.8a3.64,3.64,0,0,0-1.07-.6,2.13,2.13,0,0,0-1.32,0,1.65,1.65,0,0,0-1,1.09,4.53,4.53,0,0,0,0,2.63,8.33,8.33,0,0,0-.84-.17,5.21,5.21,0,0,0-.79,0,3.69,3.69,0,0,0-1.4.47A4.48,4.48,0,0,0,4.08,20.4,5.23,5.23,0,0,0,3.69,23a2.29,2.29,0,0,0,.8,1.64,11.19,11.19,0,0,0-2.28.57,4.68,4.68,0,0,0-.71.44,3.75,3.75,0,0,0-.66.66A4.34,4.34,0,0,0,0,28.51,4.82,4.82,0,0,0,.4,31a3.6,3.6,0,0,0,.56.87,3.64,3.64,0,0,0,.34.34,2.55,2.55,0,0,0,.38.29,5.27,5.27,0,0,0,3.41.66,14.9,14.9,0,0,1,1.33-1c.43-.29.88-.64,1.26-1A2.48,2.48,0,0,0,8.9,29.06a3.57,3.57,0,0,0-1.27-2.43C7,26,6.2,25.45,6,25.14a2.86,2.86,0,0,0,1.59-.58A5.67,5.67,0,0,0,9,23.13a4.15,4.15,0,0,0,.81-2,4.64,4.64,0,0,0,0-1.29,3,3,0,0,0-.17-.73,6.59,6.59,0,0,0-.3-.79,8,8,0,0,0,2.49.14,1.27,1.27,0,0,0,1-.67A2.48,2.48,0,0,0,13,16.61a5.4,5.4,0,0,0-.25-1.18,6.12,6.12,0,0,0,1.13.6,5.07,5.07,0,0,0,1.14.31,4,4,0,0,0,1.1.06,2.26,2.26,0,0,0,.51-.08,2.11,2.11,0,0,0,.49-.14,3.82,3.82,0,0,0,.46-.21,2.45,2.45,0,0,0,.44-.3,4,4,0,0,0,.78-.85,3.48,3.48,0,0,0,.34-.56,6.62,6.62,0,0,0,.3-.66c.09-.23.17-.49.25-.77s.14-.55.2-.86a6.34,6.34,0,0,0-.59-.69,4.65,4.65,0,0,0-.63-.53,4.14,4.14,0,0,0-.68-.39,4.45,4.45,0,0,0-.7-.24A4.25,4.25,0,0,0,15.88,10c-.23,0-.46.09-.68.15a4.51,4.51,0,0,0-.64.26c-.2.11-.4.23-.59.36s-.35.29-.51.44a4.18,4.18,0,0,0-.78,1.09,3.94,3.94,0,0,0-.33,2.46Z"/><path class="cls-5" d="M10.13,15c-5.63,6.91-8,15.3,2,16.44,6.32.71,17.81-8.5,33.69,1.09,14,8.45,15.42-5.16,7.88-16.52C43.18.2,21.5,1,10.13,15Z"/><path class="cls-5" d="M10.34,30.83a6.9,6.9,0,0,0-.14-1.19.4.4,0,0,0-.08-.29,1.8,1.8,0,0,0-.09-.28,1.33,1.33,0,0,0-.25-.45.65.65,0,0,0-.35-.26H8.9l-.37.09-.48.15-.6.17c-.23.07-.47.12-.76.18l.18-.38.18-.35c.11-.23.2-.43.3-.62l.48-.91A1.94,1.94,0,0,0,8,26.33,1.89,1.89,0,0,0,8.07,26a.43.43,0,0,0,0-.16,2.16,2.16,0,0,0,0-.36v-.19a6.83,6.83,0,0,0-.47-1.7,4.88,4.88,0,0,0-.4-.79,2,2,0,0,0-.52-.57c.37-.09,1.29,0,2.22-.09a4.43,4.43,0,0,0,1.38-.34l.32-.17.3-.21a2.53,2.53,0,0,0,.54-.59,3,3,0,0,0,.3-2.88,14.24,14.24,0,0,0-1.64-2.89,8.45,8.45,0,0,0-3.28-.79,3.41,3.41,0,0,0-3,2,4.67,4.67,0,0,0-.41,1,4.71,4.71,0,0,0-.08.5,3.84,3.84,0,0,0,0,.48,3.73,3.73,0,0,0,.45,1.61,11.14,11.14,0,0,0,1.45,1.82,1.62,1.62,0,0,0-.78.17,3.17,3.17,0,0,0-.84.61A4.64,4.64,0,0,0,2.42,25v1.26a.88.88,0,0,0,.08.44,2.44,2.44,0,0,1,.12.42,4.08,4.08,0,0,0,.17.42,4.28,4.28,0,0,0,.47.77,3,3,0,0,0,1.39,1,2.28,2.28,0,0,0,.82.14h.42a2.16,2.16,0,0,0,.44-.1,3.34,3.34,0,0,0-.13.83,4.52,4.52,0,0,0,.06.74,2.28,2.28,0,0,0,.18.63,2.49,2.49,0,0,0,.27.51,2.43,2.43,0,0,0,.33.38,1.5,1.5,0,0,0,.36.26,1.45,1.45,0,0,0,.73.22,1.62,1.62,0,0,0,.69-.12l.31-.14a2.34,2.34,0,0,0,.27-.2,3.08,3.08,0,0,0,.79-.93,3.54,3.54,0,0,0,.4,1.24,3.43,3.43,0,0,0,.35.55,3.92,3.92,0,0,0,.45.46,1.64,1.64,0,0,0,.25.21l.13.1.15.09a3.38,3.38,0,0,0,.74.3,4.87,4.87,0,0,0,.76.15h.75a3.64,3.64,0,0,0,2.48-1.12,4.13,4.13,0,0,0,.79-1.22,6.16,6.16,0,0,0,.42-1.65,7.94,7.94,0,0,0-1.18-1.21,5.88,5.88,0,0,0-1.17-.73,3.54,3.54,0,0,0-2-.32l-.2.05-.19.06-.35.17c-.1.06-.2.14-.32.23a.23.23,0,0,1-.1.07l-.11.06-.23.14c-.15.11-.3.22-.45.35l-.43.39A6.94,6.94,0,0,0,10.34,30.83Z"/><path class="cls-5" d="M37.58,28.69a2.83,2.83,0,0,0-1-2.22,1.57,1.57,0,0,0-1.4-.09,3.25,3.25,0,0,0-.93.56,6.44,6.44,0,0,0-1,1.09,4.3,4.3,0,0,0-.78-1.4,4.12,4.12,0,0,0-1.12-.87,4.37,4.37,0,0,0-2.62-.33,5.13,5.13,0,0,0-2.2,1,3.35,3.35,0,0,0-.68.73,1.88,1.88,0,0,0-.29.74,16.36,16.36,0,0,0-1.43-1.8,3.83,3.83,0,0,0-1.36-.84,3.89,3.89,0,0,0-.89-.17,4.18,4.18,0,0,0-1,.08,3.2,3.2,0,0,0-2.56,2.11,11,11,0,0,0-.44,3.32A10,10,0,0,0,20,33.2a3.13,3.13,0,0,0,3.09.57,2.73,2.73,0,0,0,.81-.38,2.51,2.51,0,0,0,.61-.52,4.08,4.08,0,0,0,.74-1.28c.35-.9.44-1.82.6-2.18a1.62,1.62,0,0,0,.49.61,3.66,3.66,0,0,0,.78.52,5.36,5.36,0,0,0,2,.54,4.19,4.19,0,0,0,4.09-2.54c.27.51.51.95.73,1.29a3.91,3.91,0,0,0,.64.76,1.16,1.16,0,0,0,1.14.35,3.33,3.33,0,0,0,1.7-1.61,5.81,5.81,0,0,0,.28,1.25c.07.19.15.38.23.55s.19.34.29.51a3.56,3.56,0,0,0,.7.84,3,3,0,0,0,.41.32,2.47,2.47,0,0,0,.93.43,2.29,2.29,0,0,0,.52.11,3,3,0,0,0,1.15-.07,4.31,4.31,0,0,0,1.29-.45,7,7,0,0,0,.7-.4,7.3,7.3,0,0,0,.72-.52,6.76,6.76,0,0,0,0-.9,5.6,5.6,0,0,0-.09-.8,4.52,4.52,0,0,0-.5-1.37,3.82,3.82,0,0,0-.88-1c-.17-.12-.35-.25-.53-.36a4.3,4.3,0,0,0-1.21-.4,3.18,3.18,0,0,0-.62-.06,4.79,4.79,0,0,0-1.25.19,4.23,4.23,0,0,0-.58.25,4.86,4.86,0,0,0-.54.33A4.36,4.36,0,0,0,37.58,28.69Z"/><path class="cls-5" d="M15.89,10a4.29,4.29,0,0,0,1,.62,2.16,2.16,0,0,0,1.17.25,1.24,1.24,0,0,0,.93-.76,7.41,7.41,0,0,0,.5-2.42,5.4,5.4,0,0,0,1.33.83,4,4,0,0,0,1.25.35,2.81,2.81,0,0,0,.58,0,5.32,5.32,0,0,0,.56-.06,4.61,4.61,0,0,0,.53-.15c.17-.06.33-.14.5-.21a3.7,3.7,0,0,0,.9-.57c.14-.11.28-.22.4-.33s.24-.24.35-.36a3.22,3.22,0,0,0,.52-.78,1.69,1.69,0,0,0,.23-.74c.28.28.7,1.1,1.33,1.81a4.17,4.17,0,0,0,1.1.95,2.94,2.94,0,0,0,.69.28,2.24,2.24,0,0,0,.81.11H31a2.32,2.32,0,0,0,.38-.06A2.29,2.29,0,0,0,32,8.49a2.93,2.93,0,0,0,.56-.44,3.29,3.29,0,0,0,.48-.57,15.09,15.09,0,0,0,1.45-3,7.87,7.87,0,0,0-1.21-3.16,3.71,3.71,0,0,0-.58-.61A3.25,3.25,0,0,0,32,.26,4,4,0,0,0,31.07,0H30a5.67,5.67,0,0,0-1.08.26A3.59,3.59,0,0,0,28,.75,3.93,3.93,0,0,0,27,2a14.49,14.49,0,0,0-.69,2.21,1.72,1.72,0,0,0-.55-.59,3.33,3.33,0,0,0-.9-.41l-.56-.13a3.05,3.05,0,0,0-.6-.06,6.85,6.85,0,0,0-1.28.12,4.19,4.19,0,0,0-.63.19c-.21.08-.41.18-.61.28s-.38.24-.56.37a4.45,4.45,0,0,0-.49.48,3.65,3.65,0,0,0-.69,1.21,4.14,4.14,0,0,0-.19,1.6,4.8,4.8,0,0,0-2.44-.79,1.47,1.47,0,0,0-1.25.61,2,2,0,0,0-.32,1.22,4,4,0,0,0,.24,1.19A4.42,4.42,0,0,0,14.35,9a4.13,4.13,0,0,0-1.26-.13,4.59,4.59,0,0,0-1.22.27,3.77,3.77,0,0,0-.57.28A3.93,3.93,0,0,0,9.5,12a4.88,4.88,0,0,0,.62,3.06,6.5,6.5,0,0,0,3,.29,3.38,3.38,0,0,0,1.93-1,2.64,2.64,0,0,0,.32-.41c.09-.14.18-.3.26-.45a3.83,3.83,0,0,0,.35-1,5.66,5.66,0,0,0,.1-1.17A6.48,6.48,0,0,0,15.89,10Z"/><path class="cls-6" d="M8.63,17.87C7.77,22.35,9.19,29,20,26.36S35,16.65,34.89,9.43,11.23,4.36,8.63,17.87Z"/><path class="cls-6" d="M20.23,26a5.19,5.19,0,0,0-.68-1,2.18,2.18,0,0,0-.93-.65,1,1,0,0,0-.49,0,1.42,1.42,0,0,0-.52.34,3.72,3.72,0,0,0-.56.76c-.2.33-.41.74-.66,1.26a7,7,0,0,0-.78-1.31,6,6,0,0,0-.39-.49c-.13-.14-.27-.25-.39-.37a2.73,2.73,0,0,0-1.41-.67,4.85,4.85,0,0,0-1.37.11c-.26.06-.5.1-.76.17a5.17,5.17,0,0,0-.69.26,3.8,3.8,0,0,1,.46-.74l.37-.48c.13-.17.27-.34.41-.5.28-.33.56-.64.77-.9a1.17,1.17,0,0,0,.33-.82c0-.6-.59-1.1-1.41-1.6s-1.91-1-2.9-1.48a6.59,6.59,0,0,0-3.23,1,3.1,3.1,0,0,0-1.09,1.39,4,4,0,0,0-.1,2.36,4.23,4.23,0,0,0,1.2,2.2,3.43,3.43,0,0,0,2.45.91,5.08,5.08,0,0,0,.67-.07c.41-.08.72-.17.92-.2a1.48,1.48,0,0,0-.2.79,3,3,0,0,0,.61,1.56,3,3,0,0,0,.47.54,4.23,4.23,0,0,0,1.25.84,3.81,3.81,0,0,0,2.89.16,2.15,2.15,0,0,0,.62-.32,2.69,2.69,0,0,0,.55-.46,3.86,3.86,0,0,0,.78-1.38,5.94,5.94,0,0,0,1,1.12,2.92,2.92,0,0,0,.88.56A1.52,1.52,0,0,0,19,29a1,1,0,0,0,.58-.21,1.9,1.9,0,0,0,.66-1,3.92,3.92,0,0,0,.17-1.18,4,4,0,0,0,.85.94,3.3,3.3,0,0,0,1.05.59,3.4,3.4,0,0,0,2.31.06,3.35,3.35,0,0,0,1-.58,3.56,3.56,0,0,0,.81-1,4,4,0,0,0,.43-1.35,5.2,5.2,0,0,0,0-1.67,10,10,0,0,0-1.38-.92,5.19,5.19,0,0,0-1.2-.48,2.88,2.88,0,0,0-1-.11,2.54,2.54,0,0,0-.9.23,2.84,2.84,0,0,0-.77.55,3.76,3.76,0,0,0-.63.81,4.72,4.72,0,0,0-.45,1A6,6,0,0,0,20.23,26Z"/><path class="cls-5" d="M12.06,11.88a5,5,0,0,0,1.09.46,2.17,2.17,0,0,0,1.1.11.75.75,0,0,0,.41-.24.79.79,0,0,0,.16-.23,1.63,1.63,0,0,0,.11-.31A7.78,7.78,0,0,0,15,9.31a5.09,5.09,0,0,0,2.52,1,3.18,3.18,0,0,0,1.92-.47,4.58,4.58,0,0,0,1.38-1.32A2.79,2.79,0,0,0,21.36,7c.28.27.73,1.06,1.36,1.74A3,3,0,0,0,25.13,10a2.51,2.51,0,0,0,2.12-1.51,20.55,20.55,0,0,0,1.2-3.05A11.58,11.58,0,0,0,28,3.78a5.25,5.25,0,0,0-.78-1.48A3.19,3.19,0,0,0,24,1.16,3.39,3.39,0,0,0,22.25,2a3.46,3.46,0,0,0-.87,1.31,13.07,13.07,0,0,0-.46,2.22,2.32,2.32,0,0,0-1.43-.93,4.41,4.41,0,0,0-2.28.05,3.72,3.72,0,0,0-2,1.43,3.56,3.56,0,0,0-.49,2.82,4.37,4.37,0,0,0-2.43-.54,1.8,1.8,0,0,0-.4.1,1.32,1.32,0,0,0-.71.65,1.89,1.89,0,0,0-.07,1.24,3.61,3.61,0,0,0,.48,1.1,4.34,4.34,0,0,0-1.23-.3H9.73a6,6,0,0,0-.61.13,3.7,3.7,0,0,0-2,1.56,3.49,3.49,0,0,0-.41,2.6,4,4,0,0,0,1.91,2.42A9.32,9.32,0,0,0,11.39,17a2.44,2.44,0,0,0,1.25-1.2,3.07,3.07,0,0,0,.16-1.75,3.18,3.18,0,0,0-.1-.52,2,2,0,0,0-.15-.55A8.58,8.58,0,0,0,12.06,11.88Z"/><path class="cls-7" d="M28.84,11.45C21.78,5.37,14.3,13,10.55,19,7,24.6,36.85,18.36,28.84,11.45Z"/><path class="cls-7" d="M13.83,15.13h1.51a8.15,8.15,0,0,0,1.21,0c.26-.05.35-.15.27-.49a3.83,3.83,0,0,0-.21-.74,5.6,5.6,0,0,1-.12-.59,4.07,4.07,0,0,0-.14-.77,5.34,5.34,0,0,0,2.58.76,3,3,0,0,0,.94-.15,2.46,2.46,0,0,0,.76-.38l.32-.26a2.68,2.68,0,0,0,.28-.3,3.58,3.58,0,0,0,.5-.66c.07-.11.14-.24.2-.36s.12-.24.17-.36a2.53,2.53,0,0,0,.19-.73,4.88,4.88,0,0,1,.4.79c.15.35.32.75.49,1.17.08.2.17.4.25.58s.17.38.25.53l.12.22a.64.64,0,0,0,.13.19.67.67,0,0,0,.14.15.39.39,0,0,0,.16.1,1.06,1.06,0,0,0,.82,0,2,2,0,0,0,.52-.22,4.63,4.63,0,0,0,.58-.31l.64-.41.67-.44,1.38-1a12.05,12.05,0,0,0,.62-1.58A5.82,5.82,0,0,0,29.63,9a4,4,0,0,0,0-.85,3.54,3.54,0,0,0-.2-.84,4,4,0,0,0-.5-.8,4.2,4.2,0,0,0-2.06-1.23,5.4,5.4,0,0,0-.7-.13,3.42,3.42,0,0,0-.64,0l-.59.07a2.38,2.38,0,0,0-.52.15,3.08,3.08,0,0,0-1.43,1,4.51,4.51,0,0,0-.65,1.25c-.13.38-.21.69-.29.87a1.64,1.64,0,0,0-.51-.6,3.45,3.45,0,0,0-.41-.25,4.24,4.24,0,0,0-.5-.18,4.35,4.35,0,0,0-1.19-.13c-.22,0-.43,0-.64.08a3.26,3.26,0,0,0-.63.18A4.24,4.24,0,0,0,17,8.27a3.5,3.5,0,0,0-.84,1A3.48,3.48,0,0,0,16,12.11c-.25-.09-.5-.16-.75-.23a3.36,3.36,0,0,0-.71-.08,3.68,3.68,0,0,0-1.23.24A2.32,2.32,0,0,0,12,13.21a1.08,1.08,0,0,0-.07.61,1.17,1.17,0,0,0,.22.51,2,2,0,0,0,.88.65,7.16,7.16,0,0,0-2,.44A8.62,8.62,0,0,0,9.15,16.5l-.49.4-.22.22-.19.21-.34.44c0,.08-.1.15-.14.23a2,2,0,0,0-.1.21,2.41,2.41,0,0,0-.16.42.25.25,0,0,1-.06.2c-.06.06,0,.13,0,.19a1.56,1.56,0,0,0,.09.68,1.65,1.65,0,0,0,.33.52,2.47,2.47,0,0,0,.63.44,2.17,2.17,0,0,0,1,.24,4.55,4.55,0,0,0,1.37-.21l1.62-1.38c.51-.42,1-.81,1.44-1.13A21.33,21.33,0,0,1,16,16.89c.43-.25.58-.37.56-.46s-.22-.17-.52-.29l-1-.41Z"/><path class="cls-7" d="M27.78,16.78a7.78,7.78,0,0,0-1-.7,2.25,2.25,0,0,0-1-.37c-.65,0-1.1.64-1.38,2.89-1.6-1.68-3.07-1.79-4.3-1.27a5.08,5.08,0,0,0-.85.49l-.1.08V18l-.08.14-.18.31a12,12,0,0,0-.74,1.48,6.6,6.6,0,0,1,0-2.08,4.83,4.83,0,0,1,.28-1.18,2.51,2.51,0,0,1,.31-.61s-.08.1-.43.38a15.65,15.65,0,0,1-1.64,1.16A47.36,47.36,0,0,1,10.9,20.7a6.16,6.16,0,0,0-1.67,2.45A1.64,1.64,0,0,0,9.4,24.5a2.48,2.48,0,0,0,1.83.92,5.31,5.31,0,0,0,1.49,0,6.65,6.65,0,0,0,3.44-1.61,9.58,9.58,0,0,0,1.76-2.29c.06.45.47.87,1.25,1.09a4.56,4.56,0,0,0,.64.14h.69a3.57,3.57,0,0,0,1.13,0,3.5,3.5,0,0,0,2.09-1.05A3.74,3.74,0,0,0,24.64,19a4.41,4.41,0,0,0,2.21,1.07,1.27,1.27,0,0,0,1.22-.47,1.89,1.89,0,0,0,.33-1.18,3.69,3.69,0,0,0-.23-1.18,3.05,3.05,0,0,0,2.44.59,2.88,2.88,0,0,0,1.33-.63,3.24,3.24,0,0,0,.62-.66,3.83,3.83,0,0,0,.5-.91,4.16,4.16,0,0,0,.16-2.37,3.4,3.4,0,0,0-1.13-1.81,2.64,2.64,0,0,0-1.6-.54,3.61,3.61,0,0,0-1.63.47c-.22.58-.39,1.09-.57,1.51a2.76,2.76,0,0,1-.54.92c-.19.18-.4.19-.52.07a.29.29,0,0,1-.1-.33s.11,0,.16.19a6.45,6.45,0,0,1,.11.73A12.37,12.37,0,0,0,27.78,16.78Z"/><path class="cls-3" d="M8.13,43.24c.29,7.76,14.66,7,14.61-3.43S7.61,30.68,8.13,43.24Z"/><path class="cls-4" d="M21.07,44.55c-.33-.11-.73-.23-1.12-.32a2.82,2.82,0,0,0-1-.07c-.26.06-.42.23-.47.66a20.92,20.92,0,0,0,0,2.24c-1.79-1.47-2.76-1.75-3.68-1.47a4.17,4.17,0,0,0-1.32.73,3.72,3.72,0,0,0-1,1.13,10.83,10.83,0,0,1,0-2.13,9.3,9.3,0,0,1,.1-1.17c0-.32.09-.55.08-.62s-.12,0-.37,0a4.21,4.21,0,0,1-1.06.07,15.9,15.9,0,0,1-3.15-.41,8,8,0,0,0-1.56.67,3.68,3.68,0,0,0-1.27,1.21,3,3,0,0,0-.38,2,4.43,4.43,0,0,0,1.35,2.53,4,4,0,0,0,2.4,1.22,3,3,0,0,0,1.78-.35A6.56,6.56,0,0,0,12.13,49a2,2,0,0,0,.9,1.49,3.9,3.9,0,0,0,2.37.78,3.53,3.53,0,0,0,2.53-1,3,3,0,0,0,.86-2.75,3.49,3.49,0,0,0,2.43.58,1.42,1.42,0,0,0,1.13-.89,1.74,1.74,0,0,0,0-1.27,3.82,3.82,0,0,0-.65-1,3.09,3.09,0,0,0,2.46-.36,3.41,3.41,0,0,0,1.5-2.09,3.2,3.2,0,0,0-.42-2.57,3.88,3.88,0,0,0-2.59-1.59,12.45,12.45,0,0,0-2.35,1.59,2.22,2.22,0,0,0-.79,1.34,2.47,2.47,0,0,0,.4,1.45A10.25,10.25,0,0,0,21.07,44.55Z"/><path class="cls-4" d="M9.84,37a6.43,6.43,0,0,0,1.13.28,2.41,2.41,0,0,0,1,0c.27-.09.42-.28.45-.72a21,21,0,0,0-.2-2.23,9.29,9.29,0,0,0,2.22,1.28,2,2,0,0,0,1.4.06,2.43,2.43,0,0,0,.61-.29c.21-.13.41-.27.61-.42a4.29,4.29,0,0,0,1-1.08,4.22,4.22,0,0,1,0,.87A9.58,9.58,0,0,1,17.9,36c-.06.42-.15.83-.22,1.15a1.32,1.32,0,0,0-.06.68c.07.14.24.18.53.22s.68.06,1.15.08c.91,0,2.09.09,3.19.19A8,8,0,0,0,24,37.46a4.21,4.21,0,0,0,.65-.55,3.48,3.48,0,0,0,.53-.67,2.88,2.88,0,0,0,.39-1.82,4.3,4.3,0,0,0-1.11-2.33,4.17,4.17,0,0,0-2.23-1.33,3.15,3.15,0,0,0-1.82.19,3.89,3.89,0,0,0-1.17.79c-.3.27-.51.52-.66.65a1.52,1.52,0,0,0-.19-.77,1.8,1.8,0,0,0-.28-.4,4.54,4.54,0,0,0-.38-.38,3.79,3.79,0,0,0-1.1-.6A4.23,4.23,0,0,0,15.24,30a3.67,3.67,0,0,0-2.61,1.05,3,3,0,0,0-.72,2.81,3.58,3.58,0,0,0-2.46-.42,1.43,1.43,0,0,0-1.06.94,1.74,1.74,0,0,0,.13,1.25,3.19,3.19,0,0,0,.69,1A3.32,3.32,0,0,0,6.78,37a3.44,3.44,0,0,0-1.51,2,3.23,3.23,0,0,0,.3,2.49A4.08,4.08,0,0,0,8,43.27a8.43,8.43,0,0,0,2.49-1.41,2.34,2.34,0,0,0,.89-1.4A2.76,2.76,0,0,0,11,38.9,9.16,9.16,0,0,0,9.84,37Z"/><path class="cls-8" d="M12,34.59c-9.31,5.52-1.85,13,4.31,10.29C24.32,41.31,22.72,28.23,12,34.59Z"/><path class="cls-5" d="M20.94,36.47A6.55,6.55,0,0,0,19,38.11a2,2,0,0,0-.21,1.36c.07.62.31,1.45.53,2.77a15.65,15.65,0,0,0-3.21,0h-.33l-.32,0-.31.06h-.53a.75.75,0,0,1-.26,0l-.25.06h-.25a1.11,1.11,0,0,1-.25,0l-.25.06-.26.06-.26,0a.75.75,0,0,1-.26,0l-.27.06-.52.09-.26,0h-.49l-.24,0-.43.13a2.21,2.21,0,0,0-.35.16,2.67,2.67,0,0,1,0-.4,2,2,0,0,1,.15-.53l.1-.29a.82.82,0,0,1,.13-.31l.13-.31c0-.1.11-.19.17-.29l.17-.28.2-.23a3.36,3.36,0,0,1,.41-.34,1.51,1.51,0,0,1,.35-.14H12a.17.17,0,0,0,0-.1,1,1,0,0,0,0-.24,1.5,1.5,0,0,0,0-.3v-.7a5.34,5.34,0,0,0,0-.8v-.85c0-.29,0-.6-.07-.89,0-.59-.14-1.19-.2-1.78a10.39,10.39,0,0,0-1.59-.91,5.79,5.79,0,0,0-.92-.29,5.55,5.55,0,0,0-1-.09,5.79,5.79,0,0,0-1.16.22c-.2.08-.41.17-.63.28l-.32.18-.33.22a7.45,7.45,0,0,0-.67.57,7.91,7.91,0,0,0-.66.77c-.11.16-.22.32-.32.48L4,36.18a1.82,1.82,0,0,0-.15.27c-.1.2-.19.41-.27.62s-.09.23-.13.34a1.4,1.4,0,0,1-.11.37,7,7,0,0,0-.2,2.76,5.63,5.63,0,0,0,.7,2.08,4.33,4.33,0,0,0,2.22,2,1.78,1.78,0,0,0,.51.16l.47.07h.8l.61-.1.46-.08a1,1,0,0,0,0,.43,2.28,2.28,0,0,0,.18.52c0,.09.1.2.16.29l.22.3a2.55,2.55,0,0,0,.26.3c.1.1.2.2.32.3a4.76,4.76,0,0,0,.78.55c.15.09.3.16.46.24l.51.21a6.26,6.26,0,0,0,2.35.37,6.41,6.41,0,0,0,2.48-.56l.56-.28L17.7,47c.15-.12.3-.24.44-.37s.28-.25.41-.39a4.53,4.53,0,0,0,1-1.84,3.34,3.34,0,0,0,0-1.93,4.41,4.41,0,0,0,3-1.51,3.22,3.22,0,0,0,.64-1.18,2.91,2.91,0,0,0,.13-1.14,2.69,2.69,0,0,0-2-2.4,2.69,2.69,0,0,0,.78-1.39,3.69,3.69,0,0,0-.14-2,4.51,4.51,0,0,0-1.39-2,5.28,5.28,0,0,0-1.15-.72,5.78,5.78,0,0,0-1.36-.41,7,7,0,0,0-1.45-.06,4.43,4.43,0,0,0-.72.09h-.33l-.29.08a5.56,5.56,0,0,0-1.94,1.09,4.66,4.66,0,0,0-1.59,3.5A12,12,0,0,0,15,35.58c.47.09.9.16,1.25.21h.32a.53.53,0,0,0,.25,0,3.05,3.05,0,0,0,.6-.06,6,6,0,0,1,.85,0,6.7,6.7,0,0,1,1.09.18A11.38,11.38,0,0,0,20.94,36.47Z"/><path class="cls-6" d="M11,33.14c-7.36,2.3,4,13,5.36,9.39S18.19,30.9,11,33.14Z"/><path class="cls-6" d="M16.77,36.8l-.56.24-.59.27a4.4,4.4,0,0,0-.9.5c-.17.16-.17.33.11.76.14.21.35.5.63.92a19.89,19.89,0,0,1,1,1.73c-.6-.26-1.09-.47-1.49-.66l-.57-.25c-.18-.09-.36-.18-.52-.28-.33-.2-.58-.4-.76-.53a1.31,1.31,0,0,0-.45-.24,2.26,2.26,0,0,0-.82.11,3.22,3.22,0,0,0-1,.35,3.86,3.86,0,0,1,.55-1.61,1.93,1.93,0,0,1,.53-.61.54.54,0,0,1,.37-.11.86.86,0,0,1-.26-.21,2.78,2.78,0,0,1-.54-.91A8.15,8.15,0,0,1,11,33.14a5.49,5.49,0,0,0-1.25-1.25,3.77,3.77,0,0,0-.85-.43,3.39,3.39,0,0,0-1-.18,3.4,3.4,0,0,0-2.32.92,4.67,4.67,0,0,0-1.45,3.4,5.87,5.87,0,0,0,.39,2.2,6.33,6.33,0,0,0,1,1.68,5.16,5.16,0,0,0,1.14,1.05,3.51,3.51,0,0,0,1.06.53,3,3,0,0,0,1.59.08c.41-.09.69-.22.88-.26a2,2,0,0,0,.06,1,4.82,4.82,0,0,0,.67,1.41,6.82,6.82,0,0,0,1.29,1.44,5.46,5.46,0,0,0,1.67,1,3.51,3.51,0,0,0,1.67.21A2.43,2.43,0,0,0,17,45.26a1.78,1.78,0,0,0,.46-.74,2.37,2.37,0,0,0,.1-.92,4.87,4.87,0,0,0-.59-2,2.38,2.38,0,0,0,2.14-1,2.61,2.61,0,0,0,.37-2,2.53,2.53,0,0,0-.85-1.4,2.58,2.58,0,0,0-.6-.36,2.78,2.78,0,0,0-.56-.17,2.74,2.74,0,0,0,1-1,3.74,3.74,0,0,0,.29-.72,3.69,3.69,0,0,0,.13-.82A4,4,0,0,0,15.38,30h-1a4,4,0,0,0-2.58,1.39,3.28,3.28,0,0,0-.27.38,4.23,4.23,0,0,0-.22.42,3.52,3.52,0,0,0-.24.9l.57.67.25.3.21.29a7.56,7.56,0,0,1,.58.93c.28.51.37.77.6.87a5.48,5.48,0,0,0,1.21.14l.48.07.55.1Z"/><path class="cls-7" d="M11.13,35.11c-3.32.76-.58,4.92,1.73,3.73S13.7,34.51,11.13,35.11Z"/><path class="cls-7" d="M13.64,36.81a7.78,7.78,0,0,1-1.08.28,2.09,2.09,0,0,1-.5,0,.75.75,0,0,1-.33-.07c-.15-.07-.1-.2.19-.1a2.53,2.53,0,0,1,1.17,1.44,3.8,3.8,0,0,1-.52-.54,2.35,2.35,0,0,0-.46-.43,1.57,1.57,0,0,1-.29-.76.62.62,0,0,1,.06-.26.37.37,0,0,1,.13-.15h.21a1,1,0,0,1-.41.61,11.75,11.75,0,0,1-1.13.69,6.63,6.63,0,0,1,.61-.57,6.18,6.18,0,0,1,1-.66l.27-.11.29-.08a1.23,1.23,0,0,1,.54,0,1.83,1.83,0,0,1,.24.13,2,2,0,0,1,.19.24,1.42,1.42,0,0,1,.11.35v.23a1.13,1.13,0,0,1,0,.26,1.64,1.64,0,0,1-.17.5,1.59,1.59,0,0,1-.13.22l-.15.19-.17.15-.17.11-.17.08h-.16a1,1,0,0,1-1-.57l-.09-.14-.09-.15a1.2,1.2,0,0,1-.16-.32,3,3,0,0,1-.14-.36v-.38A14.76,14.76,0,0,0,11.16,35c-.22-.49-.45-1-.69-1.49l-.09-.17-.13-.17a2.76,2.76,0,0,0-.3-.29l-.34-.25-.19-.11-.19-.09a1.9,1.9,0,0,0-.4-.14,1.74,1.74,0,0,0-.45-.06,4.4,4.4,0,0,0-.51,0,1.38,1.38,0,0,0-.27.08l-.29.12L7,32.64l-.29.22-.29.26c-.1.1-.19.21-.28.32l-.27.37a4.23,4.23,0,0,0-.22.42,4.51,4.51,0,0,0-.33,1,4.44,4.44,0,0,0-.07.49v.46a4.18,4.18,0,0,0,.11.79,3.07,3.07,0,0,0,.24.62,2.55,2.55,0,0,0,.31.47,2.07,2.07,0,0,0,.72.56,2.5,2.5,0,0,0,.38.15,1.51,1.51,0,0,0,.37.07,4.77,4.77,0,0,0,2.14-.4,1.74,1.74,0,0,0-.39,1.48,2,2,0,0,0,.41.9,2.45,2.45,0,0,0,.92.74,2.72,2.72,0,0,0,1.35.23,2,2,0,0,0,.69-.16,2.09,2.09,0,0,0,.61-.36,1.87,1.87,0,0,0,.64-1.14c0-.2-.07-.39-.07-.66a2.49,2.49,0,0,0-.22-.75A2.08,2.08,0,0,0,15.7,39a1,1,0,0,0,.33-.26,1.16,1.16,0,0,0,.2-.32A1.07,1.07,0,0,0,16,37.16a1.8,1.8,0,0,0-.5-.35,2.6,2.6,0,0,0-1.14-.18,2.47,2.47,0,0,0,1-.72,2,2,0,0,0,.44-1.07,2.31,2.31,0,0,0-.21-1.21,2.62,2.62,0,0,0-.84-1,2.27,2.27,0,0,0-2.45-.12,2.16,2.16,0,0,0-.84,1A3.5,3.5,0,0,0,11.21,35a10.38,10.38,0,0,1,.52,1.41,3.13,3.13,0,0,1,.13,1,1.08,1.08,0,0,1-.07.31.49.49,0,0,1-.11.2c-.09.08-.19.09-.24,0a.75.75,0,0,1,.39-.74,2.55,2.55,0,0,1,.79-.35l.53-.1Z"/></g><path class="cls-4" d="M32,72c0-1.11-.12-2.43-1-3s-2,.28-3.52,0c-1.91-.4-1.71-2.09-3.52-3.08-3.14-1.71-6.43,1.94-9.83,0-.9-.51-1.11-1-2.2-1.32a5.18,5.18,0,0,0-4.5,1A4,4,0,0,0,5.75,68.7a3.88,3.88,0,0,0,1.66,2.83,4.59,4.59,0,0,0-4.12,1.18,4.07,4.07,0,0,0-1,2.74,5,5,0,0,0,2,3.47c2.22,1.94,4.67,1.66,12,2.34,2,.18,3.64.37,4.67.49A4.57,4.57,0,0,0,23.5,83a3,3,0,0,1,5.39-1.68,3.84,3.84,0,0,0,3.46-.52,3.3,3.3,0,0,0,1.42-2A3.2,3.2,0,0,0,33.63,77h0a2.46,2.46,0,0,0,1.12-4.25A2.85,2.85,0,0,0,32,72Z"/><path class="cls-9" d="M16.31,81a2.4,2.4,0,0,0-1.09-1.51c-.58-.25-1.36,0-2.38,1.55a3.56,3.56,0,0,0-1.38-1.64,3.41,3.41,0,0,0-2-.42,3.91,3.91,0,0,0-2,.74,13.46,13.46,0,0,0,.65-1.88c.24-.87.36-1.31.25-1.56-.44-1-3.21-1.3-5.14-.15a5.11,5.11,0,0,0-1.86,2,3.45,3.45,0,0,0,.69,4.2,3.52,3.52,0,0,0,4.74-.64,3.1,3.1,0,0,0,2.58,1.67,3.19,3.19,0,0,0,3.5-1.94c1,1.56,1.79,1.83,2.38,1.59a2.33,2.33,0,0,0,1.1-1.51,3.35,3.35,0,0,0,2.91,2.18,3.45,3.45,0,0,0,3.28-2.48c-.8-1.79-2.09-2.48-3.31-2.4A3.39,3.39,0,0,0,16.31,81Z"/><path class="cls-10" d="M7.91,74c.16,2.51,10.46,4.36,10.8,4.46,2.9.82,11-.08,11.66-2.06.75-2.28-7.48-10.82-11.32-10.63C16.49,65.9,7.76,71.79,7.91,74Z"/><path class="cls-5" d="M19.89,78.42a5,5,0,0,0-.23-1,1.85,1.85,0,0,0-.18-.44l-.12-.17v-.06h0a1.11,1.11,0,0,0-.26-.07h-.21a1.42,1.42,0,0,0-.45.16A4.9,4.9,0,0,0,17.13,78c-.25-1.78-1.23-2.48-2.23-2.6a2.9,2.9,0,0,0-1.46.19,2.11,2.11,0,0,0-1,.74,15.41,15.41,0,0,0-.08-1.7v-.48a1.06,1.06,0,0,1,.12-.38,1.36,1.36,0,0,1,.21-.37.82.82,0,0,1-.28.14,5.7,5.7,0,0,1-1.07.31A11.23,11.23,0,0,1,9.72,74c-.6,0-1.21,0-1.79,0a3.7,3.7,0,0,0-2,1.56,1.66,1.66,0,0,0-.08,1.29,2.87,2.87,0,0,0,1.32,1.47A4.5,4.5,0,0,0,9.34,79a2.76,2.76,0,0,0,.86-.08l.35-.11h.15l.11-.08A11.91,11.91,0,0,0,12,77.47a1.8,1.8,0,0,0,.42,1.2,3.06,3.06,0,0,0,1.25,1A2.59,2.59,0,0,0,17,78.42a4.18,4.18,0,0,0,.68,1.52,1.16,1.16,0,0,0,.36.34.51.51,0,0,0,.17.07.11.11,0,0,0,.08,0h.29a.61.61,0,0,0,.26-.08,1.45,1.45,0,0,0,.45-.33,2.76,2.76,0,0,0,.53-.91,2.9,2.9,0,0,0,.91,1.62,2.41,2.41,0,0,0,1.56.65,2.14,2.14,0,0,0,1.6-.61,3.7,3.7,0,0,0,1-2C24,77,23,76.37,22.11,76.46a2.2,2.2,0,0,0-1.28.63A4.73,4.73,0,0,0,19.89,78.42Z"/><path class="cls-5" d="M11.23,70.35a2.58,2.58,0,0,0,1.62.67.73.73,0,0,0,.58-.57,4.84,4.84,0,0,0,.07-1.82c1.46,1.06,2.6.88,3.37.31a2.84,2.84,0,0,0,.88-1.09,2.26,2.26,0,0,0,.24-1.2,8.35,8.35,0,0,1,.69.88,4.32,4.32,0,0,1,.53,1.23,1.82,1.82,0,0,1,0,.33v.06a0,0,0,0,0,0,0h0a1,1,0,0,0,.68,0,3,3,0,0,0,.89-.44,16.54,16.54,0,0,0,1.92-1.63,6.1,6.1,0,0,0,.43-2.54,2.2,2.2,0,0,0-.5-1.16,2.78,2.78,0,0,0-1.48-.85h-.31l-.34,0h-.64a3.12,3.12,0,0,0-1,.29,2.56,2.56,0,0,0-.85.75,4.23,4.23,0,0,0-.23.41l-.09.21v.2c-.09.51-.07.94-.11,1.15a1.83,1.83,0,0,0-1.14-.62,3.09,3.09,0,0,0-1.65.16,2.56,2.56,0,0,0-1.51,3.24,3.8,3.8,0,0,0-1.76-.56.87.87,0,0,0-.79.44A2.28,2.28,0,0,0,10.91,70a3.5,3.5,0,0,0-.87-.42,3.63,3.63,0,0,0-.45-.1H9.1A3.8,3.8,0,0,0,8,69.87a4.25,4.25,0,0,0-1,.79,3.08,3.08,0,0,0-.63,1,1.7,1.7,0,0,0,0,1,1.47,1.47,0,0,0,.53.82A2.29,2.29,0,0,0,8,74c.54-.22,1.09-.42,1.65-.59s.88-.23,1.18-.3c.62-.12.87-.15.94-.27s0-.34-.13-.75v-.82A5,5,0,0,0,11.23,70.35Z"/><path class="cls-6" d="M23.39,77a7.6,7.6,0,0,0-.46-.78,2.88,2.88,0,0,0-.26-.35,1.2,1.2,0,0,0-.26-.24l-.14,0h-.14l-.15.06-.21.13a5.77,5.77,0,0,0-1.1,1.41c-.49-1.72-1.39-2.29-2.32-2.35a3.11,3.11,0,0,0-1.35.28l-.16.07-.11.09-.22.2a5.22,5.22,0,0,0-.39.43,5.11,5.11,0,0,1,.45-1.52,4.22,4.22,0,0,1,.45-.76,2.13,2.13,0,0,1,.34-.33,1.12,1.12,0,0,1-.35.11,6.27,6.27,0,0,1-1.22.16,17,17,0,0,1-1.75,0c-.62,0-1.26-.12-1.85-.22a7.37,7.37,0,0,0-1.3.44,3.13,3.13,0,0,0-1,.8,1.83,1.83,0,0,0-.37,1.23,2.36,2.36,0,0,0,.85,1.54,3.62,3.62,0,0,0,1.92.86A3.52,3.52,0,0,0,13.93,78a2.37,2.37,0,0,0,.61-.27,2.34,2.34,0,0,0,.47-.3c.28-.2.47-.38.61-.47a1,1,0,0,0,.09.58,1.77,1.77,0,0,0,.19.33,1.83,1.83,0,0,1,.13.16l.11.15a2.94,2.94,0,0,0,1.33.92,2.43,2.43,0,0,0,1.72,0,2.81,2.81,0,0,0,1.47-1.54,3.48,3.48,0,0,0,1.08,1.51.91.91,0,0,0,.26.13.87.87,0,0,0,.28,0,1.13,1.13,0,0,0,.26,0,.92.92,0,0,0,.23-.09,1.1,1.1,0,0,0,.37-.31,1.64,1.64,0,0,0,.24-.43,2.37,2.37,0,0,0,.15-.92,2.56,2.56,0,0,0,.68.71,1.49,1.49,0,0,0,.43.23,1.43,1.43,0,0,0,.49.13,1,1,0,0,0,.25,0h.54l.28-.08.29-.11.27-.14a2.29,2.29,0,0,0,.51-.37,2.59,2.59,0,0,0,.89-2.22A2,2,0,0,0,28,75.1a2.72,2.72,0,0,0-.32-.51,2.11,2.11,0,0,0-.47-.42,3.36,3.36,0,0,0-.6-.3l-.67.19-.57.14-.49.09-.39,0c-.47,0-.68,0-.76.16a.24.24,0,0,0,0,.12.11.11,0,0,0,0,.08.14.14,0,0,0,0,.09v.11a.28.28,0,0,0,0,.13v.31l-.06.36a1.18,1.18,0,0,1-.05.41C23.54,76.4,23.46,76.68,23.39,77Z"/><path class="cls-6" d="M15.94,70.39c.16.21.38.48.58.71l.28.33.06.07.08,0,.16.07a.47.47,0,0,0,.33,0,.73.73,0,0,0,.34-.26,2.78,2.78,0,0,0,.37-.59,9.58,9.58,0,0,0,.44-1,4.11,4.11,0,0,0,1.21,1.64,1.93,1.93,0,0,0,1.27.4,3,3,0,0,0,1.23-.36,2.26,2.26,0,0,0,.52-.35,2,2,0,0,0,.39-.42,3.86,3.86,0,0,1,0,.68,5.1,5.1,0,0,1-.07,1v1a.54.54,0,0,1,0,.18v.15l-.08.11a.88.88,0,0,1,.24-.11,3.42,3.42,0,0,1,.84-.13,9.39,9.39,0,0,1,2.53.32,5,5,0,0,0,.63-.19l.31-.12.3-.15a2.62,2.62,0,0,0,.55-.39,2,2,0,0,0,.44-.53,1.2,1.2,0,0,0,.16-.32.75.75,0,0,0,.07-.18v-.18a2.67,2.67,0,0,0,0-.4,3.23,3.23,0,0,0,0-.44A3.47,3.47,0,0,0,28,69a4,4,0,0,0-.5-.4l-.5-.29-.12,0h-.11l-.21-.06a2.57,2.57,0,0,0-.4-.06h-.37a1.91,1.91,0,0,0-.33.06,3.57,3.57,0,0,0-.57.23,4.53,4.53,0,0,0-.84.66,5.9,5.9,0,0,1-.49.51,1.2,1.2,0,0,0-.09-.59,2.39,2.39,0,0,0-.39-.62,3.1,3.1,0,0,0-1.48-.89,2.6,2.6,0,0,0-1.82.19,2.68,2.68,0,0,0-1.27,1.74,4.79,4.79,0,0,0-.7-.86,2.37,2.37,0,0,0-.65-.43,1.26,1.26,0,0,0-.54-.09.91.91,0,0,0-.42.17,1.21,1.21,0,0,0-.16.16l-.07.09-.08.11a1.51,1.51,0,0,0-.21.47,2.32,2.32,0,0,0,0,.91,2.76,2.76,0,0,0-.87-.6,3,3,0,0,0-1.11-.22,5.9,5.9,0,0,0-.59.06l-.3.06-.29.1a3.4,3.4,0,0,0-1,.61,2.1,2.1,0,0,0-.76,1.88,1.65,1.65,0,0,0,.45.89,1.07,1.07,0,0,0,.19.18l.23.17a2.31,2.31,0,0,0,.55.26l1-.2.44-.08.41-.06c.51-.08.93-.12,1.25-.14.65,0,.92,0,1-.15s0-.33-.09-.72a6.2,6.2,0,0,0-.13-.69Z"/><path class="cls-7" d="M14.42,72.29c-1,2.07,2.75,7.2,7.55,5.15s3.08-5,.86-5.49S15.45,70.24,14.42,72.29Z"/><path class="cls-7" d="M21,77.56c-.1-.18-.23-.39-.36-.58s-.14-.17-.22-.25a1,1,0,0,0-.22-.18H20l-.12,0-.13.1a9.78,9.78,0,0,0-.83,1,6.5,6.5,0,0,0-.22-.84,2.08,2.08,0,0,0-.12-.32c0-.1-.09-.19-.13-.27a1.44,1.44,0,0,0-.69-.6,2.45,2.45,0,0,0-.93-.15h-.47a2,2,0,0,0-.41.14c.07-.2.37-.64.62-1.09a1.83,1.83,0,0,0,.18-.34,1.64,1.64,0,0,0,.14-.33h0l.08-.05.1,0a.41.41,0,0,1-.22,0,2.59,2.59,0,0,1-.66-.23,7.55,7.55,0,0,1-1.82-1.2l-.47-.08a4,4,0,0,0-.49,0,4.13,4.13,0,0,0-.49.07,2.37,2.37,0,0,0-.46.2,2.6,2.6,0,0,0-.38.36l-.15.25-.06.14a.43.43,0,0,0,0,.16,2.33,2.33,0,0,0-.06.35,2.54,2.54,0,0,0,0,.39v.44l.06.23.09.24a3.24,3.24,0,0,0,.47.83,2,2,0,0,0,.27.31l.14.13h.06a1.4,1.4,0,0,0,.48.18,1.77,1.77,0,0,0,.46,0,4.89,4.89,0,0,0,1.3-.29.76.76,0,0,0-.14.43,1.33,1.33,0,0,0,.06.56,2.29,2.29,0,0,0,.79,1.16,2.13,2.13,0,0,0,1.47.47,2.59,2.59,0,0,0,.4-.09,1.41,1.41,0,0,0,.37-.18A1.92,1.92,0,0,0,18.7,78a2.07,2.07,0,0,0,.63,1,.81.81,0,0,0,.24.17.67.67,0,0,0,.23.1h.41l.17-.07a.92.92,0,0,0,.28-.24,1.29,1.29,0,0,0,.17-.33.4.4,0,0,1-.06-.56.42.42,0,0,1,.57-.06.4.4,0,0,1,.11.47,1.44,1.44,0,0,0,.31.19,2,2,0,0,0,.34.12l.35.07h.34a1.7,1.7,0,0,0,.66-.17,1,1,0,0,0,.31-.18,1.22,1.22,0,0,0,.27-.24,1.76,1.76,0,0,0,.24-.3,2.42,2.42,0,0,0,.21-.39v-.1a.2.2,0,0,1,0-.11.39.39,0,0,1,.05-.23.81.81,0,0,0,0-.22.88.88,0,0,0,0-.23,1.69,1.69,0,0,0-.12-.44,2.5,2.5,0,0,0-.25-.41l-.53-.13-.44-.13-.35-.12-.15-.06-.13,0-.23-.06a1,1,0,0,0-.25,0l-.23,0-.2.11a1.42,1.42,0,0,0-.36.33,1.14,1.14,0,0,0-.15.23,2.72,2.72,0,0,0-.11.25,1.52,1.52,0,0,0-.09.28c0,.11-.06.21-.08.31A4.53,4.53,0,0,0,21,77.56Z"/><path class="cls-7" d="M17.94,71.34a2,2,0,0,0,.58,1.17c.32.22.78.07,1.58-1,.27,1.32,1,1.82,1.8,1.89.49.06.56-.11.83-.24l.4-.22a2,2,0,0,0,.39-.25,2.43,2.43,0,0,1-.22.46,6.42,6.42,0,0,1-.42.6,2.53,2.53,0,0,1-.49.49.79.79,0,0,1-.31.17h.22a2.28,2.28,0,0,1,.61.24,6.58,6.58,0,0,1,1.49,1.13,3,3,0,0,0,2.11,0l.26-.14.23-.19a1.87,1.87,0,0,0,.39-.53,2.45,2.45,0,0,0-.78-3,2,2,0,0,0-1.11-.35,3.74,3.74,0,0,0-1.39.38,1,1,0,0,0-.24-1,2.51,2.51,0,0,0-.61-.51l-.18-.09H23l-.28-.13a2,2,0,0,0-2.48,1c-.44-1.25-1-1.52-1.38-1.38A1.67,1.67,0,0,0,18,71a2.28,2.28,0,0,0-.78-1.17l-.15-.09-.07,0h-.1l-.45-.11a3.84,3.84,0,0,0-.48,0l-.48.06a3.68,3.68,0,0,0-.47.15,2.6,2.6,0,0,0-.4.23,2.42,2.42,0,0,0-.32.32l-.13.17-.09.2a.17.17,0,0,0,0,.1v.31a1.62,1.62,0,0,0,0,.44,1.55,1.55,0,0,0,.17.44,2,2,0,0,0,.29.41l.57.12.49.13.4.13.32.13c.38.15.53.25.63.2s.09-.08.14-.16.05-.1.08-.15v-.1l.1-.1A3.46,3.46,0,0,0,17.94,71.34Z"/></g></g></svg>