<svg xmlns="http://www.w3.org/2000/svg" viewBox="0 0 63.7 84.24"><defs><style>.cls-1{fill:#35293a;}.cls-2{fill:#534759;}.cls-3{fill:#376840;}.cls-4{fill:#30663c;}.cls-5{fill:#4e5c08;}.cls-6{fill:#3a7749;}.cls-7{fill:#5b934e;}.cls-8{fill:#82a876;}.cls-9{fill:#a0c697;}.cls-10{fill:#538445;}.cls-11{fill:#2f633a;}.cls-12{fill:#447f50;}</style></defs><g id="Слой_2" data-name="Слой 2"><g id="Слой_1-2" data-name="Слой 1"><g id="Прочее"><path class="cls-1" d="M25.87,80.25s1-18.82,1.33-24.5c-5.59-4.94-10-10.66-10.07-20,1.34,6.86,3.69,13,10.78,16.94.47-8.41,1.35-22.66,2.25-29.52.35,9.77.92,27.39.92,27.39a28.43,28.43,0,0,0,9.21-14.67c-.87,7.71-5.25,15-8.83,17.61.08,5.67.19,22.81,1.66,26.7C30.72,81.55,27.49,81.41,25.87,80.25Z"/><path class="cls-2" d="M26.67,77.63c0,1,1.9,2.6,2.88,2.67s2.38-.87,2.24-4-1.12-20.95-1-23a26.85,26.85,0,0,0,8.56-13.65c-1.19,4.62-5.26,10-8.91,11.77.28-4.48-.35-23-.35-23-.56,5.06-1.26,23.91-1.47,25-3.3-1.08-9.19-6.57-10.87-13.72.79,5.35,4.28,11.35,10.19,15.75C27.66,65.78,26.6,76,26.67,77.63Z"/><path class="cls-3" d="M31.69,31.28c-11.93.4-13.88,7.14-23.26,4.88S5.7,5.35,34.19,12.32C66.39,20.18,65.11,35,55.66,38.78,42.27,44.18,41.93,31,31.69,31.28Z"/><path class="cls-4" d="M11.73,37a3.45,3.45,0,0,0,.53,1.11,2,2,0,0,0,.48.48,1.44,1.44,0,0,0,.62.3,1.59,1.59,0,0,0,.75,0,1.91,1.91,0,0,0,.8-.38,4.23,4.23,0,0,0,1.35-2.3A3.86,3.86,0,0,0,19,37.42a4.47,4.47,0,0,0,2.49-.7,5.24,5.24,0,0,0,1.64-1.54,2.7,2.7,0,0,0,.57-1.62c.33.23.87,1,1.61,1.6a4.38,4.38,0,0,0,1.25.78l.35.11a1.23,1.23,0,0,0,.38.08h.84a3.24,3.24,0,0,0,.8-.2,2.48,2.48,0,0,0,.65-.37,3.61,3.61,0,0,0,1-1.13,8.81,8.81,0,0,0,.65-1.51c.18-.54.33-1.1.49-1.64a15.51,15.51,0,0,0-.66-1.58,5.56,5.56,0,0,0-1-1.41,3.48,3.48,0,0,0-1.49-.88,3.36,3.36,0,0,0-1-.14,5.13,5.13,0,0,0-1.17.14,5.76,5.76,0,0,0-.59.18c-.18.07-.35.15-.51.23a3.29,3.29,0,0,0-.44.28l-.37.31a3.76,3.76,0,0,0-.91,1.42,12.81,12.81,0,0,0-.42,2.29,2.48,2.48,0,0,0-1.62-.77,5.6,5.6,0,0,0-2.44.24A4.45,4.45,0,0,0,17,33a5.13,5.13,0,0,0-1,2.71,11.16,11.16,0,0,0-2-1.39,1.52,1.52,0,0,0-.63-.14,1,1,0,0,0-.48.15,2.41,2.41,0,0,0-.41.37,5.9,5.9,0,0,0-.81,1.62,6.42,6.42,0,0,0-1.22-2.1c-.12-.13-.25-.27-.38-.39a4.12,4.12,0,0,0-.41-.32,3.23,3.23,0,0,0-.44-.27l-.12-.05h-.6a.49.49,0,0,1-.17,0H5.11a3.87,3.87,0,0,0-.56.72,3.32,3.32,0,0,0-.34.8,3.21,3.21,0,0,0,0,1.74,3.72,3.72,0,0,0,.39.86c.08.14.19.26.29.4a3,3,0,0,0,.34.37A4.41,4.41,0,0,0,7,39a3.89,3.89,0,0,0,.49.12h.41a4,4,0,0,0,.69,0A3.05,3.05,0,0,0,9.29,39a3.81,3.81,0,0,0,.64-.24A3.57,3.57,0,0,0,11.73,37Z"/><path class="cls-4" d="M12.35,14.8a3.64,3.64,0,0,0-1.07-.6,2.13,2.13,0,0,0-1.32,0,1.65,1.65,0,0,0-1,1.09,4.53,4.53,0,0,0,0,2.63,8.33,8.33,0,0,0-.84-.17,5.21,5.21,0,0,0-.79,0,3.69,3.69,0,0,0-1.4.47A4.52,4.52,0,0,0,4.08,20.4,5,5,0,0,0,3.69,23a2.29,2.29,0,0,0,.8,1.64,11.19,11.19,0,0,0-2.28.57,4.68,4.68,0,0,0-.71.44,3.75,3.75,0,0,0-.66.66A4.34,4.34,0,0,0,0,28.51,4.82,4.82,0,0,0,.4,31a3.6,3.6,0,0,0,.56.87,2.73,2.73,0,0,0,.34.34,2.55,2.55,0,0,0,.38.29,5.27,5.27,0,0,0,3.41.66,13.59,13.59,0,0,1,1.33-1c.44-.29.88-.64,1.26-1A2.48,2.48,0,0,0,8.91,29a3.57,3.57,0,0,0-1.27-2.43C7,25.87,6.21,25.36,6,25.05a2.86,2.86,0,0,0,1.59-.58A5.66,5.66,0,0,0,9,23.06a4.15,4.15,0,0,0,.81-2,4.3,4.3,0,0,0-.05-1.29A3,3,0,0,0,9.62,19a6.59,6.59,0,0,0-.3-.79,8,8,0,0,0,2.49.14,1.21,1.21,0,0,0,1-.67A2.26,2.26,0,0,0,13,16.54a5.4,5.4,0,0,0-.25-1.18,6.12,6.12,0,0,0,1.13.6,5.07,5.07,0,0,0,1.14.31,4,4,0,0,0,1.1.06,2.26,2.26,0,0,0,.51-.08,2.11,2.11,0,0,0,.49-.14,3.82,3.82,0,0,0,.46-.21,2.45,2.45,0,0,0,.44-.3,4,4,0,0,0,.78-.85,3.48,3.48,0,0,0,.34-.56q.15-.3.3-.66c.09-.23.17-.49.25-.77s.14-.55.2-.86a6.34,6.34,0,0,0-.59-.69,4.65,4.65,0,0,0-.63-.53,4.14,4.14,0,0,0-.68-.39,5.78,5.78,0,0,0-.7-.24A4.18,4.18,0,0,0,15.84,10c-.23,0-.46.09-.68.15a4.51,4.51,0,0,0-.64.26c-.2.11-.4.23-.59.36s-.35.29-.51.44a4.18,4.18,0,0,0-.78,1.09,3.75,3.75,0,0,0-.37,1.25A3.66,3.66,0,0,0,12.35,14.8Z"/><path class="cls-5" d="M40.43,13.71a3.88,3.88,0,0,0-.16-1.21,2.18,2.18,0,0,0-.66-1.07,1.51,1.51,0,0,0-1.36-.24,5.61,5.61,0,0,0-2.2,1.34,4.19,4.19,0,0,0-1.43-2.6,5,5,0,0,0-1.2-.66A6,6,0,0,0,32.1,9a7.08,7.08,0,0,0-1.3.06,5.64,5.64,0,0,0-1.15.34,3.53,3.53,0,0,0-.87.54,1.86,1.86,0,0,0-.48.64,13.91,13.91,0,0,0-1-2.1,4.31,4.31,0,0,0-.51-.62,6,6,0,0,0-.7-.52A4.24,4.24,0,0,0,25.18,7l-.54-.1a3.11,3.11,0,0,0-.61,0A5,5,0,0,0,22.88,7a4.37,4.37,0,0,0-.93.36,3.56,3.56,0,0,0-1.24,1.23,5.46,5.46,0,0,0-.61,1.6,12.56,12.56,0,0,0-.24,1.71c.29.48.58,1,.88,1.45a8.56,8.56,0,0,0,1,1.31,3.39,3.39,0,0,0,1.19.87,2.15,2.15,0,0,0,.71.2,3,3,0,0,0,.84,0l.44-.07.39-.13a2.71,2.71,0,0,0,.69-.37,4.44,4.44,0,0,0,.57-.5,3.7,3.7,0,0,0,.46-.57c.57-.79.9-1.65,1.15-2a1.83,1.83,0,0,0,.33.72,4.33,4.33,0,0,0,.66.69,5.79,5.79,0,0,0,.89.6,4,4,0,0,0,1.05.44,3.83,3.83,0,0,0,1.16.21,3.51,3.51,0,0,0,1.21-.12A4.47,4.47,0,0,0,35.92,13a6,6,0,0,0,1.18,2.26,1.42,1.42,0,0,0,1.22.51,2.16,2.16,0,0,0,1.11-.55,4.6,4.6,0,0,0,.8-.9,4.47,4.47,0,0,0,2.57,3.84c1.41.61,3.19.37,5.06-1.32,0-2.53-1.28-4.07-2.88-4.57A4.29,4.29,0,0,0,40.43,13.71Z"/><path class="cls-4" d="M61.83,31.18a2.76,2.76,0,0,0,1.1-.57,2,2,0,0,0,.72-1.22,1.85,1.85,0,0,0-.53-1.59,4,4,0,0,0-2.48-1.08,3.55,3.55,0,0,0,.67-3,4.66,4.66,0,0,0-1.58-2.45,5.29,5.29,0,0,0-2.33-1.1,2.48,2.48,0,0,0-1.79.27,12.88,12.88,0,0,0,.26-2.32A3.77,3.77,0,0,0,54,15a3.53,3.53,0,0,0-3.57-.33,9,9,0,0,0-2.6,2.18,11.76,11.76,0,0,0-.08,3.35,3.18,3.18,0,0,0,1.83,2.51,3.47,3.47,0,0,0,3.08,0c.9-.38,1.63-.93,2-1.06a2.85,2.85,0,0,0,.07,1.71,6.08,6.08,0,0,0,1,1.88,4,4,0,0,0,1.68,1.33,6.14,6.14,0,0,0,2.78.37A14.52,14.52,0,0,0,59,29.1a1.25,1.25,0,0,0-.08.32v.26a.86.86,0,0,0,.06.23.67.67,0,0,0,.12.2,2.68,2.68,0,0,0,.91.62,7.54,7.54,0,0,0,1.11.44,15.18,15.18,0,0,0-2.12,1,3.9,3.9,0,0,0-1.28,1,2.58,2.58,0,0,0-.18.32,1.82,1.82,0,0,0-.13.37,4.92,4.92,0,0,0-.14,1,13.87,13.87,0,0,0,.22,3,3.74,3.74,0,0,0,3.22.59,4.14,4.14,0,0,0,2.46-2.07,4.28,4.28,0,0,0,.48-1.57,3.57,3.57,0,0,0,0-.8,4,4,0,0,0-.14-.75A3.08,3.08,0,0,0,61.83,31.18Z"/><path class="cls-4" d="M38.88,34.2a5.34,5.34,0,0,0-.32,1.17,2.08,2.08,0,0,0,.12,1.21,1.39,1.39,0,0,0,1.07.76,5.48,5.48,0,0,0,2.57-.23,3.71,3.71,0,0,0,.36,3A4.51,4.51,0,0,0,45.15,42a4.78,4.78,0,0,0,2.9,0,3,3,0,0,0,.55-.24,2,2,0,0,0,.43-.28,1.42,1.42,0,0,0,.49-.66c.16.28.31.56.44.84a5.58,5.58,0,0,0,.35.58,4,4,0,0,0,.49.58,3.45,3.45,0,0,0,.67.54,2.84,2.84,0,0,0,.87.39,3.31,3.31,0,0,0,1.08.18H54a2.85,2.85,0,0,0,.65-.11,4.89,4.89,0,0,0,1.16-.42,4,4,0,0,0,.83-.59,3.75,3.75,0,0,0,1.2-2.42,6.46,6.46,0,0,0,0-.88,5,5,0,0,0-.12-.86,7.9,7.9,0,0,0-.2-.84c-.86-.7-1.73-1.52-2.54-2.09a3.13,3.13,0,0,0-1.26-.6,2.18,2.18,0,0,0-.72,0,2.71,2.71,0,0,0-.75.16l-.36.15a2.2,2.2,0,0,0-.3.19,3.2,3.2,0,0,0-.5.47,4.35,4.35,0,0,0-.38.57c-.11.2-.22.41-.31.62s-.19.43-.27.64l-.22.58a4.77,4.77,0,0,1-.37.83,2.79,2.79,0,0,0-.33-.7c-.08-.12-.17-.24-.26-.35l-.29-.34c-.1-.12-.43-.42-.66-.63l-.17-.14-.09-.07L47.68,37l-.37-.25a4.28,4.28,0,0,0-1.87-.59,5.87,5.87,0,0,0-2.8.57,5.93,5.93,0,0,0,0-2.55,1.54,1.54,0,0,0-.93-1,2.18,2.18,0,0,0-1.29,0,3.94,3.94,0,0,0-1.09.53,4.06,4.06,0,0,0,.15-1.3,3.83,3.83,0,0,0-.32-1.28A4.23,4.23,0,0,0,34,29a4.3,4.3,0,0,0-.71.36,3.9,3.9,0,0,0-.63.51,4.61,4.61,0,0,0-.92,1.47,11.72,11.72,0,0,0,.8,1.48c.13.21.25.41.38.59s.25.32.37.48a3,3,0,0,0,1.45,1.08,4,4,0,0,0,1.88.08,5.54,5.54,0,0,0,1.14-.26A5.72,5.72,0,0,0,38.88,34.2Z"/><path class="cls-6" d="M10.1,15c-5.63,6.91-8,15.3,2,16.44,6.32.71,17.81-8.5,33.69,1.09,14,8.45,15.42-5.16,7.88-16.52C43.18.2,21.5,1,10.1,15Z"/><path class="cls-6" d="M37.58,28.69a2.83,2.83,0,0,0-1-2.22,1.57,1.57,0,0,0-1.4-.09,3.49,3.49,0,0,0-.93.56,6.44,6.44,0,0,0-1,1.09,4.3,4.3,0,0,0-.78-1.4,4.12,4.12,0,0,0-1.12-.87,4.37,4.37,0,0,0-2.62-.33,5,5,0,0,0-2.21,1,3.31,3.31,0,0,0-.67.73,1.88,1.88,0,0,0-.29.74,16.36,16.36,0,0,0-1.43-1.8,3.83,3.83,0,0,0-1.36-.84,3.89,3.89,0,0,0-.89-.17,4.18,4.18,0,0,0-1,.08,3.2,3.2,0,0,0-2.59,2.1,10.68,10.68,0,0,0-.44,3.32A10,10,0,0,0,20,33.19a3.13,3.13,0,0,0,3.09.57,2.73,2.73,0,0,0,.81-.38,2.51,2.51,0,0,0,.61-.52,4.08,4.08,0,0,0,.74-1.28c.35-.9.44-1.82.6-2.18a1.62,1.62,0,0,0,.49.61,3.66,3.66,0,0,0,.78.52,5.36,5.36,0,0,0,2,.54,4.18,4.18,0,0,0,4.09-2.54c.27.51.5.95.73,1.29a3.91,3.91,0,0,0,.64.76,1.16,1.16,0,0,0,1.14.35,3.33,3.33,0,0,0,1.7-1.61,5.27,5.27,0,0,0,.28,1.25c.07.19.15.38.23.55s.19.34.29.51a3.56,3.56,0,0,0,.7.84,3,3,0,0,0,.41.32,2.47,2.47,0,0,0,.93.43,2.29,2.29,0,0,0,.52.11,3,3,0,0,0,1.15-.07,4.21,4.21,0,0,0,1.29-.45,7,7,0,0,0,.7-.4c.24-.16.47-.32.72-.52a6.76,6.76,0,0,0,0-.9,5.6,5.6,0,0,0-.09-.8,4.52,4.52,0,0,0-.5-1.37,3.82,3.82,0,0,0-.88-1l-.53-.36a4.3,4.3,0,0,0-1.21-.4,3.18,3.18,0,0,0-.62-.06,4.85,4.85,0,0,0-1.25.19,4.23,4.23,0,0,0-.58.25,4.86,4.86,0,0,0-.54.33A4.52,4.52,0,0,0,37.58,28.69Z"/><path class="cls-6" d="M57.81,27.38A3.79,3.79,0,0,0,56,28.74a1,1,0,0,0,.11,1.06,14.71,14.71,0,0,0,1.57,1.77c-.59.07-1.09.15-1.51.23a9.68,9.68,0,0,1-1,.14,1.55,1.55,0,0,0-1,.29l-.08.08L54,32.4l-.09.1-.11.11-.13.12-.14.13-.31.27c-.2.19-.41.38-.6.59a2.43,2.43,0,0,0-.43.63c-.15-.36-.22-1.27-.42-2.16a3.13,3.13,0,0,0-1.46-2.29,3,3,0,0,0-2.86,0,8.61,8.61,0,0,0-2.74,2,13.17,13.17,0,0,0-.43,3.3A3.38,3.38,0,0,0,46.52,38a3.91,3.91,0,0,0,2.16.29,3.6,3.6,0,0,0,1.62-.66,8.49,8.49,0,0,0,1.59-1.74,1.54,1.54,0,0,0,.35.74,2.57,2.57,0,0,0,.87.67,3.37,3.37,0,0,0,1.39.39h.89l.47-.08a2.42,2.42,0,0,0,.46-.13,4.3,4.3,0,0,0,1.68-1,3.79,3.79,0,0,0,1-1.62,2.81,2.81,0,0,0-.9-3.09,3.62,3.62,0,0,0,.77-.3,3.33,3.33,0,0,0,.62-.38,3,3,0,0,0,.46-.42,2,2,0,0,0,.33-.42,1.65,1.65,0,0,0,.2-1.52,1.89,1.89,0,0,0-.89-1,3.79,3.79,0,0,0-1.14-.41,3.67,3.67,0,0,0,1.73-1.85,4,4,0,0,0,.22-2.54,3.71,3.71,0,0,0-1.46-2.15,4.75,4.75,0,0,0-3-.78,6.84,6.84,0,0,0-1.57,2.59,3.37,3.37,0,0,0,0,2.13,3.64,3.64,0,0,0,1.24,1.63A5.69,5.69,0,0,0,57.81,27.38Z"/><path class="cls-6" d="M41.87,6.59a3.54,3.54,0,0,0,.39,2.3.8.8,0,0,0,.45.32.82.82,0,0,0,.3.07,1.15,1.15,0,0,0,.37,0,3.81,3.81,0,0,0,1-.22L45,8.81l.73-.33a5.51,5.51,0,0,0-.05,1.57.78.78,0,0,0,.05.34l.06.32a3.72,3.72,0,0,0,.2.59A3.82,3.82,0,0,0,47.38,13a4.07,4.07,0,0,0,1.42.69,2.85,2.85,0,0,0,.48.13A2.64,2.64,0,0,0,51,13.71c-.11.38-.63,1.15-.95,2a4.54,4.54,0,0,0-.21.69.9.9,0,0,1-.05.36,2.28,2.28,0,0,0,0,.37,2.34,2.34,0,0,0,.08.75,2.4,2.4,0,0,0,.12.38l.19.38a3,3,0,0,0,2.49,1.53A14,14,0,0,0,55.93,20,8.22,8.22,0,0,0,58,17.35a3.41,3.41,0,0,0-.49-3.52,4.94,4.94,0,0,0-.36-.44,4.55,4.55,0,0,0-.4-.35,3.47,3.47,0,0,0-.8-.5l-.41-.15-.41-.09a5.34,5.34,0,0,0-.8,0,14.23,14.23,0,0,0-2.25.45A2.39,2.39,0,0,0,52.28,11a3.8,3.8,0,0,0-.16-.55,4.46,4.46,0,0,0-.25-.55,5.9,5.9,0,0,0-.72-1.07A3.86,3.86,0,0,0,46,8.1V7.28c0-.22-.07-.45-.12-.68a4.13,4.13,0,0,0-.41-1,2,2,0,0,0-.26-.34A1.34,1.34,0,0,0,44.88,5a1.55,1.55,0,0,0-.63-.2A2.8,2.8,0,0,0,42.12,6a3.92,3.92,0,0,0-.73-2.41,4,4,0,0,0-.9-.9,4.86,4.86,0,0,0-1.14-.57L39,2H38.7a3.53,3.53,0,0,0-.65,0,3.74,3.74,0,0,0-.66.09,3.83,3.83,0,0,0-.65.22,4.59,4.59,0,0,0-1.22.82,5.91,5.91,0,0,0-1,1.39A8.46,8.46,0,0,0,35.17,6,4.88,4.88,0,0,0,36,7.16a3.16,3.16,0,0,0,.43.39,2.83,2.83,0,0,0,.45.32,2.18,2.18,0,0,0,.47.21l.25.08.24.06a2.8,2.8,0,0,0,1,0A3.52,3.52,0,0,0,39.84,8,5.37,5.37,0,0,0,41.87,6.59Z"/><path class="cls-6" d="M15.88,10a4.51,4.51,0,0,0,1,.62,2.16,2.16,0,0,0,1.17.25,1.24,1.24,0,0,0,.93-.76,7.41,7.41,0,0,0,.5-2.42,5.4,5.4,0,0,0,1.33.83,4,4,0,0,0,1.25.35,2.81,2.81,0,0,0,.58,0,5.32,5.32,0,0,0,.56-.06,4.61,4.61,0,0,0,.53-.15c.17-.06.33-.14.5-.21a3.7,3.7,0,0,0,.9-.57l.4-.33c.13-.12.24-.24.35-.36a3.22,3.22,0,0,0,.52-.78,1.73,1.73,0,0,0,.23-.74c.28.28.7,1.1,1.33,1.81a4.17,4.17,0,0,0,1.1.95,2.94,2.94,0,0,0,.69.28,2.24,2.24,0,0,0,.81.11,1.48,1.48,0,0,0,.42,0,2.32,2.32,0,0,0,.38-.06A2.29,2.29,0,0,0,32,8.49a2.93,2.93,0,0,0,.56-.44,3.29,3.29,0,0,0,.48-.57,16.28,16.28,0,0,0,1.45-3A7.87,7.87,0,0,0,33.3,1.32a4.16,4.16,0,0,0-.58-.61A3.25,3.25,0,0,0,32,.26,4,4,0,0,0,31.06,0H29.94a5.67,5.67,0,0,0-1.08.26A3.59,3.59,0,0,0,28,.75,3.68,3.68,0,0,0,27,2a14.49,14.49,0,0,0-.69,2.21,1.72,1.72,0,0,0-.55-.59,3.33,3.33,0,0,0-.9-.41l-.56-.13a3.05,3.05,0,0,0-.6-.06,6.85,6.85,0,0,0-1.28.12,4.19,4.19,0,0,0-.63.19c-.21.08-.41.18-.61.28a5.42,5.42,0,0,0-.56.37,4.45,4.45,0,0,0-.49.48,3.49,3.49,0,0,0-.69,1.21,4.14,4.14,0,0,0-.19,1.6,4.8,4.8,0,0,0-2.44-.79,1.46,1.46,0,0,0-1.25.61,2,2,0,0,0-.32,1.22,4,4,0,0,0,.24,1.19A4.41,4.41,0,0,0,14.33,9,4.06,4.06,0,0,0,13,8.83a4.59,4.59,0,0,0-1.22.27,3.77,3.77,0,0,0-.57.28,4.74,4.74,0,0,0-.51.37A3.69,3.69,0,0,0,9.48,12,4.88,4.88,0,0,0,10.1,15a6.5,6.5,0,0,0,3,.29,3.38,3.38,0,0,0,1.93-1,2.64,2.64,0,0,0,.32-.41c.09-.14.18-.3.26-.45a3.83,3.83,0,0,0,.35-1,5.66,5.66,0,0,0,.1-1.17A5.56,5.56,0,0,0,15.88,10Z"/><path class="cls-7" d="M8.63,17.87C7.77,22.35,9.19,29,20,26.36S35,16.65,34.89,9.43,11.23,4.36,8.63,17.87Z"/><path class="cls-7" d="M20.23,26a5.52,5.52,0,0,0-.68-1,2.18,2.18,0,0,0-.93-.65,1,1,0,0,0-.49,0,1.42,1.42,0,0,0-.52.34,3.72,3.72,0,0,0-.56.76c-.2.33-.41.74-.66,1.26a7,7,0,0,0-.78-1.31,6,6,0,0,0-.39-.49c-.13-.14-.27-.25-.39-.37a2.73,2.73,0,0,0-1.41-.67A4.63,4.63,0,0,0,12,24c-.26.06-.5.1-.76.17a5.17,5.17,0,0,0-.69.26,3.8,3.8,0,0,1,.46-.74l.37-.48c.13-.17.27-.34.41-.5.28-.33.56-.64.77-.9a1.17,1.17,0,0,0,.33-.82c0-.6-.59-1.1-1.41-1.6s-1.91-1-2.9-1.48a6.59,6.59,0,0,0-3.23,1,3.1,3.1,0,0,0-1.09,1.39,4.13,4.13,0,0,0-.11,2.36,4.36,4.36,0,0,0,1.21,2.2,3.43,3.43,0,0,0,2.45.91,5.08,5.08,0,0,0,.67-.07c.41-.08.72-.17.92-.2a1.5,1.5,0,0,0-.2.79,2.48,2.48,0,0,0,.27,1,2.88,2.88,0,0,0,.34.56,3,3,0,0,0,.47.54,4.23,4.23,0,0,0,1.25.84,3.81,3.81,0,0,0,2.89.16,2.15,2.15,0,0,0,.62-.32,2.69,2.69,0,0,0,.55-.46,4,4,0,0,0,.78-1.38,5.94,5.94,0,0,0,1,1.12,2.92,2.92,0,0,0,.88.56A1.38,1.38,0,0,0,19,29a1,1,0,0,0,.58-.21,1.9,1.9,0,0,0,.66-1,3.92,3.92,0,0,0,.17-1.18,3.82,3.82,0,0,0,.85.94,3.61,3.61,0,0,0,1,.59,3.47,3.47,0,0,0,2.32.06,3.35,3.35,0,0,0,1-.58,3.43,3.43,0,0,0,.81-1,4,4,0,0,0,.43-1.35,5.84,5.84,0,0,0,0-1.67,10,10,0,0,0-1.38-.92,5.19,5.19,0,0,0-1.2-.48,3,3,0,0,0-1-.11,2.54,2.54,0,0,0-.9.23,2.84,2.84,0,0,0-.77.55,3.76,3.76,0,0,0-.63.81,4.72,4.72,0,0,0-.45,1A5.47,5.47,0,0,0,20.23,26Z"/><path class="cls-7" d="M34.32,8.39l-.54.44-.56.47c-.36.31-.67.55-.71.75a.24.24,0,0,0,.07.23v.07a.35.35,0,0,0,.07.12,1.35,1.35,0,0,0,.2.27,4,4,0,0,0,.61.62c.25.23.57.48.95.78A5.74,5.74,0,0,0,32,13.29a3,3,0,0,0-1,1.59,4.54,4.54,0,0,0,0,1.8,3,3,0,0,0,.6,1.49c-.38,0-1.23-.34-2.13-.51a5,5,0,0,0-1.34-.1,2.71,2.71,0,0,0-.63.13A2.15,2.15,0,0,0,26.25,19a2.84,2.84,0,0,0-.1.64,2.73,2.73,0,0,0,0,.7,6.49,6.49,0,0,0,.11.77,3.37,3.37,0,0,0,.17.8c.13.54.29,1.09.44,1.63a11.1,11.1,0,0,0,1.29,1.09,4.61,4.61,0,0,0,.72.46,3.61,3.61,0,0,0,.76.32,2.76,2.76,0,0,0,.81.15,2.67,2.67,0,0,0,.84-.08,3.54,3.54,0,0,0,1.74-1,3.88,3.88,0,0,0,.66-.89,3.29,3.29,0,0,0,.23-2.53,10.68,10.68,0,0,0-1-2,2.19,2.19,0,0,0,1.71-.27,4.25,4.25,0,0,0,1.69-1.7,3.77,3.77,0,0,0,.43-2.55A3.47,3.47,0,0,0,35,12.25a6,6,0,0,0,1.12-.58,3.33,3.33,0,0,0,.72-.63,1.73,1.73,0,0,0,.22-.31l.09-.15.06-.2a2.22,2.22,0,0,0,.08-.77,1.58,1.58,0,0,0-.93-1.33,3,3,0,0,0-.73-.18,3.75,3.75,0,0,0-.67,0,2.57,2.57,0,0,0,.4-.52,2.45,2.45,0,0,0,.25-.6,2.65,2.65,0,0,0,0-1.37,3.89,3.89,0,0,0-2.18-2.35l-.21-.09-.18-.06L32.71,3A4.18,4.18,0,0,0,32,2.92a4,4,0,0,0-.69.05,3.6,3.6,0,0,0-.66.2A4.18,4.18,0,0,0,28.54,5.4,9.06,9.06,0,0,0,29.78,8a3.09,3.09,0,0,0,.33.39,2.27,2.27,0,0,0,.31.31c.1.08.22.15.31.21l.16.07H31a4.29,4.29,0,0,0,1.11-.27c.29-.07.64-.15,1-.21l.6-.09Z"/><path class="cls-6" d="M12,11.88a5,5,0,0,0,1.09.46,2.17,2.17,0,0,0,1.1.11.75.75,0,0,0,.41-.24.76.76,0,0,0,.15-.23,1.43,1.43,0,0,0,.12-.31A7.78,7.78,0,0,0,15,9.31a5.05,5.05,0,0,0,2.52,1,3.18,3.18,0,0,0,1.92-.47,4.69,4.69,0,0,0,1.38-1.32A2.76,2.76,0,0,0,21.36,7c.28.27.73,1.06,1.36,1.74A3,3,0,0,0,25.16,10a2.51,2.51,0,0,0,2.12-1.51,20.55,20.55,0,0,0,1.2-3.05A12.1,12.1,0,0,0,28,3.77a5.25,5.25,0,0,0-.78-1.48A3.18,3.18,0,0,0,24,1.15,3.39,3.39,0,0,0,22.3,2a3.46,3.46,0,0,0-.87,1.31A13.07,13.07,0,0,0,21,5.52a2.32,2.32,0,0,0-1.43-.93,4.41,4.41,0,0,0-2.28,0,3.72,3.72,0,0,0-2,1.43,3.56,3.56,0,0,0-.49,2.82,4.37,4.37,0,0,0-2.43-.54,1.8,1.8,0,0,0-.4.1,1.54,1.54,0,0,0-.31.17,1.16,1.16,0,0,0-.4.48,1.89,1.89,0,0,0-.07,1.24,3.61,3.61,0,0,0,.48,1.1,4.33,4.33,0,0,0-1.24-.3H9.78a6,6,0,0,0-.61.13,3.7,3.7,0,0,0-2,1.56,3.49,3.49,0,0,0-.41,2.6,4,4,0,0,0,1.87,2.44A9.32,9.32,0,0,0,11.4,17a2.44,2.44,0,0,0,1.25-1.2,3.07,3.07,0,0,0,.16-1.75,3.39,3.39,0,0,0-.1-.52,2,2,0,0,0-.15-.55A8.4,8.4,0,0,0,12,11.88Z"/><path class="cls-8" d="M46.37,11c-2.37.23-13.91,4.73-2,16.27C54.44,37.1,54.92,10.19,46.37,11Z"/><path class="cls-7" d="M42,24.17c.1-.14.22-.29.32-.46a4.74,4.74,0,0,0,.31-.54,2,2,0,0,0,.28-1.07.87.87,0,0,0-.66-.76,9.74,9.74,0,0,0-2.27-.4,6.16,6.16,0,0,0,.56-.58,4.73,4.73,0,0,0,.46-.53,5.92,5.92,0,0,0,.35-.48,3,3,0,0,0,.27-.42,2,2,0,0,0,.34-1.27,5,5,0,0,0-.38-1.25,5.42,5.42,0,0,0-.29-.72,2.34,2.34,0,0,0-.39-.64,4.9,4.9,0,0,1,.84.29l1.16.5.59.23a3,3,0,0,0,.58.18,1.52,1.52,0,0,0,1-.06c.68-.31.93-1,1.05-2a10.14,10.14,0,0,1,.24-3.2,8.21,8.21,0,0,0-.29-.78,6.17,6.17,0,0,0-.43-.74A3.37,3.37,0,0,0,44.3,8.31a3.21,3.21,0,0,0-1.68-.48,4.17,4.17,0,0,0-3.54,2.35,3.59,3.59,0,0,0-.25.89,3.93,3.93,0,0,0,0,.84.82.82,0,0,0,.06.38,2.42,2.42,0,0,1,.1.36,3.22,3.22,0,0,0,.24.61c.16.37.33.65.4.84a1.55,1.55,0,0,0-.8-.06,3,3,0,0,0-1,.42,3.55,3.55,0,0,0-.93,1l-.2.31c-.06.12-.11.24-.16.35s-.1.24-.14.36l-.07.19v.2a5.78,5.78,0,0,0-.11,1.59,2.33,2.33,0,0,0,.08.38,3,3,0,0,0,.13.36,1.84,1.84,0,0,0,.15.35,3.28,3.28,0,0,0,.2.31,2.83,2.83,0,0,0,.48.55,2.73,2.73,0,0,0,.62.4,3,3,0,0,0,.71.25,3.41,3.41,0,0,0,.84.07,4.09,4.09,0,0,0-1,2.31,1.4,1.4,0,0,0,.57,1.2,2,2,0,0,0,1.2.23,3.12,3.12,0,0,0,.61-.11c.2-.06.38-.13.54-.19a4.05,4.05,0,0,0-.52,1.14,3.19,3.19,0,0,0-.12.6,2.91,2.91,0,0,0,0,.59A3.62,3.62,0,0,0,41,28a.77.77,0,0,0,.11.27l.14.24a2.53,2.53,0,0,0,.34.45,2.21,2.21,0,0,0,.41.4l.11.08.13.1.32.2.33.17H43l.2.08a3.54,3.54,0,0,0,.79.21,3.31,3.31,0,0,0,.77,0A2.5,2.5,0,0,0,46.66,29a16.67,16.67,0,0,1-.12-3v-.57a.22.22,0,0,0,0-.17l-.06-.15h0V25l-.07-.1a2.78,2.78,0,0,0-.7-.62l-.21-.11-.22-.1a3.48,3.48,0,0,0-1-.24h-.55a5.42,5.42,0,0,0-.57,0A6.54,6.54,0,0,0,42,24.17Z"/><path class="cls-7" d="M51,15.25a8.22,8.22,0,0,0-.9.76,2.3,2.3,0,0,0-.6.91.91.91,0,0,0,.39.94A7.84,7.84,0,0,0,52,19a5.13,5.13,0,0,0-2,1.78,3,3,0,0,0-.43,1.84,4.24,4.24,0,0,0,.54,1.7,3.75,3.75,0,0,0,.49.69,2.61,2.61,0,0,0,.59.46,6.18,6.18,0,0,1-2-.3,3.75,3.75,0,0,1-1-.45,1.46,1.46,0,0,1-.44-.38,1.26,1.26,0,0,1,.1.38,4.82,4.82,0,0,1,0,1.2,3.6,3.6,0,0,1-.14.76c-.06.26-.13.54-.22.82s-.17.55-.28.82-.21.53-.33.79,0,.6.1.91a6.7,6.7,0,0,0,.21.91,1.38,1.38,0,0,0,.17.45,2.74,2.74,0,0,0,.21.42,2.8,2.8,0,0,0,.27.4,2.3,2.3,0,0,0,.32.37A2.94,2.94,0,0,0,50,33.4a3.75,3.75,0,0,0,2.68-.9,4.3,4.3,0,0,0,1.55-2.45A3.9,3.9,0,0,0,54,28a3.77,3.77,0,0,0-.36-.76,6,6,0,0,0-.42-.57c-.27-.32-.53-.55-.65-.71a1,1,0,0,0,.37-.05,2.2,2.2,0,0,0,.39-.17,2.66,2.66,0,0,0,.77-.61,4.17,4.17,0,0,0,1-2.09,3.41,3.41,0,0,0-2.68-4.09A4.26,4.26,0,0,0,54,17a1.34,1.34,0,0,0-.17-1.31,1.94,1.94,0,0,0-1.08-.6A3.65,3.65,0,0,0,51.59,15a3.36,3.36,0,0,0,1.2-2.17,3.64,3.64,0,0,0,0-.66,3.2,3.2,0,0,0-.14-.67,2.79,2.79,0,0,0-.12-.34c-.05-.1-.11-.23-.18-.35a5.68,5.68,0,0,0-.51-.7,4.07,4.07,0,0,0-1.42-1,3.25,3.25,0,0,0-1.66-.23,3.56,3.56,0,0,0-.79.22,3.15,3.15,0,0,0-.69.45,3.11,3.11,0,0,0-.55.65,4.39,4.39,0,0,0-.39.82,11.8,11.8,0,0,1,.81,2.59c.1.59.1.87.27,1a.44.44,0,0,0,.16.06l.12.05.16.06a1.71,1.71,0,0,0,.38.13l.44.12A7.75,7.75,0,0,0,51,15.25Z"/><path class="cls-9" d="M45,15.38c-2.64.75,0,10.8,3.31,10S49.55,14.08,45,15.38Z"/><path class="cls-9" d="M49.43,19.8l-.79.26a1.83,1.83,0,0,0-.6.28c-.11.12-.09.27.15.68.12.2.29.48.52.89a15,15,0,0,1,.82,1.66c-1-.61-1.65-1-2.15-1.38l-.61-.43a1.36,1.36,0,0,0-.37-.21,1.14,1.14,0,0,0-.58.05,1.32,1.32,0,0,0-.62.29,5.78,5.78,0,0,1,.46-1.57,2,2,0,0,1,.37-.56l.08-.07h.15s0,0-.17-.17a3.51,3.51,0,0,1-.46-.88,8.44,8.44,0,0,1-.43-1.51A8.85,8.85,0,0,1,45,15.42a3.88,3.88,0,0,0-2.51-1.94,2.14,2.14,0,0,0-1.76.55,3.12,3.12,0,0,0-.83,1.23,6.07,6.07,0,0,0-.41,2.26,9.35,9.35,0,0,0,.37,2.64,9.86,9.86,0,0,0,.38,1.08c.15.33.31.62.46.89a3.37,3.37,0,0,0,1.83,1.65,1.4,1.4,0,0,0,.73,0,1.51,1.51,0,0,0,.58-.18c.32-.16.56-.36.7-.43a3.25,3.25,0,0,0-.07,1.16,5,5,0,0,0,1.2,2.76,3.38,3.38,0,0,0,1.18.88,2.31,2.31,0,0,0,1.42.18,1.24,1.24,0,0,0,.38-.09L49,28a2.28,2.28,0,0,0,.63-.49A2.35,2.35,0,0,0,50.28,26a4.33,4.33,0,0,0-.4-1.9,1.85,1.85,0,0,0,2-.39A1.77,1.77,0,0,0,52.2,22a3.06,3.06,0,0,0-.94-1.46A3.6,3.6,0,0,0,50,19.88a2,2,0,0,0,1-.74,2.87,2.87,0,0,0,.46-1.4,4.72,4.72,0,0,0-.25-1.82,4.93,4.93,0,0,0-1-1.73,3.9,3.9,0,0,0-1.55-1.07A2.94,2.94,0,0,0,47,13a2.53,2.53,0,0,0-1.34.84,2.85,2.85,0,0,0-.41.72,1.66,1.66,0,0,0-.12.42,3.5,3.5,0,0,0-.07.45l.26.36c.09.11.17.24.25.35a6.18,6.18,0,0,1,.4.64,7.25,7.25,0,0,1,.51,1.05c.23.59.26.89.41,1a3.56,3.56,0,0,0,.83.31C48.18,19.25,48.73,19.5,49.43,19.8Z"/><path class="cls-9" d="M36.77,4.69c-2,.57-2.77,9.48,2.52,7.57C45.6,10,40.2,3.71,36.77,4.69Z"/><path class="cls-9" d="M41.67,8l-.9.54c-.15.09-.3.18-.42.27a2.37,2.37,0,0,0-.3.23c-.15.16-.15.29,0,.56a7.3,7.3,0,0,1,1,1.5c-1.07-.29-1.75-.54-2.18-.7a2.85,2.85,0,0,0-.5-.14,1.21,1.21,0,0,0-.38,0l-.41.12a2.46,2.46,0,0,1-.47.1,4.75,4.75,0,0,0-1,.17A4.1,4.1,0,0,1,37,9.38,1.86,1.86,0,0,1,37.66,9,.47.47,0,0,1,38,9a.7.7,0,0,1-.18-.2,3.55,3.55,0,0,1-.45-.89,10.79,10.79,0,0,1-.6-3.19,5.89,5.89,0,0,0-1-1.28,3,3,0,0,0-1.4-.75,2.17,2.17,0,0,0-1.78.49,3.84,3.84,0,0,0-.88,1.09,6.32,6.32,0,0,0-.62,1.82A7.5,7.5,0,0,0,31,8.12a5.93,5.93,0,0,0,.41,1.62,3.19,3.19,0,0,0,1.46,1.67,2.47,2.47,0,0,0,1.39.25,6.46,6.46,0,0,0,.87-.12,1.61,1.61,0,0,0-.26.87,2.53,2.53,0,0,0,.26,1.19,2.93,2.93,0,0,0,1,1.15,3.37,3.37,0,0,0,1.61.6,3.89,3.89,0,0,0,1.82-.23,3.35,3.35,0,0,0,.82-.42,7,7,0,0,0,.67-.55,3.43,3.43,0,0,0,.47-.66.89.89,0,0,0,.08-.17.48.48,0,0,0,.06-.18,1.9,1.9,0,0,0,.09-.36v-.36a2.58,2.58,0,0,0-.06-.37,2.34,2.34,0,0,0-.3-.71,4.31,4.31,0,0,0,.88,0A3.2,3.2,0,0,0,43,11.2a2.73,2.73,0,0,0,.6-.28,2.17,2.17,0,0,0,.44-.36,1.59,1.59,0,0,0,.41-1.62,2,2,0,0,0-.39-.61,2.27,2.27,0,0,0-.58-.39,2.89,2.89,0,0,0-1.23-.22,2.54,2.54,0,0,0,1-1.62V5.41A3.36,3.36,0,0,0,42.79,4a4.74,4.74,0,0,0-.51-.67,3.89,3.89,0,0,0-.64-.57A4.26,4.26,0,0,0,40.07,2a3.18,3.18,0,0,0-1.59.11A2.49,2.49,0,0,0,37.27,3a3.16,3.16,0,0,0-.36.71,4.21,4.21,0,0,0-.16.86l.49.72c.15.23.27.44.39.64a10.26,10.26,0,0,1,.49,1c.23.55.29.81.46.89a.77.77,0,0,0,.37,0l.63-.06C40.12,7.87,40.84,7.9,41.67,8Z"/><path class="cls-9" d="M28.84,11.45C21.78,5.37,14.3,13,10.55,19,7,24.6,36.85,18.36,28.84,11.45Z"/><path class="cls-9" d="M13.83,15.13h1.51a8,8,0,0,0,1.2,0c.27-.05.36-.15.28-.49a4.75,4.75,0,0,0-.21-.74,5.6,5.6,0,0,1-.12-.59,4.07,4.07,0,0,0-.14-.77,5.34,5.34,0,0,0,2.58.76,3,3,0,0,0,.94-.15,2.46,2.46,0,0,0,.76-.38l.32-.26a2.68,2.68,0,0,0,.28-.3,3.58,3.58,0,0,0,.5-.66c.07-.11.14-.24.2-.36s.12-.24.17-.36a2.53,2.53,0,0,0,.19-.73,5.33,5.33,0,0,1,.4.79c.15.35.32.75.49,1.17.08.2.17.4.25.58s.17.38.25.53l.12.22a.64.64,0,0,0,.13.19.67.67,0,0,0,.14.15.39.39,0,0,0,.16.1,1.06,1.06,0,0,0,.82,0,2,2,0,0,0,.52-.22c.18-.08.37-.19.58-.31l.64-.41.66-.44,1.39-1a9.4,9.4,0,0,0,.61-1.58A5.56,5.56,0,0,0,29.63,9a4,4,0,0,0,0-.85,3.54,3.54,0,0,0-.2-.84,4,4,0,0,0-.5-.8,4.2,4.2,0,0,0-2.06-1.23,5.4,5.4,0,0,0-.7-.13,3.53,3.53,0,0,0-.65,0l-.58.07a2.38,2.38,0,0,0-.52.15,4.23,4.23,0,0,0-.84.45,3.72,3.72,0,0,0-.59.6,4,4,0,0,0-.65,1.25c-.13.38-.21.69-.29.87a1.64,1.64,0,0,0-.51-.6,3.45,3.45,0,0,0-.41-.25,4.24,4.24,0,0,0-.5-.18,4.35,4.35,0,0,0-1.19-.13c-.22,0-.43,0-.64.08a3.26,3.26,0,0,0-.63.18A4.24,4.24,0,0,0,17,8.32a3.35,3.35,0,0,0-.84,1,3.46,3.46,0,0,0-.14,2.8c-.25-.09-.5-.16-.76-.23a3.27,3.27,0,0,0-.7-.08,3.68,3.68,0,0,0-1.23.24A2.26,2.26,0,0,0,12,13.22a1.18,1.18,0,0,0-.08.61,1.31,1.31,0,0,0,.23.51,2,2,0,0,0,.88.65,7.16,7.16,0,0,0-2,.44,8.62,8.62,0,0,0-1.92,1.08l-.49.4c-.07.07-.16.15-.22.22l-.19.21-.34.44c0,.08-.1.15-.14.23a2,2,0,0,0-.1.21,2.41,2.41,0,0,0-.16.42,1.17,1.17,0,0,1-.06.2,1.21,1.21,0,0,0,0,.19,1.54,1.54,0,0,0,.09.68,1.65,1.65,0,0,0,.33.52,2.47,2.47,0,0,0,.63.44,2.17,2.17,0,0,0,1,.24,4.55,4.55,0,0,0,1.37-.21c.58-.5,1.11-1,1.62-1.38s1-.81,1.44-1.13A21.63,21.63,0,0,1,16,16.9c.43-.25.58-.37.56-.46s-.22-.17-.52-.29l-1-.41Z"/><path class="cls-9" d="M27.78,16.78a7.27,7.27,0,0,0-1-.7,2.25,2.25,0,0,0-1-.37c-.64,0-1.09.64-1.37,2.89-1.6-1.68-3.07-1.79-4.3-1.27a5.08,5.08,0,0,0-.85.49l-.1.08V18l-.08.14-.18.31a10.76,10.76,0,0,0-.74,1.48,6.05,6.05,0,0,1,0-2.08,4.83,4.83,0,0,1,.28-1.18A2.51,2.51,0,0,1,18.8,16s-.08.1-.43.38a15.65,15.65,0,0,1-1.64,1.16A47.36,47.36,0,0,1,11,20.7a6.16,6.16,0,0,0-1.67,2.45,1.64,1.64,0,0,0,.17,1.35,2.48,2.48,0,0,0,1.83.92,5.31,5.31,0,0,0,1.49,0A6,6,0,0,0,14,25a6.55,6.55,0,0,0,2.07-1.25,9.58,9.58,0,0,0,1.76-2.29c.06.45.47.87,1.25,1.09a4.56,4.56,0,0,0,.64.14h.68a3.63,3.63,0,0,0,1.14,0,3.5,3.5,0,0,0,2.09-1.05A3.74,3.74,0,0,0,24.58,19a4.41,4.41,0,0,0,2.21,1.07A1.27,1.27,0,0,0,28,19.67a1.89,1.89,0,0,0,.33-1.18,3.69,3.69,0,0,0-.23-1.18,3.05,3.05,0,0,0,2.44.59,2.88,2.88,0,0,0,1.33-.63,3.24,3.24,0,0,0,.62-.66,3.83,3.83,0,0,0,.5-.91,4,4,0,0,0,.25-1.14,3.94,3.94,0,0,0-.1-1.23A3.32,3.32,0,0,0,32,11.52a2.64,2.64,0,0,0-1.6-.54,3.61,3.61,0,0,0-1.63.47c-.22.58-.39,1.09-.57,1.51a2.66,2.66,0,0,1-.54.92c-.19.18-.4.19-.52.07a.29.29,0,0,1-.1-.33s.11,0,.16.19a6.45,6.45,0,0,1,.11.73A13.05,13.05,0,0,0,27.78,16.78Z"/><path class="cls-3" d="M8.08,43.24c.29,7.76,14.66,7,14.6-3.43S7.61,30.68,8.08,43.24Z"/><path class="cls-4" d="M21,44.55c-.36-.12-.74-.23-1.11-.32a3.07,3.07,0,0,0-1-.07c-.26.06-.42.23-.47.66a20.92,20.92,0,0,0,0,2.24c-1.79-1.47-2.76-1.75-3.68-1.47a4.17,4.17,0,0,0-1.32.73,3.72,3.72,0,0,0-1,1.13,10.83,10.83,0,0,1,0-2.13,9.3,9.3,0,0,1,.1-1.17c0-.32.09-.55.08-.62s-.12,0-.37,0a4.21,4.21,0,0,1-1.06.07,15.9,15.9,0,0,1-3.15-.41,8,8,0,0,0-1.56.67,3.68,3.68,0,0,0-1.27,1.21,3,3,0,0,0-.38,2,4.43,4.43,0,0,0,1.35,2.53,4,4,0,0,0,2.4,1.22,3,3,0,0,0,1.78-.35A6.69,6.69,0,0,0,12.09,49a2,2,0,0,0,.9,1.49,3.9,3.9,0,0,0,2.37.78,3.53,3.53,0,0,0,2.53-1,3,3,0,0,0,.86-2.75,3.49,3.49,0,0,0,2.43.58,1.42,1.42,0,0,0,1.13-.89,1.74,1.74,0,0,0,0-1.27,3.82,3.82,0,0,0-.65-1A3.08,3.08,0,0,0,24,44.55a3.41,3.41,0,0,0,1.5-2.09,3.2,3.2,0,0,0-.42-2.57,3.88,3.88,0,0,0-2.59-1.59,12.45,12.45,0,0,0-2.35,1.59,2.22,2.22,0,0,0-.79,1.34,2.47,2.47,0,0,0,.4,1.45A10.7,10.7,0,0,0,21,44.55Z"/><path class="cls-4" d="M9.84,37a6.43,6.43,0,0,0,1.13.28,2.41,2.41,0,0,0,1,0c.27-.09.42-.28.45-.72a21,21,0,0,0-.2-2.23,9.29,9.29,0,0,0,2.22,1.28,2,2,0,0,0,1.4.06,2.43,2.43,0,0,0,.61-.29A6.11,6.11,0,0,0,17.1,35a4.23,4.23,0,0,0,1-1.1,4.22,4.22,0,0,1,0,.87A9.58,9.58,0,0,1,18,36c-.06.42-.15.83-.22,1.15a1.32,1.32,0,0,0-.06.68c.07.14.24.18.53.22s.68.06,1.14.08c.92,0,2.1.09,3.2.19A8.3,8.3,0,0,0,24,37.48a4.21,4.21,0,0,0,.65-.55,3.48,3.48,0,0,0,.53-.67,2.88,2.88,0,0,0,.39-1.82,4.3,4.3,0,0,0-1.11-2.33,4.17,4.17,0,0,0-2.23-1.33,3.15,3.15,0,0,0-1.82.19,3.89,3.89,0,0,0-1.17.79c-.3.27-.51.52-.66.65a1.52,1.52,0,0,0-.19-.77,1.8,1.8,0,0,0-.28-.4,4.68,4.68,0,0,0-.39-.38,3.41,3.41,0,0,0-1.09-.6A4.23,4.23,0,0,0,15.29,30a3.67,3.67,0,0,0-2.61,1.05A3,3,0,0,0,12,33.9a3.58,3.58,0,0,0-2.46-.42,1.43,1.43,0,0,0-1.06.94,1.74,1.74,0,0,0,.13,1.25,3.19,3.19,0,0,0,.69,1A3.32,3.32,0,0,0,6.9,37a3.44,3.44,0,0,0-1.51,2,3.23,3.23,0,0,0,.3,2.49,4.08,4.08,0,0,0,2.44,1.76,8.43,8.43,0,0,0,2.49-1.41,2.34,2.34,0,0,0,.89-1.4,2.76,2.76,0,0,0-.35-1.56A9.43,9.43,0,0,0,9.84,37Z"/><path class="cls-10" d="M12,34.59c-9.31,5.52-1.85,13,4.31,10.29C24.32,41.31,22.72,28.23,12,34.59Z"/><path class="cls-6" d="M20.94,36.47A6.55,6.55,0,0,0,19,38.11a2,2,0,0,0-.21,1.36c.07.62.31,1.45.53,2.77a15.65,15.65,0,0,0-3.21,0h-.33l-.32,0-.31.06h-.53a.75.75,0,0,1-.26,0l-.25.06h-.25a1.11,1.11,0,0,1-.25,0l-.25.06-.26.06-.26,0a.75.75,0,0,1-.26,0l-.27.06-.52.09-.26,0h-.49l-.24,0-.43.13a2.21,2.21,0,0,0-.35.16,2.67,2.67,0,0,1,0-.4,2,2,0,0,1,.15-.53l.1-.29a.82.82,0,0,1,.13-.31l.13-.31c0-.1.11-.19.17-.29l.17-.28.2-.23a4.62,4.62,0,0,1,.41-.34,1.51,1.51,0,0,1,.35-.14H12v-.1a1,1,0,0,0,0-.24,1.5,1.5,0,0,0,0-.3v-.7a5.34,5.34,0,0,0,0-.8v-.85a3.82,3.82,0,0,0-.07-.89c0-.59-.14-1.19-.2-1.78a10.39,10.39,0,0,0-1.59-.91,5.79,5.79,0,0,0-.92-.29,5.55,5.55,0,0,0-1-.09,5.79,5.79,0,0,0-1.16.22c-.21.09-.43.18-.63.28l-.32.18-.33.22a7.45,7.45,0,0,0-.67.57,7.91,7.91,0,0,0-.66.77c-.11.16-.22.32-.32.48L4,36.18a1.82,1.82,0,0,0-.15.27c-.1.2-.19.41-.27.62s-.09.23-.13.34a1.4,1.4,0,0,1-.11.37,7,7,0,0,0-.2,2.76,5.63,5.63,0,0,0,.7,2.08,4.33,4.33,0,0,0,2.22,2,1.78,1.78,0,0,0,.51.16l.47.07h.8l.61-.1.46-.08a1,1,0,0,0,0,.43,2.28,2.28,0,0,0,.18.52c.05.09.1.2.16.29l.22.3a2.55,2.55,0,0,0,.26.3c.1.1.2.2.32.3a4.76,4.76,0,0,0,.78.55c.15.09.3.16.46.24a2.49,2.49,0,0,0,.51.21,6.26,6.26,0,0,0,2.35.37,6.41,6.41,0,0,0,2.48-.56l.56-.28L17.7,47c.15-.12.3-.24.44-.37a4.89,4.89,0,0,0,.4-.39,4.51,4.51,0,0,0,1.05-1.84,3.34,3.34,0,0,0,0-1.93,4.41,4.41,0,0,0,3-1.51,3.22,3.22,0,0,0,.64-1.18,2.91,2.91,0,0,0,.13-1.14,2.71,2.71,0,0,0-2-2.4,2.62,2.62,0,0,0,1-1.29,3.69,3.69,0,0,0-.14-2,4.51,4.51,0,0,0-1.39-2,5.7,5.7,0,0,0-1.15-.72,5.78,5.78,0,0,0-1.36-.41,7,7,0,0,0-1.45-.06,4.43,4.43,0,0,0-.72.09h-.33l-.29.08A5.56,5.56,0,0,0,13.59,31,4.6,4.6,0,0,0,12,34.59a11.68,11.68,0,0,0,3.29,1.14c.47.09.9.16,1.25.21h.32a.53.53,0,0,0,.25,0,3.05,3.05,0,0,0,.6-.06,6,6,0,0,1,.85,0,6.7,6.7,0,0,1,1.09.18A12.47,12.47,0,0,0,20.94,36.47Z"/><path class="cls-7" d="M16.77,36.8l-.56.24-.59.27a4.4,4.4,0,0,0-.9.5c-.17.16-.17.33.11.76.14.21.35.5.63.92a19.15,19.15,0,0,1,1,1.73c-.6-.26-1.09-.47-1.49-.66l-.57-.25c-.18-.09-.36-.18-.52-.28-.33-.2-.58-.4-.76-.53a1.31,1.31,0,0,0-.45-.24,2.26,2.26,0,0,0-.82.11,3.22,3.22,0,0,0-1,.35,3.89,3.89,0,0,1,.54-1.61,2.24,2.24,0,0,1,.54-.61.54.54,0,0,1,.37-.11.86.86,0,0,1-.26-.21,3.12,3.12,0,0,1-.55-.91A8.29,8.29,0,0,1,11,33.14a5.49,5.49,0,0,0-1.25-1.25,3.77,3.77,0,0,0-.85-.43,3.39,3.39,0,0,0-1-.18,3.4,3.4,0,0,0-2.32.92,4.67,4.67,0,0,0-1.45,3.4,5.87,5.87,0,0,0,.39,2.2,6.61,6.61,0,0,0,1,1.68A5.21,5.21,0,0,0,6.7,40.53a3.3,3.3,0,0,0,1.06.53,3,3,0,0,0,1.59.08c.4-.09.69-.22.88-.26a2,2,0,0,0,.06,1A4.58,4.58,0,0,0,11,43.29a6.56,6.56,0,0,0,1.29,1.44,5.46,5.46,0,0,0,1.67,1,3.51,3.51,0,0,0,1.67.21A2.43,2.43,0,0,0,17,45.26a1.78,1.78,0,0,0,.46-.74,2.37,2.37,0,0,0,.1-.92,4.87,4.87,0,0,0-.59-2,2.38,2.38,0,0,0,2.14-1,2.66,2.66,0,0,0,.37-2,2.53,2.53,0,0,0-.85-1.4,2.58,2.58,0,0,0-.6-.36,2.78,2.78,0,0,0-.56-.17,2.74,2.74,0,0,0,1-1,4,4,0,0,0,.21-.7,3.69,3.69,0,0,0,.13-.82,4,4,0,0,0-1.58-3.34A4.24,4.24,0,0,0,15.36,30h-1a4,4,0,0,0-2.58,1.39c-.1.12-.19.25-.28.38a4.11,4.11,0,0,0-.21.42,3.64,3.64,0,0,0-.24.9l.57.67.24.3.22.29a7.56,7.56,0,0,1,.58.93c.28.51.37.77.6.87a5.48,5.48,0,0,0,1.21.14l.48.07.55.1Z"/><path class="cls-3" d="M39,30c-15.2.86-12.49,15-3.12,15.87s15.41.86,17.91-2.57S47.79,29.52,39,30Z"/><path class="cls-4" d="M33.75,45.06a5.61,5.61,0,0,0,0-.58,2.39,2.39,0,0,0-.06-.65c0-.2-.08-.41-.14-.61a1.51,1.51,0,0,0-.23-.52,1.06,1.06,0,0,0-.38-.38,2.07,2.07,0,0,0-.64-.2H29.75a12.77,12.77,0,0,0,1.14-2.66,5.76,5.76,0,0,0,.27-1.85,6.58,6.58,0,0,0-.06-.87,1.48,1.48,0,0,0-.05-.46,3.53,3.53,0,0,0,0-.46v-.46a2.23,2.23,0,0,0-.08-.45,2.55,2.55,0,0,0-.25-.75,14.36,14.36,0,0,1,2.1.79l.66.24.16.05.17,0a1.32,1.32,0,0,0,.33.08h.69a2.75,2.75,0,0,0,.75-.13l.19-.07.2-.07a1.26,1.26,0,0,0,.35-.17l.34-.19.3-.23a1.79,1.79,0,0,0,.27-.28,2.33,2.33,0,0,0,.26-.28,3.84,3.84,0,0,0,.45-.66c.06-.12.13-.24.19-.37l.18-.37c.11-.26.22-.53.32-.8.19-.55.36-1.12.53-1.67a12,12,0,0,0-.81-1.55q-.26-.37-.54-.72c-.1-.11-.21-.23-.32-.33a3.51,3.51,0,0,0-.36-.29,4.9,4.9,0,0,0-.84-.47l-.49-.17a5.07,5.07,0,0,0-.54-.09c-.2,0-.41,0-.61,0a3.49,3.49,0,0,0-.65.06q-.36.06-.72.15l-.38.11-.39.15a6.19,6.19,0,0,0-1.4.78c-.19.15-.37.3-.53.45l-.12.11-.11.13c-.08.08-.14.17-.21.25a5.36,5.36,0,0,0-.34.49c-.05.08-.09.16-.13.24s-.08.17-.11.25a4.09,4.09,0,0,0-.27.95,4,4,0,0,0,0,.85,5.36,5.36,0,0,0,.1.7c.08.42.2.76.22,1a1.68,1.68,0,0,0-.89,0,3.71,3.71,0,0,0-.55.22l-.29.16-.16.1-.14.11a7.82,7.82,0,0,0-.6.55,7,7,0,0,0-.54.71,5.93,5.93,0,0,0-.74,1.85v1a2.35,2.35,0,0,0,0,.53l.06.52a5.68,5.68,0,0,0,.27,1,4.56,4.56,0,0,0,.45.88,4.88,4.88,0,0,0,.62.73,3.19,3.19,0,0,0,.74.52,2.56,2.56,0,0,0,.84.3,2.74,2.74,0,0,0,.9.06,7,7,0,0,0-.21.88,5.34,5.34,0,0,0,0,.8v.37a4.28,4.28,0,0,0,.3,1,2.93,2.93,0,0,0,.68.88,2.46,2.46,0,0,0,.83.44,2.57,2.57,0,0,0,.83.07,1.91,1.91,0,0,0,.74-.21,2.59,2.59,0,0,0,1-.77,3,3,0,0,0,.44,1.32,3.33,3.33,0,0,0,.46.59l.28.28.32.24.35.22.18.1.18.1a3.68,3.68,0,0,0,.63.31,5.5,5.5,0,0,0,1.38.36,5.07,5.07,0,0,0,2.89-.48A5.35,5.35,0,0,0,43,46.34a6.33,6.33,0,0,0-2.11-2.56,5.17,5.17,0,0,0-2.67-.85,5.26,5.26,0,0,0-1.37.12c-.22.05-.44.12-.66.19l-.13.06-.12.06-.24.15-.5.31-.5.37A9.08,9.08,0,0,0,33.75,45.06Z"/><path class="cls-4" d="M47.72,33.14a4.63,4.63,0,0,0-.19,1.22,2.44,2.44,0,0,0,.26,1.28,1.7,1.7,0,0,0,1.14.83,8.93,8.93,0,0,0,2.68.16A7.12,7.12,0,0,0,51,39a8.34,8.34,0,0,0,0,1,1.3,1.3,0,0,0,0,.44.33.33,0,0,1,0,.14v.11a2.06,2.06,0,0,0,.28.81c.07.15.14.32.2.49a5.54,5.54,0,0,1,.14.55A6.6,6.6,0,0,0,52,44a5.33,5.33,0,0,1-1.79-1.29l-.12-.11-.14-.1-.29-.19c-.1-.06-.2-.13-.3-.18L49.09,42a3.16,3.16,0,0,0-1.55-.22,4.19,4.19,0,0,0-3,1.57,12.14,12.14,0,0,0-1.6,3.07,8.3,8.3,0,0,0,1.67,3.09,3.92,3.92,0,0,0,.72.57,3.6,3.6,0,0,0,.92.41,5.45,5.45,0,0,0,2.57.08,5.59,5.59,0,0,0,2.55-1.12,4.08,4.08,0,0,0,.44-.4,3,3,0,0,0,.36-.43,3.07,3.07,0,0,0,.28-.42l.12-.22.11-.22a3.22,3.22,0,0,0,.31-.87,4.41,4.41,0,0,0,.09-.73v-1a1.53,1.53,0,0,0,.92.1,2.72,2.72,0,0,0,.62-.17,4.47,4.47,0,0,0,.69-.35,4.92,4.92,0,0,0,.52-.41,2.43,2.43,0,0,0,.47-.54,4.1,4.1,0,0,0,.61-1.44,5.56,5.56,0,0,0-.5-3.47,3.84,3.84,0,0,0-.21-.4c-.07-.13-.16-.28-.22-.37s-.29-.36-.45-.54a4.57,4.57,0,0,0-1-.8A3.83,3.83,0,0,0,52,36.33a4.88,4.88,0,0,0-.1-2.88,2.27,2.27,0,0,0-1.2-1.29,2.35,2.35,0,0,0-1.46-.07,3.76,3.76,0,0,0-1.15.53,3.87,3.87,0,0,0-.57-2.71,5.31,5.31,0,0,0-5.87-2.22A4.23,4.23,0,0,0,39,30a11.29,11.29,0,0,0,1.9,2.55,4.67,4.67,0,0,0,2,1.2,5.74,5.74,0,0,0,2.33.18A6.3,6.3,0,0,0,47.72,33.14Z"/><path class="cls-6" d="M29.88,30.76c-1.21,2.45,2,7.17,4.9,9.69,5.89,5,15.3,5.12,16.63,1.93,1.14-2.7-3.42-8.07-7.75-10.68C38.6,28.66,31.31,27.87,29.88,30.76Z"/><path class="cls-6" d="M37,41.78a2.64,2.64,0,0,0,0-1.71.82.82,0,0,0-.73-.39,5.53,5.53,0,0,0-1.75.37,2.92,2.92,0,0,0-.55-3.4,3.44,3.44,0,0,0-1.26-.75,2.24,2.24,0,0,0-1.23-.1c.14-.25.61-.75,1-1.33A2.57,2.57,0,0,0,33,32.65a.22.22,0,0,0-.06-.19h-.2a2.77,2.77,0,0,1-.79-.24,7.89,7.89,0,0,1-2.1-1.43,4.53,4.53,0,0,0-1.27-.08l-.32.05-.32.09-.31.14-.28.19a2.28,2.28,0,0,0-.82,1.4,3.32,3.32,0,0,0,0,1.09v.6a3.51,3.51,0,0,0,.15.49,2.76,2.76,0,0,0,1,1.33,2.41,2.41,0,0,0,1.15.43,8.91,8.91,0,0,0,1.71-.08,1.8,1.8,0,0,0-.36,1.24,3.32,3.32,0,0,0,.53,1.65,2.78,2.78,0,0,0,1.44,1.2,2.73,2.73,0,0,0,2.15-.17,3.43,3.43,0,0,0,.07,1.88,1,1,0,0,0,.74.67,2,2,0,0,0,1.65-.68A2.91,2.91,0,0,0,37,44.07a2.6,2.6,0,0,0,.52.74,2.72,2.72,0,0,0,.74.53,2.31,2.31,0,0,0,.89.24,1.85,1.85,0,0,0,.47,0A2.71,2.71,0,0,0,41.07,45a3.43,3.43,0,0,0,.86-.92C41.68,42.22,41,41.3,40.1,41a2.45,2.45,0,0,0-.71-.11,3.23,3.23,0,0,0-.76.1A4.54,4.54,0,0,0,37,41.78Z"/><path class="cls-6" d="M50.51,38.84a5.26,5.26,0,0,0-.58.67,1.67,1.67,0,0,0-.35.75.11.11,0,0,0,0,.08v.15a.53.53,0,0,0,.26.19,10.59,10.59,0,0,1,1.53.9l-1.12.17h-.77c-.42,0-.61,0-.76.19l-.11.13v.12h-.06c-.15.16-.3.32-.43.49a3.54,3.54,0,0,0-.36.53,1.87,1.87,0,0,0-.18.55,3.7,3.7,0,0,1-.32-.59c-.13-.26-.28-.57-.46-.87-.1-.14-.19-.29-.3-.42a3.09,3.09,0,0,0-.35-.38,1.81,1.81,0,0,0-.94-.43,2,2,0,0,0-1.85.78,8.63,8.63,0,0,0-.71,1c-.22.35-.43.73-.64,1.09,0,.43.06.85.12,1.27a4.16,4.16,0,0,0,.36,1.2,2.38,2.38,0,0,0,2.25,1.32,2.5,2.5,0,0,0,1.46-.36,1.92,1.92,0,0,0,.51-.39,3.49,3.49,0,0,0,.37-.47,4.45,4.45,0,0,0,.43-.94,5.53,5.53,0,0,1,.22-.65,1.05,1.05,0,0,0,.37.46,2,2,0,0,0,.67.36,2.13,2.13,0,0,0,.42.1H50l.34-.06a3.69,3.69,0,0,0,.64-.21,2.34,2.34,0,0,0,.61-.31A3.5,3.5,0,0,0,52,45a3.56,3.56,0,0,0,.41-.53,2.59,2.59,0,0,0,.14-.29l.06-.14v-.16l.06-.3v-.31a1.5,1.5,0,0,0,0-.3c0-.1-.06-.2-.1-.3a2.2,2.2,0,0,0-.32-.53,2.63,2.63,0,0,0-.5-.44A2,2,0,0,0,53,40.21a1.54,1.54,0,0,0,0-.74,2.08,2.08,0,0,0-.12-.32V39l-.08-.1a1.44,1.44,0,0,0-.88-.38,2.48,2.48,0,0,0-.9.07,2.82,2.82,0,0,0,.69-1.73,2.77,2.77,0,0,0-.51-1.73,2.56,2.56,0,0,0-1.54-1,3.61,3.61,0,0,0-2.26.36A5,5,0,0,0,47,36.7a2.19,2.19,0,0,0,.57,1.4,2.39,2.39,0,0,0,1.28.7A4,4,0,0,0,50.51,38.84Z"/><path class="cls-6" d="M34.71,29.22a2.72,2.72,0,0,0,.8,1.51.76.76,0,0,0,.82,0,5.29,5.29,0,0,0,1.37-1.17,3.58,3.58,0,0,0,.84,1.89,2.43,2.43,0,0,0,1.34.77,3.36,3.36,0,0,0,1.48,0,2.07,2.07,0,0,0,1.11-.54c0,.29-.14,1-.15,1.65a4.68,4.68,0,0,0,0,.53,3,3,0,0,0,.11.52,1.82,1.82,0,0,0,.61.9,2,2,0,0,0,2,.33,11.72,11.72,0,0,0,2.21-1.11,6.2,6.2,0,0,0,.82-2.37,2.36,2.36,0,0,0-1.17-2.24,2.57,2.57,0,0,0-2-.39,3.62,3.62,0,0,0-.55.2,10,10,0,0,0-1.41,1,1.74,1.74,0,0,0-.32-1.25,3.4,3.4,0,0,0-1.28-1.16A2.93,2.93,0,0,0,39.5,28a2.85,2.85,0,0,0-1.78,1.23,3.36,3.36,0,0,0-1-1.61,1,1,0,0,0-1-.24,1.48,1.48,0,0,0-.73.57,2.58,2.58,0,0,0-.39.82,2.67,2.67,0,0,0-3.14-1.83l-.35.09-.33.13a3.08,3.08,0,0,0-.59.33l-.27.2-.23.24a2.5,2.5,0,0,0-.35.52,2.54,2.54,0,0,0-.19.59,2.08,2.08,0,0,0,0,.61,1.94,1.94,0,0,0,.19.59,2.37,2.37,0,0,0,.37.56,9.09,9.09,0,0,1,2.12.5l.51.2h.25a2.67,2.67,0,0,0,1-.76A5,5,0,0,0,34.71,29.22Z"/><path class="cls-8" d="M28.43,32.37c-.11,2.1,4.09,4.52,7.91,4.5s7.78-2.28,7.71-4.28C44,30.28,38.32,28,33.64,28.94,31.76,29.34,28.53,30.58,28.43,32.37Z"/><path class="cls-7" d="M40,36a2.79,2.79,0,0,0-1.27-1.13.69.69,0,0,0-.7.29,6.39,6.39,0,0,0-.83,1.54c-.82-1.55-1.59-2-2.49-2.05a3.5,3.5,0,0,0-1.32.23,2.27,2.27,0,0,0-1,.67c0-.28.07-1,.06-1.64v-.49a2.67,2.67,0,0,1,.14-.36,1.08,1.08,0,0,1,.23-.34.76.76,0,0,1-.28.1,3.72,3.72,0,0,1-1,.08,12.06,12.06,0,0,1-3.1-.47,3.36,3.36,0,0,0-2.13,1.2A1.85,1.85,0,0,0,26,35a3.2,3.2,0,0,0,1.1,1.81,4.66,4.66,0,0,0,1,.71,2.57,2.57,0,0,0,.52.21l.48.13a3.1,3.1,0,0,0,.86,0,.54.54,0,0,0,.18,0l.14,0a1.23,1.23,0,0,0,.26-.12,7.58,7.58,0,0,0,1.34-1.07,1.68,1.68,0,0,0,.44,1.21,3.13,3.13,0,0,0,1.48,1,2.73,2.73,0,0,0,2-.06,2.46,2.46,0,0,0,1.4-1.66,3,3,0,0,0,1.43,1.2,1,1,0,0,0,1-.13,2,2,0,0,0,.51-1.69,2.65,2.65,0,0,0,1.57,1h.56a4.13,4.13,0,0,0,.61-.13A3.77,3.77,0,0,0,44,36.75a2.54,2.54,0,0,0,1.17-2A1.9,1.9,0,0,0,44,33a13.69,13.69,0,0,1-2.7.36c-.57,0-.81,0-.91.09a.54.54,0,0,0-.09.27,4.35,4.35,0,0,1-.06.52A4.81,4.81,0,0,0,40,36Z"/><path class="cls-7" d="M32.44,29.52a2.66,2.66,0,0,0,1.23,1.16.66.66,0,0,0,.7-.25,6.52,6.52,0,0,0,.89-1.51C36,30.5,36.89,31,37.82,31a3.33,3.33,0,0,0,1.35-.28,2.24,2.24,0,0,0,1-.72,3.75,3.75,0,0,1,0,.67v.46a2,2,0,0,1,0,.49,3,3,0,0,1-.25.79.86.86,0,0,1-.25.34,1.51,1.51,0,0,1,.3-.1,4.78,4.78,0,0,1,1-.1A12.21,12.21,0,0,1,44,33c.21,0,.43-.1.64-.17a3.56,3.56,0,0,0,.61-.25,2.37,2.37,0,0,0,1-.83,1.86,1.86,0,0,0,.3-1.36v-.21l-.07-.21-.09-.22-.12-.22L46,29.27l-.17-.22-.21-.23-.23-.22a4.33,4.33,0,0,0-2.06-1,3.17,3.17,0,0,0-1.57.18,1.5,1.5,0,0,0-.48.3l-.36.33c-.21.21-.36.4-.48.49a1.67,1.67,0,0,0-.5-1.18,3.21,3.21,0,0,0-1.48-.91,2.79,2.79,0,0,0-1.89.1,2.63,2.63,0,0,0-1.4,1.63,3.12,3.12,0,0,0-1.38-1.26,1,1,0,0,0-1,.09,2,2,0,0,0-.56,1.68,3.33,3.33,0,0,0-.69-.66,1.8,1.8,0,0,0-.9-.34,3.63,3.63,0,0,0-2.4.62,2.89,2.89,0,0,0-.86.88,2,2,0,0,0-.3,1.05,2,2,0,0,0,1.29,1.77c.59-.12,1.1-.21,1.55-.27s.74-.06,1.11-.07A2.4,2.4,0,0,0,32,32c.1-.07.09-.34.13-.75s.11-.51.18-.77A5.66,5.66,0,0,0,32.44,29.52Z"/><path class="cls-8" d="M47.59,42c1.69-.9,1.91-3.58,1.14-5.34s-2.55-3.07-3.9-2.65c-1.94.59-3,5-1.18,7A3.42,3.42,0,0,0,47.59,42Z"/><path class="cls-7" d="M47.1,34.85q-.12.27-.21.54a1.54,1.54,0,0,0-.06.52.35.35,0,0,0,.35.27,1.62,1.62,0,0,0,.44,0h.69c-.7.92-.83,1.4-.64,1.88a2,2,0,0,0,.44.66,1.49,1.49,0,0,0,.65.43,2.09,2.09,0,0,1-.43.11l-.62.14a5.76,5.76,0,0,0-.59.18,1,1,0,0,0-.23.11.41.41,0,0,0-.14.12.17.17,0,0,0,0,.14.34.34,0,0,0,.06.15l.26.47.16.32c.05.12.1.24.14.36a8.18,8.18,0,0,1,.25.8,2.79,2.79,0,0,0,.64.55,1.79,1.79,0,0,0,.39.2,1.64,1.64,0,0,0,.44.09,1.6,1.6,0,0,0,.95-.25,2.38,2.38,0,0,0,.44-.4A2.25,2.25,0,0,0,51,41a1.46,1.46,0,0,0,0-.51,1.6,1.6,0,0,0-.42-.72,3.09,3.09,0,0,0-.55-.4l-.41-.21a1,1,0,0,0,.67-.53,1.93,1.93,0,0,0,.26-1.13A1.79,1.79,0,0,0,50,36.38a1.68,1.68,0,0,0-.6-.33,2,2,0,0,0-.78,0,2,2,0,0,0,.27-.67,1.46,1.46,0,0,0,0-.51.63.63,0,0,0-.38-.53.91.91,0,0,0-.61,0,2.07,2.07,0,0,0-.53.28,1.61,1.61,0,0,0,0-1.22l-.17-.28L47,33,47,32.91l-.08-.06a2.56,2.56,0,0,0-.35-.22l-.38-.14a2.9,2.9,0,0,0-.41-.06h-.41a1.67,1.67,0,0,0-.7.36,1.52,1.52,0,0,0-.39,1.54,6.62,6.62,0,0,1,1,.9c.2.22.27.34.37.34h.08l.09,0h.09l.2-.07c.14-.06.3-.13.47-.22A4.91,4.91,0,0,0,47.1,34.85Z"/><path class="cls-7" d="M44.56,41.62a2.77,2.77,0,0,0,.18-1.07.21.21,0,0,0-.1-.14.43.43,0,0,0-.22-.06c-.2,0-.53,0-1.09,0a4,4,0,0,0,.73-1,1,1,0,0,0,.06-.76,1.82,1.82,0,0,0-.38-.71,1.56,1.56,0,0,0-.6-.48c.17-.07.62-.1,1.06-.2a1.42,1.42,0,0,0,1-.53.47.47,0,0,0,0-.43,1.28,1.28,0,0,0-.11-.24l-.19-.23a5.88,5.88,0,0,1-.74-1.43,3.24,3.24,0,0,0-.69-.47,1.9,1.9,0,0,0-.85-.17,3.59,3.59,0,0,0-.47.12,2.1,2.1,0,0,0-.42.22,1.84,1.84,0,0,0-.64.87,1.58,1.58,0,0,0,.31,1.72,4.56,4.56,0,0,0,.92.66,1.12,1.12,0,0,0-.71.46,2,2,0,0,0-.36,1.09,1.7,1.7,0,0,0,.44,1.22,1.45,1.45,0,0,0,1.36.45,1.63,1.63,0,0,0-.29,1.22.8.8,0,0,0,.18.37.67.67,0,0,0,.28.19,1.15,1.15,0,0,0,1.11-.4,1.67,1.67,0,0,0,0,.63,1.46,1.46,0,0,0,.22.58,1.65,1.65,0,0,0,1.09.72,1.68,1.68,0,0,0,1.4-.35,1.57,1.57,0,0,0,.51-1.46,12.87,12.87,0,0,1-.95-1c-.21-.22-.34-.33-.52-.33a1.51,1.51,0,0,0-.65.24c-.13.08-.28.17-.43.28Z"/><path class="cls-9" d="M30.9,31c-.57.06,17.36,9.5,15.94,6.86C42.49,29.74,38.72,30,30.9,31Z"/><path class="cls-9" d="M42.91,36.81a2.41,2.41,0,0,0-.25-1.7c-.34-.4-1-.43-2.42.56a2.74,2.74,0,0,0-4.38-2.59c0-.58.6-2.66-1-3.61a2,2,0,0,0-2.13,0,6.4,6.4,0,0,0-1,.7c-.16.13-.31.27-.46.41l-.23.21-.11.1h0V31h0l-.05.17-.09.31a4.53,4.53,0,0,1-.13.64,4.31,4.31,0,0,0-.07,1.24,2.15,2.15,0,0,0,1.3,1.91C33.7,36,35,34.3,35.53,34A2.72,2.72,0,0,0,40,36c.13,1.7.66,2.22,1.21,2.21a2.19,2.19,0,0,0,1.43-1,2.77,2.77,0,0,0,1.61,2.89,2.48,2.48,0,0,0,.93.18,2.62,2.62,0,0,0,.56,0,6,6,0,0,0,.73-.17,1.89,1.89,0,0,0,.56-.21,4.49,4.49,0,0,0,.42-.24,1.71,1.71,0,0,0,.26-.21l.13-.13a.52.52,0,0,0,.12-.17,1.52,1.52,0,0,0,.2-.38,1.23,1.23,0,0,0,.08-.38,1.71,1.71,0,0,0,0-.32c0-.07,0-.15-.07-.23a1,1,0,0,0-.35-.45l-.18-.09h-.45l-.65.06c-.15.18-.28.35-.4.52l-.16.26-.07.12-.11,0a.22.22,0,0,1-.26-.14.34.34,0,0,1-.06-.15.49.49,0,0,1,0-.24,1.23,1.23,0,0,1,.2-.61l.1-.14.09-.1a1.54,1.54,0,0,1,.19-.17l.25-.18a.6.6,0,0,0,.21-.18.23.23,0,0,0,0-.25,1.12,1.12,0,0,0-.18-.2,1.42,1.42,0,0,0-.55-.27A3.08,3.08,0,0,0,42.91,36.81Z"/><path class="cls-9" d="M36,30.75a2.61,2.61,0,0,0,.86,1.46.73.73,0,0,0,.35.09.87.87,0,0,0,.43-.16,5.57,5.57,0,0,0,1.22-1.25,4.72,4.72,0,0,0,.7,1.86,1.86,1.86,0,0,0,1,.77,3.33,3.33,0,0,0,1.25.18,2.26,2.26,0,0,0,.63-.07,1.3,1.3,0,0,0,.52-.21,3.84,3.84,0,0,1-.26.62,7.75,7.75,0,0,0-.39.89,2.09,2.09,0,0,0,0,2,1.74,1.74,0,0,0,.34.42,1.88,1.88,0,0,0,.42.27,2.17,2.17,0,0,0,1,.18,5.29,5.29,0,0,0,1.19-.13c.42-.07.84-.17,1.24-.27.3-.29.6-.59.88-.91a3.94,3.94,0,0,0,.66-1,2.3,2.3,0,0,0,.19-1.16,2,2,0,0,0-.16-.62,2.81,2.81,0,0,0-.39-.64,2.48,2.48,0,0,0-2.35-.93,4.35,4.35,0,0,0-1,.27c-.28.11-.5.21-.64.25a1.37,1.37,0,0,0,.14-.57,2.27,2.27,0,0,0-.12-.72,3.15,3.15,0,0,0-1.1-1.45,2.93,2.93,0,0,0-1.94-.55,2.38,2.38,0,0,0-1,.37,3,3,0,0,0-.43.36,3.57,3.57,0,0,0-.38.49A3.2,3.2,0,0,0,38,29a1.13,1.13,0,0,0-.5-.22.77.77,0,0,0-.45.05,2.08,2.08,0,0,0-1,1.46,2.82,2.82,0,0,0-2.63-2c-1.08,0-2.09.84-2.53,2.64.84,1.65,2,2.2,3,2A3,3,0,0,0,36,30.75Z"/></g><path class="cls-4" d="M32,72c0-1.11-.12-2.43-1-3s-2,.28-3.52,0c-1.91-.4-1.71-2.09-3.52-3.08-3.14-1.71-6.43,1.94-9.83,0-.9-.51-1.11-1-2.2-1.32a5.18,5.18,0,0,0-4.5,1A4,4,0,0,0,5.75,68.7a3.88,3.88,0,0,0,1.66,2.83,4.59,4.59,0,0,0-4.12,1.18,4.07,4.07,0,0,0-1,2.74,5,5,0,0,0,2,3.47c2.22,1.94,4.67,1.66,12,2.34,2,.18,3.64.37,4.67.49A4.62,4.62,0,0,0,23.52,83a3.51,3.51,0,0,0,2.25-.3,3.58,3.58,0,0,0,1.71-2.44,3.49,3.49,0,0,0,1.43,1.06,3.84,3.84,0,0,0,3.46-.52,3.37,3.37,0,0,0,1.42-2A3.2,3.2,0,0,0,33.65,77h0a2.46,2.46,0,0,0,1.12-4.25A2.86,2.86,0,0,0,32,72Z"/><path class="cls-11" d="M16.31,81a2.4,2.4,0,0,0-1.09-1.51c-.58-.25-1.36,0-2.38,1.55a3.56,3.56,0,0,0-1.38-1.64,3.41,3.41,0,0,0-2-.42,3.91,3.91,0,0,0-2,.74,13.46,13.46,0,0,0,.65-1.88c.24-.87.35-1.31.24-1.56-.43-1-3.2-1.3-5.13-.15a5.11,5.11,0,0,0-1.86,2,3.45,3.45,0,0,0,.69,4.2,3.54,3.54,0,0,0,4.74-.64,3.1,3.1,0,0,0,2.58,1.67,3.19,3.19,0,0,0,3.5-1.94c1,1.56,1.79,1.83,2.38,1.59a2.33,2.33,0,0,0,1.1-1.51,3.35,3.35,0,0,0,2.91,2.18,3.45,3.45,0,0,0,3.28-2.48c-.8-1.79-2.09-2.48-3.31-2.4A3.39,3.39,0,0,0,16.31,81Z"/><path class="cls-12" d="M7.91,74c.12,2.55,10.46,4.4,10.8,4.5,2.9.82,11-.08,11.66-2.06.75-2.28-7.48-10.82-11.32-10.63C16.49,65.9,7.76,71.79,7.91,74Z"/><path class="cls-6" d="M19.89,78.42a5,5,0,0,0-.23-1,1.89,1.89,0,0,0-.19-.44,1.63,1.63,0,0,0-.11-.17l-.05-.06h0a1.11,1.11,0,0,0-.26-.07h-.28a1.42,1.42,0,0,0-.45.16A5.1,5.1,0,0,0,17.09,78c-.26-1.78-1.23-2.48-2.23-2.6a2.9,2.9,0,0,0-1.46.19,2.11,2.11,0,0,0-1,.74,15.41,15.41,0,0,0-.08-1.7v-.48a1.06,1.06,0,0,1,.12-.38,1.36,1.36,0,0,1,.21-.37.82.82,0,0,1-.28.14,5.7,5.7,0,0,1-1.07.31A11.23,11.23,0,0,1,9.68,74c-.6,0-1.21,0-1.79,0a3.7,3.7,0,0,0-2,1.56,1.66,1.66,0,0,0-.08,1.29,2.8,2.8,0,0,0,1.32,1.47A4.5,4.5,0,0,0,9.3,79a2.76,2.76,0,0,0,.86-.08l.35-.11h.15l.11-.08A13.42,13.42,0,0,0,12,77.38a1.8,1.8,0,0,0,.42,1.2,3.06,3.06,0,0,0,1.25,1A2.58,2.58,0,0,0,17,78.31a4.37,4.37,0,0,0,.69,1.52,1.16,1.16,0,0,0,.36.34.51.51,0,0,0,.17.07.11.11,0,0,0,.08,0h.26a.61.61,0,0,0,.26-.08,1.31,1.31,0,0,0,.44-.33,2.66,2.66,0,0,0,.54-.86,2.9,2.9,0,0,0,.91,1.62,2.41,2.41,0,0,0,1.56.65,2.14,2.14,0,0,0,1.6-.61,3.7,3.7,0,0,0,1-2C24,76.93,23,76.31,22.13,76.4a2.2,2.2,0,0,0-1.28.63A4.44,4.44,0,0,0,19.89,78.42Z"/><path class="cls-6" d="M26.52,70.61A2.6,2.6,0,0,0,26,72.29a.69.69,0,0,0,.62.51,5,5,0,0,0,1.8-.1c-.11.18-.22.37-.31.55l-.25.43c-.16.26-.28.45-.36.61s-.19.43,0,.61a2.51,2.51,0,0,0,.35.31c.17.14.33.29.48.44a8.07,8.07,0,0,0,1,.94,10.48,10.48,0,0,1-2-.81,5.52,5.52,0,0,1-.93-.57,1.61,1.61,0,0,1-.4-.34h0V75h0l-.08.08a2.8,2.8,0,0,0-.52.92A12.57,12.57,0,0,0,25,78.46a6.77,6.77,0,0,0,1.27,2.23,2.14,2.14,0,0,0,1,.62h.39A5.37,5.37,0,0,0,29.39,81a3.9,3.9,0,0,0,1.05-.55,2.2,2.2,0,0,0,.6-.65,1.68,1.68,0,0,0,.24-1.22,2.57,2.57,0,0,0-.39-.9,5.07,5.07,0,0,1-.36-.54,1.27,1.27,0,0,0,.67,0,1.38,1.38,0,0,0,.72-.39,1.91,1.91,0,0,0,.27-.35,1.28,1.28,0,0,0,.11-.2,1.55,1.55,0,0,0,.08-.23,2.4,2.4,0,0,0,.06-1A3.1,3.1,0,0,0,32,73.79a3.78,3.78,0,0,0-.87-1,2.45,2.45,0,0,0-2.39-.47,3.69,3.69,0,0,0,.38-1.82.9.9,0,0,0-.52-.75,2.28,2.28,0,0,0-1.74.37,3.15,3.15,0,0,0,.36-1.81A2.42,2.42,0,0,0,26.52,67a2.3,2.3,0,0,0-1.6-.61,3.69,3.69,0,0,0-2.15.84,5.48,5.48,0,0,0-.15,2.24,2,2,0,0,0,.75,1.26,2.24,2.24,0,0,0,1.4.39A3.86,3.86,0,0,0,26.52,70.61Z"/><path class="cls-6" d="M11.23,70.35a2.58,2.58,0,0,0,1.62.67.73.73,0,0,0,.58-.57,4.84,4.84,0,0,0,.07-1.82c1.46,1.06,2.6.88,3.37.31a2.84,2.84,0,0,0,.88-1.09,2.26,2.26,0,0,0,.24-1.2,8.35,8.35,0,0,1,.69.88,4.32,4.32,0,0,1,.53,1.23,1.82,1.82,0,0,1,0,.33v.14h0a1,1,0,0,0,.68,0,2.74,2.74,0,0,0,.89-.44,16.54,16.54,0,0,0,1.92-1.63,6.1,6.1,0,0,0,.43-2.54,2.2,2.2,0,0,0-.5-1.16,2.78,2.78,0,0,0-1.48-.85h-.31l-.34,0c-.21,0-.43,0-.64,0a3.12,3.12,0,0,0-1,.29,2.56,2.56,0,0,0-.85.75,3.14,3.14,0,0,0-.18.37l-.09.21a1.94,1.94,0,0,0,0,.2c-.09.51-.07.94-.11,1.15a1.83,1.83,0,0,0-1.14-.62,3.09,3.09,0,0,0-1.65.16,2.56,2.56,0,0,0-1.51,3.24,3.8,3.8,0,0,0-1.76-.56.87.87,0,0,0-.79.44A2.25,2.25,0,0,0,10.91,70a3.5,3.5,0,0,0-.87-.42,3.63,3.63,0,0,0-.45-.1H9.1A3.8,3.8,0,0,0,8,69.87a4.53,4.53,0,0,0-1,.79,3.16,3.16,0,0,0-.62,1,1.8,1.8,0,0,0-.05,1,1.47,1.47,0,0,0,.53.82,2.29,2.29,0,0,0,1.08.5c.54-.22,1.09-.42,1.65-.59s.88-.23,1.18-.3c.62-.12.87-.15.94-.27s0-.34-.13-.75v-.38a3.23,3.23,0,0,0,0-.44A4.86,4.86,0,0,0,11.23,70.35Z"/><path class="cls-7" d="M23.39,77a8.85,8.85,0,0,0-.46-.78,2.88,2.88,0,0,0-.26-.35,1.2,1.2,0,0,0-.26-.24l-.14,0h-.14l-.15.06-.21.13a5.77,5.77,0,0,0-1.1,1.41c-.49-1.72-1.39-2.29-2.32-2.35a3.19,3.19,0,0,0-1.36.28l-.15.07-.11.09-.22.2a5.22,5.22,0,0,0-.39.43,5.11,5.11,0,0,1,.45-1.52,4.22,4.22,0,0,1,.45-.76,2.13,2.13,0,0,1,.34-.33.89.89,0,0,1-.35.11,6.27,6.27,0,0,1-1.22.16,17,17,0,0,1-1.75,0c-.62,0-1.26-.12-1.85-.22a7.37,7.37,0,0,0-1.3.44,3.13,3.13,0,0,0-1,.8,1.83,1.83,0,0,0-.37,1.23,2.36,2.36,0,0,0,.85,1.54,3.62,3.62,0,0,0,1.92.86A3.52,3.52,0,0,0,13.93,78a2.37,2.37,0,0,0,.61-.27,2.34,2.34,0,0,0,.47-.3c.28-.2.47-.38.61-.47a1,1,0,0,0,.09.58,1.77,1.77,0,0,0,.19.33l.13.16.11.15a2.87,2.87,0,0,0,1.33.92,2.43,2.43,0,0,0,1.72,0,2.81,2.81,0,0,0,1.47-1.54,3.43,3.43,0,0,0,1.08,1.51.91.91,0,0,0,.26.13.87.87,0,0,0,.28,0,1.13,1.13,0,0,0,.26,0,.92.92,0,0,0,.23-.09,1.1,1.1,0,0,0,.37-.31,1.64,1.64,0,0,0,.24-.43,2.37,2.37,0,0,0,.15-.92,2.56,2.56,0,0,0,.68.71,1.49,1.49,0,0,0,.43.23,1.43,1.43,0,0,0,.49.13,1,1,0,0,0,.25,0h.52l.28-.08.29-.11.27-.14a2.29,2.29,0,0,0,.51-.37,2.59,2.59,0,0,0,.89-2.22A2.07,2.07,0,0,0,28,75.1a2.72,2.72,0,0,0-.32-.51,2.11,2.11,0,0,0-.47-.42,3.36,3.36,0,0,0-.6-.3l-.67.19-.58.14-.48.09-.4,0c-.46,0-.67,0-.75.16a.24.24,0,0,0,0,.12.11.11,0,0,0,0,.08.14.14,0,0,0,0,.09.2.2,0,0,0,0,.11.28.28,0,0,0,0,.13v.31l-.06.36v.41A7.1,7.1,0,0,0,23.39,77Z"/><path class="cls-7" d="M15.94,70.39c.16.21.38.48.58.71l.28.33.06.07.08,0,.16.07a.47.47,0,0,0,.33,0,.73.73,0,0,0,.34-.26,2.55,2.55,0,0,0,.37-.59,9.58,9.58,0,0,0,.44-1,4.11,4.11,0,0,0,1.21,1.64,2,2,0,0,0,1.27.4,3,3,0,0,0,1.23-.36,2.26,2.26,0,0,0,.52-.35,2,2,0,0,0,.39-.42,3.86,3.86,0,0,1,0,.68c0,.3-.05.64-.07,1v1a.54.54,0,0,1,0,.18v.12h0a.41.41,0,0,1-.07.11.88.88,0,0,1,.24-.11,3.42,3.42,0,0,1,.84-.13,9.39,9.39,0,0,1,2.53.32,5,5,0,0,0,.63-.19l.31-.12.3-.15a2.62,2.62,0,0,0,.55-.39,2,2,0,0,0,.44-.53,1.2,1.2,0,0,0,.16-.32L29,72v-.18a2.67,2.67,0,0,0,0-.4A3.23,3.23,0,0,0,29,71a3.43,3.43,0,0,0-1-2,4,4,0,0,0-.5-.4l-.5-.29-.12,0H26.8l-.21-.06a2.76,2.76,0,0,0-.4-.06h-.36l-.33.06a3.57,3.57,0,0,0-.57.23,4.53,4.53,0,0,0-.84.66,5.9,5.9,0,0,1-.49.51,1.2,1.2,0,0,0-.09-.59,2.69,2.69,0,0,0-.39-.62,3.1,3.1,0,0,0-1.48-.89,2.6,2.6,0,0,0-1.82.19,2.68,2.68,0,0,0-1.27,1.74,4.79,4.79,0,0,0-.7-.86,2.37,2.37,0,0,0-.65-.43,1.26,1.26,0,0,0-.54-.09.91.91,0,0,0-.42.17,1.21,1.21,0,0,0-.16.16l-.07.09-.08.11a1.51,1.51,0,0,0-.21.47,2,2,0,0,0,0,.91,2.76,2.76,0,0,0-.87-.6,3,3,0,0,0-1.11-.22,5.61,5.61,0,0,0-.59.06l-.3.06-.29.1a3.4,3.4,0,0,0-1,.61,2.1,2.1,0,0,0-.76,1.88,1.71,1.71,0,0,0,.44.89l.2.18.23.17a2.31,2.31,0,0,0,.55.26l1-.2.44-.08L14,73c.51-.08.93-.12,1.25-.14.65,0,.92,0,1-.15s0-.33-.09-.72a6.2,6.2,0,0,0-.13-.69Z"/><path class="cls-9" d="M14.42,72.29c-1,2.07,2.75,7.2,7.55,5.15s3.08-5,.85-5.49S15.45,70.24,14.42,72.29Z"/><path class="cls-9" d="M21,77.56c-.1-.18-.23-.39-.36-.58s-.14-.17-.22-.25a1,1,0,0,0-.22-.18H20l-.12,0-.14.1a9.67,9.67,0,0,0-.82,1,6.5,6.5,0,0,0-.22-.84.88.88,0,0,0-.12-.32c0-.09-.09-.18-.14-.27a1.37,1.37,0,0,0-.68-.6,2.45,2.45,0,0,0-.93-.15h-.47a2,2,0,0,0-.41.14c.07-.2.37-.64.62-1.09a1.83,1.83,0,0,0,.18-.34,2.52,2.52,0,0,0,.14-.33h0l.08-.05.1,0a.41.41,0,0,1-.22,0,2.59,2.59,0,0,1-.66-.23,7.55,7.55,0,0,1-1.82-1.2l-.47-.08a4,4,0,0,0-.49,0,3.85,3.85,0,0,0-.49.07,2.37,2.37,0,0,0-.46.2,1.63,1.63,0,0,0-.38.36l-.15.25-.06.14a.43.43,0,0,0,0,.16c0,.12-.05.24-.07.35v.83l.06.23.09.24a3.53,3.53,0,0,0,.46.83,2.8,2.8,0,0,0,.28.31l.14.13h.07a1.4,1.4,0,0,0,.48.18,1.77,1.77,0,0,0,.46,0,4.89,4.89,0,0,0,1.3-.29.76.76,0,0,0-.14.43,1.33,1.33,0,0,0,.06.56,2.27,2.27,0,0,0,.78,1.16,2.13,2.13,0,0,0,1.58.54,1.79,1.79,0,0,0,.4-.09,1.41,1.41,0,0,0,.37-.18,1.86,1.86,0,0,0,.63-.73,2.63,2.63,0,0,0,.4.76,1.75,1.75,0,0,0,.23.24.81.81,0,0,0,.24.17.67.67,0,0,0,.23.1.74.74,0,0,0,.21,0h.2l.17-.07a.92.92,0,0,0,.28-.24A1.29,1.29,0,0,0,21,78.6a2,2,0,0,0,.12-.69,2,2,0,0,0,.81.73l.33.12.36.07h.34a1.7,1.7,0,0,0,.66-.17,1.09,1.09,0,0,0,.31-.18,1,1,0,0,0,.27-.24,1.14,1.14,0,0,0,.23-.3,1.87,1.87,0,0,0,.22-.39v-.21l.06-.23v-.45a1.69,1.69,0,0,0-.12-.44,2.5,2.5,0,0,0-.25-.41l-.53-.13-.44-.13L23,75.43l-.15-.06-.13-.05-.23-.06a1,1,0,0,0-.25,0l-.23,0-.2.11a1.42,1.42,0,0,0-.36.33,1.14,1.14,0,0,0-.15.23,1.36,1.36,0,0,0-.11.25,1.52,1.52,0,0,0-.09.28c0,.11-.06.21-.08.31A3.65,3.65,0,0,0,21,77.56Z"/><path class="cls-9" d="M17.94,71.34a2,2,0,0,0,.58,1.17c.32.22.78.07,1.58-1,.27,1.32,1,1.82,1.8,1.89.49.06.56-.11.83-.24l.4-.22a2,2,0,0,0,.39-.25,2.43,2.43,0,0,1-.22.46,6.42,6.42,0,0,1-.42.6,2.53,2.53,0,0,1-.49.49.79.79,0,0,1-.31.17h.22a2.28,2.28,0,0,1,.61.24,6.89,6.89,0,0,1,1.49,1.13,3,3,0,0,0,2.11,0l.26-.14.23-.19a1.87,1.87,0,0,0,.39-.53,2.42,2.42,0,0,0-.78-3,2.08,2.08,0,0,0-1.11-.35,3.74,3.74,0,0,0-1.39.38,1,1,0,0,0-.24-1,2.51,2.51,0,0,0-.61-.51l-.18-.09H23l-.28-.13a2,2,0,0,0-2.48,1c-.44-1.25-1-1.52-1.39-1.38A1.67,1.67,0,0,0,18,71a2.28,2.28,0,0,0-.78-1.17L17,69.71l-.08,0h-.09l-.45-.11h-.48a3.93,3.93,0,0,0-.48.06,3.68,3.68,0,0,0-.47.15,2.6,2.6,0,0,0-.4.23,2.42,2.42,0,0,0-.32.32l-.13.17-.09.2a.17.17,0,0,0,0,.1v.31a1.62,1.62,0,0,0,0,.44,1.55,1.55,0,0,0,.17.44,2,2,0,0,0,.29.41l.57.12.49.13.4.13.32.13c.37.15.53.25.63.2s.09-.08.14-.16.05-.1.08-.15v-.1l.1-.1A3.49,3.49,0,0,0,17.94,71.34Z"/><path class="cls-4" d="M44.32,82.25A2.42,2.42,0,0,0,45,80.64,2.48,2.48,0,0,0,44.51,79a1.57,1.57,0,0,0-.08-2,2.52,2.52,0,0,0-2-.82,2.21,2.21,0,0,0-.34-2.27,2,2,0,0,0-.93-.48,8.08,8.08,0,0,0-.86-.08h0c-.12-.25-.25-.5-.39-.74s-.39-.43-1.66-.51a26.37,26.37,0,0,1-3.08,0c-.66-.11-.61-.24-.94-.22-1,.06-1.19,1.06-2.41,1.36-.57.14-.8,0-1.23.26a2.09,2.09,0,0,0-.76,1,2.88,2.88,0,0,0-2.3.46c-.09.07-1.31,1.06-1,2.21a2,2,0,0,0,1.11,1.13,2,2,0,0,0-1.47.27,1.69,1.69,0,0,0-.69,1.83,2.08,2.08,0,0,0,2.88.62h0a11.4,11.4,0,0,0,6.88,1.44c2-.27,4.95-1.37,6.33-.17a2.08,2.08,0,0,0,1.29.67A2,2,0,0,0,44.32,82.25Z"/><path class="cls-12" d="M27.1,78.84c.12,1.85,7.73,3.22,8,3.29,2.14.61,8.13,0,8.61-1.52.55-1.68-5.53-8-8.36-7.85C33.44,72.86,27,77.2,27.1,78.84Z"/><path class="cls-6" d="M35.94,82.1a3.76,3.76,0,0,0-.16-.74,2.33,2.33,0,0,0-.14-.33l-.08-.12h0l-.2,0h-.15a1.2,1.2,0,0,0-.33.13,3.57,3.57,0,0,0-.91.82c-.19-1.31-.91-1.83-1.65-1.92a2.3,2.3,0,0,0-1.07.14,1.45,1.45,0,0,0-.74.55,9.73,9.73,0,0,0-.07-1.26v-.15h0V79c0-.09,0-.19.08-.29a.74.74,0,0,1,.16-.27l-.21.11a3.09,3.09,0,0,1-.79.22,8.23,8.23,0,0,1-1.2.16,9.69,9.69,0,0,1-1.32,0,2.75,2.75,0,0,0-1.51,1,1.25,1.25,0,0,0-.06,1,2.07,2.07,0,0,0,1,1.08,3.12,3.12,0,0,0,1.6.48,1.69,1.69,0,0,0,.63-.06l.27-.07h.06l.09-.06a7.06,7.06,0,0,0,.88-.93,1.42,1.42,0,0,0,.31.89,2.19,2.19,0,0,0,.93.72,1.9,1.9,0,0,0,2.44-.92,3,3,0,0,0,.5,1.12.72.72,0,0,0,.27.25l.12.06H35a.6.6,0,0,0,.19-.06,1.27,1.27,0,0,0,.33-.24,2,2,0,0,0,.39-.67,2.14,2.14,0,0,0,.68,1.2,1.77,1.77,0,0,0,1.15.47A1.58,1.58,0,0,0,39,83.78a2.68,2.68,0,0,0,.77-1.51c-.64-1.25-1.37-1.7-2-1.64a1.7,1.7,0,0,0-.95.46A3.64,3.64,0,0,0,35.94,82.1Z"/><path class="cls-6" d="M40.84,76.33a1.9,1.9,0,0,0-.36,1.24.5.5,0,0,0,.46.38,3.51,3.51,0,0,0,1.33-.08c-.09.14-.16.28-.23.41l-.19.32-.26.45c-.13.22-.14.32,0,.45a1.86,1.86,0,0,0,.26.23c.11.09.24.2.36.32a6.61,6.61,0,0,0,.7.7,6.64,6.64,0,0,1-1.49-.6,4.89,4.89,0,0,1-.69-.42,1.18,1.18,0,0,1-.25-.25h0v.06h0l-.06.06a2.19,2.19,0,0,0-.38.68,8.83,8.83,0,0,0-.35,1.83,5.09,5.09,0,0,0,.94,1.65,1.44,1.44,0,0,0,.75.46h.7A4,4,0,0,0,43,84a2.55,2.55,0,0,0,.76-.41,1.56,1.56,0,0,0,.45-.47,1.25,1.25,0,0,0,.18-.91,1.85,1.85,0,0,0-.29-.66,2.8,2.8,0,0,1-.27-.4.85.85,0,0,0,.5,0,1.09,1.09,0,0,0,.53-.28,1.79,1.79,0,0,0,.2-.26.53.53,0,0,0,.08-.15l.06-.17a1.76,1.76,0,0,0,0-.76,2.39,2.39,0,0,0-.32-.84,2.74,2.74,0,0,0-.64-.72,1.84,1.84,0,0,0-1.77-.35,2.68,2.68,0,0,0,.29-1.34.64.64,0,0,0-.39-.56,1.7,1.7,0,0,0-1.28.28,2.3,2.3,0,0,0,.26-1.34,1.74,1.74,0,0,0-.53-1.1,1.66,1.66,0,0,0-1.18-.45,2.68,2.68,0,0,0-1.58.62A4,4,0,0,0,38,75.37a1.38,1.38,0,0,0,.54.93,1.68,1.68,0,0,0,1,.29A2.63,2.63,0,0,0,40.84,76.33Z"/><path class="cls-6" d="M29.55,76.14a1.84,1.84,0,0,0,1.2.49.53.53,0,0,0,.43-.42,3.36,3.36,0,0,0,0-1.34,2,2,0,0,0,2.49.23,2.14,2.14,0,0,0,.65-.81,1.66,1.66,0,0,0,.18-.88,6.24,6.24,0,0,1,.5.65,3.05,3.05,0,0,1,.39.91,1,1,0,0,1,0,.24v.08h0a.72.72,0,0,0,.5,0,2.1,2.1,0,0,0,.65-.33A11,11,0,0,0,38,73.76a4.75,4.75,0,0,0,.31-1.87,1.66,1.66,0,0,0-.37-.86,2,2,0,0,0-1.09-.63h-.48a3.69,3.69,0,0,0-.47,0,2.22,2.22,0,0,0-.76.22,1.73,1.73,0,0,0-.62.55,2.38,2.38,0,0,0-.18.3l-.06.16v.14c-.07.38,0,.7-.08.85a1.36,1.36,0,0,0-.84-.46,2.53,2.53,0,0,0-1.22.12A1.9,1.9,0,0,0,31,74.63a2.84,2.84,0,0,0-1.3-.41.65.65,0,0,0-.59.32,1.66,1.66,0,0,0,.14,1.31,3,3,0,0,0-.65-.31l-.33-.07h-.16a.17.17,0,0,0-.1,0h0a3.1,3.1,0,0,0-.83.32,3,3,0,0,0-.74.58,2.34,2.34,0,0,0-.46.75,1.37,1.37,0,0,0,0,.75,1.24,1.24,0,0,0,.39.61,1.71,1.71,0,0,0,.8.36c.45-.18.87-.33,1.22-.43s.65-.17.87-.22c.45-.09.64-.11.69-.2s0-.25-.09-.56v-.06a.06.06,0,0,1,0-.06.43.43,0,0,0,0-.16,1.71,1.71,0,0,0,0-.32A3.12,3.12,0,0,0,29.55,76.14Z"/><path class="cls-7" d="M38.53,81.06a5.7,5.7,0,0,0-.34-.57,1.57,1.57,0,0,0-.19-.26.81.81,0,0,0-.19-.18h-.32l-.16.09a4.24,4.24,0,0,0-.8,1c-.37-1.27-1-1.69-1.72-1.73a2.29,2.29,0,0,0-1,.2l-.11,0-.09.07-.16.15a2.89,2.89,0,0,0-.29.32,3.78,3.78,0,0,1,.34-1.13,3.57,3.57,0,0,1,.33-.56,1.14,1.14,0,0,1,.25-.24.79.79,0,0,1-.26.08,4.63,4.63,0,0,1-.9.12,9.26,9.26,0,0,1-1.29,0,8.84,8.84,0,0,1-1.37-.16,4.32,4.32,0,0,0-1,.32,2.16,2.16,0,0,0-.75.59,1.31,1.31,0,0,0-.27.91,1.66,1.66,0,0,0,.63,1.13,2.61,2.61,0,0,0,1.41.64,2.49,2.49,0,0,0,1.21-.11,1.51,1.51,0,0,0,.45-.2,2.56,2.56,0,0,0,.35-.22c.2-.15.35-.29.45-.35a.64.64,0,0,0,.06.43,1,1,0,0,0,.15.24l.09.12.09.11a2.09,2.09,0,0,0,1,.68,1.77,1.77,0,0,0,1.28,0,2.08,2.08,0,0,0,1.08-1.14,2.49,2.49,0,0,0,.8,1.11.5.5,0,0,0,.19.1h.21a.61.61,0,0,0,.19,0,.49.49,0,0,0,.17-.06.67.67,0,0,0,.27-.23.92.92,0,0,0,.18-.32,1.71,1.71,0,0,0,.11-.68,1.81,1.81,0,0,0,.5.53,1.41,1.41,0,0,0,.32.17,2.37,2.37,0,0,0,.36.09h.58l.21-.06.21-.07L41,82a1.59,1.59,0,0,0,.37-.27,1.94,1.94,0,0,0,.66-1.65,2.17,2.17,0,0,0-.11-.42,2.2,2.2,0,0,0-.24-.38,2.5,2.5,0,0,0-.34-.31,2.35,2.35,0,0,0-.45-.22l-.49.14L40,79l-.36.07h-.29c-.34,0-.49,0-.55.12a.11.11,0,0,0,0,.08v1.11C38.72,80.59,38.62,80.82,38.53,81.06Z"/><path class="cls-7" d="M33,76.17c.12.16.28.35.43.53l.2.24h.06l.12,0a.33.33,0,0,0,.24,0,.53.53,0,0,0,.25-.19,1.83,1.83,0,0,0,.28-.44c.09-.19.2-.43.32-.72a3.15,3.15,0,0,0,.89,1.21,1.39,1.39,0,0,0,.94.29,2,2,0,0,0,.91-.26,1.66,1.66,0,0,0,.39-.26,1.19,1.19,0,0,0,.28-.31,2.09,2.09,0,0,1,0,.5,3.79,3.79,0,0,1-.05.73.79.79,0,0,0,0,.36v.53h0l-.06.08.18-.08a3.2,3.2,0,0,1,.62-.09,6.94,6.94,0,0,1,1.87.23,1.47,1.47,0,0,0,.47-.14l.23-.09.22-.11a1.41,1.41,0,0,0,.4-.29,1.55,1.55,0,0,0,.33-.39.84.84,0,0,0,.12-.23.14.14,0,0,1,0-.13v-.14a1.5,1.5,0,0,0,0-.3,1.71,1.71,0,0,0,0-.32A2.59,2.59,0,0,0,41.93,75c-.12-.1-.24-.2-.37-.29s-.25-.15-.38-.22H41l-.16,0-.3,0h-.51l-.42.17a3,3,0,0,0-.62.49c-.16.16-.28.31-.36.38a1,1,0,0,0-.07-.44,1.87,1.87,0,0,0-.29-.46,2.3,2.3,0,0,0-1.09-.65,1.78,1.78,0,0,0-1.34.14,2,2,0,0,0-.94,1.28,3.94,3.94,0,0,0-.52-.64,1.75,1.75,0,0,0-.48-.32.91.91,0,0,0-.4-.06.71.71,0,0,0-.31.13l-.11.11L33,74.6l-.06.08a1.19,1.19,0,0,0-.15.35,1.52,1.52,0,0,0,0,.67,1.88,1.88,0,0,0-.64-.44,2.54,2.54,0,0,0-.82-.16h-.44l-.22.05-.21.07a2.43,2.43,0,0,0-.76.45,1.58,1.58,0,0,0-.56,1.39,1.3,1.3,0,0,0,.33.65l.14.14.18.12a2.14,2.14,0,0,0,.4.2L31,78,31.3,78l.3,0,.93-.1c.48,0,.68,0,.74-.11s0-.25-.07-.54a4,4,0,0,1-.1-.51Z"/><path class="cls-9" d="M31.91,77.58c-.76,1.52,2,5.31,5.57,3.79s2.28-3.67.63-4S32.67,76.06,31.91,77.58Z"/><path class="cls-9" d="M36.77,81.47a4.92,4.92,0,0,0-.26-.43l-.16-.19a1.09,1.09,0,0,0-.17-.13h-.24l-.1.08a6.07,6.07,0,0,0-.61.75c0-.24-.11-.44-.16-.62s-.12-.29-.19-.43a1,1,0,0,0-.51-.45,2.25,2.25,0,0,0-.68-.11h-.36a1,1,0,0,0-.3.11c0-.15.28-.48.46-.81a1.46,1.46,0,0,0,.13-.25,1.33,1.33,0,0,0,.11-.24h.13a.43.43,0,0,1-.16,0,1.78,1.78,0,0,1-.49-.17,6.2,6.2,0,0,1-1.34-.88l-.35-.07h-.36a2.23,2.23,0,0,0-.36.05,1.75,1.75,0,0,0-.34.15,1.2,1.2,0,0,0-.28.27,1.74,1.74,0,0,0-.11.18l-.05.1v.12a1.13,1.13,0,0,0,0,.26,1.4,1.4,0,0,0,0,.29v.32a.48.48,0,0,0,0,.17.75.75,0,0,0,.07.18,2.33,2.33,0,0,0,.34.62l.2.22.11.09h0a1,1,0,0,0,.35.14h.34a3.45,3.45,0,0,0,1-.22.75.75,0,0,0-.1.32,1.48,1.48,0,0,0,0,.42,1.75,1.75,0,0,0,.59.85,1.51,1.51,0,0,0,1.09.35.73.73,0,0,0,.29-.07,1,1,0,0,0,.28-.13,1.44,1.44,0,0,0,.46-.49,1.83,1.83,0,0,0,.3.55.63.63,0,0,0,.17.19.66.66,0,0,0,.17.12.36.36,0,0,0,.17.07h.3l.13,0a.49.49,0,0,0,.2-.18.66.66,0,0,0,.13-.25,1.39,1.39,0,0,0,.09-.5,1.29,1.29,0,0,0,.37.4l.23.14.25.09h.51a1.41,1.41,0,0,0,.49-.12l.22-.14L39,82a1.84,1.84,0,0,0,.17-.22,2.69,2.69,0,0,0,.16-.29V81a.48.48,0,0,0,0-.17,1,1,0,0,0-.09-.33,2.38,2.38,0,0,0-.18-.3l-.39-.1-.33-.1-.26-.09h-.2l-.18,0a.54.54,0,0,0-.18,0h-.17l-.15.08a1.2,1.2,0,0,0-.26.24,1.63,1.63,0,0,0-.11.17l-.09.18-.06.21-.06.23A3.27,3.27,0,0,0,36.77,81.47Z"/><path class="cls-9" d="M34.51,76.87a1.49,1.49,0,0,0,.42.87c.24.16.58.05,1.18-.72.19,1,.74,1.34,1.32,1.39.37,0,.41-.07.62-.17l.29-.16a1.81,1.81,0,0,0,.29-.19,1.2,1.2,0,0,1-.17.34,3.58,3.58,0,0,1-.31.45,1.75,1.75,0,0,1-.36.36.53.53,0,0,1-.22.12h.16a2.2,2.2,0,0,1,.45.17,5.26,5.26,0,0,1,1.1.84,2.21,2.21,0,0,0,1.56,0l.18-.11a1.1,1.1,0,0,0,.18-.14,1.39,1.39,0,0,0,.28-.39,1.82,1.82,0,0,0-.57-2.2,1.59,1.59,0,0,0-.82-.26,2.68,2.68,0,0,0-1,.29.76.76,0,0,0-.17-.73,2,2,0,0,0-.45-.37l-.14-.07h-.07l-.21-.09a1.49,1.49,0,0,0-1.83.76c-.32-.92-.72-1.12-1-1a1.22,1.22,0,0,0-.6.8,1.66,1.66,0,0,0-.58-.87l-.1-.07h-.13l-.33-.08a2.16,2.16,0,0,0-.36,0,1.18,1.18,0,0,0-.7.11l-.29.17a1.75,1.75,0,0,0-.24.23l-.1.13a.52.52,0,0,1-.07.15v.07a.11.11,0,0,0,0,.08.38.38,0,0,0,0,.15.92.92,0,0,0,0,.33,1.52,1.52,0,0,0,.12.32,1.16,1.16,0,0,0,.22.31l.42.09.36.09.3.1.23.09c.28.11.39.18.47.15a.4.4,0,0,0,.1-.12L34,78h0l.07-.08A2.5,2.5,0,0,0,34.51,76.87Z"/></g></g></svg>