<svg xmlns="http://www.w3.org/2000/svg" xmlns:xlink="http://www.w3.org/1999/xlink" viewBox="0 0 764.5 414.27"><defs><style>.cls-1{isolation:isolate;}.cls-2{fill:url(#Безымянный_градиент_146);}.cls-3{opacity:0.2;}.cls-4{fill:url(#Безымянный_градиент_155);}.cls-13,.cls-14,.cls-22,.cls-26,.cls-37,.cls-38,.cls-39,.cls-40,.cls-43,.cls-46,.cls-47,.cls-5,.cls-57,.cls-58,.cls-59,.cls-60,.cls-61,.cls-71,.cls-72,.cls-73,.cls-74,.cls-75,.cls-8,.cls-85,.cls-86,.cls-87,.cls-88,.cls-89,.cls-9{opacity:0.1;}.cls-5{fill:url(#Безымянный_градиент_138);}.cls-6{fill:url(#Безымянный_градиент_154);}.cls-7{fill:url(#Безымянный_градиент_152);}.cls-8{fill:url(#Безымянный_градиент_138-2);}.cls-9{fill:url(#Безымянный_градиент_138-3);}.cls-10{fill:url(#Безымянный_градиент_159);}.cls-11{opacity:0.15;}.cls-12{fill:url(#Безымянный_градиент_146-2);}.cls-14{fill:#fff;}.cls-15{fill:url(#Безымянный_градиент_158);}.cls-16{fill:url(#Безымянный_градиент_157);}.cls-17{fill:url(#Безымянный_градиент_157-2);}.cls-18{fill:url(#Безымянный_градиент_157-3);}.cls-19{opacity:0.05;}.cls-20{fill:url(#Безымянный_градиент_146-3);}.cls-21,.cls-25,.cls-35,.cls-53,.cls-54,.cls-55,.cls-56,.cls-67,.cls-68,.cls-69,.cls-70,.cls-81,.cls-82,.cls-83,.cls-84{opacity:0.4;}.cls-21{fill:url(#Безымянный_градиент_140);}.cls-22{fill:url(#Безымянный_градиент_138-4);}.cls-23{fill:url(#Безымянный_градиент_160);}.cls-24{fill:url(#Безымянный_градиент_146-4);}.cls-25{fill:url(#Безымянный_градиент_140-2);}.cls-26{fill:url(#Безымянный_градиент_138-5);}.cls-27{fill:url(#Безымянный_градиент_160-2);}.cls-28{fill:url(#Безымянный_градиент_159-2);}.cls-29{fill:url(#Безымянный_градиент_146-5);}.cls-30{fill:url(#Безымянный_градиент_158-2);}.cls-31{fill:url(#Безымянный_градиент_157-4);}.cls-32{fill:url(#Безымянный_градиент_157-5);}.cls-33{fill:url(#Безымянный_градиент_157-6);}.cls-34{fill:url(#Безымянный_градиент_146-6);}.cls-35{fill:url(#Безымянный_градиент_140-3);}.cls-36{fill:url(#Безымянный_градиент_156);}.cls-37{fill:url(#Безымянный_градиент_138-6);}.cls-38{fill:url(#Безымянный_градиент_138-7);}.cls-39{fill:url(#Безымянный_градиент_138-8);}.cls-40{fill:url(#Безымянный_градиент_138-9);}.cls-41{fill:url(#Безымянный_градиент_146-7);}.cls-42{fill:url(#Безымянный_градиент_155-2);}.cls-43{fill:url(#Безымянный_градиент_138-10);}.cls-44{fill:url(#Безымянный_градиент_154-2);}.cls-45{fill:url(#Безымянный_градиент_152-2);}.cls-46{fill:url(#Безымянный_градиент_138-11);}.cls-47{fill:url(#Безымянный_градиент_138-12);}.cls-48{fill:url(#Безымянный_градиент_146-8);}.cls-49{fill:url(#Безымянный_градиент_145);}.cls-50{fill:url(#Безымянный_градиент_143);}.cls-51{fill:url(#Безымянный_градиент_142);}.cls-52{fill:url(#Безымянный_градиент_141);}.cls-53{fill:url(#Безымянный_градиент_140-4);}.cls-54{fill:url(#Безымянный_градиент_140-5);}.cls-55{fill:url(#Безымянный_градиент_140-6);}.cls-56{fill:url(#Безымянный_градиент_140-7);}.cls-57{fill:url(#Безымянный_градиент_138-13);}.cls-58{fill:url(#Безымянный_градиент_138-14);}.cls-59{fill:url(#Безымянный_градиент_138-15);}.cls-60{fill:url(#Безымянный_градиент_138-16);}.cls-61{fill:url(#Безымянный_градиент_138-17);}.cls-62{fill:url(#Безымянный_градиент_146-9);}.cls-63{fill:url(#Безымянный_градиент_145-2);}.cls-64{fill:url(#Безымянный_градиент_143-2);}.cls-65{fill:url(#Безымянный_градиент_142-2);}.cls-66{fill:url(#Безымянный_градиент_141-2);}.cls-67{fill:url(#Безымянный_градиент_140-8);}.cls-68{fill:url(#Безымянный_градиент_140-9);}.cls-69{fill:url(#Безымянный_градиент_140-10);}.cls-70{fill:url(#Безымянный_градиент_140-11);}.cls-71{fill:url(#Безымянный_градиент_138-18);}.cls-72{fill:url(#Безымянный_градиент_138-19);}.cls-73{fill:url(#Безымянный_градиент_138-20);}.cls-74{fill:url(#Безымянный_градиент_138-21);}.cls-75{fill:url(#Безымянный_градиент_138-22);}.cls-76{fill:url(#Безымянный_градиент_146-10);}.cls-77{fill:url(#Безымянный_градиент_145-3);}.cls-78{fill:url(#Безымянный_градиент_143-3);}.cls-79{fill:url(#Безымянный_градиент_142-3);}.cls-80{fill:url(#Безымянный_градиент_141-3);}.cls-81{fill:url(#Безымянный_градиент_140-12);}.cls-82{fill:url(#Безымянный_градиент_140-13);}.cls-83{fill:url(#Безымянный_градиент_140-14);}.cls-84{fill:url(#Безымянный_градиент_140-15);}.cls-85{fill:url(#Безымянный_градиент_138-23);}.cls-86{fill:url(#Безымянный_градиент_138-24);}.cls-87{fill:url(#Безымянный_градиент_138-25);}.cls-88{fill:url(#Безымянный_градиент_138-26);}.cls-89{fill:url(#Безымянный_градиент_138-27);}.cls-90{fill:url(#Безымянный_градиент_137);}.cls-91{fill:url(#Безымянный_градиент_137-2);}.cls-92{fill:url(#Безымянный_градиент_137-3);}.cls-93{fill:url(#Безымянный_градиент_137-4);}.cls-94{fill:url(#Безымянный_градиент_92);}.cls-95{fill:url(#Безымянный_градиент_92-2);}.cls-96{fill:url(#Безымянный_градиент_92-3);}.cls-97{fill:url(#Безымянный_градиент_92-4);}.cls-98{fill:url(#Безымянный_градиент_92-5);}.cls-99{fill:url(#Безымянный_градиент_92-6);}.cls-100{fill:url(#Безымянный_градиент_92-7);}.cls-101{fill:url(#Безымянный_градиент_92-8);}.cls-102{fill:url(#Безымянный_градиент_92-9);}.cls-103{fill:#73b634;opacity:0.5;}.cls-103,.cls-119,.cls-120,.cls-121,.cls-122,.cls-123{mix-blend-mode:screen;}.cls-104{fill:url(#Безымянный_градиент_92-10);}.cls-105{fill:url(#Безымянный_градиент_92-11);}.cls-106{fill:url(#Безымянный_градиент_92-12);}.cls-107{fill:url(#Безымянный_градиент_92-13);}.cls-108{fill:url(#Безымянный_градиент_92-14);}.cls-109{fill:url(#Безымянный_градиент_92-15);}.cls-110{fill:url(#Безымянный_градиент_92-16);}.cls-111{fill:url(#Безымянный_градиент_92-17);}.cls-112{fill:url(#Безымянный_градиент_92-18);}.cls-113{fill:url(#Безымянный_градиент_92-19);}.cls-114{fill:url(#Безымянный_градиент_92-20);}.cls-115{fill:url(#Безымянный_градиент_92-21);}.cls-116{fill:url(#Безымянный_градиент_92-22);}.cls-117{fill:url(#Безымянный_градиент_92-23);}.cls-118{fill:url(#Безымянный_градиент_92-24);}.cls-119{fill:url(#Безымянный_градиент_92-25);}.cls-120{fill:url(#Безымянный_градиент_92-26);}.cls-121{fill:url(#Безымянный_градиент_92-27);}.cls-122{fill:url(#Безымянный_градиент_92-28);}.cls-123{fill:url(#Безымянный_градиент_92-29);}</style><linearGradient id="Безымянный_градиент_146" x1="540.07" y1="329" x2="622.54" y2="329" gradientUnits="userSpaceOnUse"><stop offset="0" stop-color="#a49086"/><stop offset="1" stop-color="#63564f"/></linearGradient><linearGradient id="Безымянный_градиент_155" x1="430.95" y1="244.79" x2="590.17" y2="244.79" gradientUnits="userSpaceOnUse"><stop offset="0" stop-color="#22797a"/><stop offset="1" stop-color="#135965"/></linearGradient><linearGradient id="Безымянный_градиент_138" x1="985.88" y1="2714.26" x2="946.95" y2="2714.26" gradientTransform="matrix(0.65, -0.34, 0.36, 0.69, -1159.98, -1321.98)" gradientUnits="userSpaceOnUse"><stop offset="0" stop-color="#fff"/><stop offset="1" stop-color="#fff"/></linearGradient><linearGradient id="Безымянный_градиент_154" x1="554.36" y1="224.12" x2="713.58" y2="224.12" gradientUnits="userSpaceOnUse"><stop offset="0" stop-color="#4d9981"/><stop offset="1" stop-color="#22797a"/></linearGradient><linearGradient id="Безымянный_градиент_152" x1="493.67" y1="189.04" x2="672.08" y2="189.04" gradientUnits="userSpaceOnUse"><stop offset="0" stop-color="#6bbe8a"/><stop offset="1" stop-color="#4d9981"/></linearGradient><linearGradient id="Безымянный_градиент_138-2" x1="580.48" y1="377.62" x2="572.91" y2="377.62" gradientTransform="matrix(1, 0, 0, 1, 0, 0)" xlink:href="#Безымянный_градиент_138"/><linearGradient id="Безымянный_градиент_138-3" x1="1488.17" y1="2160.94" x2="1395.99" y2="2160.94" gradientTransform="matrix(0.68, -0.27, 0.28, 0.72, -1054.84, -1031.9)" xlink:href="#Безымянный_градиент_138"/><linearGradient id="Безымянный_градиент_159" x1="262.11" y1="92.16" x2="548.02" y2="92.16" gradientUnits="userSpaceOnUse"><stop offset="0" stop-color="#45aea0"/><stop offset="1" stop-color="#079098"/></linearGradient><linearGradient id="Безымянный_градиент_146-2" x1="337.5" y1="244.36" x2="503.59" y2="244.36" xlink:href="#Безымянный_градиент_146"/><linearGradient id="Безымянный_градиент_158" x1="254.8" y1="69.55" x2="561.31" y2="69.55" gradientUnits="userSpaceOnUse"><stop offset="0" stop-color="#7ecaa3"/><stop offset="1" stop-color="#079098"/></linearGradient><linearGradient id="Безымянный_градиент_157" x1="313.67" y1="92.16" x2="324.79" y2="92.16" gradientUnits="userSpaceOnUse"><stop offset="0" stop-color="#b8e6a5"/><stop offset="1" stop-color="#7ecaa3"/></linearGradient><linearGradient id="Безымянный_градиент_157-2" x1="396.54" y1="57.44" x2="414.81" y2="57.44" xlink:href="#Безымянный_градиент_157"/><linearGradient id="Безымянный_градиент_157-3" x1="-90.38" y1="-1590.54" x2="-69.21" y2="-1590.54" gradientTransform="matrix(-0.24, 1.01, -1.02, -0.24, -1177.28, -240.75)" xlink:href="#Безымянный_градиент_157"/><linearGradient id="Безымянный_градиент_146-3" x1="513.01" y1="373" x2="526.45" y2="373" xlink:href="#Безымянный_градиент_146"/><linearGradient id="Безымянный_градиент_140" x1="-8013.27" y1="356.72" x2="-7999.83" y2="356.72" gradientTransform="matrix(-1, 0, 0, 1, -7486.83, 0)" gradientUnits="userSpaceOnUse"><stop offset="0"/><stop offset="1"/></linearGradient><linearGradient id="Безымянный_градиент_138-4" x1="520.56" y1="380.54" x2="512.99" y2="380.54" gradientTransform="matrix(1, 0, 0, 1, 0, 0)" xlink:href="#Безымянный_градиент_138"/><linearGradient id="Безымянный_градиент_160" x1="426.4" y1="272.81" x2="613.05" y2="272.81" gradientUnits="userSpaceOnUse"><stop offset="0" stop-color="#4da283"/><stop offset="1" stop-color="#266c6d"/></linearGradient><linearGradient id="Безымянный_градиент_146-4" x1="283.99" y1="376.02" x2="296.4" y2="376.02" xlink:href="#Безымянный_градиент_146"/><linearGradient id="Безымянный_градиент_140-2" x1="-7783.22" y1="360.99" x2="-7770.81" y2="360.99" xlink:href="#Безымянный_градиент_140"/><linearGradient id="Безымянный_градиент_138-5" x1="290.96" y1="382.98" x2="283.97" y2="382.98" gradientTransform="matrix(1, 0, 0, 1, 0, 0)" xlink:href="#Безымянный_градиент_138"/><linearGradient id="Безымянный_градиент_160-2" x1="204.05" y1="283.54" x2="376.34" y2="283.54" xlink:href="#Безымянный_градиент_160"/><linearGradient id="Безымянный_градиент_159-2" x1="99.01" y1="156.58" x2="318.05" y2="156.58" xlink:href="#Безымянный_градиент_159"/><linearGradient id="Безымянный_градиент_146-5" x1="156.77" y1="284.87" x2="284.01" y2="284.87" xlink:href="#Безымянный_градиент_146"/><linearGradient id="Безымянный_градиент_158-2" x1="93.41" y1="150.03" x2="328.24" y2="150.03" xlink:href="#Безымянный_градиент_158"/><linearGradient id="Безымянный_градиент_157-4" x1="138.51" y1="167.35" x2="147.03" y2="167.35" xlink:href="#Безымянный_градиент_157"/><linearGradient id="Безымянный_градиент_157-5" x1="202" y1="140.75" x2="216" y2="140.75" xlink:href="#Безымянный_градиент_157"/><linearGradient id="Безымянный_градиент_157-6" x1="-242.36" y1="-1437.22" x2="-226.15" y2="-1437.22" gradientTransform="matrix(-0.24, 1.01, -1.02, -0.24, -1268.8, 33.4)" xlink:href="#Безымянный_градиент_157"/><linearGradient id="Безымянный_градиент_146-6" x1="729.72" y1="391.51" x2="746.25" y2="391.51" xlink:href="#Безымянный_градиент_146"/><linearGradient id="Безымянный_градиент_140-3" x1="-8224.65" y1="399.81" x2="-8216.54" y2="399.81" xlink:href="#Безымянный_градиент_140"/><linearGradient id="Безымянный_градиент_156" x1="764.5" y1="317.5" x2="703.04" y2="317.5" gradientUnits="userSpaceOnUse"><stop offset="0" stop-color="#287273"/><stop offset="1" stop-color="#88c0b5"/></linearGradient><linearGradient id="Безымянный_градиент_138-6" x1="733.34" y1="402.03" x2="729.71" y2="402.03" gradientTransform="matrix(1, 0, 0, 1, 0, 0)" xlink:href="#Безымянный_градиент_138"/><linearGradient id="Безымянный_градиент_138-7" x1="-3203.35" y1="2437.95" x2="-3235.3" y2="2437.95" gradientTransform="matrix(0.11, -0.73, 1.58, 0.24, -2778.28, -2630.89)" xlink:href="#Безымянный_градиент_138"/><linearGradient id="Безымянный_градиент_138-8" x1="-3724.25" y1="2162.68" x2="-3756.21" y2="2162.68" gradientTransform="matrix(0.06, -0.88, 1.79, 0.12, -2950.29, -3201.15)" xlink:href="#Безымянный_градиент_138"/><linearGradient id="Безымянный_градиент_138-9" x1="-2393.92" y1="2256.75" x2="-2413.66" y2="2256.75" gradientTransform="matrix(0.25, -0.79, 1.62, 0.51, -2328.48, -2797.03)" xlink:href="#Безымянный_градиент_138"/><linearGradient id="Безымянный_градиент_146-7" x1="86.2" y1="346.84" x2="151.36" y2="346.84" xlink:href="#Безымянный_градиент_146"/><linearGradient id="Безымянный_градиент_155-2" x1="0" y1="280.32" x2="125.79" y2="280.32" xlink:href="#Безымянный_градиент_155"/><linearGradient id="Безымянный_градиент_138-10" x1="430.43" y1="2500.05" x2="399.68" y2="2500.05" xlink:href="#Безымянный_градиент_138"/><linearGradient id="Безымянный_градиент_154-2" x1="97.5" y1="263.99" x2="223.28" y2="263.99" xlink:href="#Безымянный_градиент_154"/><linearGradient id="Безымянный_градиент_152-2" x1="49.55" y1="236.27" x2="190.49" y2="236.27" xlink:href="#Безымянный_градиент_152"/><linearGradient id="Безымянный_градиент_138-11" x1="118.13" y1="385.25" x2="112.15" y2="385.25" gradientTransform="matrix(1, 0, 0, 1, 0, 0)" xlink:href="#Безымянный_градиент_138"/><linearGradient id="Безымянный_градиент_138-12" x1="874.64" y1="2014.89" x2="801.81" y2="2014.89" gradientTransform="matrix(0.68, -0.27, 0.28, 0.72, -1054.84, -1031.9)" xlink:href="#Безымянный_градиент_138"/><linearGradient id="Безымянный_градиент_146-8" x1="372.89" y1="374.41" x2="391.43" y2="374.41" xlink:href="#Безымянный_градиент_146"/><linearGradient id="Безымянный_градиент_145" x1="270.66" y1="260.37" x2="493.66" y2="260.37" gradientUnits="userSpaceOnUse"><stop offset="0" stop-color="#448c89"/><stop offset="1" stop-color="#287273"/></linearGradient><linearGradient id="Безымянный_градиент_143" x1="291.58" y1="210.16" x2="472.74" y2="210.16" gradientUnits="userSpaceOnUse"><stop offset="0" stop-color="#63a69f"/><stop offset="1" stop-color="#448c89"/></linearGradient><linearGradient id="Безымянный_градиент_142" x1="308.33" y1="164" x2="455.98" y2="164" gradientUnits="userSpaceOnUse"><stop offset="0" stop-color="#88c0b5"/><stop offset="1" stop-color="#63a69f"/></linearGradient><linearGradient id="Безымянный_градиент_141" x1="320.57" y1="129.38" x2="443.75" y2="129.38" gradientUnits="userSpaceOnUse"><stop offset="0" stop-color="#b4d8cc"/><stop offset="1" stop-color="#88c0b5"/></linearGradient><linearGradient id="Безымянный_градиент_140-4" x1="-7941.6" y1="290.71" x2="-7782.16" y2="290.71" xlink:href="#Безымянный_градиент_140"/><linearGradient id="Безымянный_градиент_140-5" x1="319.47" y1="229.55" x2="444.84" y2="229.55" gradientTransform="matrix(1, 0, 0, 1, 0, 0)" xlink:href="#Безымянный_градиент_140"/><linearGradient id="Безымянный_градиент_140-6" x1="329.45" y1="182.67" x2="434.87" y2="182.67" gradientTransform="matrix(1, 0, 0, 1, 0, 0)" xlink:href="#Безымянный_градиент_140"/><linearGradient id="Безымянный_градиент_140-7" x1="-7878.23" y1="367.98" x2="-7859.69" y2="367.98" xlink:href="#Безымянный_градиент_140"/><linearGradient id="Безымянный_градиент_138-13" x1="383.3" y1="381.57" x2="372.87" y2="381.57" gradientTransform="matrix(1, 0, 0, 1, 0, 0)" xlink:href="#Безымянный_градиент_138"/><linearGradient id="Безымянный_градиент_138-14" x1="297.88" y1="323.47" x2="270.66" y2="323.47" gradientTransform="matrix(1, 0, 0, 1, 0, 0)" xlink:href="#Безымянный_градиент_138"/><linearGradient id="Безымянный_градиент_138-15" x1="319.03" y1="252.2" x2="293.9" y2="252.2" gradientTransform="matrix(1, 0, 0, 1, 0, 0)" xlink:href="#Безымянный_градиент_138"/><linearGradient id="Безымянный_градиент_138-16" x1="328.94" y1="200.26" x2="309.42" y2="200.26" gradientTransform="matrix(1, 0, 0, 1, 0, 0)" xlink:href="#Безымянный_градиент_138"/><linearGradient id="Безымянный_градиент_138-17" x1="368.56" y1="127.37" x2="331.5" y2="127.37" gradientTransform="matrix(1, 0, 0, 1, 0, 0)" xlink:href="#Безымянный_градиент_138"/><linearGradient id="Безымянный_градиент_146-9" x1="631.87" y1="388.98" x2="643.64" y2="388.98" xlink:href="#Безымянный_градиент_146"/><linearGradient id="Безымянный_градиент_145-2" x1="566.95" y1="316.57" x2="708.55" y2="316.57" xlink:href="#Безымянный_градиент_145"/><linearGradient id="Безымянный_градиент_143-2" x1="580.24" y1="284.69" x2="695.27" y2="284.69" xlink:href="#Безымянный_градиент_143"/><linearGradient id="Безымянный_градиент_142-2" x1="590.88" y1="255.38" x2="684.63" y2="255.38" xlink:href="#Безымянный_градиент_142"/><linearGradient id="Безымянный_градиент_141-2" x1="598.65" y1="233.39" x2="676.86" y2="233.39" xlink:href="#Безымянный_градиент_141"/><linearGradient id="Безымянный_градиент_140-8" x1="-8170.68" y1="335.83" x2="-8069.45" y2="335.83" xlink:href="#Безымянный_градиент_140"/><linearGradient id="Безымянный_градиент_140-9" x1="597.95" y1="297" x2="677.55" y2="297" gradientTransform="matrix(1, 0, 0, 1, 0, 0)" xlink:href="#Безымянный_градиент_140"/><linearGradient id="Безымянный_градиент_140-10" x1="604.28" y1="267.23" x2="671.22" y2="267.23" gradientTransform="matrix(1, 0, 0, 1, 0, 0)" xlink:href="#Безымянный_градиент_140"/><linearGradient id="Безымянный_градиент_140-11" x1="-8130.45" y1="384.9" x2="-8118.68" y2="384.9" xlink:href="#Безымянный_градиент_140"/><linearGradient id="Безымянный_градиент_138-18" x1="638.48" y1="393.52" x2="631.85" y2="393.52" gradientTransform="matrix(1, 0, 0, 1, 0, 0)" xlink:href="#Безымянный_градиент_138"/><linearGradient id="Безымянный_градиент_138-19" x1="584.24" y1="356.63" x2="566.95" y2="356.63" gradientTransform="matrix(1, 0, 0, 1, 0, 0)" xlink:href="#Безымянный_градиент_138"/><linearGradient id="Безымянный_градиент_138-20" x1="597.67" y1="311.38" x2="581.71" y2="311.38" gradientTransform="matrix(1, 0, 0, 1, 0, 0)" xlink:href="#Безымянный_градиент_138"/><linearGradient id="Безымянный_градиент_138-21" x1="603.96" y1="278.4" x2="591.56" y2="278.4" gradientTransform="matrix(1, 0, 0, 1, 0, 0)" xlink:href="#Безымянный_градиент_138"/><linearGradient id="Безымянный_градиент_138-22" x1="629.11" y1="232.12" x2="605.59" y2="232.12" gradientTransform="matrix(1, 0, 0, 1, 0, 0)" xlink:href="#Безымянный_градиент_138"/><linearGradient id="Безымянный_градиент_146-10" x1="218.33" y1="392.45" x2="228.23" y2="392.45" xlink:href="#Безымянный_градиент_146"/><linearGradient id="Безымянный_градиент_145-3" x1="163.75" y1="331.57" x2="282.81" y2="331.57" xlink:href="#Безымянный_градиент_145"/><linearGradient id="Безымянный_градиент_143-3" x1="174.92" y1="304.76" x2="271.64" y2="304.76" xlink:href="#Безымянный_градиент_143"/><linearGradient id="Безымянный_градиент_142-3" x1="183.87" y1="280.11" x2="262.7" y2="280.11" xlink:href="#Безымянный_градиент_142"/><linearGradient id="Безымянный_градиент_141-3" x1="190.4" y1="261.63" x2="256.16" y2="261.63" xlink:href="#Безымянный_градиент_141"/><linearGradient id="Безымянный_градиент_140-12" x1="-7748.87" y1="347.76" x2="-7663.75" y2="347.76" xlink:href="#Безымянный_градиент_140"/><linearGradient id="Безымянный_градиент_140-13" x1="189.81" y1="315.11" x2="256.74" y2="315.11" gradientTransform="matrix(1, 0, 0, 1, 0, 0)" xlink:href="#Безымянный_градиент_140"/><linearGradient id="Безымянный_градиент_140-14" x1="195.14" y1="290.08" x2="251.42" y2="290.08" gradientTransform="matrix(1, 0, 0, 1, 0, 0)" xlink:href="#Безымянный_градиент_140"/><linearGradient id="Безымянный_градиент_140-15" x1="-7715.04" y1="389.02" x2="-7705.14" y2="389.02" xlink:href="#Безымянный_градиент_140"/><linearGradient id="Безымянный_градиент_138-23" x1="223.89" y1="396.27" x2="218.32" y2="396.27" gradientTransform="matrix(1, 0, 0, 1, 0, 0)" xlink:href="#Безымянный_градиент_138"/><linearGradient id="Безымянный_градиент_138-24" x1="178.29" y1="365.25" x2="163.75" y2="365.25" gradientTransform="matrix(1, 0, 0, 1, 0, 0)" xlink:href="#Безымянный_градиент_138"/><linearGradient id="Безымянный_градиент_138-25" x1="189.58" y1="327.2" x2="176.16" y2="327.2" gradientTransform="matrix(1, 0, 0, 1, 0, 0)" xlink:href="#Безымянный_градиент_138"/><linearGradient id="Безымянный_градиент_138-26" x1="194.87" y1="299.47" x2="184.44" y2="299.47" gradientTransform="matrix(1, 0, 0, 1, 0, 0)" xlink:href="#Безымянный_градиент_138"/><linearGradient id="Безымянный_градиент_138-27" x1="216.02" y1="260.55" x2="196.23" y2="260.55" gradientTransform="matrix(1, 0, 0, 1, 0, 0)" xlink:href="#Безымянный_градиент_138"/><linearGradient id="Безымянный_градиент_137" x1="103.66" y1="396.27" x2="152.35" y2="396.27" gradientUnits="userSpaceOnUse"><stop offset="0" stop-color="#94de92"/><stop offset="0.5" stop-color="#4d9981"/><stop offset="1" stop-color="#135965"/></linearGradient><linearGradient id="Безымянный_градиент_137-2" x1="630.67" y1="388.98" x2="738.58" y2="388.98" xlink:href="#Безымянный_градиент_137"/><linearGradient id="Безымянный_градиент_137-3" x1="273.77" y1="383.36" x2="410.82" y2="383.36" xlink:href="#Безымянный_градиент_137"/><linearGradient id="Безымянный_градиент_137-4" x1="376.76" y1="337.92" x2="513.67" y2="337.92" xlink:href="#Безымянный_градиент_137"/><linearGradient id="Безымянный_градиент_92" x1="572.61" y1="393.78" x2="578.72" y2="393.78" gradientUnits="userSpaceOnUse"><stop offset="0" stop-color="#6bbe8a"/><stop offset="1" stop-color="#22797a"/></linearGradient><linearGradient id="Безымянный_градиент_92-2" x1="572.86" y1="398.11" x2="586.97" y2="398.11" xlink:href="#Безымянный_градиент_92"/><linearGradient id="Безымянный_градиент_92-3" x1="552.54" y1="402.65" x2="573.42" y2="402.65" xlink:href="#Безымянный_градиент_92"/><linearGradient id="Безымянный_градиент_92-4" x1="572.73" y1="403.93" x2="593.51" y2="403.93" xlink:href="#Безымянный_градиент_92"/><linearGradient id="Безымянный_градиент_92-5" x1="565.26" y1="397.04" x2="573.88" y2="397.04" xlink:href="#Безымянный_градиент_92"/><linearGradient id="Безымянный_градиент_92-6" x1="573.83" y1="406.81" x2="588.57" y2="406.81" xlink:href="#Безымянный_градиент_92"/><linearGradient id="Безымянный_градиент_92-7" x1="573.83" y1="407.96" x2="582.3" y2="407.96" xlink:href="#Безымянный_градиент_92"/><linearGradient id="Безымянный_градиент_92-8" x1="555.66" y1="404.94" x2="573.77" y2="404.94" xlink:href="#Безымянный_градиент_92"/><linearGradient id="Безымянный_градиент_92-9" x1="563.15" y1="406.38" x2="573.77" y2="406.38" xlink:href="#Безымянный_градиент_92"/><linearGradient id="Безымянный_градиент_92-10" x1="224.61" y1="397.04" x2="229.74" y2="397.04" xlink:href="#Безымянный_градиент_92"/><linearGradient id="Безымянный_градиент_92-11" x1="224.82" y1="400.68" x2="236.68" y2="400.68" xlink:href="#Безымянный_градиент_92"/><linearGradient id="Безымянный_градиент_92-12" x1="207.74" y1="404.5" x2="225.29" y2="404.5" xlink:href="#Безымянный_градиент_92"/><linearGradient id="Безымянный_градиент_92-13" x1="224.71" y1="405.57" x2="242.18" y2="405.57" xlink:href="#Безымянный_градиент_92"/><linearGradient id="Безымянный_градиент_92-14" x1="218.43" y1="399.78" x2="225.68" y2="399.78" xlink:href="#Безымянный_градиент_92"/><linearGradient id="Безымянный_градиент_92-15" x1="225.63" y1="407.99" x2="238.02" y2="407.99" xlink:href="#Безымянный_градиент_92"/><linearGradient id="Безымянный_градиент_92-16" x1="225.63" y1="408.95" x2="232.75" y2="408.95" xlink:href="#Безымянный_градиент_92"/><linearGradient id="Безымянный_градиент_92-17" x1="210.37" y1="406.42" x2="225.59" y2="406.42" xlink:href="#Безымянный_градиент_92"/><linearGradient id="Безымянный_градиент_92-18" x1="216.66" y1="407.63" x2="225.59" y2="407.63" xlink:href="#Безымянный_градиент_92"/><linearGradient id="Безымянный_градиент_92-19" x1="240.95" y1="386.41" x2="314.69" y2="386.41" xlink:href="#Безымянный_градиент_92"/><linearGradient id="Безымянный_градиент_92-20" x1="240.95" y1="398.21" x2="270.49" y2="398.21" xlink:href="#Безымянный_градиент_92"/><linearGradient id="Безымянный_градиент_92-21" x1="255.34" y1="382.59" x2="272.59" y2="382.59" xlink:href="#Безымянный_градиент_92"/><linearGradient id="Безымянный_градиент_92-22" x1="274.14" y1="385.27" x2="281.91" y2="385.27" xlink:href="#Безымянный_градиент_92"/><linearGradient id="Безымянный_градиент_92-23" x1="278.27" y1="388.81" x2="299.88" y2="388.81" xlink:href="#Безымянный_градиент_92"/><linearGradient id="Безымянный_градиент_92-24" x1="286.56" y1="398.06" x2="316.54" y2="398.06" xlink:href="#Безымянный_градиент_92"/><linearGradient id="Безымянный_градиент_92-25" x1="279.48" y1="396.96" x2="302.42" y2="396.96" xlink:href="#Безымянный_градиент_92"/><linearGradient id="Безымянный_градиент_92-26" x1="276.93" y1="390.84" x2="287.04" y2="390.84" xlink:href="#Безымянный_градиент_92"/><linearGradient id="Безымянный_градиент_92-27" x1="272.92" y1="388.57" x2="274.78" y2="388.57" xlink:href="#Безымянный_градиент_92"/><linearGradient id="Безымянный_градиент_92-28" x1="260.54" y1="382.36" x2="267.72" y2="382.36" xlink:href="#Безымянный_градиент_92"/><linearGradient id="Безымянный_градиент_92-29" x1="248.24" y1="400.32" x2="266.26" y2="400.32" xlink:href="#Безымянный_градиент_92"/></defs><g class="cls-1"><g id="Слой_2" data-name="Слой 2"><g id="Объекты"><g id="БОТ_САД" data-name="БОТ САД"><path class="cls-2" d="M621.93,268.29a2.57,2.57,0,0,0-3.63-.3l-31.94,27V251.51a6.72,6.72,0,0,0-13.44,0v83.74l-26-49.16a3.61,3.61,0,1,0-6.38,3.38l32,60.42a3.38,3.38,0,0,0,.42.62v56a6.72,6.72,0,0,0,13.44,0V301.72l35.27-29.79A2.58,2.58,0,0,0,621.93,268.29Z"/><path class="cls-3" d="M572.92,248.71q1.33.54,2.64,1.14h-2.64v46.51A105.42,105.42,0,0,1,580.05,263c1.13-2.87,2.34-5.53,3.57-8a8.73,8.73,0,0,1,2.69,4.36V248.71Z"/><path class="cls-3" d="M545.07,280.31l6.75-2.8,14.31,27a56.86,56.86,0,0,0-14.56-19.41A54.62,54.62,0,0,0,545.07,280.31Z"/><path class="cls-3" d="M604.63,261.59l6.1,1.6L606,267.11a10.63,10.63,0,0,0-.72-4.08A10.76,10.76,0,0,0,604.63,261.59Z"/><ellipse class="cls-4" cx="510.56" cy="244.79" rx="79.61" ry="59.59"/><path class="cls-5" d="M466.67,201.46c-14,8.44-22.05,20.25-21,21.5.89,1,7.89-5.7,22.94-13.61"/><path class="cls-3" d="M512.62,203.19c-2-2.74-10.33-17.4-18.87-16.66-1.93.17-7.09,1.4-7.78,1.57a83.13,83.13,0,0,0-8.94,2.57c-3.5,1.23-6.24,2.47-8.11,3.32-.84.38-1.25.57-1.33.63-4,2.83,2.55,25.11,13.87,38.31,16.57,19.31,44.1,19.93,53.06,19.75A43.36,43.36,0,0,0,542,268c9.56,12.39,25.4,18.42,29.55,15.12.34-.27,1.14-1,1.72-1.59,0,0,2.77-2.64,5-5.28a50.91,50.91,0,0,0,5.29-7.74c7.2-12.3,8.88-12.09,9.16-14.46C594.5,239.56,534.09,232.75,512.62,203.19Z"/><ellipse class="cls-6" cx="633.97" cy="224.12" rx="79.61" ry="59.59"/><path class="cls-3" d="M677.06,201.73c-4.11,19.92-23.26,30.89-35.53,37.92,0,0-28.23,16.16-63.17,13.42l-.43,0c-2-.18-7.9-.88-12.27-3.6a21.69,21.69,0,0,1-6.62-6.5h0l-.25-.45c-4.95-8.8-46.5-27.95-50.47-43.19C503,178.72,557.5,132,594.61,142.22c13.27,3.66,42.57,19.65,55.36,22.84a111.85,111.85,0,0,1,12.56,3.9,58,58,0,0,1,8.27,3.51C678.35,177.15,679,192.3,677.06,201.73Z"/><ellipse class="cls-7" cx="582.87" cy="189.04" rx="89.2" ry="59.59"/><path class="cls-8" d="M572.91,400.53V354.71a27.4,27.4,0,0,1,6,11,38.34,38.34,0,0,1,1.53,11.94,44.06,44.06,0,0,1-1.58,10.82A33.93,33.93,0,0,1,572.91,400.53Z"/><path class="cls-9" d="M578.6,141.49c-.11-1.81-14.77-4.6-29.94-.82-21,5.23-35.32,21.14-34.21,22.81.88,1.33,11.14-6.84,32.59-13.85C566.29,143.34,578.7,143.16,578.6,141.49Z"/><path class="cls-10" d="M529.51,90.43c5-4.4,8-10.13,8-16.4,0-13.87-14.81-25.11-33.08-25.11-11.73,0-22,4.64-27.9,11.64-1-13.17-15.41-23.61-33-23.61A40.56,40.56,0,0,0,425,41.27,95.4,95.4,0,0,0,396.14,37c-34,0-61.57,16.6-61.57,37.08a24.46,24.46,0,0,0,4,13.13A27.75,27.75,0,0,0,333,95.33a64.4,64.4,0,0,0-25.76-5.12c-24.94,0-45.16,12.8-45.16,28.58s20.22,28.58,45.16,28.58c18.25,0,34-6.85,41.08-16.71a34,34,0,0,0,13.75,2.86,32.7,32.7,0,0,0,23.74-9.83,52.76,52.76,0,0,0,15.37,2.24c18.26,0,33.59-9,37.9-21.06a33.64,33.64,0,0,0,46.46,1.4A15.39,15.39,0,0,0,497,111.11a16.3,16.3,0,0,0,4.11-.53,9.16,9.16,0,0,0,5.38,3.85c3.44,5.89,11,10,19.79,10,12,0,21.78-7.65,21.78-17.1C548,98.75,540,91.67,529.51,90.43Z"/><ellipse class="cls-11" cx="307.38" cy="104.87" rx="45.54" ry="31.27" transform="translate(-15.61 70.89) rotate(-12.83)"/><path class="cls-11" d="M418.18,62.82c-2,1.27-7.22,4.56-7.79,9.58A8.45,8.45,0,0,0,412,78.58a10.29,10.29,0,0,0,5.43,3.57c1.38.34,2.53.27,2.9,1s-.33,1.49-.91,2.44a17.37,17.37,0,0,0-1.81,5.52c-.62,3.42,1.34,6.45,2,7.47,3.39,5.24,9.6,6.49,10.6,6.68,4.55.84,4.88-1,8.89-.36,6.46,1.09,7.14,6.23,14.86,8.82a25,25,0,0,0,7.61,1.18c11.52.44,20-5.15,21.07-6.2.82-.79,2-1.31,2.66-2.22a.39.39,0,0,1,.26-.18c.33,0,.59.49,1,1a7.56,7.56,0,0,0,1.4,1.12,17.57,17.57,0,0,0,4.29,2.08,18,18,0,0,0,5.11.69,18.15,18.15,0,0,0,2-.19l.53-.09a4.8,4.8,0,0,0,.71-.13c.25-.08.32-.17.44-.13s.14.14.24.32a4.39,4.39,0,0,0,.34.5,7.6,7.6,0,0,0,1.81,1.64,10.88,10.88,0,0,0,1.41.8c.45.21.85.35,1,.4l.34.11a.79.79,0,0,1,.26.08.44.44,0,0,1,.2.33,6.39,6.39,0,0,0,.45.69c.46.66.89,1.17,1,1.27s.4.47.86.94a24.37,24.37,0,0,0,2,1.77,26.28,26.28,0,0,0,6.7,3.58A27,27,0,0,0,531,124.1a26.7,26.7,0,0,0,7.21-2.5,10.1,10.1,0,0,0,1.19-.66c3.54-2.82-12-42.41-49.69-59C457,47.42,425.41,58.25,418.18,62.82Z"/><path class="cls-12" d="M451.7,232.8l8.83-142.52c.42-6.67-2.43-12.64-6.36-13.34s-7.44,4.13-7.85,10.8l-3.44,55.5c-8.78,4.25-28,17.42-39.16,25.19-3.66-4.76-8.08-10.2-11.51-14.36l9.08-26.26a4.43,4.43,0,0,0,.26-1c0-.12,0-.22,0-.34a5.12,5.12,0,0,0,0-.56.75.75,0,0,0,0-.15,8.31,8.31,0,0,0-.28-2.23,7.2,7.2,0,0,0-.37-1l-8.45-14.83c-.37-.64-.83-.89-1-.55l-.9,1.48c1.68,3.55,5.15,10.81,7.53,15.45-3.23,7.28-8.91,20.21-11.68,27.45l-21.16,25.06a10.93,10.93,0,0,0-.85,1.93c-1.79-4.52-7.93-20.06-12.83-31.93-1-2.36-3.66-8.82-6.88-16.5-.93-2.22-1.69-4-2.21-5.28a2.62,2.62,0,0,0-3.91.51c-1.43,2.06-1.59,7,.46,10.54L356.94,187a21.69,21.69,0,0,0,1.61,2.95c3.59,5.39,8.47,5.45,9.5,2.07,4.1-4.62,14.46-20.42,20.93-30.46l13,20.81a4.37,4.37,0,0,0,2,2.17c1.92.93,4.27-.36,5.63-2.19l31.68-14-4.73,76.35a20.25,20.25,0,0,0,.27,4.78,25.07,25.07,0,0,0,.69,4.86l34.86,140.51a37.62,37.62,0,0,0,3.36,6.84c8.9,13.86,25.16,12.49,27.53,1.85a13.26,13.26,0,0,0,.29-2.44C503.73,387.74,466.79,277.4,451.7,232.8Z"/><path class="cls-13" d="M470.79,291.14c-7.31-22.2-14.3-43-19.09-57.15l8.83-142.51c.42-6.67-2.43-12.65-6.36-13.35s-7.44,4.14-7.85,10.8l-3.44,55.5c-8.78,4.25-28,17.42-39.16,25.19-3.66-4.76-8.08-10.19-11.51-14.35L401.29,129a4.43,4.43,0,0,0,.26-1c0-.11,0-.22,0-.33a5.17,5.17,0,0,0,0-.57.75.75,0,0,0,0-.15,7.37,7.37,0,0,0-.65-3.24l-8.45-14.82c-.37-.65-.83-.9-1-.56l-.9,1.49c1.68,3.55,5.15,10.8,7.53,15.45-3.23,7.28-8.91,20.21-11.68,27.45l-21.16,25.06a10.6,10.6,0,0,0-.85,1.93c-1.79-4.52-7.93-20.06-12.83-31.93-1-2.36-3.66-8.82-6.88-16.51-.93-2.22-1.69-4-2.21-5.27a2.62,2.62,0,0,0-3.91.51c-1.43,2.06-1.59,7,.46,10.53l17.9,51.2a21.1,21.1,0,0,0,1.61,2.94c3.59,5.39,8.47,5.46,9.5,2.08,4.1-4.62,14.46-20.43,20.93-30.47l13,20.81a3.58,3.58,0,0,0,1.13,1.59,3.62,3.62,0,0,0,.85.59c1.92.93,4.27-.36,5.63-2.19l31.68-14-4.73,76.36a20.28,20.28,0,0,0,.27,4.78,25.18,25.18,0,0,0,.69,4.86l13.89,56"/><path class="cls-3" d="M398.81,161c-2.3-2.88-4.62-5.71-6.6-8.12l9.08-26.26a4.43,4.43,0,0,0,.26-1c0-.11,0-.22,0-.33a5.3,5.3,0,0,0,0-.57.75.75,0,0,0,0-.15,8.31,8.31,0,0,0-.28-2.23,7.73,7.73,0,0,0-.37-1l-8.45-14.82c-.37-.65-.83-.9-1-.56l-.9,1.49c1.68,3.55,5.15,10.8,7.53,15.45-3.23,7.28-8.91,20.2-11.68,27.45l-21.16,25.06a10.6,10.6,0,0,0-.85,1.93c-1.79-4.53-7.93-20.06-12.83-31.93-1-2.37-3.66-8.83-6.88-16.51-.93-2.22-1.69-4.05-2.21-5.28a2.62,2.62,0,0,0-3.91.51c-1.43,2.06-1.59,7,.46,10.54l17.9,51.19a21.69,21.69,0,0,0,1.61,3c3.59,5.39,8.47,5.46,9.5,2.07,4.1-4.61,14.46-20.42,20.93-30.46l13,20.81a4.71,4.71,0,0,0,.49.92"/><path class="cls-11" d="M454.88,180.24l5.65-91.16c.42-6.66-2.43-12.64-6.36-13.34s-7.44,4.13-7.85,10.8l-1.82,29.38"/><path class="cls-14" d="M461.5,352.1l10.91,44a37.62,37.62,0,0,0,3.36,6.84c8.9,13.86,25.16,12.49,27.53,1.85a13.34,13.34,0,0,0,.29-2.45c.09-8.35-14.24-54.38-28.69-98.67"/><path class="cls-15" d="M561.31,93.65c0-3.17-2.08-5.94-5.21-7.51a6.9,6.9,0,0,0,.14-1.36c0-4.25-3.72-7.79-8.7-8.67a27.18,27.18,0,0,0-3.32-2.47,16.89,16.89,0,0,0-1.17-6,19.4,19.4,0,0,0-10.34-10.5,22,22,0,0,0-1.48-9.85c-5-12.8-20.64-19.53-34.91-15a27.28,27.28,0,0,0-12.52,8.09l-.05,0a7.34,7.34,0,0,0,.05-.81c0-4.9-5-8.88-11.11-8.88a13.33,13.33,0,0,0-5.36,1.1,20.28,20.28,0,0,0-.74-2.33c-4.63-11.82-19.06-18-32.24-13.88a25.86,25.86,0,0,0-8.64,4.62c-8.82-16.87-33-24.67-55.85-17.47C346.22,10.15,332.7,30.85,339,49.43a20.66,20.66,0,0,0-19.28,6.91A23.36,23.36,0,0,0,314,54.4c-12-2.43-23.9,4.32-26.6,15.07a17.83,17.83,0,0,0,0,8.62,14.4,14.4,0,0,0-2-.57c-6.89-1.4-13.71,2.37-15.48,8.44a24.16,24.16,0,0,0-14.43,16.36,21.77,21.77,0,0,0,1.77,15.44,15.26,15.26,0,0,0,.34,4.55c.37,1.61,1.52,6.6,6.1,8.88a10.79,10.79,0,0,0,3,1,30.84,30.84,0,0,0,13.4,6.25c16.06,3.25,32-5.79,35.63-20.18a24,24,0,0,0-1.07-15,21.83,21.83,0,0,0,18-6.94,30.24,30.24,0,0,0,11.78,5.08c13.43,2.71,26.56-3.33,30.66-13.67,8.71-2,15.71-7.73,17.81-15.51.79-.19,1.59-.4,2.38-.63,11.87,2.28,23.44-2.26,28.71-10.54a31.65,31.65,0,0,0,22.84,1c1.45,9,9.62,17,21,19.26a31,31,0,0,0,19.26-2.16c3.69,6.32,12.49,9.48,21.41,7.73l.12.12a13.2,13.2,0,0,0-.86,11.2c1.64,4.19,5.35,7.26,10,8.84a12.45,12.45,0,0,0,.83,4c3.23,8.25,14.48,12.22,25.12,8.86,8.37-2.63,13.85-9,14.26-15.61a25.47,25.47,0,0,0,.42-4.76A8,8,0,0,0,561.31,93.65Z"/><ellipse class="cls-16" cx="319.23" cy="92.16" rx="5.56" ry="4.99"/><ellipse class="cls-17" cx="405.68" cy="57.44" rx="9.14" ry="7.43"/><ellipse class="cls-18" cx="469.94" cy="64.42" rx="9.18" ry="11.03" transform="translate(317.93 513.73) rotate(-79.11)"/><path class="cls-14" d="M297.58,110.37c8.14-16.24,5.5-33.12-5.89-37.71-.13,0-1.17-.4-2.4-.76,0,0-2.17-.62-2.27-.42a.38.38,0,0,1,0,.08,1.05,1.05,0,0,1,0,.31,8.69,8.69,0,0,0-.1,1,14.62,14.62,0,0,0,0,1.8,12.43,12.43,0,0,0,.16,1.44c.23,1.26.58,1.76.34,2s-1.07-.2-1.34-.33c-2.59-1.27-6.7-.37-9,.54a12.65,12.65,0,0,0-4.54,3.11,7.23,7.23,0,0,0-1.88,2.77c-.26.81-.2,1.32-.75,1.78s-.77.32-1.93.89c0,0-.4.19-1.11.6a28,28,0,0,0-5,3.75,24.05,24.05,0,0,0-3.8,4.81,22.1,22.1,0,0,0-3.21,12.61,33.84,33.84,0,0,0,.73,5,5.52,5.52,0,0,0,.65,1.93l.52.89a2.75,2.75,0,0,1,.45,1.27v.08c.17,7.13,3.2,10.76,3.2,10.76a13.72,13.72,0,0,0,6.77,4C276.66,134.88,291.06,123.39,297.58,110.37Z"/><path class="cls-14" d="M420.17,12.81a8.66,8.66,0,0,0-1.81-2.11C409.75,2.45,397.24.83,393.4.38a57.37,57.37,0,0,0-31,5.12c-3.12,1.52-12.48,6.19-18.85,15.9a34.68,34.68,0,0,0-5.92,17c-.12,2.15-.18,3.22.14,4.09,3.15,8.35,30.61,12.12,51.68,3.83C408.2,39,424.48,21.05,420.17,12.81Z"/><path class="cls-19" d="M556.1,86.14s0,0,.1,0l.14.07c.34.18.65.38.65.38a7.18,7.18,0,0,1,.82.56,9,9,0,0,1,1,.81,8.47,8.47,0,0,1,1.31,1.56,7.78,7.78,0,0,1,1.07,2.55A7.25,7.25,0,0,1,561.3,94a7.35,7.35,0,0,1-.5,2.27,8.54,8.54,0,0,1-1.15,2,4.68,4.68,0,0,1-.71.81c-.24.19-.41.26-.5.48s0,.31,0,.65a6.9,6.9,0,0,1,0,.79c0,.92-.26,2.45-.37,3.25-.22,1.58-.15,1.35-.24,1.8a14.05,14.05,0,0,1-2.53,5.89,9.11,9.11,0,0,1-1,1.18c-3.06,2.64-23-3.4-30.25-16.7-9.59-17.5,7-39.61,8.69-39.29a11.08,11.08,0,0,1,1.42.68c.13.07.59.32,1.27.76a23.28,23.28,0,0,1,2,1.4,19.47,19.47,0,0,1,2,1.92,18.66,18.66,0,0,1,2.43,3.26A19.66,19.66,0,0,1,544,71.32c0,.07.09.64.14,1.22,0,.28,0,.57,0,.66s0,.24,0,.26,0,.13,0,.18,0,0,.18.11l.08,0,.24.17c.62.4,1.27.9,1.27.9s.47.34,1,.74c0,0,.19.15.32.27a.71.71,0,0,1,.14.12.36.36,0,0,0,.14.11h.09l.15,0,.1,0,.2,0a4.82,4.82,0,0,1,.61.15c1.07.33,1.6.5,1.95.64A10.1,10.1,0,0,1,554,79.47a8.38,8.38,0,0,1,1.14,1.5,8.08,8.08,0,0,1,1,2.94,8.46,8.46,0,0,1,0,1.41c0,.08,0,.3-.06.47a1.2,1.2,0,0,1,0,.22S556.08,86.1,556.1,86.14Z"/><path class="cls-19" d="M477.4,31.49A10.42,10.42,0,0,1,481.47,34a8,8,0,0,1,2.25,4.43,5.07,5.07,0,0,1-.2,2.74c-1.27,2.78-7.53,4.2-12.16,2.34-4.4-1.78-7.6-6.63-6.13-9.72a5.08,5.08,0,0,1,2.1-2.06,7.5,7.5,0,0,1,1.33-.57,12.34,12.34,0,0,1,4-.53A13.67,13.67,0,0,1,477.4,31.49Z"/><rect class="cls-20" x="513.01" y="331.72" width="13.44" height="82.55" rx="5.62"/><path class="cls-21" d="M513,370.47a43.47,43.47,0,0,1,4.43-17.09,26.39,26.39,0,0,1,9-10.42H513Z"/><path class="cls-22" d="M513,403.4V357.69a27.47,27.47,0,0,1,6,10.94,38.41,38.41,0,0,1,1.52,11.91,43.92,43.92,0,0,1-1.58,10.8A33.81,33.81,0,0,1,513,403.4Z"/><ellipse class="cls-23" cx="519.73" cy="272.81" rx="93.33" ry="70.15"/><path class="cls-13" d="M612.38,281.29a75.07,75.07,0,0,1-16.48,32.06c-11.15,12.67-23.53,17.77-32.66,21.53-26.16,10.78-49.34,8.33-57.77,7.33A103.9,103.9,0,0,1,471.76,333a101.65,101.65,0,0,1-30.52-22.18,58.49,58.49,0,0,1-14.84-37.7,640.72,640.72,0,0,0,94-9.35,639.58,639.58,0,0,0,84-20.62,55,55,0,0,1,8,38.14Z"/><path class="cls-13" d="M612.38,281.29c.09.38-.31,1.78-1.1,4.6a107.77,107.77,0,0,1-3.85,11.3c-3.32,7.63-9.13,13.69-11.53,16.16-12.88,13.24-29.59,20.27-32.66,21.53-26.16,10.78-49.34,8.33-57.77,7.33A114.09,114.09,0,0,1,471.76,333c-11.3-5.18-20.58-11.86-24.67-16.1l-5.85-6.08h0a427.53,427.53,0,0,1,82-25.91C569.09,275.41,610.91,274.85,612.38,281.29Z"/><rect class="cls-24" x="283.99" y="337.92" width="12.41" height="76.2" rx="5.19"/><path class="cls-25" d="M284,373.69a40.21,40.21,0,0,1,4.09-15.77,24.17,24.17,0,0,1,8.32-9.62H284Z"/><path class="cls-26" d="M284,404.08V361.89a25.19,25.19,0,0,1,5.56,10.1A35.25,35.25,0,0,1,291,383a41.06,41.06,0,0,1-1.46,10A31,31,0,0,1,284,404.08Z"/><ellipse class="cls-27" cx="290.19" cy="283.54" rx="86.15" ry="64.76"/><path class="cls-13" d="M375.72,291.36A69.34,69.34,0,0,1,360.51,321c-10.29,11.69-21.72,16.4-30.15,19.88-24.15,10-45.55,7.68-53.33,6.76a96,96,0,0,1-31.11-8.5,93.69,93.69,0,0,1-28.18-20.48,53.88,53.88,0,0,1-13.69-34.8,589.31,589.31,0,0,0,86.73-8.63,588.52,588.52,0,0,0,77.51-19,50.81,50.81,0,0,1,7.43,35.2Z"/><path class="cls-13" d="M375.72,291.36c.08.35-.29,1.65-1,4.25a99.29,99.29,0,0,1-3.55,10.44c-3.07,7-8.43,12.63-10.64,14.91-11.89,12.23-27.32,18.71-30.15,19.88-24.15,10-45.55,7.68-53.33,6.76a105.29,105.29,0,0,1-31.11-8.5c-10.44-4.78-19-11-22.77-14.86,0,0-.2-.2-5.41-5.62h0a395,395,0,0,1,75.65-23.91C335.76,285.93,374.36,285.42,375.72,291.36Z"/><path class="cls-28" d="M303.87,155.25c3.83-3.37,6.15-7.75,6.15-12.56,0-10.62-11.34-19.24-25.34-19.24-9,0-16.88,3.56-21.38,8.92-.78-10.09-11.8-18.09-25.28-18.09a31.13,31.13,0,0,0-14.22,3.32,73,73,0,0,0-22.11-3.32c-26.05,0-47.16,12.72-47.16,28.41a18.7,18.7,0,0,0,3.05,10.06,20.9,20.9,0,0,0-4.23,6.26,49.31,49.31,0,0,0-19.74-3.92c-19.11,0-34.6,9.8-34.6,21.9s15.49,21.89,34.6,21.89c14,0,26-5.25,31.47-12.81a26,26,0,0,0,10.54,2.2,25.1,25.1,0,0,0,18.19-7.53,40.47,40.47,0,0,0,11.77,1.72c14,0,25.73-6.86,29-16.14a25.79,25.79,0,0,0,35.6,1.07,11.74,11.74,0,0,0,8.72,3.71,12.53,12.53,0,0,0,3.15-.4,7,7,0,0,0,4.13,2.94c2.63,4.52,8.42,7.66,15.16,7.66,9.21,0,16.68-5.87,16.68-13.1C318.05,161.63,311.89,156.2,303.87,155.25Z"/><ellipse class="cls-11" cx="133.69" cy="177.09" rx="34.89" ry="23.96" transform="translate(-35.99 34.11) rotate(-12.83)"/><path class="cls-11" d="M218.58,134.11c-1.54,1-5.53,3.49-6,7.33a6.49,6.49,0,0,0,1.25,4.73,7.82,7.82,0,0,0,4.16,2.74c1.06.26,1.94.21,2.22.75s-.25,1.14-.69,1.86a13.08,13.08,0,0,0-1.39,4.23,8.16,8.16,0,0,0,1.53,5.73c2.59,4,7.35,5,8.12,5.11,3.48.65,3.73-.79,6.8-.27,4.95.84,5.47,4.77,11.39,6.76a19.43,19.43,0,0,0,5.83.9c8.83.34,15.32-3.95,16.14-4.75a17.85,17.85,0,0,0,2-1.7.3.3,0,0,1,.2-.14c.25,0,.45.38.75.74A5,5,0,0,0,272,169a13.2,13.2,0,0,0,3.28,1.6,13.86,13.86,0,0,0,3.92.53,15.21,15.21,0,0,0,1.57-.15l.4-.07a3.8,3.8,0,0,0,.54-.09c.2-.07.25-.13.34-.1s.11.1.18.24.18.26.27.39a6.12,6.12,0,0,0,1.38,1.25,9.3,9.3,0,0,0,1.08.61c.35.16.65.27.76.31l.26.08a.68.68,0,0,1,.2.06.4.4,0,0,1,.15.25,3.55,3.55,0,0,0,.35.54,11.66,11.66,0,0,0,.73,1c.08.09.31.36.66.73a18.35,18.35,0,0,0,1.51,1.35,20.14,20.14,0,0,0,5.13,2.75,19.74,19.74,0,0,0,15.81-1.08,8.19,8.19,0,0,0,.91-.51c2.71-2.16-9.22-32.49-38.07-45.24C248.28,122.3,224.12,130.61,218.58,134.11Z"/><path class="cls-29" d="M244.26,276,251,166.83c.31-5.11-1.87-9.69-4.88-10.23s-5.7,3.17-6,8.28L237.5,207.4c-6.72,3.25-21.47,13.34-30,19.29-2.8-3.64-6.19-7.8-8.82-11l7-20.12a4,4,0,0,0,.2-.78,2.28,2.28,0,0,0,0-.26c0-.14,0-.28,0-.43V194a6.48,6.48,0,0,0-.22-1.71,5.4,5.4,0,0,0-.28-.77l-6.48-11.36c-.28-.49-.64-.68-.79-.42l-.7,1.13c1.3,2.72,4,8.28,5.77,11.84-2.47,5.58-6.82,15.48-8.95,21L178,232.93a9.18,9.18,0,0,0-.65,1.48c-1.37-3.47-6.07-15.37-9.82-24.47-.75-1.81-2.81-6.75-5.27-12.64-.71-1.7-1.3-3.1-1.7-4a2,2,0,0,0-3,.39c-1.1,1.58-1.22,5.38.35,8.07l13.71,39.22a17.05,17.05,0,0,0,1.23,2.26c2.76,4.13,6.5,4.18,7.28,1.59,3.15-3.54,11.08-15.65,16-23.34l10,15.94a2.6,2.6,0,0,0,.86,1.21,2.85,2.85,0,0,0,.65.46c1.48.71,3.28-.28,4.32-1.68l24.27-10.72-3.62,58.5a15.17,15.17,0,0,0,.2,3.66,18.73,18.73,0,0,0,.53,3.73l26.71,107.64a28.11,28.11,0,0,0,2.57,5.24c6.82,10.62,19.28,9.57,21.09,1.42A9.21,9.21,0,0,0,284,405C284.12,394.71,255.82,310.18,244.26,276Z"/><path class="cls-13" d="M258.89,319.79c-5.6-17-11-32.93-14.63-43.78L251,166.83c.31-5.11-1.87-9.69-4.88-10.23s-5.7,3.17-6,8.28L237.5,207.4c-6.72,3.25-21.47,13.34-30,19.29-2.8-3.64-6.19-7.8-8.82-11l7-20.12a4,4,0,0,0,.2-.78,2.28,2.28,0,0,0,0-.26c0-.14,0-.28,0-.43V194a6.48,6.48,0,0,0-.22-1.71,5.4,5.4,0,0,0-.28-.77l-6.48-11.36c-.28-.49-.64-.68-.79-.42l-.7,1.13c1.3,2.72,4,8.28,5.77,11.84-2.47,5.58-6.82,15.48-8.95,21L178,232.93a9.18,9.18,0,0,0-.65,1.48c-1.37-3.47-6.07-15.37-9.82-24.47-.75-1.81-2.81-6.75-5.27-12.64-.71-1.7-1.3-3.1-1.7-4a2,2,0,0,0-3,.39c-1.1,1.58-1.22,5.38.35,8.07l13.71,39.22a17.05,17.05,0,0,0,1.23,2.26c2.76,4.13,6.5,4.18,7.28,1.59,3.15-3.54,11.08-15.65,16-23.34l10,15.94a2.6,2.6,0,0,0,.86,1.21,2.85,2.85,0,0,0,.65.46c1.48.71,3.28-.28,4.32-1.68l24.27-10.72-3.62,58.5a15.17,15.17,0,0,0,.2,3.66,18.73,18.73,0,0,0,.53,3.73l10.64,42.88"/><path class="cls-3" d="M203.74,221.91c-1.77-2.2-3.54-4.37-5.06-6.21l7-20.12a4,4,0,0,0,.2-.78,2.28,2.28,0,0,0,0-.26c0-.14,0-.28,0-.43V194a6.48,6.48,0,0,0-.22-1.71,5.4,5.4,0,0,0-.28-.77l-6.48-11.36c-.28-.49-.64-.68-.79-.42l-.7,1.13c1.3,2.72,4,8.28,5.77,11.84-2.47,5.58-6.82,15.48-8.95,21L178,232.93a9.18,9.18,0,0,0-.65,1.48c-1.37-3.47-6.07-15.37-9.82-24.47-.75-1.81-2.81-6.75-5.27-12.64-.71-1.7-1.3-3.1-1.7-4a2,2,0,0,0-3,.39c-1.1,1.58-1.22,5.38.35,8.07l13.71,39.22a17.05,17.05,0,0,0,1.23,2.26c2.76,4.13,6.5,4.18,7.28,1.59,3.15-3.54,11.08-15.65,16-23.34l10,15.94a2.9,2.9,0,0,0,.37.7"/><path class="cls-11" d="M246.7,236.66,251,166.83c.31-5.11-1.87-9.69-4.88-10.23s-5.7,3.17-6,8.28l-1.4,22.51"/><path class="cls-14" d="M251.77,366.5l8.36,33.69a28.11,28.11,0,0,0,2.57,5.24c6.82,10.62,19.28,9.57,21.09,1.42A9.21,9.21,0,0,0,284,405c.07-6.4-10.9-41.67-22-75.6"/><path class="cls-30" d="M328.24,168.49a6.61,6.61,0,0,0-4-5.75,5.27,5.27,0,0,0,.11-1.05c0-3.25-2.86-6-6.67-6.63a21.24,21.24,0,0,0-2.54-1.9,13,13,0,0,0-.89-4.57,14.92,14.92,0,0,0-7.93-8.05,16.86,16.86,0,0,0-1.13-7.54c-3.84-9.81-15.82-15-26.75-11.52a20.85,20.85,0,0,0-9.59,6.2l0,0c0-.2,0-.41,0-.62,0-3.75-3.81-6.8-8.51-6.8a10.08,10.08,0,0,0-4.1.85,16.88,16.88,0,0,0-.57-1.79c-3.55-9.06-14.61-13.82-24.7-10.64a20.07,20.07,0,0,0-6.63,3.54c-6.75-12.92-25.25-18.9-42.78-13.38-18.11,5.7-28.47,21.56-23.65,35.79a15.82,15.82,0,0,0-14.77,5.3,18,18,0,0,0-4.37-1.49c-9.18-1.86-18.3,3.31-20.38,11.55a13.77,13.77,0,0,0,0,6.6,10.56,10.56,0,0,0-1.54-.44c-5.27-1.07-10.5,1.82-11.85,6.47a18.47,18.47,0,0,0-11,12.54A16.63,16.63,0,0,0,95.29,187a11.75,11.75,0,0,0,.26,3.49c.28,1.23,1.16,5.05,4.67,6.8a8.21,8.21,0,0,0,2.32.74,23.64,23.64,0,0,0,10.27,4.79c12.3,2.49,24.52-4.43,27.3-15.46a18.43,18.43,0,0,0-.82-11.47,16.73,16.73,0,0,0,13.8-5.31,23.2,23.2,0,0,0,9,3.89c10.29,2.08,20.34-2.55,23.49-10.47,6.67-1.55,12-5.93,13.64-11.89.61-.14,1.22-.31,1.83-.48,9.09,1.75,18-1.73,22-8.08a23.29,23.29,0,0,0,4.91,1.57,24,24,0,0,0,12.59-.77c1.11,6.91,7.36,13,16.1,14.75a23.73,23.73,0,0,0,14.76-1.66c2.82,4.85,9.56,7.27,16.4,5.93l.1.09a10.07,10.07,0,0,0-.67,8.58,12.13,12.13,0,0,0,7.65,6.78,9.65,9.65,0,0,0,.65,3.09c2.47,6.32,11.09,9.36,19.24,6.79,6.41-2,10.61-6.9,10.92-12a19.75,19.75,0,0,0,.32-3.65A6.09,6.09,0,0,0,328.24,168.49Z"/><ellipse class="cls-31" cx="142.77" cy="167.35" rx="4.26" ry="3.82"/><ellipse class="cls-32" cx="209" cy="140.75" rx="7" ry="5.69"/><ellipse class="cls-33" cx="258.23" cy="146.1" rx="7.04" ry="8.45" transform="translate(65.99 372.09) rotate(-79.11)"/><path class="cls-14" d="M126.19,181.3c6.23-12.44,4.21-25.37-4.52-28.89-.09,0-.89-.3-1.84-.58,0,0-1.66-.48-1.73-.32s0,0,0,.06a.71.71,0,0,1,0,.23,5.71,5.71,0,0,0-.08.79,10.13,10.13,0,0,0,0,1.39,9,9,0,0,0,.12,1.1c.17,1,.44,1.34.26,1.49s-.82-.15-1-.25c-2-1-5.14-.29-6.88.41a9.69,9.69,0,0,0-3.48,2.39,5.69,5.69,0,0,0-1.44,2.11c-.2.62-.15,1-.57,1.37s-.59.25-1.48.68c0,0-.31.15-.85.46a21.69,21.69,0,0,0-3.8,2.88,18.45,18.45,0,0,0-2.92,3.68,17.4,17.4,0,0,0-1.87,4.34,17.05,17.05,0,0,0-.58,5.32,25,25,0,0,0,.56,3.87,4.19,4.19,0,0,0,.49,1.47L95,186a2.15,2.15,0,0,1,.34,1V187c.13,5.47,2.45,8.25,2.45,8.25a10.49,10.49,0,0,0,5.19,3C110.16,200.08,121.19,191.27,126.19,181.3Z"/><path class="cls-14" d="M220.1,106.56a6.49,6.49,0,0,0-1.39-1.62c-6.59-6.32-16.17-7.56-19.12-7.9A43.93,43.93,0,0,0,175.84,101a35.77,35.77,0,0,0-14.45,12.18,26.64,26.64,0,0,0-4.53,13.06,8.29,8.29,0,0,0,.11,3.12c2.41,6.41,23.45,9.29,39.59,3C210.93,126.62,223.4,112.87,220.1,106.56Z"/><path class="cls-19" d="M324.24,162.74s0,0,.08,0l.11.05.5.29a5.47,5.47,0,0,1,.62.43,6.75,6.75,0,0,1,.73.62,6.59,6.59,0,0,1,1,1.2,5.68,5.68,0,0,1,.82,1.95,5.36,5.36,0,0,1,.11,1.47,5.29,5.29,0,0,1-.38,1.74,6.78,6.78,0,0,1-.88,1.53,3.58,3.58,0,0,1-.55.63c-.17.14-.31.19-.38.36s0,.24,0,.5c0,.08,0,.26,0,.61,0,.7-.2,1.87-.28,2.48-.17,1.22-.12,1-.18,1.38a10.83,10.83,0,0,1-1.94,4.51,7.48,7.48,0,0,1-.76.91c-2.35,2-17.59-2.6-23.17-12.79-7.35-13.41,5.36-30.35,6.65-30.11a9.17,9.17,0,0,1,1.09.53c.1.05.45.24,1,.58a15.1,15.1,0,0,1,3.09,2.54,14.46,14.46,0,0,1,1.86,2.5,15,15,0,0,1,1.66,4.69c0,.06.07.49.11.94,0,.22,0,.44,0,.5v.2c0,.08,0,.11,0,.14s0,0,.14.09l.06,0,.19.12c.47.31,1,.69,1,.69l.73.57.24.21.11.09s.05.07.1.09h.07l.11,0,.08,0,.16,0a3.11,3.11,0,0,1,.46.11c.82.26,1.23.39,1.5.5a7.72,7.72,0,0,1,2.6,1.88,6.12,6.12,0,0,1,1.65,3.4,5.76,5.76,0,0,1,0,1.08,3.52,3.52,0,0,1,0,.36c0,.1,0,.16,0,.17S324.22,162.71,324.24,162.74Z"/><path class="cls-19" d="M264,120.87a8.12,8.12,0,0,1,3.12,1.95,6.16,6.16,0,0,1,1.72,3.4,3.83,3.83,0,0,1-.15,2.09c-1,2.14-5.77,3.23-9.32,1.8-3.37-1.36-5.82-5.08-4.7-7.44a3.86,3.86,0,0,1,1.62-1.58,4.69,4.69,0,0,1,1-.44,9.25,9.25,0,0,1,3.09-.41A10.47,10.47,0,0,1,264,120.87Z"/><path class="cls-34" d="M745.86,375.5a1.1,1.1,0,0,0-1.53.15l-6.5,7.91V373a4.06,4.06,0,1,0-8.11,0v37.1a4.06,4.06,0,1,0,8.11,0V387L746,377A1.09,1.09,0,0,0,745.86,375.5Z"/><path class="cls-35" d="M729.72,408.11a26.35,26.35,0,0,1,2.67-10.31,16,16,0,0,1,5.44-6.29h-8.11Z"/><path class="cls-36" d="M723.79,244.93a20.06,20.06,0,0,0-6.88,7.86c-3.28,7-.18,12.62.24,19.66.94,15.62-12.57,17.34-14,33.67-1.31,14.93,9.46,17.23,7.62,32.93-1.33,11.3-7.55,14.05-7.26,24.86.22,8.5,4.28,15.35,7.75,19.86a33.65,33.65,0,0,0,19.9,8.6,34,34,0,0,0,23.1-7.12,25.6,25.6,0,0,0,9.09-11.8c.7-1.95,2.06-6.56.25-16-2.93-15.26-9.18-17.18-9.83-27.28s5.46-9.5,6.14-20.64C761,292.39,746.66,286.81,749.1,270c.47-3.23,1.57-7,.49-12.28-.53-2.64-1.84-9.12-7.37-12.78C734.25,239.65,724.24,244.69,723.79,244.93Z"/><path class="cls-37" d="M729.71,410.1V394a9.48,9.48,0,0,1,2.89,3.86,10.19,10.19,0,0,1,.74,4.2,11.74,11.74,0,0,1-.76,3.81A11.26,11.26,0,0,1,729.71,410.1Z"/><path class="cls-38" d="M717.1,294.09c-1.18-.38-7.44,3.09-9.67,8.18-3.08,7,2.65,14.64,4.06,14.71,1.11.06-1-4.66,1.15-12.23C714.52,298,718.2,294.44,717.1,294.09Z"/><path class="cls-39" d="M718.08,349.15c-1.36-.32-8.05,4.54-10.07,10.9-2.79,8.79,4.35,17.29,5.92,17.21,1.25-.05-1.5-5.48.14-14.81C715.55,354.07,719.34,349.45,718.08,349.15Z"/><path class="cls-40" d="M727.12,248.77c-.73-.37-5.19,1.42-7.2,4.7-2.8,4.53.08,10.29,1,10.47.72.14-.09-3.29,2.12-8.28C725,251.17,727.79,249.11,727.12,248.77Z"/><path class="cls-41" d="M150.88,298.89a2.05,2.05,0,0,0-2.88-.25L122.77,320V285.63a5.31,5.31,0,0,0-10.62,0v66.15L91.58,312.94a2.85,2.85,0,0,0-5,2.67l25.29,47.74a2.76,2.76,0,0,0,.32.49v44.22a5.31,5.31,0,0,0,10.62,0V325.29l27.87-23.53A2,2,0,0,0,150.88,298.89Z"/><path class="cls-3" d="M112.15,297.59c.71.28,1.41.59,2.1.91h-2.1v36.74a83.69,83.69,0,0,1,5.64-26.37c.89-2.26,1.85-4.36,2.82-6.34a7,7,0,0,1,2.13,3.45v-8.39Z"/><path class="cls-3" d="M90.15,322.56l5.34-2.21,11.3,21.31a44.92,44.92,0,0,0-11.5-15.33A42.62,42.62,0,0,0,90.15,322.56Z"/><path class="cls-3" d="M137.21,307.77,142,309l-3.7,3.1a8.62,8.62,0,0,0-.58-3.23A7.94,7.94,0,0,0,137.21,307.77Z"/><ellipse class="cls-42" cx="62.89" cy="280.32" rx="62.89" ry="47.07"/><path class="cls-43" d="M28.22,246.09c-11,6.66-17.42,16-16.59,17,.7.82,6.23-4.51,18.12-10.76"/><path class="cls-3" d="M64.52,247.46c-1.58-2.17-8.16-13.75-14.91-13.17-1.52.14-5.6,1.11-6.14,1.24a68.32,68.32,0,0,0-7.07,2c-2.76,1-4.93,1.95-6.4,2.63-.66.3-1,.45-1.05.49-3.14,2.24,2,19.84,11,30.26C53,286.2,74.74,286.69,81.82,286.55a34.56,34.56,0,0,0,5.93,12.07c7.55,9.78,20.07,14.55,23.34,11.94.27-.22.9-.82,1.36-1.26,0,0,2.19-2.08,4-4.17a40.38,40.38,0,0,0,4.19-6.11c5.68-9.72,7-9.55,7.24-11.42C129.21,276.19,81.48,270.8,64.52,247.46Z"/><ellipse class="cls-44" cx="160.39" cy="263.99" rx="62.89" ry="47.07"/><path class="cls-3" d="M194.43,246.3c-3.25,15.74-18.38,24.4-28.07,29.95,0,0-22.31,12.78-49.91,10.61l-.33,0c-1.58-.14-6.24-.7-9.7-2.85a17.21,17.21,0,0,1-5.23-5.13h0l-.2-.35c-3.9-6.95-36.73-22.08-39.87-34.11-4.22-16.26,38.86-53.19,68.17-45.09,10.48,2.89,33.63,15.52,43.74,18a87.45,87.45,0,0,1,9.92,3.08,46.7,46.7,0,0,1,6.53,2.78C195.45,226.88,196,238.85,194.43,246.3Z"/><ellipse class="cls-45" cx="120.02" cy="236.27" rx="70.47" ry="47.07"/><path class="cls-46" d="M112.15,403.35v-36.2a21.71,21.71,0,0,1,4.76,8.67,30.22,30.22,0,0,1,1.2,9.43,34.64,34.64,0,0,1-1.24,8.55A26.8,26.8,0,0,1,112.15,403.35Z"/><path class="cls-47" d="M116.65,198.71c-.09-1.43-11.68-3.63-23.65-.65-16.57,4.14-27.91,16.7-27,18,.69,1,8.79-5.4,25.74-10.94C106.92,200.17,116.73,200,116.65,198.71Z"/><rect class="cls-48" x="372.89" y="335.22" width="18.54" height="78.37" rx="5.62"/><path class="cls-49" d="M382.16,165.72l111.5,174.63A431.5,431.5,0,0,1,383.42,355a431.44,431.44,0,0,1-112.76-14.68Q326.4,253,382.16,165.72Z"/><path class="cls-50" d="M382.16,133.27l90.58,141.86a349.75,349.75,0,0,1-89.55,11.92,350.12,350.12,0,0,1-91.61-11.92Z"/><path class="cls-51" d="M382.16,101.33,456,217a285.3,285.3,0,0,1-73,9.72A285.1,285.1,0,0,1,308.33,217Z"/><path class="cls-52" d="M382.16,77.09l61.59,96.46a237.85,237.85,0,0,1-60.89,8.11,237.87,237.87,0,0,1-62.29-8.11Z"/><path class="cls-53" d="M295.34,301.66A457.09,457.09,0,0,0,383,296.6a456.85,456.85,0,0,0,71.79-17.17,350,350,0,0,1-72.36,7.62,349.14,349.14,0,0,1-72.91-7.62Z"/><path class="cls-54" d="M326.08,221.1a285.22,285.22,0,0,0,56,5.57,284.94,284.94,0,0,0,56.19-5.57l6.6,10.33A301.92,301.92,0,0,1,382,238a301.77,301.77,0,0,1-62.48-6.57Z"/><path class="cls-55" d="M334,176.73a238,238,0,0,0,48,4.93,238.06,238.06,0,0,0,48.29-4.92l4.56,7.12a294.75,294.75,0,0,1-52.57,4.74,294.79,294.79,0,0,1-52.85-4.74Z"/><path class="cls-56" d="M372.87,381a31.19,31.19,0,0,1,18.53-26.11H372.87Z"/><path class="cls-57" d="M372.87,403.27v-43.4a25.52,25.52,0,0,1,10.41,21.7,29.81,29.81,0,0,1-2.17,10.25A30.25,30.25,0,0,1,372.87,403.27Z"/><path class="cls-58" d="M295.34,301.66Q283,321,270.66,340.35l20.41,4.93a57.67,57.67,0,0,0,6.81-27.6A56.26,56.26,0,0,0,295.34,301.66Z"/><path class="cls-59" d="M318.58,232.85q-12.34,19.35-24.68,38.69A34.63,34.63,0,0,0,313,258.12,35,35,0,0,0,318.58,232.85Z"/><path class="cls-60" d="M328.59,185.23l-19.17,30.06a26.43,26.43,0,0,0,19.17-30.06Z"/><path class="cls-61" d="M368.56,98.4q-18.54,29-37.06,57.94A84.09,84.09,0,0,0,368.56,98.4Z"/><rect class="cls-62" x="631.87" y="364.1" width="11.77" height="49.76" rx="4.92"/><path class="cls-63" d="M637.75,256.47l70.8,110.88a273.55,273.55,0,0,1-141.6,0Z"/><path class="cls-64" d="M637.75,235.87l57.52,90.07a222.25,222.25,0,0,1-115,0Z"/><path class="cls-65" d="M637.75,215.59,684.63,289a181.12,181.12,0,0,1-93.75,0Z"/><path class="cls-66" d="M637.75,200.2l39.11,61.24a151,151,0,0,1-78.21,0Z"/><path class="cls-67" d="M582.62,342.78a290.16,290.16,0,0,0,101.24-14.11,222.2,222.2,0,0,1-92.25,0Z"/><path class="cls-68" d="M602.14,291.64a181.38,181.38,0,0,0,71.22,0l4.19,6.55a191.57,191.57,0,0,1-79.6,0Z"/><path class="cls-69" d="M607.16,263.46a151.18,151.18,0,0,0,61.16,0l2.9,4.52a187.59,187.59,0,0,1-66.94,0Z"/><path class="cls-70" d="M631.85,393.19a20.07,20.07,0,0,1,3.88-10.3,19.85,19.85,0,0,1,7.89-6.28H631.85Z"/><path class="cls-71" d="M631.85,407.3V379.75a16.23,16.23,0,0,1,6.62,13.77,19,19,0,0,1-6.62,13.78Z"/><path class="cls-72" d="M582.62,342.78q-7.83,12.29-15.67,24.57l13,3.13A36.63,36.63,0,0,0,584.24,353,35.61,35.61,0,0,0,582.62,342.78Z"/><path class="cls-73" d="M597.38,299.09l-15.67,24.57a21.6,21.6,0,0,0,15.67-24.57Z"/><path class="cls-74" d="M603.74,268.86l-12.18,19.08a17,17,0,0,0,9.42-6.62A17.23,17.23,0,0,0,603.74,268.86Z"/><path class="cls-75" d="M629.11,213.72l-23.52,36.79a53.31,53.31,0,0,0,23.52-36.79Z"/><rect class="cls-76" x="218.33" y="371.53" width="9.9" height="41.84" rx="4.14"/><path class="cls-77" d="M223.28,281l59.53,93.23a229.9,229.9,0,0,1-119.06,0Z"/><path class="cls-78" d="M223.28,263.71l48.36,75.73a186.73,186.73,0,0,1-96.72,0Z"/><path class="cls-79" d="M223.28,246.66l39.42,61.72a152.24,152.24,0,0,1-78.83,0Z"/><path class="cls-80" d="M223.28,233.71l32.88,51.5a127,127,0,0,1-65.76,0Z"/><path class="cls-81" d="M176.93,353.61a243.8,243.8,0,0,0,85.12-11.87,186.79,186.79,0,0,1-77.56,0Z"/><path class="cls-82" d="M193.34,310.6a152.39,152.39,0,0,0,59.88,0l3.52,5.51a161.28,161.28,0,0,1-66.93,0Z"/><path class="cls-83" d="M197.56,286.91a127,127,0,0,0,51.43,0l2.43,3.81a157.76,157.76,0,0,1-56.28,0Z"/><path class="cls-84" d="M218.32,396a16.82,16.82,0,0,1,3.26-8.66,16.61,16.61,0,0,1,6.64-5.28h-9.9Z"/><path class="cls-85" d="M218.32,407.86V384.69a13.62,13.62,0,0,1,5.56,11.58,15.83,15.83,0,0,1-1.16,5.48A16.3,16.3,0,0,1,218.32,407.86Z"/><path class="cls-86" d="M176.93,353.61l-13.18,20.65,10.9,2.64a30.84,30.84,0,0,0,3.64-14.74A30.2,30.2,0,0,0,176.93,353.61Z"/><path class="cls-87" d="M189.34,316.87l-13.18,20.66a18.18,18.18,0,0,0,13.18-20.66Z"/><path class="cls-88" d="M194.68,291.45q-5.12,8-10.24,16a14.28,14.28,0,0,0,7.92-5.56A14.5,14.5,0,0,0,194.68,291.45Z"/><path class="cls-89" d="M216,245.09,196.23,276A44.89,44.89,0,0,0,216,245.09Z"/><path class="cls-90" d="M137.57,380.1c-1.1-.38-13.95-4.57-24.58,3.58a25.84,25.84,0,0,0-9.33,15.09h0a15.08,15.08,0,0,0,15.09,15.08h18.51a15.09,15.09,0,0,0,15.09-15.08h0a23.94,23.94,0,0,0-14.78-18.67Z"/><path class="cls-11" d="M152.35,398.77a24.31,24.31,0,0,0-3.19-8.81,24.06,24.06,0,0,0-11.83,4.76A26,26,0,0,0,128,409.81a14.93,14.93,0,0,0,.57,4h8.69A15.09,15.09,0,0,0,152.35,398.77Z"/><path class="cls-91" d="M738.13,388.83c-.65-3.23-11.14-25.05-34.79-25.05-14.67,0-27.22,6.54-32.33,15.8a27.82,27.82,0,0,0-12.62-3.41,31.07,31.07,0,0,0-21.49,7.4h0l-.06.06-.1.09a17.6,17.6,0,0,0-3,3.33l0,0c-.19.28-.37.57-.55.86l-.12.19c-.13.21-.28.49-.45.8a14.94,14.94,0,0,0-1.91,7.66c0,.06,0,.12,0,.18a17.11,17.11,0,0,0,17.11,17.11h55.56a46.27,46.27,0,0,0,10.46,0h7.29a17.09,17.09,0,0,0,17.08-16.6,28.79,28.79,0,0,0,.41-3.85A23.83,23.83,0,0,0,738.13,388.83Z"/><path class="cls-14" d="M668.22,378.24a29.46,29.46,0,0,0-9.83-2.07,31.07,31.07,0,0,0-21.49,7.4h0l-.06.06-.1.09a17,17,0,0,0-2.6,2.82,34.44,34.44,0,0,0-2.1,3.52,14.63,14.63,0,0,0-1.35,6.53c0,.06,0,.12,0,.18a17,17,0,0,0,.51,4.06C645.56,402.45,660.25,393.37,668.22,378.24Z"/><path class="cls-92" d="M410.71,401a.62.62,0,0,0,0-.13c0-.15,0-.29,0-.43s0-.54,0-.8,0-.23,0-.35,0-.2,0-.3,0-.14,0-.21a14,14,0,0,0-.76-4.12,2.76,2.76,0,0,0-.08-.27,24.23,24.23,0,0,0-4.79-8.58c-1.23-1.38-7.21-7.72-15.83-7.7a22.7,22.7,0,0,0-11.94,3.73,20.91,20.91,0,0,0,.13-2.25c0-14.6-15.16-26.43-33.86-26.43-15.42,0-28.43,8.06-32.51,19.07a29.6,29.6,0,0,0-11.59-3.08A24.23,24.23,0,0,0,276.25,384a26.53,26.53,0,0,0-1.91,16.69c0,.09.12.53.26,1.08a14.24,14.24,0,0,0,14,11.8H396.56A14.25,14.25,0,0,0,410.32,403s0-.08.05-.12c.06-.22.11-.45.15-.67v0C410.65,401.54,410.71,401,410.71,401Z"/><path class="cls-14" d="M278.81,389.78c17.85,7.62,39.8-3.73,49-25.35a51.47,51.47,0,0,0,2.94-9.26c-9.45,3.05-16.76,9.32-19.63,17.07a29.6,29.6,0,0,0-11.59-3.08A24.23,24.23,0,0,0,276.25,384a26.44,26.44,0,0,0-1.4,3.72A28.58,28.58,0,0,0,278.81,389.78Z"/><path class="cls-13" d="M376.06,390.41c-8.85,5.9-14.53,14.49-16.25,23.15h36.75A14.25,14.25,0,0,0,410.32,403s0-.08.05-.12c.06-.22.11-.45.15-.67v0c.12-.62.18-1.15.18-1.15a.62.62,0,0,0,0-.13c0-.15,0-.29,0-.43s0-.54,0-.8,0-.23,0-.35,0-.2,0-.3,0-.14,0-.21a14,14,0,0,0-.76-4.12,2.76,2.76,0,0,0-.08-.27,24.23,24.23,0,0,0-4.79-8.58c-.27-.3-.78-.85-1.48-1.51C395,382.57,384.91,384.51,376.06,390.41Z"/><path class="cls-93" d="M508.62,396.46a61.41,61.41,0,0,0,5-25.06c0-18.91-7.62-34.92-18.11-40.26a35.21,35.21,0,0,0,3.22-14.87c0-16.42-10.71-29.72-23.93-29.72-.42,0-.85,0-1.26,0-1.14-13.65-10.85-24.31-22.67-24.31-12.58,0-22.77,12.09-22.77,27a32.23,32.23,0,0,0,.65,6.43,37.94,37.94,0,0,0-27.21,44.42,45.15,45.15,0,0,0-15.09,9.94,38.21,38.21,0,0,0-3.44,4.45c-3.65,5.65-4.6,10.88-5.41,15.34a53.05,53.05,0,0,0-.76,13.38s0,.05,0,.08c.41,16.79,10.94,30.24,23.88,30.24.46,0,.93,0,1.39-.06s.73.06,1.11.06h83.09c.24,0,.46,0,.69,0s.55,0,.83,0a16.89,16.89,0,0,0,7.91-2A23.09,23.09,0,0,0,508.62,396.46Z"/><path class="cls-13" d="M430.59,411.48c0,.7,0,1.39.07,2.08h55.72c.23,0,.45,0,.68,0s.55,0,.83,0a16.89,16.89,0,0,0,7.91-2,23.09,23.09,0,0,0,12.82-15.07,61.41,61.41,0,0,0,5-25.06,66.38,66.38,0,0,0-1.31-13.25,74,74,0,0,0-17.34-2C459.44,356.1,430.59,380.89,430.59,411.48Z"/><path class="cls-14" d="M455.84,291.57A42.2,42.2,0,0,0,445,263.23c-9.68,3.11-16.8,13.59-16.8,26a32.23,32.23,0,0,0,.65,6.43,37.94,37.94,0,0,0-28,36.26,42.38,42.38,0,0,0,55-40.4Z"/><path class="cls-94" d="M575.14,392.15c.64-3.9,1.36-8.28,3.58-11.69a18.43,18.43,0,0,0-2.57,4.37,28.91,28.91,0,0,0-2.33,6.45,40.4,40.4,0,0,0-1,12.16.17.17,0,0,0-.06.11c-.07.79-.57,4.29,1.06,3.42a1.41,1.41,0,0,0,.61-1A76.45,76.45,0,0,1,575.14,392.15Z"/><path class="cls-95" d="M581,386.8a22.39,22.39,0,0,0-5.38,8.08,42.63,42.63,0,0,0-2.52,11.38,38.33,38.33,0,0,0-.1,4.91v.13a10.12,10.12,0,0,0-.15,1.91h1.27c0-.45.08-.89.13-1.33a27.57,27.57,0,0,1,.52-4.25c.09-.46.2-.91.31-1.37a49.67,49.67,0,0,1,1.3-5.25,37.54,37.54,0,0,1,1.52-5.39,30.75,30.75,0,0,1,4.61-8.62,14.46,14.46,0,0,1,4.45-4C584.85,383.44,582.36,385.52,581,386.8Z"/><path class="cls-96" d="M572.88,412.39c0,.24-.06.52-.09.82h.42c0-.34,0-.67,0-1,.09-.86.14-1.73.17-2.59a22.05,22.05,0,0,0-.78-5.93,17.51,17.51,0,0,0-5.43-8.94,9.88,9.88,0,0,0-9.56-2.21,10.2,10.2,0,0,0-5.1,4.12,11,11,0,0,1,3.94-2.08,9.5,9.5,0,0,1,8.65,1.33c.28.2.56.42.82.64a13.07,13.07,0,0,1,1.27.94,16.22,16.22,0,0,1,4.83,8A27.85,27.85,0,0,1,572.88,412.39Z"/><path class="cls-97" d="M589.12,395.25c-3-1.34-6-.23-8.47,1.68a20,20,0,0,0-5.93,8.46,30.91,30.91,0,0,0-1.48,5.09,23.38,23.38,0,0,0-.51,2.73h.37a1.52,1.52,0,0,1,0-.21.18.18,0,0,0,.07-.1c.07-.53.17-1.08.29-1.64.08-.27.15-.54.23-.82.46-1.51.95-3,1.55-4.45.17-.4.34-.79.53-1.18a16.22,16.22,0,0,1,4.34-5.48,4.27,4.27,0,0,1,.44-.3c4-3,10.26-2.06,12.93,2.13C592.74,398.59,591.84,396.45,589.12,395.25Z"/><path class="cls-98" d="M573.09,412.86c0,.12,0,.23,0,.35h.71c.1-1.72.1-3.42.07-5.14,0-.17,0-.33,0-.5a71.63,71.63,0,0,0-1.08-10.12,44.46,44.46,0,0,0-3-10.17,23.89,23.89,0,0,0-2.17-4,12.93,12.93,0,0,0-1.21-1.49l-.47-.44a4.21,4.21,0,0,0-.61-.43.09.09,0,0,0,0,.07c1.91,2.73,3,6.19,4,9.33a68.18,68.18,0,0,1,2.15,9.51c.56,3.18,1,6.32,1.31,9.54A24.46,24.46,0,0,0,573.09,412.86Z"/><path class="cls-99" d="M588.4,407.75a14,14,0,0,0-.42-1.44c-.61-1.73-1.6-3.92-3.16-5a5.71,5.71,0,0,0-3.2-.91,4.26,4.26,0,0,0-1.36.24,8.53,8.53,0,0,0-4.84,4.16,15.63,15.63,0,0,0-1.56,6.41c0,.66,0,1.32,0,2h.77a24.57,24.57,0,0,1,.87-4c.71-2.31,1.55-5,3.9-6.08s5.09,1.24,6.48,3a18,18,0,0,1,2.72,4.76C588.55,409.82,588.49,408.78,588.4,407.75Z"/><path class="cls-100" d="M576.81,403.82a8.6,8.6,0,0,0-1.72,1.69,16.24,16.24,0,0,0-1.23,5.71c0,.66,0,1.32,0,2h.77a24.57,24.57,0,0,1,.87-4c.71-2.31,1.55-5,3.9-6.08a3.47,3.47,0,0,1,2.92.05.08.08,0,0,1,0,0A5.55,5.55,0,0,0,576.81,403.82Z"/><path class="cls-101" d="M572.86,413.21h.91c0-1,0-2,0-3a19.76,19.76,0,0,0-1.94-8,10.74,10.74,0,0,0-6.07-5.22,5.63,5.63,0,0,0-1.71-.3,7.08,7.08,0,0,0-4,1.14,6.68,6.68,0,0,0-1.33,1.23l-.32.4a16.71,16.71,0,0,0-2.12,4.08c0,.05,0,.09,0,.13a13.94,13.94,0,0,0-.51,4.26c0,.3,0,.6,0,.9a22.34,22.34,0,0,1,3-5c1.75-2.16,5.11-5.16,8.13-3.72s4,4.72,4.89,7.62A32.1,32.1,0,0,1,572.86,413.21Z"/><path class="cls-102" d="M572.86,413.21h.91c0-1,0-2,0-3a20,20,0,0,0-1.54-7.15,10.33,10.33,0,0,0-2.15-2.13,7,7,0,0,0-6.88-.84.09.09,0,0,0,0,0,4.3,4.3,0,0,1,3.66-.07c2.94,1.41,4,4.72,4.89,7.62A32.1,32.1,0,0,1,572.86,413.21Z"/><path class="cls-103" d="M564.38,397.11c-4.89.08-7.5,4.25-8.25,8.69,0,.07.1,0,.11,0,1.06-4.2,3.71-7.79,8.13-8.66C564.38,397.13,564.39,397.1,564.38,397.11Z"/><path class="cls-103" d="M565.78,394a9.11,9.11,0,0,0-11.58,1,0,0,0,1,0,0,0,10.19,10.19,0,0,1,11.53-1S565.8,394,565.78,394Z"/><path class="cls-103" d="M569.94,390.27a21.79,21.79,0,0,0-3.46-7.81s0,0,0,0a30.56,30.56,0,0,1,3.27,8.45c.7,2.72,1.45,5.45,1.93,8.23,0,0,.06,0,.05,0A68.69,68.69,0,0,0,569.94,390.27Z"/><path class="cls-103" d="M575.82,386a29.07,29.07,0,0,0-2.57,9.78c0,.06.08,0,.08,0a57.6,57.6,0,0,1,2.53-9.76S575.83,386,575.82,386Z"/><path class="cls-103" d="M581.75,386.58a22.32,22.32,0,0,0-7.53,15.05c0,.05.07,0,.07,0a29.12,29.12,0,0,1,7.48-15S581.77,386.56,581.75,386.58Z"/><path class="cls-103" d="M584.59,395.26a13.5,13.5,0,0,0-2.38.93A10.55,10.55,0,0,0,580,398c-.07.07,0,.17.07.11.67-.5,1.29-1,2-1.51a15.93,15.93,0,0,1,2.58-1.29A0,0,0,0,0,584.59,395.26Z"/><path class="cls-103" d="M583.27,402.94a5,5,0,0,0-6,0s0,0,0,0a10.69,10.69,0,0,1,2.72-.6,7.69,7.69,0,0,1,3.16.73C583.22,403.11,583.33,403,583.27,402.94Z"/><path class="cls-104" d="M226.74,395.67c.53-3.28,1.14-7,3-9.82a15.68,15.68,0,0,0-2.15,3.67,24.94,24.94,0,0,0-2,5.42,34.4,34.4,0,0,0-.85,10.22s-.05,0-.05.09c-.06.67-.48,3.6.89,2.87a1.15,1.15,0,0,0,.51-.87A64.07,64.07,0,0,1,226.74,395.67Z"/><path class="cls-105" d="M231.67,391.18a18.73,18.73,0,0,0-4.52,6.79,36,36,0,0,0-2.12,9.56,33.5,33.5,0,0,0-.08,4.13v.1a8.67,8.67,0,0,0-.13,1.61h1.07c0-.38.07-.75.11-1.12a23.83,23.83,0,0,1,.43-3.57c.08-.38.17-.77.26-1.15a45.23,45.23,0,0,1,1.09-4.42,34.15,34.15,0,0,1,1.28-4.52,26.07,26.07,0,0,1,3.88-7.24,11.91,11.91,0,0,1,3.74-3.36C234.89,388.35,232.81,390.1,231.67,391.18Z"/><path class="cls-106" d="M224.84,412.68c0,.21-.05.44-.08.69h.36c0-.28,0-.56,0-.84.08-.72.12-1.45.14-2.18a18.26,18.26,0,0,0-.65-5,14.68,14.68,0,0,0-4.57-7.51,8.28,8.28,0,0,0-8-1.86,8.6,8.6,0,0,0-4.29,3.47,9.28,9.28,0,0,1,3.32-1.76,8,8,0,0,1,7.26,1.12q.36.26.69.54a10.23,10.23,0,0,1,1.07.79,13.54,13.54,0,0,1,4.06,6.69A23,23,0,0,1,224.84,412.68Z"/><path class="cls-107" d="M238.48,398.28c-2.53-1.13-5.06-.19-7.11,1.41a16.83,16.83,0,0,0-5,7.11,26.52,26.52,0,0,0-1.24,4.28,20.86,20.86,0,0,0-.43,2.29H225a1.11,1.11,0,0,0,0-.17.1.1,0,0,0,.06-.09c.07-.45.15-.91.25-1.38.06-.23.13-.46.2-.68a38.65,38.65,0,0,1,1.3-3.75c.14-.33.28-.66.44-1a13.57,13.57,0,0,1,3.65-4.6c.12-.09.24-.18.37-.26a7.71,7.71,0,0,1,10.87,1.8C241.52,401.08,240.77,399.29,238.48,398.28Z"/><path class="cls-108" d="M225,413.08v.29h.59c.08-1.44.09-2.88.06-4.32,0-.14,0-.28,0-.42a59.35,59.35,0,0,0-.91-8.51,37,37,0,0,0-2.55-8.54,19.21,19.21,0,0,0-1.83-3.4,10.72,10.72,0,0,0-1-1.26l-.4-.37a5.74,5.74,0,0,0-.5-.36s0,0,0,.06a29.64,29.64,0,0,1,3.37,7.84,58.83,58.83,0,0,1,1.81,8c.47,2.68.87,5.32,1.1,8A20.51,20.51,0,0,0,225,413.08Z"/><path class="cls-109" d="M237.88,408.78c-.1-.41-.21-.81-.35-1.21a8.6,8.6,0,0,0-2.66-4.19,4.71,4.71,0,0,0-2.69-.76,3.54,3.54,0,0,0-1.14.19,7.21,7.21,0,0,0-4.07,3.5,13.07,13.07,0,0,0-1.3,5.39c0,.55,0,1.11,0,1.67h.65A20.14,20.14,0,0,1,227,410c.59-1.95,1.3-4.17,3.27-5.11s4.28,1.05,5.45,2.5a14.85,14.85,0,0,1,2.28,4C238,410.52,238,409.65,237.88,408.78Z"/><path class="cls-110" d="M228.14,405.48a6.69,6.69,0,0,0-1.44,1.42,13.41,13.41,0,0,0-1,4.8c0,.55,0,1.11,0,1.67h.65A20.14,20.14,0,0,1,227,410c.59-1.95,1.3-4.17,3.27-5.11a2.9,2.9,0,0,1,2.46,0v0A4.65,4.65,0,0,0,228.14,405.48Z"/><path class="cls-111" d="M224.82,413.37h.77c0-.84,0-1.68-.05-2.51a16.27,16.27,0,0,0-1.63-6.75,9,9,0,0,0-5.1-4.39,4.48,4.48,0,0,0-1.44-.25,5.91,5.91,0,0,0-3.36,1,5.71,5.71,0,0,0-1.12,1l-.27.34a13.51,13.51,0,0,0-1.78,3.43.45.45,0,0,0,0,.11,11.69,11.69,0,0,0-.44,3.58c0,.25,0,.5,0,.75a18.34,18.34,0,0,1,2.53-4.2c1.46-1.82,4.29-4.34,6.83-3.13s3.35,4,4.1,6.4A25.92,25.92,0,0,1,224.82,413.37Z"/><path class="cls-112" d="M224.82,413.37h.77c0-.84,0-1.68-.05-2.51a16.52,16.52,0,0,0-1.29-6,8.77,8.77,0,0,0-1.81-1.79,5.85,5.85,0,0,0-5.78-.71s0,0,0,0a3.65,3.65,0,0,1,3.08-.05c2.46,1.18,3.35,4,4.1,6.4A25.92,25.92,0,0,1,224.82,413.37Z"/><path class="cls-103" d="M217.69,399.84c-4.1.07-6.3,3.58-6.93,7.3,0,.07.08,0,.1,0,.88-3.53,3.11-6.54,6.83-7.27C217.7,399.86,217.71,399.84,217.69,399.84Z"/><path class="cls-103" d="M218.87,397.21a7.67,7.67,0,0,0-9.73.82s0,0,0,0a8.57,8.57,0,0,1,9.69-.8S218.89,397.22,218.87,397.21Z"/><path class="cls-103" d="M222.36,394.09a18.26,18.26,0,0,0-2.9-6.56s0,0,0,0a25.75,25.75,0,0,1,2.74,7.1c.59,2.29,1.22,4.59,1.63,6.92,0,0,0,0,0,0A57.58,57.58,0,0,0,222.36,394.09Z"/><path class="cls-103" d="M227.31,390.52a24.4,24.4,0,0,0-2.16,8.22c0,.05.06,0,.07,0a48.42,48.42,0,0,1,2.12-8.2S227.32,390.5,227.31,390.52Z"/><path class="cls-103" d="M232.29,391A18.81,18.81,0,0,0,226,403.64s.06,0,.06,0A24.53,24.53,0,0,1,232.31,391S232.31,391,232.29,391Z"/><path class="cls-103" d="M234.68,398.29a11.06,11.06,0,0,0-2,.78,8.85,8.85,0,0,0-1.9,1.5c-.05.06,0,.14.07.09.56-.42,1.08-.87,1.66-1.27a13.71,13.71,0,0,1,2.17-1.08S234.7,398.29,234.68,398.29Z"/><path class="cls-103" d="M233.57,404.74a4.2,4.2,0,0,0-5,0s0,0,0,0a9,9,0,0,1,2.28-.51,6.67,6.67,0,0,1,2.66.61C233.53,404.88,233.62,404.78,233.57,404.74Z"/><path class="cls-113" d="M303.52,384c-5.66,1.28-10.8,4.63-15.08,8.43a37.37,37.37,0,0,0-9.32,12.93c-.1.24-.23.53-.37.84A67.58,67.58,0,0,1,283,389.41c3.64-8.85,9.33-13.81,16.44-19.74a25.44,25.44,0,0,0-6.7,2.7,31.25,31.25,0,0,0-8.67,7.61A46.79,46.79,0,0,0,280.8,385c-2.33,4.22-3.59,9-4.6,13.74-.26,1.17-.58,2.43-.88,3.73a176.11,176.11,0,0,1,1.09-19.33c1-8.17,3.6-15.77,5.18-23.75a38.17,38.17,0,0,0-3,4.62,95.19,95.19,0,0,0-5.5,20,50.9,50.9,0,0,0-.51,8.63,46.55,46.55,0,0,0-4-15.29,24.19,24.19,0,0,0-5.75-7.45,13.66,13.66,0,0,0-8.18-2.57c9.65,6.9,11.81,19,12.63,30.78a15.24,15.24,0,0,0-7.23-7.12c-5.22-2.31-12.11-3.15-17.63-.84a9.81,9.81,0,0,0-1.11.84c-.13.11-.24.24-.36.35,5.78-1.12,11.52,1,16.09,5.23a26.32,26.32,0,0,1,7,9.67,42,42,0,0,1,1.89,7.12h21.89a.4.4,0,0,0-.14-.15c.29-1.22.65-2.4,1-3.56a37.69,37.69,0,0,1,6.89-13.61c5.08-6.26,11.75-10.06,19.06-12.65C311.76,382,306.44,383.31,303.52,384Z"/><path class="cls-114" d="M256,388.33a20.42,20.42,0,0,0-6.76-.57c-.43.07-.86.15-1.28.24a14.3,14.3,0,0,0-6.67,3c-.13.11-.24.23-.36.35l.54-.1c5.37-2.61,11.37-2.54,17.15-.32,6.5,2.49,9.8,11.73,11.61,17.73,0,.14.26,0,.24-.13C269.18,399.61,265.48,390.87,256,388.33Z"/><path class="cls-115" d="M269,377.67a27.5,27.5,0,0,0-4.39-6.26,13.75,13.75,0,0,0-9.28-4.06c2,.95,6,2.89,6.23,3,2.76,2,4.6,5.07,6.08,8.07,2.94,6,3.58,12.85,4.7,19.29,0,.17.25,0,.24-.11C272.43,390.78,271.59,384,269,377.67Z"/><path class="cls-116" d="M281.91,359c-.64.84-1.25,1.7-1.82,2.59C277.33,368,276.24,375,275.3,382c-1.27,9.63-1.81,19.77.07,29.36.07.36.53,0,.52-.24A193.13,193.13,0,0,1,281.91,359Z"/><path class="cls-117" d="M295.44,371c-11.92,7.64-17.18,23.22-17.17,36.87,0,.34.43.15.46-.09,2.2-15.36,8.6-29,21.15-38.23A24.52,24.52,0,0,0,295.44,371Z"/><path class="cls-118" d="M295.63,396.07c5.5-6.78,12.87-10.68,20.91-13.27-7.24-.64-13.89,3.17-19.2,7.94-5.63,5.07-11.57,14.53-10.69,22.65h1.22A38.86,38.86,0,0,1,295.63,396.07Z"/><path class="cls-119" d="M302.37,384.68c-5.81,2.15-10.9,5.06-15.07,9.73-3.68,4.11-7.14,9.08-7.82,14.68,0,.26.33.15.38,0,2.87-11.46,12.06-19.67,22.52-24.29C302.43,384.75,302.44,384.65,302.37,384.68Z"/><path class="cls-120" d="M287,377.58a36.34,36.34,0,0,0-10,26.49c0,.11.16,0,.17-.05a43.78,43.78,0,0,1,9.9-26.38C287.07,377.59,287,377.53,287,377.58Z"/><path class="cls-121" d="M274.78,379.5c0-.07-.09,0-.1,0-.51,2.87-1.28,5.67-1.56,8.57a59.08,59.08,0,0,0,0,9.5c0,.17.27,0,.27-.09,0-3.16-.06-6.34.16-9.49C273.73,385.15,274.43,382.34,274.78,379.5Z"/><path class="cls-122" d="M265.64,381.18a22.41,22.41,0,0,0-5.05-9.75s-.06,0,0,0a29.1,29.1,0,0,1,4.7,10.53c.93,3.73,1.36,7.52,2.25,11.24,0,.15.23,0,.22-.09A64,64,0,0,0,265.64,381.18Z"/><path class="cls-123" d="M260.09,397.58a18.63,18.63,0,0,0-11.76-6.75c-.06,0-.13.1-.06.12,8.9,2.45,14.89,10.25,17.73,18.8.05.15.28,0,.26-.15C265.42,405.18,262.91,401,260.09,397.58Z"/></g></g></g></g></svg>