<svg xmlns="http://www.w3.org/2000/svg" xmlns:xlink="http://www.w3.org/1999/xlink" viewBox="0 0 596.43 298.27"><defs><style>.cls-1{fill:url(#Безымянный_градиент_61);}.cls-2{fill:url(#Безымянный_градиент_89);}.cls-3{fill:url(#Безымянный_градиент_95);}.cls-4{fill:url(#Безымянный_градиент_95-2);}.cls-5,.cls-6{fill:#1c1c28;}.cls-5{opacity:0.5;}.cls-18,.cls-21,.cls-22,.cls-23,.cls-27,.cls-28,.cls-30,.cls-5,.cls-6{isolation:isolate;}.cls-21,.cls-6{opacity:0.2;}.cls-7{fill:url(#Безымянный_градиент_95-3);}.cls-8{fill:url(#Безымянный_градиент_95-4);}.cls-9{fill:url(#Безымянный_градиент_95-5);}.cls-10{fill:url(#Безымянный_градиент_95-6);}.cls-11{fill:url(#Безымянный_градиент_34);}.cls-12{fill:url(#Безымянный_градиент_26);}.cls-13{fill:url(#Безымянный_градиент_26-2);}.cls-14{fill:url(#Безымянный_градиент_26-3);}.cls-15{fill:url(#Безымянный_градиент_26-4);}.cls-16{fill:#323442;}.cls-16,.cls-19,.cls-20{stroke:#20202b;}.cls-16,.cls-19,.cls-20,.cls-27,.cls-30{stroke-miterlimit:10;}.cls-16,.cls-19{stroke-width:2px;}.cls-17{opacity:0.15;}.cls-18{fill:#8f90a6;fill-rule:evenodd;opacity:0.6;}.cls-19,.cls-20,.cls-27,.cls-30{fill:none;}.cls-20{stroke-width:0.75px;}.cls-23,.cls-27{font-size:23.4px;letter-spacing:-0.12em;}.cls-23,.cls-28{fill:#fff;}.cls-23,.cls-27,.cls-28,.cls-30{font-family:Corbel;}.cls-24{letter-spacing:-0.09em;}.cls-25{letter-spacing:-0.11em;}.cls-26{letter-spacing:-0.09em;}.cls-27,.cls-30{stroke:#000;stroke-width:0.25px;}.cls-28,.cls-30{font-size:12px;}.cls-29{letter-spacing:-0.08em;}.cls-31{fill:#999;}.cls-32{fill:#81cf31;}.cls-33{fill:#76b82b;}.cls-34{fill:url(#Безымянный_градиент_82);}.cls-35{fill:#98e83d;}.cls-36{fill:#f1cd31;}.cls-37{fill:#edbc2e;}.cls-38{fill:url(#Безымянный_градиент_77);}.cls-39{fill:#f3de72;}.cls-40{fill:#dc3c59;}.cls-41{fill:#cf2a52;}.cls-42{fill:url(#Безымянный_градиент_73);}.cls-43{fill:#de5a7c;}.cls-44{fill:#7fc8d8;}.cls-45{fill:#6cafb9;}.cls-46{fill:url(#Безымянный_градиент_70);}.cls-47{fill:#9be0e8;}.cls-48{fill:url(#Безымянный_градиент_82-2);}.cls-49{fill:url(#Безымянный_градиент_77-2);}.cls-50{fill:url(#Безымянный_градиент_73-2);}.cls-51{fill:url(#Безымянный_градиент_70-2);}</style><linearGradient id="Безымянный_градиент_61" x1="139.1" y1="207.12" x2="532.62" y2="-48.23" gradientUnits="userSpaceOnUse"><stop offset="0" stop-color="#806c63"/><stop offset="0.14" stop-color="#8d7970"/><stop offset="0.43" stop-color="#a49086"/><stop offset="0.59" stop-color="#ad988d"/><stop offset="0.81" stop-color="#c1aa9d"/></linearGradient><linearGradient id="Безымянный_градиент_89" x1="37.79" y1="235.08" x2="640.51" y2="235.08" gradientUnits="userSpaceOnUse"><stop offset="0" stop-color="#35293a"/><stop offset="0.54" stop-color="#534759"/><stop offset="1" stop-color="#6d6172"/></linearGradient><linearGradient id="Безымянный_градиент_95" x1="87.06" y1="235.08" x2="103.15" y2="235.08" gradientTransform="matrix(-1, 0, 0, 1, 590.04, 0)" gradientUnits="userSpaceOnUse"><stop offset="0.08" stop-color="#23243b"/><stop offset="0.59" stop-color="#161624"/><stop offset="0.86" stop-color="#08080d"/><stop offset="1"/></linearGradient><linearGradient id="Безымянный_градиент_95-2" x1="215.74" y1="235.08" x2="231.83" y2="235.08" xlink:href="#Безымянный_градиент_95"/><linearGradient id="Безымянный_градиент_95-3" x1="244.89" y1="235.04" x2="252.93" y2="235.04" xlink:href="#Безымянный_градиент_95"/><linearGradient id="Безымянный_градиент_95-4" x1="334.47" y1="235.04" x2="342.51" y2="235.04" xlink:href="#Безымянный_градиент_95"/><linearGradient id="Безымянный_градиент_95-5" x1="353.62" y1="235.08" x2="369.71" y2="235.08" xlink:href="#Безымянный_градиент_95"/><linearGradient id="Безымянный_градиент_95-6" x1="486.89" y1="235.08" x2="502.98" y2="235.08" xlink:href="#Безымянный_градиент_95"/><linearGradient id="Безымянный_градиент_34" x1="-104.17" y1="281.42" x2="732.19" y2="281.42" gradientUnits="userSpaceOnUse"><stop offset="0" stop-color="#161624"/><stop offset="0.52" stop-color="#41435b"/><stop offset="0.78" stop-color="#535672"/><stop offset="0.83" stop-color="#5c5e7a"/><stop offset="0.92" stop-color="#73758e"/><stop offset="0.99" stop-color="#8f90a7"/></linearGradient><linearGradient id="Безымянный_градиент_26" y1="296.23" x2="596.43" y2="296.23" gradientUnits="userSpaceOnUse"><stop offset="0" stop-color="#161624"/><stop offset="0.01" stop-color="#161624"/><stop offset="0.67" stop-color="#23243b"/><stop offset="0.99" stop-color="#535672"/></linearGradient><linearGradient id="Безымянный_градиент_26-2" x1="39.84" y1="279.38" x2="552.6" y2="279.38" xlink:href="#Безымянный_градиент_26"/><linearGradient id="Безымянный_градиент_26-3" x1="59.7" y1="270.96" x2="530.7" y2="270.96" xlink:href="#Безымянный_градиент_26"/><linearGradient id="Безымянный_градиент_26-4" x1="19.72" y1="287.88" x2="574.72" y2="287.88" xlink:href="#Безымянный_градиент_26"/><linearGradient id="Безымянный_градиент_82" x1="73.49" y1="162.55" x2="101.71" y2="162.55" gradientTransform="matrix(-1, 0, 0, 1, 582.58, 0)" gradientUnits="userSpaceOnUse"><stop offset="0" stop-color="#a4ea53"/><stop offset="0.03" stop-color="#a1e850"/><stop offset="0.31" stop-color="#8ad639"/><stop offset="0.49" stop-color="#81cf31"/><stop offset="0.81" stop-color="#74b82b"/><stop offset="1" stop-color="#6ba826"/></linearGradient><linearGradient id="Безымянный_градиент_77" x1="43.28" y1="173.6" x2="71.5" y2="173.6" gradientTransform="matrix(-1, 0, 0, 1, 582.58, 0)" gradientUnits="userSpaceOnUse"><stop offset="0" stop-color="#fcdd5b"/><stop offset="0.09" stop-color="#f9d951"/><stop offset="0.33" stop-color="#f3d03a"/><stop offset="0.49" stop-color="#f1cd31"/><stop offset="0.87" stop-color="#dab828"/><stop offset="1" stop-color="#d1af24"/></linearGradient><linearGradient id="Безымянный_градиент_73" x1="66.86" y1="184.82" x2="95.08" y2="184.82" gradientTransform="matrix(-1, 0, 0, 1, 582.58, 0)" gradientUnits="userSpaceOnUse"><stop offset="0" stop-color="#f45b7f"/><stop offset="0.06" stop-color="#f05679"/><stop offset="0.32" stop-color="#e14362"/><stop offset="0.49" stop-color="#dc3c59"/><stop offset="0.81" stop-color="#c53350"/><stop offset="1" stop-color="#b52c4a"/></linearGradient><linearGradient id="Безымянный_градиент_70" x1="93.8" y1="183.82" x2="122" y2="183.82" gradientTransform="matrix(-1, 0, 0, 1, 582.58, 0)" gradientUnits="userSpaceOnUse"><stop offset="0" stop-color="#a2e6ed"/><stop offset="0.03" stop-color="#9fe3eb"/><stop offset="0.31" stop-color="#88cfdd"/><stop offset="0.49" stop-color="#7fc8d8"/><stop offset="0.74" stop-color="#6fb5c1"/><stop offset="1" stop-color="#5b9ea5"/></linearGradient><linearGradient id="Безымянный_градиент_82-2" x1="490.78" y1="161.27" x2="519" y2="161.27" xlink:href="#Безымянный_градиент_82"/><linearGradient id="Безымянный_градиент_77-2" x1="460.55" y1="172.11" x2="488.78" y2="172.11" xlink:href="#Безымянный_градиент_77"/><linearGradient id="Безымянный_градиент_73-2" x1="484.13" y1="183.56" x2="512.35" y2="183.56" xlink:href="#Безымянный_градиент_73"/><linearGradient id="Безымянный_градиент_70-2" x1="511.08" y1="182.18" x2="539.3" y2="182.18" xlink:href="#Безымянный_градиент_70"/></defs><g id="Слой_2" data-name="Слой 2"><g id="Слой_1-2" data-name="Слой 1"><g id="Слой_2-2" data-name="Слой 2"><g id="Слой_2-2-2" data-name="Слой 2-2"><rect class="cls-1" x="64.09" y="0.32" width="471.06" height="205.28"/><rect class="cls-2" x="103.15" y="205.59" width="383.74" height="58.98"/><rect class="cls-3" x="486.89" y="205.59" width="16.09" height="58.98"/><rect class="cls-4" x="358.21" y="205.59" width="16.09" height="58.98"/><rect class="cls-5" x="231.19" y="205.6" width="34.11" height="58.81"/><rect class="cls-5" x="210.57" y="205.6" width="9.76" height="58.81"/><rect class="cls-5" x="351.94" y="205.6" width="6.44" height="58.81"/><rect class="cls-5" x="242.21" y="205.81" width="5.32" height="58.81"/><rect class="cls-5" x="333.84" y="205.81" width="3.22" height="58.81"/><rect class="cls-6" x="103.15" y="205.58" width="8" height="58.83"/><rect class="cls-6" x="460.58" y="205.59" width="26.31" height="59.12"/><rect class="cls-5" x="321.37" y="205.73" width="36.84" height="58.98"/><rect class="cls-6" x="345.66" y="205.52" width="12.55" height="58.98"/><rect class="cls-6" x="231.19" y="205.73" width="5.18" height="58.98"/><rect class="cls-6" x="252.93" y="205.73" width="2.59" height="58.98"/><rect class="cls-6" x="323.37" y="205.73" width="13.69" height="58.98"/><rect class="cls-7" x="337.11" y="205.55" width="8.04" height="58.98"/><rect class="cls-8" x="247.53" y="205.55" width="8.04" height="58.98"/><rect class="cls-9" x="220.33" y="205.59" width="16.09" height="58.98"/><rect class="cls-10" x="87.06" y="205.59" width="16.09" height="58.98"/><path class="cls-11" d="M508.77,264.57H79.59L0,298.27H596.43Z"/><path class="cls-12" d="M585.8,294.19H9.73L0,298.27H596.43Z"/><path class="cls-13" d="M542,277.34H49.44l-9.6,4.07H552.6Z"/><path class="cls-14" d="M520.06,268.91H69.43L59.7,273h471Z"/><path class="cls-15" d="M564.11,285.84H29.32l-9.6,4.08h555Z"/><rect class="cls-16" x="266.67" y="206.79" width="56.7" height="56.7"/><g class="cls-17"><path class="cls-18" d="M282.68,262.48l-4.35-54.62h5.84l4.53,54.62"/></g><g class="cls-17"><path class="cls-18" d="M292.31,262.48l-4.68-54.69h8.8q2.34,27.33,4.67,54.68"/></g><line class="cls-19" x1="296.75" y1="206.36" x2="296.75" y2="263.72"/><line class="cls-19" x1="301.37" y1="239.41" x2="301.37" y2="238.1"/><line class="cls-19" x1="292" y1="239.41" x2="292" y2="238.1"/><line class="cls-20" x1="100.15" y1="0.31" x2="100.15" y2="205.59"/><line class="cls-20" x1="135.89" y1="0.31" x2="135.89" y2="205.59"/><line class="cls-20" x1="171.02" y1="0.31" x2="171.02" y2="205.59"/><line class="cls-20" x1="207.89" y1="0.32" x2="207.89" y2="205.58"/><line class="cls-20" x1="242.58" y1="0.31" x2="242.58" y2="205.59"/><line class="cls-20" x1="278.33" y1="0.31" x2="278.33" y2="205.59"/><line class="cls-20" x1="313.45" y1="0.31" x2="313.45" y2="205.59"/><line class="cls-20" x1="350.33" y1="0.32" x2="350.33" y2="205.26"/><line class="cls-20" x1="385.13" y1="0.32" x2="385.13" y2="205.58"/><line class="cls-20" x1="420.88" y1="0.32" x2="420.88" y2="205.58"/><line class="cls-20" x1="456" x2="456" y2="205.58"/><line class="cls-20" x1="492.88" y1="0.32" x2="492.88" y2="205.59"/><line class="cls-20" x1="64.09" y1="69.51" x2="535.15" y2="69.51"/><line class="cls-20" x1="64.09" y1="135.38" x2="535.15" y2="135.38"/><path class="cls-21" d="M502.2,205.59H64.09V.32A1102.28,1102.28,0,0,0,230.34,65.21c118.16,35.27,208,39.91,256.84,112.51A164.11,164.11,0,0,1,502.2,205.59Z"/><path class="cls-21" d="M385.13,205.58H64l.09-204A961.72,961.72,0,0,0,185.87,66C276,105.65,344.25,116.89,374.16,177.84A186.9,186.9,0,0,1,385.13,205.58Z"/><g class="cls-22"><text class="cls-23" transform="translate(231.08 175.32)">Д<tspan class="cls-24" x="14.53" y="0" xml:space="preserve">ОМ   </tspan><tspan class="cls-25" x="54.38" y="0"> </tspan><tspan class="cls-26" x="56.38" y="0">УЧЁНЫХ</tspan></text><text class="cls-27" transform="translate(231.08 175.32)">Д<tspan class="cls-24" x="14.53" y="0" xml:space="preserve">ОМ   </tspan><tspan class="cls-25" x="54.38" y="0"> </tspan><tspan class="cls-26" x="56.38" y="0">УЧЁНЫХ</tspan></text><text class="cls-28" transform="translate(279.26 189.72)">СО <tspan class="cls-29" x="18.24" y="0">Р</tspan><tspan x="24.15" y="0">АН</tspan></text><text class="cls-30" transform="translate(279.26 189.72)">СО <tspan class="cls-29" x="18.24" y="0">Р</tspan><tspan x="24.15" y="0">АН</tspan></text></g><path class="cls-31" d="M493.3,254.09a45.67,45.67,0,0,1,4.39-15.69c4.47-9.28,11.68-16.89,18.08-23.3,8.94-8.94,9.09-21.94,9.09-22.07h.69c0,.13-.15,13.38-9.27,22.5-11,11-20.88,22.43-22.33,38.78A1.52,1.52,0,0,0,493.3,254.09Z"/><path class="cls-31" d="M494,253a1,1,0,0,1-.26.34.84.84,0,0,1-.43.19,81,81,0,0,1-1.09-12.73,83.06,83.06,0,0,1,.86-12.1,78.79,78.79,0,0,1,8.65-25.25h.73A75.24,75.24,0,0,0,494,253Z"/><path class="cls-31" d="M474.16,201.28l.72.07A158.35,158.35,0,0,0,494.43,252a1,1,0,0,1-.5.19.92.92,0,0,1-.56-.12c-1.19-2.49-3-6.27-5.33-10.87-1.83-3.64-3.19-6.24-3.42-6.68C482.27,230,478.91,221,474.16,201.28Z"/><path class="cls-31" d="M492,234.38c1.29,10.19,2.7,21.34,1.86,31.73a1.62,1.62,0,0,0-.74.24c.88-10.41-.54-21.63-1.84-31.88-1.65-13-3.08-24.32.23-31.45,6.85-14.8,4.38-30,4.35-30.13l.71-.13c0,.16,2.54,15.56-4.41,30.56C489,210.27,490.43,221.44,492,234.38Z"/><path class="cls-32" d="M496.4,180.12s-1.12.42-.4,1.17,3,1.36,1.93,2.08-4.88.82-5.87-.36c-.28-.42.87-.76,1.8-1.22s.41-1.4-.17-1.67C493.5,180,496.4,180.12,496.4,180.12Z"/><path class="cls-33" d="M493.86,181.84c.94-.47.41-1.4-.17-1.67-.19-.09,2.71,0,2.71,0s-.74.28-.63.79c-.31,1-3,1-1.74,2.36a3.12,3.12,0,0,0,1.79.62c-1.46.09-3.15-.15-3.76-.88C491.78,182.59,492.93,182.25,493.86,181.84Z"/><path class="cls-34" d="M480.87,158.84c0,11.4,8.32,21.53,14.11,21.53s14.11-10.29,14.11-21.53a14.11,14.11,0,1,0-28.22,0Z"/><path class="cls-33" d="M495,144.75a14.2,14.2,0,0,1,5.6,1.18,14.38,14.38,0,0,0-3.57-.45c-7.79,0-12.75,6.86-12.75,14.65,0,9.43,4.77,17.62,9.7,20.16-5.7-1-13.14-10.65-13.14-21.43a14.11,14.11,0,0,1,14.11-14.11Z"/><path class="cls-35" d="M505.77,154.23c-2.29-5.48-6.51-7-9.71-6.69s-1.32,2,1.09,2.59,5.52,3.74,5.88,9.09C503.42,165.13,508.06,159.72,505.77,154.23Z"/><path class="cls-36" d="M526.58,191.15s-1.12.42-.4,1.18,3,1.35,1.93,2.08-4.88.81-5.88-.37c-.27-.42.88-.76,1.81-1.22s.41-1.4-.17-1.66C524.77,191.11,525.68,191.11,526.58,191.15Z"/><path class="cls-37" d="M524.07,192.84c.94-.46.41-1.4-.17-1.66a24.5,24.5,0,0,1,2.71,0s-.74.28-.63.79c-.31,1-3,1-1.74,2.37A3.11,3.11,0,0,0,526,195c-1.46.1-3.15-.14-3.77-.88C522,193.62,523.14,193.28,524.07,192.84Z"/><path class="cls-38" d="M511.08,169.9c0,11.39,8.32,21.52,14.11,21.52s14.11-10.31,14.11-21.52a14.11,14.11,0,1,0-28.22,0Z"/><path class="cls-37" d="M525.19,155.84a14.1,14.1,0,0,1,5.65,1.18,13.93,13.93,0,0,0-3.57-.46c-7.79,0-12.75,6.86-12.75,14.65,0,9.44,4.77,17.63,9.7,20.17-5.71-1-13.14-10.66-13.14-21.43A14.11,14.11,0,0,1,525.19,155.84Z"/><path class="cls-39" d="M536,165.27c-2.29-5.49-6.51-7-9.71-6.69s-1.32,2,1.09,2.59,5.52,3.73,5.88,9.09C533.58,176.17,538.27,170.76,536,165.27Z"/><path class="cls-31" d="M524.82,192.31H525c.37,0,1.58-.12,1.64-.54,0-.25-.27-.37-.37-.4h-.05a6.57,6.57,0,0,1-1.25.15h-.42a.35.35,0,0,0-.32.37.42.42,0,0,0,.2.35A1,1,0,0,0,524.82,192.31Zm1.34-.59a4,4,0,0,1-1.23.22c-.35,0-.47-.06-.49-.09h0a3.09,3.09,0,0,0,.43,0,6.88,6.88,0,0,0,1.28-.15Z"/><path class="cls-40" d="M503,202.36s-1.12.42-.39,1.18,3,1.36,1.93,2.08-4.89.81-5.88-.36c-.27-.43.87-.76,1.81-1.23s.4-1.4-.18-1.66C501.22,202.32,502.13,202.32,503,202.36Z"/><path class="cls-41" d="M500.5,204c.93-.46.4-1.4-.18-1.66a24.5,24.5,0,0,1,2.71,0s-.74.28-.62.79c-.32,1-3,1-1.75,2.37a3.21,3.21,0,0,0,1.79.61c-1.46.1-3.14-.14-3.76-.87C498.42,204.84,499.58,204.5,500.5,204Z"/><path class="cls-42" d="M487.5,181.11c0,11.39,8.32,21.52,14.11,21.52s14.11-10.31,14.11-21.52a14.11,14.11,0,0,0-28.22,0Z"/><path class="cls-41" d="M501.58,167a14.1,14.1,0,0,1,5.65,1.18,13.93,13.93,0,0,0-3.57-.46c-7.79,0-12.75,6.86-12.75,14.65,0,9.44,4.77,17.63,9.7,20.17-5.7-1-13.14-10.66-13.14-21.43A14.11,14.11,0,0,1,501.58,167Z"/><path class="cls-43" d="M512.41,176.48c-2.3-5.49-6.52-7-9.71-6.69s-1.33,2,1.08,2.59,5.53,3.74,5.88,9.09C510.05,187.38,514.7,182,512.41,176.48Z"/><path class="cls-31" d="M501.24,203.65h.13c.37,0,1.58-.12,1.64-.55,0-.25-.27-.36-.37-.4h-.05a6.57,6.57,0,0,1-1.25.15,2.94,2.94,0,0,1-.42,0h-.05a.37.37,0,0,0-.32.38.4.4,0,0,0,.2.34A1,1,0,0,0,501.24,203.65Zm1.34-.58a4.3,4.3,0,0,1-1.23.22c-.35,0-.47-.06-.49-.09h0a3.09,3.09,0,0,0,.43,0,6.88,6.88,0,0,0,1.28-.15Z"/><path class="cls-44" d="M476.08,201.05s-1.11.42-.39,1.17,3,1.36,1.93,2.08-4.88.82-5.88-.36c-.27-.42.88-.76,1.81-1.22s.41-1.4-.17-1.67A24.32,24.32,0,0,1,476.08,201.05Z"/><path class="cls-45" d="M473.58,202.72c.94-.47.41-1.4-.17-1.67a24.32,24.32,0,0,1,2.7,0s-.74.28-.62.79c-.31,1-3,1-1.74,2.36a3.12,3.12,0,0,0,1.79.62c-1.46.09-3.15-.15-3.77-.88C471.47,203.52,472.58,203.18,473.58,202.72Z"/><path class="cls-46" d="M460.58,179.84c0,11.4,8.32,21.53,14.11,21.53s14.09-10.36,14.09-21.53a14.11,14.11,0,0,0-28.2,0Z"/><path class="cls-45" d="M474.67,165.68a14.1,14.1,0,0,1,5.65,1.18,14.38,14.38,0,0,0-3.57-.45c-7.8,0-12.76,6.85-12.76,14.65,0,9.43,4.78,17.62,9.7,20.16-5.7-1-13.13-10.66-13.13-21.43A14.11,14.11,0,0,1,474.67,165.68Z"/><path class="cls-47" d="M485.46,175.16c-2.29-5.48-6.51-7-9.71-6.69s-1.32,2,1.09,2.59,5.52,3.74,5.88,9.09C483.11,186.06,487.75,180.65,485.46,175.16Z"/><path class="cls-31" d="M474.29,202.62h.13c.37,0,1.58-.12,1.64-.55,0-.25-.26-.36-.36-.39h-.06a6.47,6.47,0,0,1-1.24.15H474a.37.37,0,0,0-.33.38.4.4,0,0,0,.2.34A1,1,0,0,0,474.29,202.62Zm1.34-.59a4.3,4.3,0,0,1-1.23.22c-.35,0-.47-.06-.48-.09h.43a6.78,6.78,0,0,0,1.27-.15Z"/><path class="cls-31" d="M76,252.78a45.7,45.7,0,0,1,4.41-15.69c4.48-9.29,11.68-16.9,18.09-23.3,8.91-8.95,9.06-21.95,9.06-22.07h.7c0,.13-.15,13.38-9.27,22.5-11,11-20.89,22.43-22.33,38.78A1.57,1.57,0,0,0,76,252.78Z"/><path class="cls-31" d="M76.68,251.73a1,1,0,0,1-.26.34.84.84,0,0,1-.43.19,80,80,0,0,1-.23-24.86,78.58,78.58,0,0,1,8.67-25.25h.72A75.3,75.3,0,0,0,76.7,251.7Z"/><path class="cls-31" d="M56.88,200l.72.07a160,160,0,0,0,19.52,50.6,1,1,0,0,1-.49.19.94.94,0,0,1-.57-.12c-1.18-2.49-3-6.27-5.32-10.87-1.84-3.65-3.2-6.24-3.42-6.68C65,228.7,61.64,219.67,56.88,200Z"/><path class="cls-31" d="M74.76,233.07c1.29,10.19,2.7,21.33,1.86,31.73a1.66,1.66,0,0,0-.75.24c.89-10.41-.53-21.63-1.83-31.88-1.65-13-3.08-24.32.22-31.45,6.86-14.8,4.38-30,4.36-30.14l.71-.12c0,.16,2.54,15.55-4.41,30.56C71.7,209,73.12,220.13,74.76,233.07Z"/><path class="cls-32" d="M79.12,178.84s-1.11.42-.39,1.17,3,1.36,1.93,2.08-4.88.82-5.88-.36c-.27-.42.88-.76,1.81-1.23s.41-1.39-.17-1.66A24.32,24.32,0,0,1,79.12,178.84Z"/><path class="cls-33" d="M76.58,180.47c.93-.46.41-1.39-.17-1.66a24.32,24.32,0,0,1,2.7,0s-.74.28-.62.79c-.31,1-3,1-1.74,2.36a3.12,3.12,0,0,0,1.79.62c-1.46.09-3.15-.15-3.77-.88C74.51,181.28,75.66,180.94,76.58,180.47Z"/><path class="cls-48" d="M63.58,157.55c0,11.4,8.32,21.53,14.11,21.53S91.8,168.77,91.8,157.55a14.11,14.11,0,0,0-28.22,0Z"/><path class="cls-33" d="M77.71,143.44a14.1,14.1,0,0,1,5.65,1.18,13.93,13.93,0,0,0-3.57-.46C72,144.16,67,151,67,158.82c0,9.43,4.78,17.62,9.7,20.16C71,178,63.6,168.32,63.6,157.55A14.11,14.11,0,0,1,77.71,143.44Z"/><path class="cls-35" d="M88.5,152.92c-2.29-5.48-6.51-7-9.71-6.69s-1.33,2,1.09,2.59,5.52,3.74,5.88,9.09C86.15,163.84,90.79,158.41,88.5,152.92Z"/><path class="cls-36" d="M109.33,189.84s-1.11.42-.39,1.18,3,1.35,1.93,2.08-4.88.81-5.88-.37c-.27-.42.87-.76,1.81-1.22s.41-1.4-.17-1.67C106.43,189.76,109.33,189.84,109.33,189.84Z"/><path class="cls-37" d="M106.8,191.51c.93-.46.41-1.4-.17-1.67-.2-.08,2.7,0,2.7,0s-.74.28-.62.79c-.31,1-3,1-1.75,2.37a3.14,3.14,0,0,0,1.8.61c-1.46.1-3.15-.15-3.77-.88C104.72,192.31,105.86,192,106.8,191.51Z"/><path class="cls-49" d="M93.81,168.59c0,11.39,8.32,21.52,14.1,21.52S122,179.84,122,168.59a14.11,14.11,0,1,0-28.21-.75Q93.79,168.22,93.81,168.59Z"/><path class="cls-37" d="M107.91,154.48a14.1,14.1,0,0,1,5.65,1.18,13.8,13.8,0,0,0-3.56-.46c-7.8,0-12.76,6.86-12.76,14.65,0,9.44,4.78,17.63,9.7,20.17-5.7-1-13.13-10.66-13.13-21.43a14.1,14.1,0,0,1,14.09-14.11Z"/><path class="cls-39" d="M118.71,164c-2.29-5.49-6.51-7-9.71-6.7s-1.33,2,1.09,2.6,5.52,3.73,5.87,9.09C116.36,174.84,121,169.44,118.71,164Z"/><path class="cls-31" d="M107.58,191h.13c.37,0,1.57-.12,1.64-.54,0-.25-.27-.37-.37-.4h-.1a6.57,6.57,0,0,1-1.25.15h-.43a.35.35,0,0,0-.32.37.42.42,0,0,0,.2.35A1,1,0,0,0,107.58,191Zm1.33-.59a3.87,3.87,0,0,1-1.22.22c-.36,0-.48-.06-.49-.09h0a3.09,3.09,0,0,0,.43,0,7.71,7.71,0,0,0,1.27-.14Z"/><path class="cls-40" d="M85.76,201.05s-1.12.42-.4,1.18,3,1.35,1.93,2.08-4.88.81-5.88-.36c-.27-.43.88-.77,1.81-1.23s.41-1.4-.17-1.66C84,201,84.86,201,85.76,201.05Z"/><path class="cls-41" d="M83.22,202.72c.94-.46.41-1.4-.17-1.66a24.5,24.5,0,0,1,2.71,0s-.74.28-.63.79c-.31,1-3,1-1.74,2.37a3.11,3.11,0,0,0,1.79.61c-1.46.1-3.15-.14-3.77-.87C81.14,203.52,82.29,203.18,83.22,202.72Z"/><path class="cls-50" d="M70.23,179.84c0,11.39,8.32,21.52,14.11,21.52S98.45,191,98.45,179.84a14.11,14.11,0,0,0-28.22,0Z"/><path class="cls-41" d="M84.34,165.69A14.1,14.1,0,0,1,90,166.87a13.93,13.93,0,0,0-3.57-.46c-7.79,0-12.75,6.86-12.75,14.65,0,9.44,4.77,17.63,9.7,20.17-5.71-1-13.14-10.66-13.14-21.43A14.11,14.11,0,0,1,84.34,165.69Z"/><path class="cls-43" d="M95.13,175.17c-2.29-5.49-6.51-7-9.71-6.69s-1.32,2,1.09,2.59,5.52,3.73,5.88,9.09C92.78,186.07,97.42,180.66,95.13,175.17Z"/><path class="cls-31" d="M84,202.34h.14c.36,0,1.57-.12,1.64-.55,0-.25-.27-.36-.37-.4h-.11a6.47,6.47,0,0,1-1.24.15,3.09,3.09,0,0,1-.43,0h0a.37.37,0,0,0-.32.38.4.4,0,0,0,.2.34A1,1,0,0,0,84,202.34Zm1.34-.58a4.68,4.68,0,0,1-1.23.22c-.35,0-.47-.06-.48-.09h0a3.09,3.09,0,0,0,.43,0,6.78,6.78,0,0,0,1.27-.15Z"/><path class="cls-44" d="M58.81,199.73s-1.12.43-.39,1.18,3,1.36,1.93,2.08-4.89.81-5.88-.36c-.27-.42.87-.76,1.81-1.23s.4-1.39-.18-1.66C57,199.69,57.91,199.69,58.81,199.73Z"/><path class="cls-45" d="M56.28,201.4c.93-.46.4-1.39-.18-1.66a24.5,24.5,0,0,1,2.71,0s-.74.29-.62.8c-.32,1-3,1-1.75,2.36a3.22,3.22,0,0,0,1.79.62c-1.45.09-3.14-.15-3.76-.88C54.2,202.21,55.34,201.84,56.28,201.4Z"/><path class="cls-51" d="M43.28,178.48c0,11.4,8.32,21.53,14.11,21.53S71.5,189.7,71.5,178.48a14.11,14.11,0,1,0-28.22,0Z"/><path class="cls-45" d="M57.39,164.37A14.1,14.1,0,0,1,63,165.55a13.93,13.93,0,0,0-3.57-.46c-7.79,0-12.75,6.86-12.75,14.66,0,9.43,4.77,17.62,9.7,20.16-5.7-1-13.14-10.66-13.14-21.43A14.11,14.11,0,0,1,57.39,164.37Z"/><path class="cls-47" d="M68.19,173.84c-2.3-5.48-6.52-7-9.71-6.69s-1.33,2,1.08,2.59,5.53,3.74,5.88,9.09C65.83,184.75,70.48,179.34,68.19,173.84Z"/><path class="cls-31" d="M57,201.3h.13c.37,0,1.58-.12,1.64-.55,0-.25-.27-.36-.37-.4h-.1a6.57,6.57,0,0,1-1.25.15h-.49a.37.37,0,0,0-.32.38.4.4,0,0,0,.2.34A1,1,0,0,0,57,201.3Zm1.34-.58a4.3,4.3,0,0,1-1.23.22c-.35,0-.47-.06-.49-.09h0a3.09,3.09,0,0,0,.43,0,6.88,6.88,0,0,0,1.28-.15Z"/></g></g></g></g></svg>