<svg xmlns="http://www.w3.org/2000/svg" xmlns:xlink="http://www.w3.org/1999/xlink" viewBox="0 0 267.95 342.89"><defs><style>.cls-1{isolation:isolate;}.cls-2,.cls-3,.cls-4,.cls-5,.cls-6,.cls-7,.cls-9{fill-rule:evenodd;}.cls-2{fill:url(#Безымянный_градиент_167);}.cls-3{fill:url(#Безымянный_градиент_166);}.cls-4{fill:url(#Безымянный_градиент_167-2);}.cls-5{fill:url(#Безымянный_градиент_166-2);}.cls-6{fill:url(#Безымянный_градиент_165);}.cls-7,.cls-8{fill:#050505;}.cls-15,.cls-17,.cls-7,.cls-8,.cls-9{opacity:0.1;}.cls-10,.cls-24,.cls-25{fill:#00582b;}.cls-11{fill:url(#Безымянный_градиент_94);}.cls-12{fill:url(#Безымянный_градиент_159);}.cls-13{opacity:0.15;}.cls-14{fill:url(#Безымянный_градиент_146);}.cls-16{opacity:0.2;}.cls-17{fill:#fff;}.cls-18{fill:url(#Безымянный_градиент_158);}.cls-19{fill:url(#Безымянный_градиент_157);}.cls-20{fill:url(#Безымянный_градиент_157-2);}.cls-21{fill:url(#Безымянный_градиент_157-3);}.cls-22{opacity:0.05;}.cls-23,.cls-25{opacity:0.5;}.cls-24,.cls-25{mix-blend-mode:multiply;}.cls-26{fill:url(#Безымянный_градиент_92);}.cls-27{fill:url(#Безымянный_градиент_92-2);}.cls-28{fill:#73b634;mix-blend-mode:screen;}</style><linearGradient id="Безымянный_градиент_167" x1="151.71" y1="225.36" x2="201.39" y2="225.36" gradientUnits="userSpaceOnUse"><stop offset="0" stop-color="#94de92"/><stop offset="1" stop-color="#6bbe8a"/></linearGradient><linearGradient id="Безымянный_градиент_166" x1="168.3" y1="234.02" x2="217.98" y2="234.02" gradientUnits="userSpaceOnUse"><stop offset="0" stop-color="#4da283"/><stop offset="1" stop-color="#266c6d"/></linearGradient><linearGradient id="Безымянный_градиент_167-2" x1="109.18" y1="218.46" x2="160.17" y2="218.46" xlink:href="#Безымянный_градиент_167"/><linearGradient id="Безымянный_градиент_166-2" x1="93.02" y1="226.78" x2="144.01" y2="226.78" xlink:href="#Безымянный_градиент_166"/><linearGradient id="Безымянный_градиент_165" y1="257.92" x2="267.95" y2="257.92" gradientUnits="userSpaceOnUse"><stop offset="0" stop-color="#efc47f"/><stop offset="0.52" stop-color="#f2ad6a"/><stop offset="1" stop-color="#f7945d"/></linearGradient><linearGradient id="Безымянный_градиент_94" x1="114.2" y1="226.49" x2="213.77" y2="226.49" gradientUnits="userSpaceOnUse"><stop offset="0" stop-color="#4d9981"/><stop offset="1" stop-color="#135965"/></linearGradient><linearGradient id="Безымянный_градиент_159" x1="31.97" y1="55.29" x2="203.51" y2="55.29" gradientUnits="userSpaceOnUse"><stop offset="0" stop-color="#45aea0"/><stop offset="1" stop-color="#079098"/></linearGradient><linearGradient id="Безымянный_градиент_146" x1="77.21" y1="147.33" x2="176.85" y2="147.33" gradientUnits="userSpaceOnUse"><stop offset="0" stop-color="#a49086"/><stop offset="1" stop-color="#63564f"/></linearGradient><linearGradient id="Безымянный_градиент_158" x1="27.59" y1="41.73" x2="211.49" y2="41.73" gradientUnits="userSpaceOnUse"><stop offset="0" stop-color="#7ecaa3"/><stop offset="1" stop-color="#079098"/></linearGradient><linearGradient id="Безымянный_градиент_157" x1="62.91" y1="55.29" x2="69.58" y2="55.29" gradientUnits="userSpaceOnUse"><stop offset="0" stop-color="#b8e6a5"/><stop offset="1" stop-color="#7ecaa3"/></linearGradient><linearGradient id="Безымянный_градиент_157-2" x1="112.63" y1="34.46" x2="123.59" y2="34.46" xlink:href="#Безымянный_градиент_157"/><linearGradient id="Безымянный_градиент_157-3" x1="-513.1" y1="-2063.77" x2="-500.4" y2="-2063.77" gradientTransform="matrix(-0.24, 1.01, -1.02, -0.24, -2076.63, 48.13)" xlink:href="#Безымянный_градиент_157"/><linearGradient id="Безымянный_градиент_92" x1="172.02" y1="230.92" x2="221.14" y2="230.92" gradientUnits="userSpaceOnUse"><stop offset="0" stop-color="#6bbe8a"/><stop offset="1" stop-color="#22797a"/></linearGradient><linearGradient id="Безымянный_градиент_92-2" x1="112.48" y1="229.72" x2="168.82" y2="229.72" xlink:href="#Безымянный_градиент_92"/></defs><g class="cls-1"><g id="Слой_2" data-name="Слой 2"><g id="Объекты"><g id="ОБСКОЕ"><path class="cls-2" d="M192.23,216.9a2.15,2.15,0,0,1,.82,2.92l0,.05a1.69,1.69,0,0,1,.5,1.3,3.44,3.44,0,0,1,4.25,3.81,3.42,3.42,0,0,1,.31,3.85L198,229a3.73,3.73,0,0,1,1.41.47,3.9,3.9,0,0,1-3.83,6.8,3.82,3.82,0,0,1-1.47-1.46,4.87,4.87,0,0,1-4.33-.23,4.79,4.79,0,0,1-2-2.14A6.2,6.2,0,0,1,180,230a5.71,5.71,0,0,1-6.37-1.92,4.68,4.68,0,0,1-1.39.21l-.12.22a5.85,5.85,0,0,1-8,2.22,5.72,5.72,0,0,1-2.17-2.14,5.2,5.2,0,0,1-3.06-.64,5.12,5.12,0,0,1-1.36-1.11,4.59,4.59,0,1,1-.34-8.94,2.7,2.7,0,0,1,.32-1.83,2.76,2.76,0,0,1,3.78-1.05,2.7,2.7,0,0,1,1,1,4,4,0,0,1,7.46,1.59,2.24,2.24,0,0,1,2.83-.54l.09.05a3.42,3.42,0,0,1,.21-.43,3.6,3.6,0,0,1,4.89-1.37,3.64,3.64,0,0,1,1,.87,3,3,0,0,1,.18-.36,3.63,3.63,0,0,1,6.79,1.82,2.73,2.73,0,0,1,3.61-.06A2.15,2.15,0,0,1,192.23,216.9Z"/><path class="cls-3" d="M208.82,225.56a2.15,2.15,0,0,1,.82,2.93l0,0a1.72,1.72,0,0,1,.51,1.3,3.4,3.4,0,0,1,2.52.34,3.46,3.46,0,0,1,1.72,3.46,3.46,3.46,0,0,1,.32,3.86l-.1.15a3.9,3.9,0,1,1-3.89,5.81,4.85,4.85,0,0,1-6.33-2.37,6.18,6.18,0,0,1-5.56-.26,6.07,6.07,0,0,1-2.25-2.19,5.69,5.69,0,0,1-4.65-.43,5.78,5.78,0,0,1-1.72-1.49,4.3,4.3,0,0,1-1.39.21,2.53,2.53,0,0,1-.12.23,5.84,5.84,0,0,1-10.14.08,5.24,5.24,0,0,1-4.42-1.75,4.59,4.59,0,1,1-.34-8.94,2.78,2.78,0,0,1,5.12-1.9,4,4,0,0,1,7.46,1.6,2.23,2.23,0,0,1,2.83-.55l.09.06a3.55,3.55,0,0,1,.21-.44,3.6,3.6,0,0,1,5.92-.5,2.31,2.31,0,0,1,.18-.35,3.63,3.63,0,0,1,6.79,1.81,2.72,2.72,0,0,1,3.18-.35,2.83,2.83,0,0,1,.44.3A2.15,2.15,0,0,1,208.82,225.56Z"/><path class="cls-4" d="M147.16,208.35a2.14,2.14,0,0,1,1.52,2.62V211a1.72,1.72,0,0,1,.82,1.13,3.37,3.37,0,0,1,2.52-.3,3.42,3.42,0,0,1,2.54,2.91,3.45,3.45,0,0,1,1.28,3.65c0,.06,0,.12-.05.18a3.56,3.56,0,0,1,1.48.1,3.9,3.9,0,1,1-2,7.54,3.84,3.84,0,0,1-1.79-1,4.87,4.87,0,0,1-6.72-.7,6.17,6.17,0,0,1-5.44,1.15,6.07,6.07,0,0,1-2.73-1.55,5.69,5.69,0,0,1-4.61.75,5.8,5.8,0,0,1-2-1,4.61,4.61,0,0,1-1.29.55l-.06.24a5.85,5.85,0,0,1-9.8,2.64,5.17,5.17,0,0,1-3.12.15,5.43,5.43,0,0,1-1.6-.73,4.59,4.59,0,1,1-2.58-8.56,2.81,2.81,0,0,1-.15-1.86,2.78,2.78,0,0,1,3.4-2,2.74,2.74,0,0,1,1.23.7,4,4,0,0,1,7.63-.33,2.2,2.2,0,0,1,2.59-1.24l.11,0a4,4,0,0,1,.09-.48,3.59,3.59,0,0,1,5.6-2c0-.13.05-.26.08-.39a3.63,3.63,0,0,1,7,0,2.75,2.75,0,0,1,3-1.14,2.05,2.05,0,0,1,.49.18A2.15,2.15,0,0,1,147.16,208.35Z"/><path class="cls-5" d="M131,216.66a2.15,2.15,0,0,1,1.52,2.63v.06a1.68,1.68,0,0,1,.81,1.13,3.44,3.44,0,0,1,5.07,2.61,3.45,3.45,0,0,1,1.28,3.65,1.54,1.54,0,0,0,0,.17,3.9,3.9,0,1,1-.52,7.65,4,4,0,0,1-1.79-1,4.87,4.87,0,0,1-6.72-.7,6.22,6.22,0,0,1-8.18-.4,5.71,5.71,0,0,1-6.64-.26,4.33,4.33,0,0,1-1.29.55l-.06.25a5.85,5.85,0,0,1-9.8,2.64,5.09,5.09,0,0,1-3.12.14,5.16,5.16,0,0,1-1.6-.72,4.59,4.59,0,1,1-2.58-8.57,2.77,2.77,0,0,1,4.48-3.12,4,4,0,0,1,7.63-.34,2.22,2.22,0,0,1,2.59-1.24l.11,0a3.55,3.55,0,0,1,.09-.47,3.59,3.59,0,0,1,5.6-2c0-.13.05-.26.08-.39a3.63,3.63,0,0,1,7,.05,2.71,2.71,0,0,1,3.49-1A2.16,2.16,0,0,1,131,216.66Z"/><path class="cls-6" d="M134,224.07c67.92,0,124.15,25.32,133.87,58.32a.77.77,0,0,1,.1.34c0,5-60,9-134,9s-134-4-134-9a.77.77,0,0,1,.1-.34C9.82,249.39,66.05,224.07,134,224.07Z"/><path class="cls-7" d="M146.25,254.36c34.23,0,62.15-2.94,62.15-6.54s-27.92-6.55-62.15-6.55-62.15,2.94-62.15,6.55S112,254.36,146.25,254.36Z"/><path class="cls-7" d="M237.52,248.45c-31.24,16.46-83.09,27.23-141.78,27.23-31.86,0-61.72-3.17-87.35-8.71A45.73,45.73,0,0,0,.1,282.39a.77.77,0,0,0-.1.34c0,5,60,9,134,9s134-4,134-9a.77.77,0,0,0-.1-.34C264.07,269.58,253.28,257.92,237.52,248.45Z"/><path class="cls-7" d="M54.45,259.57c1.83,0,3.33-.38,3.33-.85s-1.5-.85-3.33-.85-3.33.38-3.33.85S52.61,259.57,54.45,259.57Z"/><path class="cls-7" d="M64.74,246.69c1.39,0,2.52-.35,2.52-.78s-1.13-.78-2.52-.78-2.51.35-2.51.78S63.36,246.69,64.74,246.69Z"/><path class="cls-7" d="M87,262c2,0,3.63-.45,3.63-1S89,260,87,260s-3.63.45-3.63,1S85,262,87,262Z"/><path class="cls-7" d="M78.48,250.83c1.13,0,2-.35,2-.77s-.91-.78-2-.78-2,.35-2,.78S77.36,250.83,78.48,250.83Z"/><path class="cls-7" d="M83.34,238.39c1.71,0,3.11-.6,3.11-1.33s-1.4-1.34-3.11-1.34-3.12.6-3.12,1.34S81.62,238.39,83.34,238.39Z"/><path class="cls-7" d="M51.41,241.5c1,0,1.78-.3,1.78-.67s-.8-.66-1.78-.66-1.78.3-1.78.66S50.43,241.5,51.41,241.5Z"/><path class="cls-7" d="M40.49,254.39c1.28,0,2.33-.3,2.33-.67s-1-.67-2.33-.67-2.34.3-2.34.67S39.2,254.39,40.49,254.39Z"/><path class="cls-7" d="M123.48,260.46c1.71,0,3.11-.53,3.11-1.18s-1.4-1.19-3.11-1.19-3.11.53-3.11,1.19S121.77,260.46,123.48,260.46Z"/><path class="cls-7" d="M108.37,254.54c1.14,0,2.07-.37,2.07-.82s-.93-.81-2.07-.81-2.07.36-2.07.81S107.23,254.54,108.37,254.54Z"/><path class="cls-7" d="M153.78,262.46c1.83,0,3.33-.28,3.33-.63s-1.5-.63-3.33-.63-3.34.29-3.34.63S151.94,262.46,153.78,262.46Z"/><path class="cls-7" d="M143.59,253.5c.88,0,1.59-.28,1.59-.63s-.71-.63-1.59-.63-1.59.28-1.59.63S142.71,253.5,143.59,253.5Z"/><path class="cls-7" d="M164.22,255.28c1.43,0,2.59-.47,2.59-1s-1.16-1-2.59-1-2.59.47-2.59,1S162.79,255.28,164.22,255.28Z"/><path class="cls-7" d="M182.33,252.39c1.69,0,3.07-.45,3.07-1s-1.38-1-3.07-1-3.07.45-3.07,1S180.64,252.39,182.33,252.39Z"/><ellipse class="cls-8" cx="194.11" cy="240.39" rx="3.44" ry="0.67"/><path class="cls-7" d="M171,230.49c.9,0,1.63-.17,1.63-.38s-.73-.39-1.63-.39-1.63.17-1.63.39S170.14,230.49,171,230.49Z"/><path class="cls-7" d="M197.11,257.5c1.87,0,3.4-.33,3.4-.74s-1.53-.74-3.4-.74-3.41.33-3.41.74S195.23,257.5,197.11,257.5Z"/><path class="cls-7" d="M208.4,247.2c2.1,0,3.82-.35,3.82-.78s-1.72-.77-3.82-.77-3.81.35-3.81.77S206.3,247.2,208.4,247.2Z"/><path class="cls-9" d="M126.55,287.12c-46.31,0-89.09-4.35-123.65-11.7a41.26,41.26,0,0,0-2.8,7,.77.77,0,0,0-.1.34c0,5,60,9,134,9s134-4,134-9a.77.77,0,0,0-.1-.34,41.49,41.49,0,0,0-3.68-8.62c-.26-.47-.54-.93-.82-1.39l-3.42.84C223.83,281.9,177.31,287.12,126.55,287.12Z"/><path class="cls-10" d="M125.23,247.71h78c2.46-8.7,10.59-23.44,10.59-23.44a11.19,11.19,0,0,0-11.31,8.19c-.76-7.8,4.8-13.76,4.8-13.76-6.08.71-8.7,12.15-8.7,12.15-1-15.74,6.81-20,6.81-20-6,0-9.18,10.19-9.72,12.61a57.39,57.39,0,0,0-1.15-7.38c-1.55-7.14-4.57-10.62-4.57-10.62A84.46,84.46,0,0,1,192.35,220c-3.9-9.68-8.41-9.42-8.14-9.15,2.15,2.18,5.19,9.52,5.92,13-3.7-9.22-9-9.62-9-9.62,3.12,2.27,4.51,6.79,5.08,9.44a20.24,20.24,0,0,0-9.9-8.13c-.45-.16,2.83,3.7,4.19,5.43a12.1,12.1,0,0,0-6.2-2,14.48,14.48,0,0,1,5.59,8.22c.11.48-.93-1.76-3.3-3.31a5.83,5.83,0,0,0-4.32-1.06c-.07.14,4.68,3,4.44,6.38a6.41,6.41,0,0,0-1.93-2.14.73.73,0,0,0-.62-.11,14.79,14.79,0,0,1-2,6.36.15.15,0,0,1-.27,0,11.73,11.73,0,0,1,.18-5.43,5.24,5.24,0,0,1,1.51-3h-.05c-2.46.42-3.82,2.61-4.44,5-.19.25-.3.42-.3.42a10.87,10.87,0,0,1,1.6-5.13c-2.29-.23-3.71,3.17-3.71,3.17a15.21,15.21,0,0,1,3.5-9.21c-5-1.21-7,7.71-7,7.71A22.13,22.13,0,0,0,159,214.44a31.93,31.93,0,0,1,.93,8.11,22.73,22.73,0,0,0-2.19-5.09,15.16,15.16,0,0,0-6.46-5,32.31,32.31,0,0,1,2.26,5.13,13.62,13.62,0,0,0-4.17-4c-.32-.18,1.67,5.29,2.44,7.85l-.07-.06-.27-.6a11.79,11.79,0,0,0-5.21-5.74c-.25-.12,2.85,6,.63,10.07a17.5,17.5,0,0,0-3.29-10.5c.08,2.86,1.54,7.81-4.51,14.67-.31-7.24,2.59-14,3.92-16.65-3.82,1.76-5.37,5.13-6.62,8.93a50.45,50.45,0,0,0-1.88,8c1.49-13-3-21.39-4.88-24.31a48.8,48.8,0,0,0,1.59,6.3c.46,2.49,1.14,7.53,1.28,10-1.22-4.33-2.48-6.58-3.71-8.12a13.33,13.33,0,0,0-2.15-1.65,21.83,21.83,0,0,1,3.23,8.44,23.62,23.62,0,0,0-2-3.08,17,17,0,0,0-7.35-4c.78.94,1.57,1.85,2.3,2.8a17.22,17.22,0,0,1,3.35,5.57,61.35,61.35,0,0,1,2,8.76,17.68,17.68,0,0,0-6.48-8.46c-1.38-.9-5.29-3.62-7.5-3.27a27.65,27.65,0,0,1,9.64,13.26C124.28,232.73,124.8,241.64,125.23,247.71Z"/><path class="cls-11" d="M125.23,247.71h78c2.46-8.7,10.59-23.44,10.59-23.44a11.19,11.19,0,0,0-11.31,8.19c-.76-7.8,4.8-13.76,4.8-13.76-6.08.71-8.7,12.15-8.7,12.15-1-15.74,6.81-20,6.81-20-6,0-9.18,10.19-9.72,12.61a57.39,57.39,0,0,0-1.15-7.38c-1.55-7.14-4.57-10.62-4.57-10.62A84.46,84.46,0,0,1,192.35,220c-3.9-9.68-8.41-9.42-8.14-9.15,2.15,2.18,5.19,9.52,5.92,13-3.7-9.22-9-9.62-9-9.62,3.12,2.27,4.51,6.79,5.08,9.44a20.24,20.24,0,0,0-9.9-8.13c-.45-.16,2.83,3.7,4.19,5.43a12.1,12.1,0,0,0-6.2-2,14.48,14.48,0,0,1,5.59,8.22c.11.48-.93-1.76-3.3-3.31a5.83,5.83,0,0,0-4.32-1.06c-.07.14,4.68,3,4.44,6.38a6.41,6.41,0,0,0-1.93-2.14.73.73,0,0,0-.62-.11,14.79,14.79,0,0,1-2,6.36.15.15,0,0,1-.27,0,11.73,11.73,0,0,1,.18-5.43,5.24,5.24,0,0,1,1.51-3h-.05c-2.46.42-3.82,2.61-4.44,5-.19.25-.3.42-.3.42a10.87,10.87,0,0,1,1.6-5.13c-2.29-.23-3.71,3.17-3.71,3.17a15.21,15.21,0,0,1,3.5-9.21c-5-1.21-7,7.71-7,7.71A22.13,22.13,0,0,0,159,214.44a31.93,31.93,0,0,1,.93,8.11,22.73,22.73,0,0,0-2.19-5.09,15.16,15.16,0,0,0-6.46-5,32.31,32.31,0,0,1,2.26,5.13,13.62,13.62,0,0,0-4.17-4c-.32-.18,1.67,5.29,2.44,7.85l-.07-.06-.27-.6a11.79,11.79,0,0,0-5.21-5.74c-.25-.12,2.85,6,.63,10.07a17.5,17.5,0,0,0-3.29-10.5c.08,2.86,1.54,7.81-4.51,14.67-.31-7.24,2.59-14,3.92-16.65-3.82,1.76-5.37,5.13-6.62,8.93a50.45,50.45,0,0,0-1.88,8c1.49-13-3-21.39-4.88-24.31a48.8,48.8,0,0,0,1.59,6.3c.46,2.49,1.14,7.53,1.28,10-1.22-4.33-2.48-6.58-3.71-8.12a13.33,13.33,0,0,0-2.15-1.65,21.83,21.83,0,0,1,3.23,8.44,23.62,23.62,0,0,0-2-3.08,17,17,0,0,0-7.35-4c.78.94,1.57,1.85,2.3,2.8a17.22,17.22,0,0,1,3.35,5.57,61.35,61.35,0,0,1,2,8.76,17.68,17.68,0,0,0-6.48-8.46c-1.38-.9-5.29-3.62-7.5-3.27a27.65,27.65,0,0,1,9.64,13.26C124.28,232.73,124.8,241.64,125.23,247.71Z"/><path class="cls-12" d="M192.41,54.25a13.15,13.15,0,0,0,4.81-9.83c0-8.32-8.88-15.07-19.84-15.07-7,0-13.22,2.79-16.74,7-.62-7.9-9.25-14.16-19.81-14.16a24.45,24.45,0,0,0-11.13,2.59,57.26,57.26,0,0,0-17.31-2.59c-20.4,0-36.94,10-36.94,22.25a14.72,14.72,0,0,0,2.39,7.88,16.48,16.48,0,0,0-3.32,4.89,38.67,38.67,0,0,0-15.46-3.06C44.1,54.13,32,61.8,32,71.27S44.1,88.42,59.06,88.42c11,0,20.38-4.11,24.65-10A20.4,20.4,0,0,0,92,80.11a19.63,19.63,0,0,0,14.25-5.9,31.46,31.46,0,0,0,9.22,1.35c10.95,0,20.15-5.38,22.74-12.64a20.18,20.18,0,0,0,27.88.84,9.21,9.21,0,0,0,6.82,2.91,10,10,0,0,0,2.47-.32,5.54,5.54,0,0,0,3.23,2.3c2.07,3.54,6.6,6,11.88,6,7.21,0,13.06-4.59,13.06-10.26C203.51,59.24,198.69,55,192.41,54.25Z"/><ellipse class="cls-13" cx="59.13" cy="62.92" rx="27.32" ry="18.76" transform="translate(-12.5 14.7) rotate(-12.83)"/><path class="cls-13" d="M125.61,37.69c-1.21.76-4.33,2.74-4.67,5.75a5,5,0,0,0,1,3.7,6.23,6.23,0,0,0,3.26,2.15c.83.2,1.52.16,1.74.58s-.19.89-.54,1.46a10.51,10.51,0,0,0-1.09,3.32,6.41,6.41,0,0,0,1.2,4.48,10,10,0,0,0,6.36,4c2.72.51,2.92-.62,5.33-.21,3.87.65,4.28,3.74,8.92,5.29a15.22,15.22,0,0,0,4.56.71,20.22,20.22,0,0,0,12.64-3.72,14.85,14.85,0,0,0,1.6-1.33.21.21,0,0,1,.16-.11c.19,0,.35.3.58.58a4.65,4.65,0,0,0,.84.67A10.65,10.65,0,0,0,170,66.26a10.82,10.82,0,0,0,3.07.41,9.5,9.5,0,0,0,1.23-.12l.31,0a3.93,3.93,0,0,0,.43-.07c.15-.06.19-.11.26-.08s.08.08.14.19a3.21,3.21,0,0,0,.21.3,4.6,4.6,0,0,0,1.09,1,6.85,6.85,0,0,0,.84.48,6,6,0,0,0,.59.24l.21.07a.48.48,0,0,1,.15,0,.29.29,0,0,1,.12.2,4.44,4.44,0,0,0,.27.42c.27.39.53.7.58.76s.24.28.52.56a14.46,14.46,0,0,0,1.17,1.07,15.9,15.9,0,0,0,4,2.14A15.38,15.38,0,0,0,197.63,73a5.66,5.66,0,0,0,.72-.4c2.12-1.69-7.22-25.44-29.82-35.43C148.87,28.45,130,35,125.61,37.69Z"/><path class="cls-14" d="M145.72,140.39,151,54.88c.25-4-1.46-7.58-3.81-8s-4.47,2.48-4.72,6.48l-2.06,33.3c-5.27,2.55-16.82,10.45-23.49,15.11-2.2-2.86-4.85-6.12-6.91-8.61l5.44-15.76a2.24,2.24,0,0,0,.16-.61,1.5,1.5,0,0,0,0-.2c0-.11,0-.22,0-.34v-.09a5.24,5.24,0,0,0-.17-1.34,6,6,0,0,0-.22-.61l-5.07-8.89c-.22-.39-.5-.54-.63-.33l-.54.89c1,2.13,3.09,6.48,4.52,9.27-1.94,4.36-5.34,12.12-7,16.47l-12.69,15a6.24,6.24,0,0,0-.51,1.16c-1.07-2.71-4.76-12-7.7-19.16-.58-1.42-2.19-5.29-4.12-9.9L80.2,75.58a1.58,1.58,0,0,0-2.35.31c-.86,1.24-.95,4.21.28,6.32l10.74,30.72a12.22,12.22,0,0,0,1,1.76c2.16,3.24,5.09,3.28,5.7,1.25,2.46-2.77,8.68-12.26,12.56-18.28l7.83,12.49a2.58,2.58,0,0,0,1.19,1.3c1.15.56,2.56-.21,3.38-1.31l19-8.4-2.84,45.82a12.21,12.21,0,0,0,.16,2.86,14.88,14.88,0,0,0,.41,2.92l20.92,84.3a22,22,0,0,0,2,4.11c5.34,8.31,15.1,7.49,16.52,1.11a7.29,7.29,0,0,0,.17-1.47C176.94,233.35,154.77,167.15,145.72,140.39Z"/><path class="cls-15" d="M157.18,174.68c-4.39-13.32-8.58-25.79-11.46-34.29L151,54.88c.25-4-1.46-7.58-3.81-8s-4.47,2.48-4.72,6.48l-2.06,33.3c-5.27,2.55-16.82,10.45-23.49,15.11-2.2-2.86-4.85-6.12-6.91-8.61l5.44-15.76a2.24,2.24,0,0,0,.16-.61,1.5,1.5,0,0,0,0-.2c0-.11,0-.22,0-.34v-.09a5.24,5.24,0,0,0-.17-1.34,6,6,0,0,0-.22-.61l-5.07-8.89c-.22-.39-.5-.54-.63-.33l-.54.89c1,2.13,3.09,6.48,4.52,9.27-1.94,4.36-5.34,12.12-7,16.47l-12.69,15a6.24,6.24,0,0,0-.51,1.16c-1.07-2.71-4.76-12-7.7-19.16-.58-1.42-2.19-5.29-4.12-9.9L80.2,75.58a1.58,1.58,0,0,0-2.35.31c-.86,1.24-.95,4.21.28,6.32l10.74,30.72a12.22,12.22,0,0,0,1,1.76c2.16,3.24,5.09,3.28,5.7,1.25,2.46-2.77,8.68-12.26,12.56-18.28l7.83,12.49a2.58,2.58,0,0,0,1.19,1.3c1.15.56,2.56-.21,3.38-1.31l19-8.4-2.84,45.82a12.21,12.21,0,0,0,.16,2.86,14.88,14.88,0,0,0,.41,2.92l8.34,33.58"/><path class="cls-16" d="M114,98c-1.38-1.73-2.77-3.43-4-4.87l5.44-15.76a2.24,2.24,0,0,0,.16-.61,1.5,1.5,0,0,0,0-.2c0-.11,0-.22,0-.34v-.09a5.24,5.24,0,0,0-.17-1.34,6,6,0,0,0-.22-.61l-5.07-8.89c-.22-.39-.5-.54-.63-.33l-.54.89c1,2.13,3.09,6.48,4.52,9.27-1.94,4.36-5.34,12.12-7,16.47l-12.69,15a6.24,6.24,0,0,0-.51,1.16c-1.07-2.71-4.76-12-7.7-19.16-.58-1.42-2.19-5.29-4.12-9.9L80.2,75.58a1.58,1.58,0,0,0-2.35.31c-.86,1.24-.95,4.21.28,6.32l10.74,30.72a12.22,12.22,0,0,0,1,1.76c2.16,3.24,5.09,3.28,5.7,1.25,2.46-2.77,8.68-12.26,12.56-18.28l7.83,12.49a2.86,2.86,0,0,0,.29.55"/><path class="cls-13" d="M147.63,109.58,151,54.88c.25-4-1.46-7.58-3.81-8s-4.47,2.48-4.72,6.48L141.4,71"/><path class="cls-17" d="M151.6,211.25l6.55,26.39a22,22,0,0,0,2,4.11c5.34,8.31,15.1,7.49,16.52,1.11a7.29,7.29,0,0,0,.17-1.47c.06-5-8.54-32.63-17.21-59.2"/><path class="cls-18" d="M211.49,56.19a5.19,5.19,0,0,0-3.13-4.51,4.48,4.48,0,0,0,.09-.82c0-2.54-2.24-4.67-5.23-5.19a15.39,15.39,0,0,0-2-1.49,10.12,10.12,0,0,0-.7-3.58,11.66,11.66,0,0,0-6.2-6.3,13.28,13.28,0,0,0-.89-5.91c-3-7.68-12.39-11.72-20.95-9A16.41,16.41,0,0,0,165,24.22h0a3.87,3.87,0,0,0,0-.48c0-2.94-3-5.33-6.66-5.33a8,8,0,0,0-3.22.66,12.55,12.55,0,0,0-.44-1.4c-2.78-7.09-11.44-10.82-19.35-8.33a15.53,15.53,0,0,0-5.18,2.78C124.84,2,110.35-2.7,96.62,1.63c-14.18,4.46-22.29,16.88-18.52,28A12.4,12.4,0,0,0,66.53,33.8a14.35,14.35,0,0,0-3.42-1.16c-7.19-1.46-14.34,2.59-16,9a10.76,10.76,0,0,0,0,5.17,7.88,7.88,0,0,0-1.2-.34c-4.13-.84-8.23,1.42-9.29,5.07A14.46,14.46,0,0,0,28,61.39a13,13,0,0,0,1.06,9.26,9.06,9.06,0,0,0,.2,2.73c.22,1,.91,4,3.66,5.33a6.37,6.37,0,0,0,1.82.58,18.41,18.41,0,0,0,8,3.75C52.41,85,62,79.57,64.16,70.93a14.38,14.38,0,0,0-.65-9,13.09,13.09,0,0,0,10.81-4.16,18,18,0,0,0,7.07,3c8,1.63,15.93-2,18.39-8.19,5.23-1.22,9.43-4.64,10.69-9.31.47-.12,1-.24,1.43-.38C119,44.32,126,41.6,129.12,36.63a19.07,19.07,0,0,0,13.7.62c.87,5.41,5.77,10.17,12.61,11.55A18.59,18.59,0,0,0,167,47.51c2.21,3.79,7.49,5.68,12.85,4.64l.07.06a8,8,0,0,0-.52,6.73,9.47,9.47,0,0,0,6,5.3,7.44,7.44,0,0,0,.51,2.43C187.82,71.61,194.57,74,201,72c5-1.58,8.3-5.4,8.55-9.36a15.77,15.77,0,0,0,.25-2.86A4.79,4.79,0,0,0,211.49,56.19Z"/><ellipse class="cls-19" cx="66.24" cy="55.29" rx="3.34" ry="2.99"/><ellipse class="cls-20" cx="118.11" cy="34.46" rx="5.48" ry="4.46"/><ellipse class="cls-21" cx="156.66" cy="38.65" rx="5.51" ry="6.61" transform="translate(89.12 185.2) rotate(-79.11)"/><path class="cls-17" d="M53.25,66.22c4.89-9.74,3.31-19.87-3.53-22.63-.08,0-.7-.23-1.44-.45,0,0-1.3-.37-1.36-.25v0a1.3,1.3,0,0,1,0,.18,5.17,5.17,0,0,0-.07.62,9,9,0,0,0,0,1.08,6.68,6.68,0,0,0,.1.86c.13.76.34,1.06.2,1.17s-.65-.12-.8-.19c-1.56-.77-4-.23-5.39.32a7.49,7.49,0,0,0-2.72,1.86A4.51,4.51,0,0,0,37.1,50.5c-.15.49-.12.8-.45,1.08a7.31,7.31,0,0,1-1.16.53s-.24.11-.66.36a16.72,16.72,0,0,0-3,2.25,14.58,14.58,0,0,0-2.28,2.88A13.57,13.57,0,0,0,28.1,61a13.27,13.27,0,0,0-.45,4.16,19.72,19.72,0,0,0,.43,3,3.56,3.56,0,0,0,.39,1.15c0,.07.16.26.32.54a1.76,1.76,0,0,1,.27.76v0A11,11,0,0,0,31,77.16,8.18,8.18,0,0,0,35,79.54C40.7,80.93,49.34,74,53.25,66.22Z"/><path class="cls-17" d="M126.8,7.68a5.29,5.29,0,0,0-1.08-1.26c-5.17-4.95-12.67-5.92-15-6.19A34.42,34.42,0,0,0,92.14,3.3a28,28,0,0,0-11.31,9.54,20.8,20.8,0,0,0-3.56,10.22,6.62,6.62,0,0,0,.09,2.45c1.89,5,18.37,7.28,31,2.31C119.62,23.39,129.39,12.63,126.8,7.68Z"/><path class="cls-22" d="M208.36,51.68s0,0,.06,0l.08,0a4.37,4.37,0,0,1,.4.22c.24.15.42.29.49.34a5.15,5.15,0,0,1,.57.48,5.71,5.71,0,0,1,.79.94,4.57,4.57,0,0,1,.64,1.53,4.78,4.78,0,0,1,.09,1.15,4.29,4.29,0,0,1-.3,1.36,5.3,5.3,0,0,1-.69,1.21,2.18,2.18,0,0,1-.43.48c-.14.11-.24.16-.3.29s0,.19,0,.39,0,.2,0,.47c0,.56-.16,1.47-.23,2-.13,1-.09.81-.13,1.08a8.85,8.85,0,0,1-1.52,3.54,6,6,0,0,1-.6.71c-1.84,1.58-13.77-2-18.15-10-5.75-10.5,4.2-23.77,5.22-23.58a8.45,8.45,0,0,1,.85.41c.08,0,.35.19.76.45a13.78,13.78,0,0,1,1.18.85,11.19,11.19,0,0,1,1.23,1.15,10.78,10.78,0,0,1,1.46,2,11.89,11.89,0,0,1,1.31,3.68s0,.38.08.73c0,.17,0,.34,0,.4a1.36,1.36,0,0,1,0,.15c0,.06,0,.08,0,.11s0,0,.11.07l0,0,.14.1c.37.24.77.54.77.54l.57.45.19.15.08.08.08.07h.06l.09,0h.06l.12,0a2.58,2.58,0,0,1,.36.09c.64.2,1,.3,1.17.39a6.09,6.09,0,0,1,2,1.47,5.47,5.47,0,0,1,.68.9,4.18,4.18,0,0,1,.63,2.61c0,.05,0,.18,0,.28a.84.84,0,0,1,0,.13A.12.12,0,0,0,208.36,51.68Z"/><path class="cls-22" d="M161.14,18.89a6.44,6.44,0,0,1,2.45,1.53,4.79,4.79,0,0,1,1.34,2.66,3,3,0,0,1-.12,1.64c-.76,1.67-4.52,2.53-7.3,1.41s-4.55-4-3.67-5.83a3,3,0,0,1,1.26-1.24,4.71,4.71,0,0,1,.8-.34,7.34,7.34,0,0,1,2.42-.32A8.14,8.14,0,0,1,161.14,18.89Z"/><path class="cls-22" d="M221.71,332.91a8.13,8.13,0,0,1,3.16,2,6.2,6.2,0,0,1,1.73,3.43,3.84,3.84,0,0,1-.15,2.12c-1,2.15-5.83,3.25-9.41,1.81-3.41-1.37-5.88-5.13-4.74-7.52a3.85,3.85,0,0,1,1.62-1.59,5.52,5.52,0,0,1,1-.45,9.39,9.39,0,0,1,3.12-.41A10.47,10.47,0,0,1,221.71,332.91Z"/><g class="cls-23"><path class="cls-24" d="M153.05,237.84c-.56.88-1.54,2.16-1.25,3.26a.16.16,0,0,1-.31.09c-.31-1.16.59-2.44,1.18-3.36a25.59,25.59,0,0,1,2.32-3.29,27.79,27.79,0,0,1,1.56-3.48,36,36,0,0,1,1.9-3.09,9.24,9.24,0,0,1,1.22-1.48,13.19,13.19,0,0,0-4.18,1.76,12.81,12.81,0,0,0-2.89,2.85,45.93,45.93,0,0,0-1.75,4.38,50,50,0,0,0-2,7.41,28.17,28.17,0,0,0-.48,4.09l0,.63h3.82c0-.11,0-.22,0-.32a13.83,13.83,0,0,1,.12-2.32,54.28,54.28,0,0,1,1.7-7.45c.22-.69.44-1.38.67-2.06C154.08,236.22,153.58,237,153.05,237.84Z"/><path class="cls-24" d="M157.25,239.77a21.14,21.14,0,0,1,6.55-9.55,6.22,6.22,0,0,0-2.06.54,22.48,22.48,0,0,0-2.22.91,14.46,14.46,0,0,0-4,2.81l-.24.26c-.53,1.42-1,2.87-1.38,4.33-.32,1.18-.61,2.37-.85,3.57a20.34,20.34,0,0,0-.54,3.38c0,.48,0,1,.06,1.59h3.55A21.24,21.24,0,0,1,157.25,239.77Z"/><path class="cls-24" d="M164.74,246.17c0,.2-.28.29-.31.09a6.08,6.08,0,0,1,1-4,14.75,14.75,0,0,0-2.78-7.68,19.12,19.12,0,0,1,0,6.79c-.21,1.36-.58,2.68-.81,4a8.41,8.41,0,0,1-.54,2.21h3.85a21.53,21.53,0,0,0,.33-4.74A5.26,5.26,0,0,0,164.74,246.17Z"/><path class="cls-24" d="M167.65,247.61a22.12,22.12,0,0,1,.35-3.73,17.19,17.19,0,0,1,1-3.8,28.23,28.23,0,0,1,1.56-3.05,12.72,12.72,0,0,0-3.93,3.9c-.31.45-.64.94-.94,1.45a21.77,21.77,0,0,1-.27,5.23Z"/><path class="cls-24" d="M176.94,247.61h.29c-.06-.33-.13-.65-.2-1C177,247,177,247.29,176.94,247.61Z"/><path class="cls-24" d="M176.73,245.4a17.55,17.55,0,0,0-6-9.74l.33.82a.14.14,0,0,1,.08.2c.66,1.64,1.25,3.29,1.75,5a17.29,17.29,0,0,1,.72,3.63c.06.77,0,1.54.06,2.3h3A13.47,13.47,0,0,0,176.73,245.4Z"/><path class="cls-24" d="M180,242.87c-.2-1.8-.49-3.59-.66-5.39a37.71,37.71,0,0,1,.36-10.12,21.76,21.76,0,0,0-2,9c-.05.84-.06,1.69-.06,2.53a27.87,27.87,0,0,1,1.76,8.76H181A21.13,21.13,0,0,1,180,242.87Z"/><path class="cls-24" d="M197.77,246.66c.07.19-.24.28-.31.08a6,6,0,0,1-.23-2.07c0-.08-.08-.16-.13-.24l-.21-.36c-.77-1.14-1.52-2.29-2.23-3.46-.4-.6-.79-1.2-1.17-1.81a.15.15,0,0,1,0-.19,28.71,28.71,0,0,1-1.29-2.68,26.26,26.26,0,0,1-2-12.65l-.13.18c0,.11.05.21.07.32l-.11-.27a11.8,11.8,0,0,0-1.84,4.61c-.41,1.83-.75,3.68-1,5.54-.62,4.56-.78,9.36.57,13.8a.13.13,0,0,1,0,.15h11c-.39-.79-.77-1.59-1.18-2.38A5.22,5.22,0,0,0,197.77,246.66Z"/><path class="cls-24" d="M212,225.09a16.23,16.23,0,0,0-2.91,2.45,24.4,24.4,0,0,0-4.36,6.58,33.59,33.59,0,0,0-2.84,13.49h1.33a78.49,78.49,0,0,1,3.92-10.12c.16-.54.32-1.07.5-1.6a51.12,51.12,0,0,1,2.84-6.74,17.71,17.71,0,0,1,3-4.94C212.89,224.48,212.39,224.81,212,225.09Z"/><path class="cls-24" d="M200.4,239.88a29.31,29.31,0,0,0-1.45-7.77,23.58,23.58,0,0,0-3.83-6.92,14.8,14.8,0,0,0-2.76-2.6,7.12,7.12,0,0,0-2.49-1.39c.59.85,1.36,1.55,2,2.37a16.58,16.58,0,0,1,1.59,2.74,35.34,35.34,0,0,1,2.32,6.23,56.19,56.19,0,0,1,1.4,7c.15,1.18.29,2.35.35,3.53,0,.43,0,.87,0,1.32l1.58,2.35c.11.17-.17.33-.28.16l-.35-.51.59,1.18h1.36A37,37,0,0,0,200.4,239.88Z"/><path class="cls-24" d="M181.35,236.2a34.86,34.86,0,0,0-.14,6.54,23,23,0,0,0,.72,4.87h3.7a33,33,0,0,1-2.21-10.19,36.21,36.21,0,0,1,.84-11.5A30.84,30.84,0,0,0,181.35,236.2Z"/><path class="cls-24" d="M178.48,246.71c.05.2-.27.29-.31.08a39.1,39.1,0,0,1-.88-7.94,24.69,24.69,0,0,0-1.73-3.3c-.45-.75-1.22-2.28-2.18-2.63.51,1.14,1.24,2.17,1.65,3.36.49,1.46,1,2.94,1.32,4.44a25.21,25.21,0,0,1,.68,4.57c.21.76.38,1.54.53,2.32h1.5a27.73,27.73,0,0,0-1.41-7.83A38.47,38.47,0,0,0,178.48,246.71Z"/><path class="cls-24" d="M151.45,232.75c-1,1.52-1.76,3.13-2.59,4.72-.74,1.43-1.66,3.09-1.47,4.75,0,.21-.3.21-.32,0-.19-1.64.67-3.3,1.41-4.71a54,54,0,0,1,2.85-5.16c.31-.46.63-.93,1-1.38.42-.93.89-1.84,1.4-2.73a29.07,29.07,0,0,1,2-3.1c.63-.84,1.41-1.56,2-2.4-1.49-.09-3.13,1-4.37,1.67a17.07,17.07,0,0,0-4.14,3.28,22.8,22.8,0,0,0-3.24,4.63c-.18.82-.35,1.63-.5,2.41a78.07,78.07,0,0,0-1.22,8.62c-.12,1.39,0,2.86-.21,4.26H148c0-.49,0-1,.07-1.49a31.33,31.33,0,0,1,.5-3.61,52.62,52.62,0,0,1,2.14-7.7c.29-.8.59-1.59.92-2.37Z"/><path class="cls-24" d="M143.72,237.53c-.07.19-.38.11-.31-.09a44.11,44.11,0,0,1,2.35-5.32c.84-3.58,2.07-7.46,4.75-10a13.13,13.13,0,0,0-3.37,2.32c-.08.18-.16.36-.26.54,0-.1,0-.21,0-.31a23.55,23.55,0,0,0-2.92,3.51h0l-.3.54c-.33.64-.65,1.29-.94,2a21.68,21.68,0,0,0-1.32,4.31c-.35,1.75-.56,3.53-.86,5.29-.09.66-.17,1.33-.24,2a33,33,0,0,0-.25,4.09q0,.62,0,1.23h3.72c.27-1.76.12-3.65.31-5.37a83.63,83.63,0,0,1,1.3-8.49c0-.11.05-.23.07-.34C144.81,234.75,144.24,236.13,143.72,237.53Z"/><path class="cls-24" d="M139.87,243.28a.16.16,0,0,1-.23-.18c.27-1,.47-2.1.64-3.16.28-2.18.63-4.36,1.1-6.51a65.22,65.22,0,0,1,2-7.93,64.36,64.36,0,0,1,2.74-5.9c-.06-.21-.13-.42-.2-.62-.5.48-1,.93-1.52,1.45a8.09,8.09,0,0,0-1.09,1.45,15.93,15.93,0,0,1-1.94,4.27c-.74,1.95-1.37,4-1.92,5.95a65.65,65.65,0,0,0-2.31,15.51h2.61c0-.69,0-1.39,0-2.09S139.8,244,139.87,243.28Z"/></g><path class="cls-25" d="M137.75,228.6c.46-3.56,1-7.15,1.81-10.65a24.45,24.45,0,0,1,1.2-4c-2.25,1.88-3.41,4.57-4.38,7.51a50.45,50.45,0,0,0-1.88,8,44.56,44.56,0,0,0,.28-6.4,40.46,40.46,0,0,0-1.33,5.66c0,.15-.22.15-.29,0-2.15-3.57-4.35-8.51-8.33-10.18.17.27.33.54.48.82,6.87,7.64,9.55,18.24,11.18,28.19h1.33A66.9,66.9,0,0,1,137.75,228.6Z"/><path class="cls-25" d="M129.06,234.54a26,26,0,0,0-4.77-6.31,28.67,28.67,0,0,0-3.08-2.52l-.44-.32a29.65,29.65,0,0,1,3.07,6.27c.44,1,1,9.89,1.39,16h8.58A47.53,47.53,0,0,0,129.06,234.54Z"/><path class="cls-26" d="M213.05,232.05a19,19,0,0,0-7,9.13,65.28,65.28,0,0,1,2.19-9.45,18.29,18.29,0,0,1,3.62-6c.78-1,1.64-2,2.48-3A18.24,18.24,0,0,0,206.4,227a26.81,26.81,0,0,0-2.17,3.33,23.5,23.5,0,0,1,3.49-9.11,14.37,14.37,0,0,0-2.33,1.78c-1.32,1.66-2.68,4.09-4,8.77.15-2.61.88-8.06,1.38-10.75a49.91,49.91,0,0,0,1.72-6.81c-2.07,3.16-6.88,12.2-5.27,26.26a53.88,53.88,0,0,0-2-8.68c-1.35-4.1-3-7.75-7.15-9.65,1.44,2.9,4.57,10.17,4.23,18-6.53-7.41-5-12.74-4.86-15.83a18.82,18.82,0,0,0-3.56,11.33c-2.4-4.43,1-11,.68-10.87s-.29.14-.43.21c-.15.24-.27.49-.38.68-.33.59-.7,1.16-1,1.77a15.75,15.75,0,0,0-1.58,4.92,27.81,27.81,0,0,0,.17,7.84l-.27-.83a37.92,37.92,0,0,1-1.16-5.78,20.26,20.26,0,0,1,1.31-10.14c.06-.14-.06-.24-.19-.18a5.08,5.08,0,0,0-2,2.53,31.27,31.27,0,0,0-2.13,6.63,21.3,21.3,0,0,0-.38,6.12c0,.5.05,1,.08,1.59a27.09,27.09,0,0,0-2.7-5.38,22.59,22.59,0,0,1,.47,2.4,37.22,37.22,0,0,1,.3,6.59.16.16,0,0,1-.3.09c-1.14-2-1.93-4.13-3.41-5.91a12,12,0,0,0-.9-1,22.78,22.78,0,0,1,1.29,4.31,40.18,40.18,0,0,1,1,6.37H209a39,39,0,0,1,1.78-4.78,29.92,29.92,0,0,1,10.41-14.32C218.76,228.14,214.53,231.08,213.05,232.05Z"/><path class="cls-27" d="M168.82,238.94a7.5,7.5,0,0,0-3.61,4.77.18.18,0,0,1-.34,0A27,27,0,0,0,164,239a15.76,15.76,0,0,0-1-2.15,5.63,5.63,0,0,0-3.62-2.37h-.07c1.07.75,1.44,2.28,1.76,3.47a13.74,13.74,0,0,1,.22,6.31.18.18,0,0,1-.32,0,17.21,17.21,0,0,1-2.29-7.4.86.86,0,0,0-.72.13,7.3,7.3,0,0,0-2.25,2.49c-.28-3.9,5.25-7.27,5.17-7.43a6.81,6.81,0,0,0-5,1.23c-2.75,1.81-4,4.42-3.84,3.86a16.9,16.9,0,0,1,6.51-9.58,14.06,14.06,0,0,0-7.21,2.35c1.58-2,5.4-6.51,4.87-6.33a23.6,23.6,0,0,0-11.52,9.47c.66-3.08,2.28-8.34,5.91-11,0,0-6.23.47-10.53,11.2.84-4,4.38-12.58,6.89-15.12.31-.32-4.94-.62-9.48,10.65a98.12,98.12,0,0,1,2.82-17s-3.51,4.06-5.32,12.37a66.65,66.65,0,0,0-1.33,8.59c-.63-2.82-4.34-14.67-11.32-14.68,0,0,9.07,5,7.92,23.29,0,0-3.05-13.31-10.12-14.14,0,0,6.47,6.94,5.58,16a13,13,0,0,0-13.16-9.54s8.08,4.81,9.25,13.87h44.7A15.46,15.46,0,0,1,168.82,238.94Z"/><path class="cls-28" d="M182,224.53c-2.93,4.62-3.1,9.79-2.82,15.1,0,.07.11,0,.11,0,0-5.17.49-10.34,2.76-15.06C182.08,224.5,182,224.5,182,224.53Z"/><path class="cls-28" d="M122.76,244.68c-1.29-4.19-4.2-9.39-8.86-10.38,0,0,0,0,0,0,4.16,1.72,7,6.55,8.69,10.48C122.62,244.93,122.79,244.77,122.76,244.68Z"/><path class="cls-28" d="M121.22,227.92s0,0,0,0a25.44,25.44,0,0,1,5.14,10.58c0,.12.19,0,.18-.08C126.07,235,124.74,229.52,121.22,227.92Z"/><path class="cls-28" d="M137.88,217c-1.2,1.72-1.68,4-2.17,6.05a41.19,41.19,0,0,0-.88,7.43c0,.12.15.05.17,0,.33-2.15.64-4.29,1.09-6.41.27-1.29.61-2.57.95-3.84a20.06,20.06,0,0,1,.89-3.19S137.9,216.94,137.88,217Z"/><path class="cls-28" d="M147,224.15a15.23,15.23,0,0,0-5.3,7.49c-.07.21.21.16.27,0a22.56,22.56,0,0,1,5.06-7.47S147.06,224.13,147,224.15Z"/><path class="cls-28" d="M154.68,228.67c-5,1.24-7.76,6.93-8.82,11.49,0,.18.21.09.25,0,1.49-4.14,4.25-9.61,8.57-11.41C154.71,228.72,154.72,228.66,154.68,228.67Z"/><path class="cls-28" d="M156.9,233.44c-1.54.53-3.39,1.95-3.71,3.62-.05.27.28.14.36,0a12.25,12.25,0,0,1,3.36-3.59S157,233.42,156.9,233.44Z"/><path class="cls-28" d="M188.37,227.07a11.89,11.89,0,0,0-1.66,4.81,16.33,16.33,0,0,0,0,5.79c0,.26.37,0,.37-.16a34,34,0,0,1,.26-5.24,18.38,18.38,0,0,1,1.12-5.19S188.38,227.05,188.37,227.07Z"/><path class="cls-28" d="M194.59,232.43c-.33-2.23-.94-4.89-2.42-6.66,0,0-.06,0,0,0a25.5,25.5,0,0,1,2,6.81,63.52,63.52,0,0,1,.92,7.28c0,.11.18,0,.18-.06A40.06,40.06,0,0,0,194.59,232.43Z"/><path class="cls-28" d="M209.69,225.52c-4.72,2.48-7,8.59-7.23,13.61,0,.3.37.12.4-.09.83-4.77,2.63-10.58,6.84-13.47C209.72,225.55,209.72,225.5,209.69,225.52Z"/></g></g></g></g></svg>