<svg xmlns="http://www.w3.org/2000/svg" xmlns:xlink="http://www.w3.org/1999/xlink" viewBox="0 0 85.01 204.61"><defs><style>.cls-1{isolation:isolate;}.cls-2{fill:url(#Безымянный_градиент_99);}.cls-3{fill:url(#Безымянный_градиент_97);}.cls-4{opacity:0.15;}.cls-5{fill:url(#Безымянный_градиент_98);}.cls-6{fill:#4c3b19;opacity:0.2;}.cls-7{font-size:9.28px;font-family:MyriadPro-Regular, Myriad Pro;}.cls-8{letter-spacing:0em;}.cls-9{letter-spacing:0em;}.cls-10{letter-spacing:-0.01em;}.cls-11,.cls-14,.cls-15{fill:#00582b;}.cls-12{fill:url(#Безымянный_градиент_94);}.cls-13,.cls-15{opacity:0.5;}.cls-14,.cls-15{mix-blend-mode:multiply;}.cls-16{fill:url(#Безымянный_градиент_92);}.cls-17{fill:url(#Безымянный_градиент_92-2);}.cls-18{fill:#73b634;mix-blend-mode:screen;}.cls-19,.cls-20,.cls-21,.cls-22,.cls-23,.cls-24,.cls-25,.cls-26,.cls-27,.cls-28,.cls-29,.cls-30,.cls-31,.cls-32,.cls-33,.cls-34,.cls-35,.cls-36,.cls-37,.cls-38,.cls-39,.cls-40,.cls-41,.cls-42,.cls-43,.cls-44{fill-rule:evenodd;}.cls-19{opacity:0.25;}.cls-20{fill:url(#Безымянный_градиент_91);}.cls-21{fill:url(#Безымянный_градиент_53);}.cls-22{fill:url(#Безымянный_градиент_53-2);}.cls-23{fill:#d18762;}.cls-24{fill:url(#Безымянный_градиент_75);}.cls-25{fill:url(#Безымянный_градиент_88);}.cls-26{fill:url(#Безымянный_градиент_63);}.cls-27{fill:url(#Безымянный_градиент_85);}.cls-28{fill:url(#Безымянный_градиент_80);}.cls-29{fill:url(#Безымянный_градиент_80-2);}.cls-30{fill:url(#Безымянный_градиент_75-2);}.cls-31{fill:url(#Безымянный_градиент_72);}.cls-32{fill:url(#Безымянный_градиент_69);}.cls-34{fill:url(#Безымянный_градиент_67);}.cls-35{fill:url(#Безымянный_градиент_65);}.cls-36{fill:url(#Безымянный_градиент_63-2);}.cls-37{fill:url(#Безымянный_градиент_62);}.cls-38{fill:url(#Безымянный_градиент_58);}.cls-39{fill:url(#Безымянный_градиент_56);}.cls-40{fill:url(#Безымянный_градиент_55);}.cls-41{fill:url(#Безымянный_градиент_53-3);}.cls-42{fill:url(#Безымянный_градиент_53-4);}.cls-43{fill:url(#Безымянный_градиент_53-5);}.cls-44{fill:url(#Безымянный_градиент_53-6);}.cls-45,.cls-46,.cls-47,.cls-50,.cls-51,.cls-52,.cls-53,.cls-54,.cls-55,.cls-56,.cls-57,.cls-58,.cls-59,.cls-60,.cls-61,.cls-62,.cls-63,.cls-64,.cls-65,.cls-66,.cls-67,.cls-68,.cls-69,.cls-70,.cls-71,.cls-72,.cls-73,.cls-74,.cls-75{fill:none;stroke-miterlimit:10;}.cls-45{stroke:url(#Безымянный_градиент_71);}.cls-46{stroke:url(#Безымянный_градиент_71-2);}.cls-47{stroke:url(#Безымянный_градиент_71-3);}.cls-48{fill:url(#Безымянный_градиент_71-4);}.cls-49{fill:url(#Безымянный_градиент_71-5);}.cls-50,.cls-51,.cls-52,.cls-53,.cls-54,.cls-55,.cls-56,.cls-57,.cls-58,.cls-59,.cls-60,.cls-61,.cls-62,.cls-63,.cls-64,.cls-65,.cls-66,.cls-67,.cls-68,.cls-69,.cls-70,.cls-71,.cls-72,.cls-73{stroke-width:0.5px;}.cls-50{stroke:url(#Безымянный_градиент_71-6);}.cls-51{stroke:url(#Безымянный_градиент_71-7);}.cls-52{stroke:url(#Безымянный_градиент_71-8);}.cls-53{stroke:url(#Безымянный_градиент_71-9);}.cls-54{stroke:url(#Безымянный_градиент_71-10);}.cls-55{stroke:url(#Безымянный_градиент_71-11);}.cls-56{stroke:url(#Безымянный_градиент_71-12);}.cls-57{stroke:url(#Безымянный_градиент_71-13);}.cls-58{stroke:url(#Безымянный_градиент_71-14);}.cls-59{stroke:url(#Безымянный_градиент_71-15);}.cls-60{stroke:url(#Безымянный_градиент_71-16);}.cls-61{stroke:url(#Безымянный_градиент_71-17);}.cls-62{stroke:url(#Безымянный_градиент_71-18);}.cls-63{stroke:url(#Безымянный_градиент_71-19);}.cls-64{stroke:url(#Безымянный_градиент_71-20);}.cls-65{stroke:url(#Безымянный_градиент_71-21);}.cls-66{stroke:url(#Безымянный_градиент_71-22);}.cls-67{stroke:url(#Безымянный_градиент_71-23);}.cls-68{stroke:url(#Безымянный_градиент_71-24);}.cls-69{stroke:url(#Безымянный_градиент_71-25);}.cls-70{stroke:url(#Безымянный_градиент_71-26);}.cls-71{stroke:url(#Безымянный_градиент_71-27);}.cls-72{stroke:url(#Безымянный_градиент_71-28);}.cls-73{stroke:url(#Безымянный_градиент_71-29);}.cls-74,.cls-75{stroke-width:0.75px;}.cls-74{stroke:url(#Безымянный_градиент_71-30);}.cls-75{stroke:url(#Безымянный_градиент_71-31);}</style><linearGradient id="Безымянный_градиент_99" x1="7.36" y1="136.26" x2="74.76" y2="136.26" gradientUnits="userSpaceOnUse"><stop offset="0" stop-color="#23243b"/><stop offset="0.07" stop-color="#2f3148"/><stop offset="0.2" stop-color="#41445c"/><stop offset="0.29" stop-color="#474b63"/><stop offset="1" stop-color="#161624"/></linearGradient><linearGradient id="Безымянный_градиент_97" x1="7.36" y1="66.75" x2="74.76" y2="66.75" gradientUnits="userSpaceOnUse"><stop offset="0" stop-color="#161624"/><stop offset="0.16" stop-color="#1f2034"/><stop offset="0.29" stop-color="#23243b"/><stop offset="1"/></linearGradient><linearGradient id="Безымянный_градиент_98" x1="20.46" y1="135.2" x2="61.67" y2="135.2" gradientUnits="userSpaceOnUse"><stop offset="0" stop-color="#d49c83"/><stop offset="0.06" stop-color="#d7a68c"/><stop offset="0.2" stop-color="#ddba9d"/><stop offset="0.29" stop-color="#dfc1a3"/><stop offset="1" stop-color="#c17670"/></linearGradient><linearGradient id="Безымянный_градиент_94" x1="1.34" y1="188.01" x2="79.24" y2="188.01" gradientUnits="userSpaceOnUse"><stop offset="0" stop-color="#4d9981"/><stop offset="1" stop-color="#135965"/></linearGradient><linearGradient id="Безымянный_градиент_92" x1="46.58" y1="191.55" x2="85.01" y2="191.55" gradientUnits="userSpaceOnUse"><stop offset="0" stop-color="#6bbe8a"/><stop offset="1" stop-color="#22797a"/></linearGradient><linearGradient id="Безымянный_градиент_92-2" x1="0" y1="190.61" x2="44.07" y2="190.61" xlink:href="#Безымянный_градиент_92"/><linearGradient id="Безымянный_градиент_91" x1="11.02" y1="38.24" x2="31.81" y2="38.24" gradientUnits="userSpaceOnUse"><stop offset="0" stop-color="#f59e71"/><stop offset="0.29" stop-color="#f7af84"/><stop offset="0.5" stop-color="#f8b58b"/><stop offset="0.65" stop-color="#f8b188"/><stop offset="0.79" stop-color="#f6a67d"/><stop offset="0.92" stop-color="#f4936b"/><stop offset="1" stop-color="#f2855e"/></linearGradient><linearGradient id="Безымянный_градиент_53" x1="17.49" y1="64.34" x2="39.68" y2="64.34" gradientUnits="userSpaceOnUse"><stop offset="0" stop-color="#f59e71"/><stop offset="0.48" stop-color="#f8b58b"/><stop offset="1" stop-color="#f2855e"/></linearGradient><linearGradient id="Безымянный_градиент_53-2" x1="42.95" y1="64.34" x2="65.08" y2="64.34" xlink:href="#Безымянный_градиент_53"/><linearGradient id="Безымянный_градиент_75" x1="20.3" y1="40.7" x2="62.3" y2="40.7" gradientUnits="userSpaceOnUse"><stop offset="0" stop-color="#8f90a7"/><stop offset="0.48" stop-color="#c7c9da"/><stop offset="1" stop-color="#535672"/></linearGradient><linearGradient id="Безымянный_градиент_88" x1="24.85" y1="25.98" x2="57.78" y2="25.98" gradientUnits="userSpaceOnUse"><stop offset="0" stop-color="#535672"/><stop offset="0.48" stop-color="#8f90a7"/><stop offset="1" stop-color="#23243b"/></linearGradient><linearGradient id="Безымянный_градиент_63" x1="25.77" y1="40.7" x2="56.8" y2="40.7" gradientUnits="userSpaceOnUse"><stop offset="0" stop-color="#8f90a7"/><stop offset="0.11" stop-color="#a6a7bc"/><stop offset="0.23" stop-color="#b8bacd"/><stop offset="0.36" stop-color="#c3c5d7"/><stop offset="0.5" stop-color="#c7c9da"/><stop offset="0.57" stop-color="#c0c2d4"/><stop offset="0.69" stop-color="#acaec2"/><stop offset="0.82" stop-color="#8b8ea4"/><stop offset="0.97" stop-color="#5e617c"/><stop offset="1" stop-color="#535672"/></linearGradient><linearGradient id="Безымянный_градиент_85" x1="11.64" y1="41.92" x2="42.17" y2="41.92" gradientUnits="userSpaceOnUse"><stop offset="0" stop-color="#23243b"/><stop offset="0.01" stop-color="#26273e"/><stop offset="0.17" stop-color="#53546b"/><stop offset="0.31" stop-color="#74758c"/><stop offset="0.42" stop-color="#8889a0"/><stop offset="0.5" stop-color="#8f90a7"/><stop offset="0.63" stop-color="#8b8ca4"/><stop offset="0.76" stop-color="#80829a"/><stop offset="0.88" stop-color="#6d6f89"/><stop offset="1" stop-color="#535672"/><stop offset="1" stop-color="#535672"/></linearGradient><linearGradient id="Безымянный_градиент_80" x1="40.28" y1="41.92" x2="62.21" y2="41.92" gradientUnits="userSpaceOnUse"><stop offset="0" stop-color="#535672"/><stop offset="0" stop-color="#535672"/><stop offset="0.12" stop-color="#6d6f89"/><stop offset="0.24" stop-color="#80829a"/><stop offset="0.37" stop-color="#8b8ca4"/><stop offset="0.5" stop-color="#8f90a7"/><stop offset="0.58" stop-color="#8889a0"/><stop offset="0.69" stop-color="#74758c"/><stop offset="0.83" stop-color="#53546b"/><stop offset="0.99" stop-color="#26273e"/><stop offset="1" stop-color="#23243b"/></linearGradient><linearGradient id="Безымянный_градиент_80-2" x1="22.27" y1="25.98" x2="61.92" y2="25.98" xlink:href="#Безымянный_градиент_80"/><linearGradient id="Безымянный_градиент_75-2" x1="23.63" y1="18.45" x2="58.96" y2="18.45" xlink:href="#Безымянный_градиент_75"/><linearGradient id="Безымянный_градиент_72" x1="25.35" y1="24.61" x2="31.01" y2="24.61" gradientUnits="userSpaceOnUse"><stop offset="0" stop-color="#23243b"/><stop offset="0.03" stop-color="#313249"/><stop offset="0.12" stop-color="#53546b"/><stop offset="0.21" stop-color="#6d6e85"/><stop offset="0.3" stop-color="#808198"/><stop offset="0.4" stop-color="#8b8ca3"/><stop offset="0.5" stop-color="#8f90a7"/><stop offset="1" stop-color="#535672"/></linearGradient><linearGradient id="Безымянный_градиент_69" x1="51.56" y1="24.61" x2="57.28" y2="24.61" gradientUnits="userSpaceOnUse"><stop offset="0" stop-color="#535672"/><stop offset="0.5" stop-color="#8f90a7"/><stop offset="0.6" stop-color="#8b8ca3"/><stop offset="0.7" stop-color="#808198"/><stop offset="0.79" stop-color="#6d6e85"/><stop offset="0.88" stop-color="#53546b"/><stop offset="0.97" stop-color="#313249"/><stop offset="1" stop-color="#23243b"/></linearGradient><linearGradient id="Безымянный_градиент_67" x1="22.52" y1="8.35" x2="30.57" y2="8.35" gradientUnits="userSpaceOnUse"><stop offset="0" stop-color="#535672"/><stop offset="0.02" stop-color="#5d607b"/><stop offset="0.13" stop-color="#83859d"/><stop offset="0.23" stop-color="#a1a3b8"/><stop offset="0.33" stop-color="#b6b8cb"/><stop offset="0.43" stop-color="#c3c5d6"/><stop offset="0.52" stop-color="#c7c9da"/><stop offset="0.65" stop-color="#bcbed0"/><stop offset="0.89" stop-color="#9fa0b5"/><stop offset="1" stop-color="#8f90a7"/></linearGradient><linearGradient id="Безымянный_градиент_65" x1="52" y1="8.35" x2="60.11" y2="8.35" gradientUnits="userSpaceOnUse"><stop offset="0" stop-color="#8f90a7"/><stop offset="0.11" stop-color="#9fa0b5"/><stop offset="0.35" stop-color="#bcbed0"/><stop offset="0.48" stop-color="#c7c9da"/><stop offset="0.57" stop-color="#c3c5d6"/><stop offset="0.67" stop-color="#b6b8cb"/><stop offset="0.77" stop-color="#a1a3b8"/><stop offset="0.87" stop-color="#83859d"/><stop offset="0.98" stop-color="#5d607b"/><stop offset="1" stop-color="#535672"/></linearGradient><linearGradient id="Безымянный_градиент_63-2" x1="32" y1="27.87" x2="50.59" y2="27.87" xlink:href="#Безымянный_градиент_63"/><linearGradient id="Безымянный_градиент_62" x1="38.47" y1="31.49" x2="44.13" y2="31.49" gradientUnits="userSpaceOnUse"><stop offset="0" stop-color="#e5e6ea"/><stop offset="0.48" stop-color="#fff"/><stop offset="1" stop-color="#c7c9da"/></linearGradient><linearGradient id="Безымянный_градиент_58" x1="38.46" y1="24.13" x2="44.13" y2="24.13" gradientUnits="userSpaceOnUse"><stop offset="0" stop-color="#dc686b"/><stop offset="0.48" stop-color="#eb8171"/><stop offset="1" stop-color="#c95169"/></linearGradient><linearGradient id="Безымянный_градиент_56" x1="24.99" y1="40.4" x2="34.98" y2="40.4" gradientUnits="userSpaceOnUse"><stop offset="0" stop-color="#535672"/><stop offset="0.05" stop-color="#696c86"/><stop offset="0.13" stop-color="#8b8da4"/><stop offset="0.22" stop-color="#a5a8bc"/><stop offset="0.31" stop-color="#b8bacd"/><stop offset="0.41" stop-color="#c3c5d7"/><stop offset="0.51" stop-color="#c7c9da"/><stop offset="0.63" stop-color="#bec0d2"/><stop offset="0.83" stop-color="#a7a8bd"/><stop offset="1" stop-color="#8f90a7"/></linearGradient><linearGradient id="Безымянный_градиент_55" x1="47.58" y1="40.4" x2="57.62" y2="40.4" gradientUnits="userSpaceOnUse"><stop offset="0" stop-color="#8f90a7"/><stop offset="0.17" stop-color="#a7a8bd"/><stop offset="0.37" stop-color="#bec0d2"/><stop offset="0.49" stop-color="#c7c9da"/><stop offset="0.59" stop-color="#c3c5d7"/><stop offset="0.69" stop-color="#b8bacd"/><stop offset="0.78" stop-color="#a5a8bc"/><stop offset="0.87" stop-color="#8b8da4"/><stop offset="0.95" stop-color="#696c86"/><stop offset="1" stop-color="#535672"/></linearGradient><linearGradient id="Безымянный_градиент_53-3" x1="32.94" y1="47.73" x2="38.33" y2="47.73" xlink:href="#Безымянный_градиент_53"/><linearGradient id="Безымянный_градиент_53-4" x1="44.28" y1="47.73" x2="49.66" y2="47.73" xlink:href="#Безымянный_градиент_53"/><linearGradient id="Безымянный_градиент_53-5" x1="24.31" y1="10.42" x2="28.52" y2="10.42" xlink:href="#Безымянный_градиент_53"/><linearGradient id="Безымянный_градиент_53-6" x1="54.05" y1="10.42" x2="58.26" y2="10.42" xlink:href="#Безымянный_градиент_53"/><linearGradient id="Безымянный_градиент_71" x1="38.13" y1="19.86" x2="44.5" y2="19.86" gradientUnits="userSpaceOnUse"><stop offset="0" stop-color="#161624"/><stop offset="0.27" stop-color="#1f2034"/><stop offset="0.5" stop-color="#23243b"/><stop offset="0.64" stop-color="#212237"/><stop offset="0.76" stop-color="#1a1b2c"/><stop offset="0.88" stop-color="#0f0f19"/><stop offset="1"/></linearGradient><linearGradient id="Безымянный_градиент_71-2" x1="30.57" y1="20.01" x2="38.98" y2="20.01" xlink:href="#Безымянный_градиент_71"/><linearGradient id="Безымянный_градиент_71-3" x1="43.61" y1="19.92" x2="52.03" y2="19.92" xlink:href="#Безымянный_градиент_71"/><linearGradient id="Безымянный_градиент_71-4" x1="43.54" y1="45.35" x2="49.66" y2="45.35" xlink:href="#Безымянный_градиент_71"/><linearGradient id="Безымянный_градиент_71-5" x1="33.57" y1="45.35" x2="39.68" y2="45.35" xlink:href="#Безымянный_градиент_71"/><linearGradient id="Безымянный_градиент_71-6" x1="38.99" y1="42.46" x2="43.8" y2="42.46" xlink:href="#Безымянный_градиент_71"/><linearGradient id="Безымянный_градиент_71-7" x1="38.91" y1="41.66" x2="43.72" y2="41.66" xlink:href="#Безымянный_градиент_71"/><linearGradient id="Безымянный_градиент_71-8" x1="-7.96" y1="54.27" x2="-3.15" y2="54.27" gradientTransform="matrix(1.04, -0.01, -0.01, 1, 47.74, -10.91)" xlink:href="#Безымянный_градиент_71"/><linearGradient id="Безымянный_градиент_71-9" x1="39.23" y1="44.57" x2="44.04" y2="44.57" xlink:href="#Безымянный_градиент_71"/><linearGradient id="Безымянный_градиент_71-10" x1="-20.66" y1="59.41" x2="-15.85" y2="59.41" gradientTransform="matrix(1.05, -0.01, -0.01, 1, 61.36, -14.02)" xlink:href="#Безымянный_градиент_71"/><linearGradient id="Безымянный_градиент_71-11" x1="70.64" y1="39.5" x2="75.45" y2="39.5" gradientTransform="matrix(0.98, 0.01, 0.01, 1, -29.83, 6.81)" xlink:href="#Безымянный_градиент_71"/><linearGradient id="Безымянный_градиент_71-12" x1="367.41" y1="-27.38" x2="372.22" y2="-27.38" gradientTransform="matrix(0.8, 0.05, 0.05, 0.99, -251.41, 57.43)" xlink:href="#Безымянный_градиент_71"/><linearGradient id="Безымянный_градиент_71-13" x1="889.3" y1="-145.87" x2="894.11" y2="-145.87" gradientTransform="matrix(0.61, 0.09, 0.09, 0.98, -485.97, 111.01)" xlink:href="#Безымянный_градиент_71"/><linearGradient id="Безымянный_градиент_71-14" x1="-2381.87" y1="-19.31" x2="-2377.06" y2="-19.31" gradientTransform="matrix(-1.28, -0.06, 0.06, 1.01, -2993.94, -78)" xlink:href="#Безымянный_градиент_71"/><linearGradient id="Безымянный_градиент_71-15" x1="-2492.97" y1="5.25" x2="-2488.16" y2="5.25" gradientTransform="matrix(-1.16, -0.04, 0.04, 1.01, -2852.38, -45.67)" xlink:href="#Безымянный_градиент_71"/><linearGradient id="Безымянный_градиент_71-16" x1="-2743.5" y1="61.7" x2="-2738.69" y2="61.7" gradientTransform="matrix(-0.97, 0.01, -0.01, 1, -2613.22, 8.96)" xlink:href="#Безымянный_градиент_71"/><linearGradient id="Безымянный_градиент_71-17" x1="-3204.1" y1="166.21" x2="-3199.29" y2="166.21" gradientTransform="matrix(-0.75, 0.06, -0.06, 0.99, -2338.45, 71.73)" xlink:href="#Безымянный_градиент_71"/><linearGradient id="Безымянный_градиент_71-18" x1="-2306.3" y1="-35.49" x2="-2301.49" y2="-35.49" gradientTransform="matrix(-1.37, -0.08, 0.08, 1.02, -3108.07, -104.08)" xlink:href="#Безымянный_градиент_71"/><linearGradient id="Безымянный_градиент_71-19" x1="-2304.08" y1="-34.91" x2="-2299.27" y2="-34.91" gradientTransform="matrix(-1.37, -0.08, 0.08, 1.02, -3111.23, -104.8)" xlink:href="#Безымянный_градиент_71"/><linearGradient id="Безымянный_градиент_71-20" x1="-2316.3" y1="-30.96" x2="-2311.49" y2="-30.96" gradientTransform="matrix(-1.36, -0.08, 0.08, 1.02, -3092.1, -100.43)" xlink:href="#Безымянный_градиент_71"/><linearGradient id="Безымянный_градиент_71-21" x1="-2415.75" y1="-7.3" x2="-2410.94" y2="-7.3" gradientTransform="matrix(-1.24, -0.05, 0.05, 1.01, -2948.12, -67.54)" xlink:href="#Безымянный_градиент_71"/><linearGradient id="Безымянный_градиент_71-22" x1="-2632.88" y1="43.21" x2="-2628.07" y2="43.21" gradientTransform="matrix(-1.05, -0.01, 0.01, 1, -2709.15, -12.95)" xlink:href="#Безымянный_градиент_71"/><linearGradient id="Безымянный_градиент_71-23" x1="-3024" y1="133.28" x2="-3019.19" y2="133.28" gradientTransform="matrix(-0.82, 0.04, -0.04, 0.99, -2430.82, 50.63)" xlink:href="#Безымянный_градиент_71"/><linearGradient id="Безымянный_градиент_71-24" x1="-2486.11" y1="-863.21" x2="-2481.3" y2="-863.21" gradientTransform="matrix(-1.2, 0.05, 0.05, -1.01, -2900.15, -693.6)" xlink:href="#Безымянный_градиент_71"/><linearGradient id="Безымянный_градиент_71-25" x1="-2524.99" y1="-853.25" x2="-2520.18" y2="-853.25" gradientTransform="matrix(-1.16, 0.04, 0.04, -1.01, -2846.24, -705.92)" xlink:href="#Безымянный_градиент_71"/><linearGradient id="Безымянный_градиент_71-26" x1="-2609.41" y1="-832.81" x2="-2604.6" y2="-832.81" gradientTransform="matrix(-1.07, 0.02, 0.02, -1, -2742.86, -729.54)" xlink:href="#Безымянный_градиент_71"/><linearGradient id="Безымянный_градиент_71-27" x1="-2727.36" y1="-804.91" x2="-2722.55" y2="-804.91" gradientTransform="matrix(-0.98, -0.01, -0.01, -1, -2622.02, -757.14)" xlink:href="#Безымянный_градиент_71"/><linearGradient id="Безымянный_градиент_71-28" x1="-3025.27" y1="-735.95" x2="-3020.46" y2="-735.95" gradientTransform="matrix(-0.8, -0.05, -0.05, -0.99, -2400.44, -807.76)" xlink:href="#Безымянный_градиент_71"/><linearGradient id="Безымянный_градиент_71-29" x1="-3549.62" y1="-615.44" x2="-3544.81" y2="-615.44" gradientTransform="matrix(-0.61, -0.09, -0.09, -0.98, -2165.88, -861.34)" xlink:href="#Безымянный_градиент_71"/><linearGradient id="Безымянный_градиент_71-30" x1="43.4" y1="53.47" x2="50.43" y2="53.47" gradientTransform="translate(-5.09)" xlink:href="#Безымянный_градиент_71"/><linearGradient id="Безымянный_градиент_71-31" x1="-2687.9" y1="53.47" x2="-2680.87" y2="53.47" gradientTransform="matrix(-1, 0, 0, 1, -2643.07, 0)" xlink:href="#Безымянный_градиент_71"/></defs><g class="cls-1"><g id="Слой_2" data-name="Слой 2"><g id="Объекты"><g id="МЫШЬ"><rect class="cls-2" x="7.36" y="68.5" width="67.41" height="135.52"/><rect class="cls-3" x="7.36" y="62.18" width="67.41" height="9.15"/><rect class="cls-4" x="25.59" y="105.58" width="41.21" height="66.09"/><rect class="cls-5" x="20.46" y="102.16" width="41.21" height="66.09"/><rect class="cls-6" x="20.46" y="102.16" width="41.21" height="66.09"/><text class="cls-7"><tspan x="21.38" y="131.02">Па</tspan><tspan class="cls-8" x="31.78" y="131.02">м</tspan><tspan class="cls-9" x="37.76" y="131.02">я</tspan><tspan class="cls-10" x="42.34" y="131.02">т</tspan><tspan x="46.09" y="131.02">ник</tspan><tspan x="28.25" y="142.16">Мыши</tspan></text><path class="cls-11" d="M10,204.61H71c1.92-6.81,8.28-18.34,8.28-18.34a8.75,8.75,0,0,0-8.85,6.41c-.59-6.1,3.76-10.77,3.76-10.77-4.76.56-6.81,9.51-6.81,9.51-.77-12.32,5.33-15.66,5.33-15.66-4.7,0-7.19,8-7.61,9.87a44.15,44.15,0,0,0-.9-5.78,19.91,19.91,0,0,0-3.57-8.31A66.21,66.21,0,0,1,62.48,183c-3-7.58-6.58-7.37-6.37-7.15,1.69,1.7,4.07,7.44,4.64,10.15-2.9-7.21-7.08-7.52-7.08-7.52,2.44,1.78,3.52,5.31,4,7.38a15.86,15.86,0,0,0-7.74-6.36c-.36-.12,2.21,2.9,3.27,4.25a9.4,9.4,0,0,0-4.85-1.57,11.35,11.35,0,0,1,4.38,6.43A13.88,13.88,0,0,0,50.12,186a4.56,4.56,0,0,0-3.39-.83c0,.11,3.67,2.37,3.48,5a5.13,5.13,0,0,0-1.51-1.67.56.56,0,0,0-.49-.08,11.46,11.46,0,0,1-1.54,5,.12.12,0,0,1-.21,0,9.21,9.21,0,0,1,.14-4.24,4,4,0,0,1,1.19-2.33h0c-1.92.33-3,2.05-3.47,3.88-.15.2-.23.33-.23.33a8.51,8.51,0,0,1,1.25-4c-1.79-.18-2.91,2.48-2.91,2.48a11.88,11.88,0,0,1,2.75-7.21c-3.94-.95-5.52,6-5.52,6a17.3,17.3,0,0,0-3.23-9.69,25.16,25.16,0,0,1,.73,6.34,17.93,17.93,0,0,0-1.72-4,11.76,11.76,0,0,0-5-3.94,25.24,25.24,0,0,1,1.76,4,10.61,10.61,0,0,0-3.26-3.11c-.25-.14,1.3,4.14,1.91,6.14l-.05,0-.22-.47A9.17,9.17,0,0,0,26.42,179c-.2-.09,2.23,4.67.49,7.88a13.56,13.56,0,0,0-2.58-8.21c.07,2.24,1.21,6.1-3.52,11.47a28.16,28.16,0,0,1,3.07-13c-3,1.37-4.21,4-5.18,7a39.53,39.53,0,0,0-1.48,6.28c1.17-10.18-2.31-16.73-3.81-19a37.35,37.35,0,0,0,1.24,4.93c.36,1.95.9,5.9,1,7.79a17.06,17.06,0,0,0-2.9-6.35,10,10,0,0,0-1.68-1.29,17.1,17.1,0,0,1,2.53,6.6A18.82,18.82,0,0,0,12,180.67a13.34,13.34,0,0,0-5.76-3.14c.61.74,1.23,1.45,1.8,2.19a13.45,13.45,0,0,1,2.62,4.36,48.83,48.83,0,0,1,1.59,6.85,13.79,13.79,0,0,0-5.07-6.61c-1.08-.71-4.14-2.84-5.87-2.57a21.56,21.56,0,0,1,7.54,10.38C9.23,192.89,9.64,199.86,10,204.61Z"/><path class="cls-12" d="M10,204.61H71c1.92-6.81,8.28-18.34,8.28-18.34a8.75,8.75,0,0,0-8.85,6.41c-.59-6.1,3.76-10.77,3.76-10.77-4.76.56-6.81,9.51-6.81,9.51-.77-12.32,5.33-15.66,5.33-15.66-4.7,0-7.19,8-7.61,9.87a44.15,44.15,0,0,0-.9-5.78,19.91,19.91,0,0,0-3.57-8.31A66.21,66.21,0,0,1,62.48,183c-3-7.58-6.58-7.37-6.37-7.15,1.69,1.7,4.07,7.44,4.64,10.15-2.9-7.21-7.08-7.52-7.08-7.52,2.44,1.78,3.52,5.31,4,7.38a15.86,15.86,0,0,0-7.74-6.36c-.36-.12,2.21,2.9,3.27,4.25a9.4,9.4,0,0,0-4.85-1.57,11.35,11.35,0,0,1,4.38,6.43A13.88,13.88,0,0,0,50.12,186a4.56,4.56,0,0,0-3.39-.83c0,.11,3.67,2.37,3.48,5a5.13,5.13,0,0,0-1.51-1.67.56.56,0,0,0-.49-.08,11.46,11.46,0,0,1-1.54,5,.12.12,0,0,1-.21,0,9.21,9.21,0,0,1,.14-4.24,4,4,0,0,1,1.19-2.33h0c-1.92.33-3,2.05-3.47,3.88-.15.2-.23.33-.23.33a8.51,8.51,0,0,1,1.25-4c-1.79-.18-2.91,2.48-2.91,2.48a11.88,11.88,0,0,1,2.75-7.21c-3.94-.95-5.52,6-5.52,6a17.3,17.3,0,0,0-3.23-9.69,25.16,25.16,0,0,1,.73,6.34,17.93,17.93,0,0,0-1.72-4,11.76,11.76,0,0,0-5-3.94,25.24,25.24,0,0,1,1.76,4,10.61,10.61,0,0,0-3.26-3.11c-.25-.14,1.3,4.14,1.91,6.14l-.05,0-.22-.47A9.17,9.17,0,0,0,26.42,179c-.2-.09,2.23,4.67.49,7.88a13.56,13.56,0,0,0-2.58-8.21c.07,2.24,1.21,6.1-3.52,11.47a28.16,28.16,0,0,1,3.07-13c-3,1.37-4.21,4-5.18,7a39.53,39.53,0,0,0-1.48,6.28c1.17-10.18-2.31-16.73-3.81-19a37.35,37.35,0,0,0,1.24,4.93c.36,1.95.9,5.9,1,7.79a17.06,17.06,0,0,0-2.9-6.35,10,10,0,0,0-1.68-1.29,17.1,17.1,0,0,1,2.53,6.6A18.82,18.82,0,0,0,12,180.67a13.34,13.34,0,0,0-5.76-3.14c.61.74,1.23,1.45,1.8,2.19a13.45,13.45,0,0,1,2.62,4.36,48.83,48.83,0,0,1,1.59,6.85,13.79,13.79,0,0,0-5.07-6.61c-1.08-.71-4.14-2.84-5.87-2.57a21.56,21.56,0,0,1,7.54,10.38C9.23,192.89,9.64,199.86,10,204.61Z"/><g class="cls-13"><path class="cls-14" d="M31.74,197c-.44.69-1.21,1.69-1,2.56,0,.15-.2.22-.24.06-.24-.9.46-1.91.92-2.62a19.62,19.62,0,0,1,1.82-2.58,21.33,21.33,0,0,1,1.22-2.72A27,27,0,0,1,36,189.24a6.73,6.73,0,0,1,1-1.16,10.17,10.17,0,0,0-3.27,1.38,10.22,10.22,0,0,0-2.27,2.23c-.51,1.12-1,2.26-1.36,3.43a38.47,38.47,0,0,0-1.56,5.8,22.76,22.76,0,0,0-.38,3.19c0,.17,0,.33,0,.5h3a2.35,2.35,0,0,1,0-.26,10,10,0,0,1,.1-1.81,40.31,40.31,0,0,1,1.33-5.83c.16-.54.34-1.07.52-1.61C32.54,195.7,32.15,196.32,31.74,197Z"/><path class="cls-14" d="M35,198.48A16.32,16.32,0,0,1,40.15,191a4.61,4.61,0,0,0-1.62.41,18.57,18.57,0,0,0-1.73.72,11.13,11.13,0,0,0-3.15,2.19l-.19.21c-.42,1.11-.77,2.24-1.08,3.38-.25.93-.48,1.86-.67,2.8a16.87,16.87,0,0,0-.42,2.64c0,.38,0,.81.05,1.25h2.77A16.49,16.49,0,0,1,35,198.48Z"/><path class="cls-14" d="M40.88,203.48c0,.16-.21.23-.24.07a4.77,4.77,0,0,1,.76-3.13,12.24,12.24,0,0,0-.2-1.48,13.07,13.07,0,0,0-2-4.52,14.53,14.53,0,0,1,0,5.3c-.16,1.07-.45,2.1-.63,3.16a6.44,6.44,0,0,1-.42,1.73h3a16.48,16.48,0,0,0,.26-3.71A4.09,4.09,0,0,0,40.88,203.48Z"/><path class="cls-14" d="M43.16,204.61a17.72,17.72,0,0,1,.27-2.92,13.94,13.94,0,0,1,.79-3,22.34,22.34,0,0,1,1.23-2.38,9.65,9.65,0,0,0-3.08,3c-.24.35-.5.73-.73,1.14a17,17,0,0,1-.22,4.09Z"/><path class="cls-14" d="M50.43,204.61h.22l-.15-.77C50.48,204.1,50.46,204.35,50.43,204.61Z"/><path class="cls-14" d="M50.26,202.88a13.72,13.72,0,0,0-4.69-7.62c.09.21.17.43.26.64a.11.11,0,0,1,.06.16A40.17,40.17,0,0,1,47.26,200a14.44,14.44,0,0,1,.57,2.84c0,.6,0,1.2,0,1.8h2.31A11.08,11.08,0,0,0,50.26,202.88Z"/><path class="cls-14" d="M52.82,200.9c-.16-1.41-.38-2.81-.51-4.22a29.13,29.13,0,0,1,.28-7.91,17.05,17.05,0,0,0-1.59,7c0,.66,0,1.32,0,2a21.86,21.86,0,0,1,1.38,6.85h1.24A16.75,16.75,0,0,1,52.82,200.9Z"/><path class="cls-14" d="M66.73,203.86c0,.15-.2.22-.25.07a4.73,4.73,0,0,1-.18-1.63l-.1-.18-.17-.29c-.6-.89-1.19-1.78-1.74-2.7-.31-.47-.62-.94-.92-1.41a.12.12,0,0,1,0-.15c-.37-.69-.71-1.38-1-2.1a20.49,20.49,0,0,1-1.59-9.89l-.11.13.06.25-.09-.21a9.29,9.29,0,0,0-1.44,3.61c-.32,1.43-.59,2.88-.79,4.33a25.54,25.54,0,0,0,.45,10.8.11.11,0,0,1,0,.12h8.62c-.31-.62-.61-1.25-.93-1.86A3.75,3.75,0,0,0,66.73,203.86Z"/><path class="cls-14" d="M77.83,187a12.7,12.7,0,0,0-2.28,1.91,19.34,19.34,0,0,0-3.42,5.15,26.53,26.53,0,0,0-2.22,10.56h1A60.34,60.34,0,0,1,74,196.69q.18-.63.39-1.26a41.84,41.84,0,0,1,2.22-5.26A14,14,0,0,1,79,186.3,11.63,11.63,0,0,0,77.83,187Z"/><path class="cls-14" d="M68.78,198.56a23.24,23.24,0,0,0-1.13-6.08,18.63,18.63,0,0,0-3-5.41,11.93,11.93,0,0,0-2.16-2,5.35,5.35,0,0,0-2-1.08c.46.66,1.07,1.21,1.56,1.85A12.07,12.07,0,0,1,63.35,188a27.85,27.85,0,0,1,1.82,4.86,44.89,44.89,0,0,1,1.09,5.52c.12.91.23,1.83.27,2.76,0,.33,0,.68,0,1,.41.61.83,1.22,1.24,1.84.09.13-.13.26-.22.12l-.27-.4.46.93H68.8A29.13,29.13,0,0,0,68.78,198.56Z"/><path class="cls-14" d="M53.88,195.68a26.54,26.54,0,0,0-.11,5.12,17.62,17.62,0,0,0,.56,3.81h2.89a26,26,0,0,1-1.72-8,28.36,28.36,0,0,1,.65-9A24,24,0,0,0,53.88,195.68Z"/><path class="cls-14" d="M51.63,203.9c0,.16-.21.23-.24.07a30.14,30.14,0,0,1-.69-6.21,19.29,19.29,0,0,0-1.35-2.59c-.36-.59-1-1.78-1.71-2.06.4.9,1,1.7,1.29,2.64a34.57,34.57,0,0,1,1,3.47,19.61,19.61,0,0,1,.54,3.57c.16.6.3,1.21.41,1.82h1.18A22.26,22.26,0,0,0,51,198.48,30.86,30.86,0,0,0,51.63,203.9Z"/><path class="cls-14" d="M30.49,193c-.76,1.19-1.38,2.45-2,3.69a6.87,6.87,0,0,0-1.15,3.72c0,.17-.23.16-.25,0a6.75,6.75,0,0,1,1.1-3.69,43.89,43.89,0,0,1,2.23-4c.24-.36.49-.73.76-1.08a22.76,22.76,0,0,1,1.1-2.14A21.46,21.46,0,0,1,33.84,187c.5-.66,1.1-1.22,1.59-1.88-1.17-.07-2.45.76-3.42,1.3A13.65,13.65,0,0,0,28.77,189a17.77,17.77,0,0,0-2.53,3.63c-.15.64-.28,1.27-.39,1.88a61.6,61.6,0,0,0-1,6.75c-.09,1.08,0,2.23-.16,3.33h3.08c0-.39,0-.78.05-1.17a26.58,26.58,0,0,1,.4-2.82,42.09,42.09,0,0,1,1.67-6c.23-.62.46-1.24.72-1.85C30.59,192.82,30.54,192.9,30.49,193Z"/><path class="cls-14" d="M24.44,196.72c-.06.15-.3.08-.25-.07A34.17,34.17,0,0,1,26,192.49c.66-2.8,1.63-5.84,3.72-7.82a10.31,10.31,0,0,0-2.64,1.81,3.36,3.36,0,0,1-.2.43v-.24a18.77,18.77,0,0,0-2.27,2.74h0c-.08.14-.16.28-.23.42-.26.51-.51,1-.74,1.54a17.06,17.06,0,0,0-1,3.37c-.27,1.37-.44,2.76-.67,4.14-.07.52-.13,1-.19,1.57a26.3,26.3,0,0,0-.19,3.2v1h2.91c.21-1.38.09-2.86.24-4.21a62.27,62.27,0,0,1,1-6.64,2.38,2.38,0,0,1,.05-.26C25.29,194.55,24.85,195.63,24.44,196.72Z"/><path class="cls-14" d="M21.43,201.22a.13.13,0,0,1-.19-.14,23.49,23.49,0,0,0,.5-2.47c.23-1.71.5-3.41.87-5.1a51.12,51.12,0,0,1,1.56-6.2,48.19,48.19,0,0,1,2.14-4.61c0-.17-.11-.33-.16-.49-.39.38-.81.73-1.19,1.13a6.76,6.76,0,0,0-.85,1.14,12.85,12.85,0,0,1-1.52,3.34c-.58,1.52-1.07,3.1-1.5,4.65a50.9,50.9,0,0,0-1.8,12.14h2c0-.55,0-1.09,0-1.64S21.37,201.8,21.43,201.22Z"/></g><path class="cls-15" d="M19.77,189.73c.36-2.78.79-5.59,1.41-8.33a20.24,20.24,0,0,1,.94-3.14,12.14,12.14,0,0,0-3.42,5.88,39.53,39.53,0,0,0-1.48,6.28,33.53,33.53,0,0,0,.22-5,30.91,30.91,0,0,0-1,4.43.12.12,0,0,1-.23,0c-1.68-2.79-3.4-6.65-6.52-8a6.84,6.84,0,0,1,.37.65c5.38,6,7.48,14.26,8.75,22.05h1A52.61,52.61,0,0,1,19.77,189.73Z"/><path class="cls-15" d="M13,194.38a20.21,20.21,0,0,0-3.73-4.93,22.84,22.84,0,0,0-2.41-2l-.35-.25a22.58,22.58,0,0,1,2.4,4.91c.35.76.76,7.73,1.1,12.48h6.71A37.24,37.24,0,0,0,13,194.38Z"/><path class="cls-16" d="M78.67,192.43a14.92,14.92,0,0,0-5.47,7.15,51.79,51.79,0,0,1,1.71-7.4,14.65,14.65,0,0,1,2.83-4.71c.62-.8,1.29-1.57,2-2.36a14.21,14.21,0,0,0-6.22,3.38,20.17,20.17,0,0,0-1.7,2.61A18.5,18.5,0,0,1,74.51,184a10.76,10.76,0,0,0-1.83,1.39,18.69,18.69,0,0,0-3.12,6.86c.11-2,.68-6.31,1.08-8.41A41.36,41.36,0,0,0,72,178.49C70.36,181,66.6,188,67.86,199a43.76,43.76,0,0,0-1.59-6.79c-1.06-3.21-2.37-6.06-5.6-7.55,1.13,2.27,3.58,8,3.32,14.07-5.12-5.8-3.88-10-3.81-12.39a14.75,14.75,0,0,0-2.79,8.86c-1.87-3.46.75-8.6.54-8.5l-.34.17-.3.53c-.26.46-.55.91-.79,1.38a12.47,12.47,0,0,0-1.23,3.85,21.69,21.69,0,0,0,.13,6.13l-.21-.65a29.9,29.9,0,0,1-.91-4.52,15.88,15.88,0,0,1,1-7.93c0-.11-.05-.19-.15-.14a4.08,4.08,0,0,0-1.57,2,24.91,24.91,0,0,0-1.66,5.19,16.41,16.41,0,0,0-.3,4.79c0,.39,0,.81.06,1.24a20.4,20.4,0,0,0-2.11-4.2,17.65,17.65,0,0,1,.37,1.87,28.73,28.73,0,0,1,.23,5.16.12.12,0,0,1-.23.07A30.3,30.3,0,0,0,47.28,197a10.33,10.33,0,0,0-.7-.77,18.69,18.69,0,0,1,1,3.37,31,31,0,0,1,.76,5H75.47a30.89,30.89,0,0,1,1.39-3.74A23.39,23.39,0,0,1,85,189.67C83.14,189.37,79.84,191.67,78.67,192.43Z"/><path class="cls-17" d="M44.07,197.82a5.89,5.89,0,0,0-2.82,3.74c0,.12-.24.13-.26,0a21.81,21.81,0,0,0-.68-3.69,12.5,12.5,0,0,0-.81-1.69,4.37,4.37,0,0,0-2.84-1.85h0A4.72,4.72,0,0,1,38,197a10.86,10.86,0,0,1,.17,4.94.14.14,0,0,1-.25,0,13.38,13.38,0,0,1-1.79-5.79.72.72,0,0,0-.57.1,5.88,5.88,0,0,0-1.76,2c-.22-3.05,4.11-5.69,4.05-5.82a5.36,5.36,0,0,0-3.94,1c-2.15,1.42-3.1,3.46-3,3A13.18,13.18,0,0,1,36,189a11,11,0,0,0-5.64,1.83c1.23-1.57,4.22-5.09,3.81-4.95a18.44,18.44,0,0,0-9,7.41c.52-2.41,1.79-6.53,4.63-8.6,0,0-4.88.37-8.25,8.76.67-3.15,3.44-9.84,5.4-11.82.24-.25-3.86-.49-7.42,8.33a77.13,77.13,0,0,1,2.21-13.29s-2.75,3.17-4.16,9.67A52.71,52.71,0,0,0,16.5,193c-.49-2.2-3.39-11.47-8.85-11.48,0,0,7.1,3.89,6.2,18.22,0,0-2.39-10.42-7.92-11.07,0,0,5.06,5.43,4.36,12.54A10.18,10.18,0,0,0,0,193.76s6.32,3.76,7.24,10.85h35A12.1,12.1,0,0,1,44.07,197.82Z"/><path class="cls-18" d="M54.4,186.55c-2.29,3.61-2.43,7.66-2.2,11.82,0,0,.08,0,.08,0,0-4,.38-8.09,2.16-11.78C54.45,186.53,54.41,186.53,54.4,186.55Z"/><path class="cls-18" d="M8,202.31C7,199,4.75,195,1.11,194.19c0,0,0,0,0,0,3.25,1.34,5.46,5.12,6.8,8.2C7.93,202.51,8.06,202.39,8,202.31Z"/><path class="cls-18" d="M6.84,189.2l0,0a20,20,0,0,1,4,8.27c0,.1.15,0,.14-.06C10.63,194.75,9.59,190.45,6.84,189.2Z"/><path class="cls-18" d="M19.87,180.63a14.09,14.09,0,0,0-1.7,4.74,31.46,31.46,0,0,0-.68,5.81c0,.1.11,0,.12,0,.26-1.68.5-3.36.86-5,.21-1,.47-2,.74-3a16.23,16.23,0,0,1,.7-2.5S19.88,180.61,19.87,180.63Z"/><path class="cls-18" d="M27,186.25a11.9,11.9,0,0,0-4.15,5.86c-.05.17.16.13.21,0a17.82,17.82,0,0,1,4-5.85S27.05,186.24,27,186.25Z"/><path class="cls-18" d="M33,189.79c-3.89,1-6.07,5.42-6.9,9,0,.13.17.07.2,0,1.16-3.25,3.32-7.53,6.71-8.94C33,189.82,33.05,189.78,33,189.79Z"/><path class="cls-18" d="M34.75,193.52a4.42,4.42,0,0,0-2.9,2.84c0,.2.21.1.28,0a9.38,9.38,0,0,1,2.62-2.81S34.79,193.5,34.75,193.52Z"/><path class="cls-18" d="M59.36,188.54a9.51,9.51,0,0,0-1.29,3.76,12.77,12.77,0,0,0,0,4.53c0,.2.29,0,.29-.13a26.76,26.76,0,0,1,.2-4.1,14.31,14.31,0,0,1,.88-4S59.38,188.52,59.36,188.54Z"/><path class="cls-18" d="M64.24,192.73a10.76,10.76,0,0,0-1.9-5.21s0,0,0,0a19.85,19.85,0,0,1,1.59,5.33,49.45,49.45,0,0,1,.73,5.69c0,.09.14,0,.14,0A33.08,33.08,0,0,0,64.24,192.73Z"/><path class="cls-18" d="M76.05,187.33c-3.7,1.93-5.46,6.71-5.66,10.64,0,.24.29.1.31-.06.65-3.74,2.06-8.29,5.36-10.55C76.07,187.35,76.07,187.31,76.05,187.33Z"/><path class="cls-19" d="M41.31,70C55,70,66.2,68.13,66.2,66S55,62,41.31,62s-24.89,1.82-24.89,4,11.19,4,24.89,4Z"/><path class="cls-20" d="M12.9,20.36a1.52,1.52,0,1,1,.38-3c7.1.88,9,3.83,8.49,7.85-.38,2.83-2.08,6-3.84,9.24C13.22,43,12.72,52.86,20.32,52.67c2.14.06,6.41,2.89,9.37,1.7a1.47,1.47,0,0,1,2,.81,1.56,1.56,0,0,1-.88,2,22.76,22.76,0,0,1-8.8,2c-15-.31-11.88-17-6.79-26.21,1.63-3,3.21-5.9,3.46-8.1s-1-3.84-5.79-4.47Z"/><path class="cls-21" d="M20.76,62.91c-3,1.07-3.27,2.45-3.27,3s21.37.13,22.06-.31c1.7-1.14-14.26-4.34-18.79-2.71Z"/><path class="cls-22" d="M61.86,62.91c3,1.07,3.27,2.45,3.21,3s-21.37.13-22-.31c-1.69-1.14,14.27-4.34,18.79-2.71Z"/><path class="cls-23" d="M30.82,66.12a76.38,76.38,0,0,0,8.73-.5c1.45-1-9.55-3.34-15.84-3.15a19,19,0,0,0,7.11,3.65Z"/><path class="cls-23" d="M51.75,66.12a74.83,74.83,0,0,1-8.68-.5c-1.44-1,9.56-3.34,15.78-3.15a19,19,0,0,1-7.1,3.65Z"/><path class="cls-24" d="M26.23,24s-7.73,27.4-5.53,32.3c2.7,6.22,11.81,9.18,20.61,8.86,8.8.32,17.92-2.64,20.62-8.86,2.13-4.9-5.6-32.3-5.6-32.3-5-5.53-10-7.86-15-7.67-5-.19-10,2.14-15.08,7.67Z"/><path class="cls-25" d="M26.23,24s-.57,2.13-1.38,5.28c2.2,3.14,7.54,6.53,16.46,6.47s14.21-3.33,16.47-6.47C57,26.08,56.33,24,56.33,24c-5-5.53-10-7.86-15-7.67-5-.19-10,2.14-15.08,7.67Z"/><path class="cls-26" d="M30.19,24S24.47,51.35,26,56.25c2,6.22,8.74,9.18,15.27,8.86,6.48.32,13.26-2.64,15.21-8.86,1.57-4.9-4.08-32.3-4.08-32.3-3.71-5.53-7.42-7.86-11.13-7.67C37.6,16.09,33.9,18.42,30.19,24Z"/><path class="cls-27" d="M28,35.45c-.57,3.52-1.2,7.35-1.64,10.81,3,3.27,8.43,2.07,8.62,1.07s-1.51-1.26-3.9-5A28.19,28.19,0,0,1,28,35.45Z"/><path class="cls-28" d="M56.27,46.26c-.44-3.46-1.07-7.29-1.7-10.81a27.84,27.84,0,0,1-3,6.85c-2.39,3.77-4.15,4-4,5s5.65,2.2,8.67-1.07Z"/><path class="cls-29" d="M30.19,24s-.76,3.7-1.7,8.61c2.89,1.82,7.17,3.2,12.82,3.14s9.87-1.32,12.76-3.14C53.19,27.65,52.44,24,52.44,24c-3.71-5.53-7.42-7.86-11.13-7.67C37.6,16.09,33.9,18.42,30.19,24Z"/><path class="cls-30" d="M30.31,8.11c-1.94,5.72-1.76,10.93-6,14.2-2.58,2,2.39,11.32,17,11.19,14.65.13,19.61-9.18,17-11.19-4.21-3.27-4-8.48-6-14.2-3.64-3.4-7.35-4.78-11-4.72S34,4.71,30.31,8.11Z"/><path class="cls-31" d="M28.18,27.47A2.87,2.87,0,0,0,31,24.57a2.83,2.83,0,0,0-5.66,0,2.87,2.87,0,0,0,2.83,2.9Z"/><path class="cls-32" d="M54.45,27.47a2.87,2.87,0,0,0,2.83-2.9,2.81,2.81,0,0,0-2.83-2.82,2.86,2.86,0,0,0-2.89,2.82,2.93,2.93,0,0,0,2.89,2.9Z"/><path class="cls-33" d="M34.78,21.12a1.2,1.2,0,1,0-1.2-1.2,1.24,1.24,0,0,0,1.2,1.2Z"/><path class="cls-33" d="M47.85,21.12a1.2,1.2,0,1,0-1.19-1.2,1.18,1.18,0,0,0,1.19,1.2Z"/><path class="cls-34" d="M27.86,0c-2.95,0-5.34,3.46-5.34,7.79s2.39,7.8,5.34,7.8,2.71,3.14,2.71-1.13S30.82,0,27.86,0Z"/><path class="cls-35" d="M54.76,0c3,0,5.35,3.46,5.35,7.79s-2.39,7.8-5.35,7.8S52,18.73,52,14.46,51.81,0,54.76,0Z"/><path class="cls-36" d="M32.33,24.7c1.19-1.26,5.15-1.82,9-1.76s7.8.5,8.93,1.76c1.38,1.51-1.26,8.23-8.93,8.11-7.73.12-10.3-6.6-9-8.11Z"/><path class="cls-37" d="M38.55,33a3.38,3.38,0,0,0,2.76.81c1.13.07,2.39-.25,2.71-.81a2.8,2.8,0,0,0-.13-1.83,3.31,3.31,0,0,1-1.32-.5,2,2,0,0,1-1.19-1.51h-.13A2.31,2.31,0,0,1,40,30.67a2.82,2.82,0,0,1-1.25.5A2.78,2.78,0,0,0,38.55,33Z"/><path class="cls-33" d="M24.47,19.74a.33.33,0,0,1-.25-.32c.06-.12.19-.25.31-.19s13,3,14.77,4.15c.32.25.38.44.25.69h0c-.25.38-1.51.44-3.14.63-2.51.19-6,.5-7.73,1.7a.27.27,0,1,1-.31-.44c1.88-1.26,5.46-1.57,8-1.76a10.34,10.34,0,0,0,2.76-.44h0c.07,0-.06.06-.12.06-1.64-1.13-14.52-4.08-14.52-4.08Z"/><path class="cls-33" d="M58.16,19.74c.12-.07.25-.19.19-.32a.25.25,0,0,0-.32-.19s-13,3-14.71,4.15c-.31.25-.44.44-.25.69h0c.25.38,1.51.44,3.08.63,2.52.19,6,.5,7.8,1.7a.29.29,0,0,0,.37-.07c.07-.12,0-.25-.12-.37-1.83-1.26-5.41-1.57-8-1.76a9.3,9.3,0,0,1-2.71-.44h0c-.06,0,.07.06.13.06,1.63-1.13,14.52-4.08,14.52-4.08Z"/><rect x="41.06" y="24.07" width="0.5" height="5.41"/><path class="cls-33" d="M46.78,29a.22.22,0,0,1,.32-.18.23.23,0,0,1,.12.31,2.75,2.75,0,0,1-1.88,2.07,3.32,3.32,0,0,1-1.58.19,3.08,3.08,0,0,1-1.5-.5,2.76,2.76,0,0,1-.95-.94,2.92,2.92,0,0,1-1,.94,3.11,3.11,0,0,1-1.45.5,3.19,3.19,0,0,1-1.57-.19,2.85,2.85,0,0,1-1.95-2.07.33.33,0,0,1,.19-.31.23.23,0,0,1,.31.18,2.48,2.48,0,0,0,1.58,1.76,3.42,3.42,0,0,0,1.38.13,3,3,0,0,0,1.26-.44,1.85,1.85,0,0,0,1-1.45h0v-.06h0v-.06h0l.06-.06h0v-.07h.32v.07h.06v.06h.06v.06h0V29h0a1.78,1.78,0,0,0,.95,1.45,2.91,2.91,0,0,0,1.32.44,3.14,3.14,0,0,0,1.32-.13A2.54,2.54,0,0,0,46.78,29Z"/><path class="cls-38" d="M38.55,22.63c.37-.57,1.57-.88,2.76-.82s2.39.25,2.71.82-.38,3.89-2.71,3.83-3.14-3.14-2.76-3.83Z"/><path class="cls-39" d="M27.67,33.37a29.1,29.1,0,0,0,3.4,8c2.39,3.77,4.08,4,3.9,5s-6.23,2.33-9.06-1.63,1.76-11.38,1.76-11.38Z"/><path class="cls-40" d="M54.89,33.37a27.72,27.72,0,0,1-3.33,8c-2.39,3.77-4.15,4-4,5s6.28,2.33,9.11-1.63-1.82-11.38-1.82-11.38Z"/><path class="cls-41" d="M33.21,46.64s2.38-1.64,3.7-.38,1.83,2.2,1.07,2.39-1.51-1-1.63,0-.25,1.44-1,.62-1-1.13-1.38-.18-1.51-1.39-.75-2.45Z"/><path class="cls-42" d="M49.36,46.64S47,45,45.65,46.26s-1.76,2.2-1,2.39,1.51-1,1.64,0,.25,1.44,1,.62.95-1.13,1.39-.18,1.5-1.39.69-2.45Z"/><path class="cls-43" d="M25.1,6.85c1.32-1.63,3.14,3.33,3.39,6,.5,4.34-6.47-2.2-3.39-6Z"/><path class="cls-44" d="M57.47,6.85c-1.26-1.63-3.08,3.33-3.4,6-.44,4.34,6.48-2.2,3.4-6Z"/><path class="cls-45" d="M38.48,20.52a4,4,0,0,1,5.66,0"/><ellipse class="cls-46" cx="34.78" cy="20.01" rx="3.71" ry="3.74"/><ellipse class="cls-47" cx="47.82" cy="19.92" rx="3.71" ry="3.74"/><path class="cls-48" d="M43.55,39.75h0c.19-.1,5.5,9.38,5.5,9.38.49.9.73,1.71.54,1.81h0c-.18.1-.73-.54-1.21-1.44C48.38,49.5,43.36,39.86,43.55,39.75Z"/><path class="cls-49" d="M39.68,39.75h0c-.19-.1-5.51,9.38-5.51,9.38-.48.9-.72,1.71-.54,1.81h0c.19.1.73-.54,1.22-1.44C34.85,49.5,39.86,39.86,39.68,39.75Z"/><line class="cls-50" x1="39.05" y1="42.99" x2="43.75" y2="41.92"/><line class="cls-51" x1="38.96" y1="42.2" x2="43.66" y2="41.12"/><line class="cls-52" x1="39.05" y1="44.08" x2="43.94" y2="42.96"/><line class="cls-53" x1="39.28" y1="45.11" x2="43.98" y2="44.04"/><line class="cls-54" x1="39.05" y1="46.32" x2="43.99" y2="45.19"/><line class="cls-55" x1="39.38" y1="47.2" x2="43.96" y2="46.15"/><line class="cls-56" x1="40" y1="47.96" x2="43.69" y2="47.12"/><line class="cls-57" x1="40.47" y1="48.58" x2="43.22" y2="47.95"/><line class="cls-58" x1="44.74" y1="53.27" x2="38.68" y2="51.89"/><line class="cls-59" x1="44.65" y1="52.43" x2="39.15" y2="51.18"/><line class="cls-60" x1="44.28" y1="51.57" x2="39.73" y2="50.53"/><line class="cls-61" x1="43.61" y1="50.71" x2="40.17" y2="49.93"/><line class="cls-62" x1="44.82" y1="54.38" x2="38.3" y2="52.89"/><line class="cls-63" x1="44.86" y1="55.47" x2="38.32" y2="53.98"/><line class="cls-64" x1="44.85" y1="56.62" x2="38.39" y2="55.15"/><line class="cls-65" x1="44.39" y1="57.47" x2="38.51" y2="56.13"/><line class="cls-66" x1="43.85" y1="58.25" x2="38.93" y2="57.13"/><line class="cls-67" x1="43.16" y1="58.82" x2="39.35" y2="57.95"/><line class="cls-68" x1="44.37" y1="64.34" x2="38.68" y2="65.64"/><line class="cls-69" x1="44.29" y1="63.28" x2="38.82" y2="64.53"/><line class="cls-70" x1="44.03" y1="62.18" x2="38.97" y2="63.34"/><line class="cls-71" x1="43.7" y1="61.3" x2="39.12" y2="62.35"/><line class="cls-72" x1="43.08" y1="60.54" x2="39.39" y2="61.38"/><line class="cls-73" x1="42.61" y1="59.92" x2="39.86" y2="60.55"/><path class="cls-74" d="M39.35,40.4c-.87,5.23.13,7.32,1.28,8.24.87.7,2,.85,3.07,2.25a6.19,6.19,0,0,1,1.24,3.16,5.71,5.71,0,0,1-1.24,4.19c-1.07,1.16-2,.89-3.11,1.68s-2.11,2.48-1.88,6.67"/><path class="cls-75" d="M43.78,40.4c.87,5.23-.12,7.32-1.27,8.24-.87.7-2,.85-3.08,2.25a6.29,6.29,0,0,0-1.24,3.16,5.71,5.71,0,0,0,1.24,4.19c1.07,1.16,2,.89,3.11,1.68s2.12,2.48,1.88,6.67"/><path class="cls-6" d="M64.56,64.58a6.12,6.12,0,0,0-2.7-1.66,18.46,18.46,0,0,0-6.71-.32,13.19,13.19,0,0,0,6.78-6.34c1.54-3.54-2-18.77-4.17-27l0,0c-.15-.59-.3-1.14-.44-1.65,1.81-2.22,2.07-4.4.94-5.26a9.81,9.81,0,0,1-2-2.13l1.89-.45c.12-.06.25-.18.19-.31a.24.24,0,0,0-.32-.19L56,19.72a16,16,0,0,1-1.66-4.09,3.19,3.19,0,0,1,.45,0c3,0,5.35-3.52,5.35-7.8S57.72,0,54.76,0c-1.83,0-2.45,3.92-2.66,7.92C48.52,4.67,44.89,3.34,41.31,3.4S34.07,4.68,30.49,8C30.3,4,29.7,0,27.86,0c-2.95,0-5.34,3.46-5.34,7.79s2.39,7.8,5.34,7.8a3.19,3.19,0,0,1,.45,0,15.32,15.32,0,0,1-1.69,4.09l-2.09-.48c-.12-.06-.25.06-.31.19a.31.31,0,0,0,.25.31l1.86.44a9.61,9.61,0,0,1-2,2.14c-1.1.86-.82,3,1,5.24-1.61,6.12-4.68,18.53-4.93,25.12h0c-7.6.19-7.1-9.68-2.39-18.23,1.76-3.27,3.46-6.41,3.84-9.24.5-4-1.39-7-8.49-7.85a1.52,1.52,0,1,0-.38,3c4.78.63,6.1,2.27,5.79,4.46s-1.83,5.1-3.46,8.11C10.14,42.18,7,58.84,22,59.15h.59a15.46,15.46,0,0,0,4.86,3.46,18.49,18.49,0,0,0-6.71.32A5.94,5.94,0,0,0,18,64.6c-1,.44-1.6.91-1.6,1.4,0,2.14,11.19,4,24.89,4S66.2,68.14,66.2,66C66.2,65.5,65.62,65,64.56,64.58Z"/></g></g></g></g></svg>