<svg xmlns="http://www.w3.org/2000/svg" xmlns:xlink="http://www.w3.org/1999/xlink" viewBox="0 0 127.82 261.15"><defs><style>.cls-1{isolation:isolate;}.cls-2{fill:url(#Безымянный_градиент_164);}.cls-3,.cls-34{opacity:0.5;}.cls-3{fill:url(#Безымянный_градиент_163);}.cls-4{fill:url(#Безымянный_градиент_162);}.cls-5{fill:url(#Безымянный_градиент_161);}.cls-6{fill:url(#Безымянный_градиент_161-2);}.cls-7{fill:url(#Безымянный_градиент_161-3);}.cls-8{fill:url(#Безымянный_градиент_161-4);}.cls-9{fill:url(#Безымянный_градиент_161-5);}.cls-10{fill:url(#Безымянный_градиент_161-6);}.cls-11{fill:url(#Безымянный_градиент_161-7);}.cls-12{fill:url(#Безымянный_градиент_161-8);}.cls-13{fill:url(#Безымянный_градиент_161-9);}.cls-14{fill:url(#Безымянный_градиент_161-10);}.cls-15{fill:url(#Безымянный_градиент_161-11);}.cls-16,.cls-33{opacity:0.7;}.cls-17,.cls-33,.cls-34,.cls-50,.cls-62{fill:#35293a;}.cls-18{fill:url(#Безымянный_градиент_162-2);}.cls-19{fill:url(#Безымянный_градиент_161-12);}.cls-20{fill:url(#Безымянный_градиент_161-13);}.cls-21{fill:url(#Безымянный_градиент_161-14);}.cls-22{fill:url(#Безымянный_градиент_161-15);}.cls-23{fill:url(#Безымянный_градиент_161-16);}.cls-24{fill:url(#Безымянный_градиент_161-17);}.cls-25{fill:url(#Безымянный_градиент_161-18);}.cls-26{fill:url(#Безымянный_градиент_161-19);}.cls-27{fill:url(#Безымянный_градиент_161-20);}.cls-28{fill:url(#Безымянный_градиент_161-21);}.cls-29{fill:url(#Безымянный_градиент_161-22);}.cls-30{fill:url(#Безымянный_градиент_161-23);}.cls-31{fill:url(#Безымянный_градиент_161-24);}.cls-32{fill:url(#Безымянный_градиент_161-25);}.cls-35{fill:url(#Безымянный_градиент_162-3);}.cls-36{fill:url(#Безымянный_градиент_161-26);}.cls-37{fill:url(#Безымянный_градиент_161-27);}.cls-38{fill:url(#Безымянный_градиент_161-28);}.cls-39{fill:url(#Безымянный_градиент_161-29);}.cls-40{fill:url(#Безымянный_градиент_161-30);}.cls-41{fill:url(#Безымянный_градиент_161-31);}.cls-42{fill:url(#Безымянный_градиент_161-32);}.cls-43{fill:url(#Безымянный_градиент_161-33);}.cls-44{fill:url(#Безымянный_градиент_161-34);}.cls-45{fill:url(#Безымянный_градиент_161-35);}.cls-46{fill:url(#Безымянный_градиент_161-36);}.cls-47{fill:url(#Безымянный_градиент_161-37);}.cls-48{fill:url(#Безымянный_градиент_161-38);}.cls-49{fill:url(#Безымянный_градиент_161-39);}.cls-50{opacity:0.4;}.cls-51{fill:url(#Безымянный_градиент_92);}.cls-52{fill:url(#Безымянный_градиент_92-2);}.cls-53{fill:url(#Безымянный_градиент_92-3);}.cls-54{fill:url(#Безымянный_градиент_92-4);}.cls-55{fill:url(#Безымянный_градиент_92-5);}.cls-56{fill:url(#Безымянный_градиент_92-6);}.cls-57,.cls-58,.cls-59,.cls-60,.cls-61{mix-blend-mode:screen;}.cls-57{fill:url(#Безымянный_градиент_92-7);}.cls-58{fill:url(#Безымянный_градиент_92-8);}.cls-59{fill:url(#Безымянный_градиент_92-9);}.cls-60{fill:url(#Безымянный_градиент_92-10);}.cls-61{fill:url(#Безымянный_градиент_92-11);}.cls-62{font-size:16.06px;stroke:#000;stroke-miterlimit:10;stroke-width:0.75px;font-family:MyriadPro-Regular, Myriad Pro;}.cls-63{letter-spacing:0em;}.cls-64{letter-spacing:-0.01em;}.cls-65{letter-spacing:-0.01em;}.cls-66{letter-spacing:0.01em;}.cls-67{letter-spacing:0em;}</style><linearGradient id="Безымянный_градиент_164" x1="54.78" y1="129.91" x2="68.12" y2="129.91" gradientUnits="userSpaceOnUse"><stop offset="0" stop-color="#a08879"/><stop offset="1" stop-color="#806c63"/></linearGradient><linearGradient id="Безымянный_градиент_163" x1="54.78" y1="129.91" x2="68.12" y2="129.91" gradientUnits="userSpaceOnUse"><stop offset="0" stop-color="#806c63"/><stop offset="1" stop-color="#35293a"/></linearGradient><linearGradient id="Безымянный_градиент_162" x1="7.37" y1="91.77" x2="127.82" y2="91.77" gradientUnits="userSpaceOnUse"><stop offset="0" stop-color="#534759"/><stop offset="1" stop-color="#433749"/></linearGradient><linearGradient id="Безымянный_градиент_161" x1="98.04" y1="67.94" x2="110.63" y2="67.94" gradientUnits="userSpaceOnUse"><stop offset="0" stop-color="#a49086"/><stop offset="1" stop-color="#a08879"/></linearGradient><linearGradient id="Безымянный_градиент_161-2" x1="98.02" y1="62.8" x2="106.27" y2="62.8" xlink:href="#Безымянный_градиент_161"/><linearGradient id="Безымянный_градиент_161-3" x1="75.97" y1="108.56" x2="118.81" y2="108.56" xlink:href="#Безымянный_градиент_161"/><linearGradient id="Безымянный_градиент_161-4" x1="7.37" y1="74.42" x2="116.64" y2="74.42" xlink:href="#Безымянный_градиент_161"/><linearGradient id="Безымянный_градиент_161-5" x1="7.38" y1="81.11" x2="122.63" y2="81.11" xlink:href="#Безымянный_градиент_161"/><linearGradient id="Безымянный_градиент_161-6" x1="46.5" y1="102.72" x2="124.3" y2="102.72" xlink:href="#Безымянный_градиент_161"/><linearGradient id="Безымянный_градиент_161-7" x1="7.64" y1="93.47" x2="92.53" y2="93.47" xlink:href="#Безымянный_градиент_161"/><linearGradient id="Безымянный_градиент_161-8" x1="7.53" y1="95.65" x2="127.82" y2="95.65" xlink:href="#Безымянный_градиент_161"/><linearGradient id="Безымянный_градиент_161-9" x1="99.51" y1="118.84" x2="108.34" y2="118.84" xlink:href="#Безымянный_градиент_161"/><linearGradient id="Безымянный_градиент_161-10" x1="7.76" y1="93.43" x2="58.35" y2="93.43" xlink:href="#Безымянный_градиент_161"/><linearGradient id="Безымянный_градиент_161-11" x1="10.33" y1="93.23" x2="35.26" y2="93.23" xlink:href="#Безымянный_градиент_161"/><linearGradient id="Безымянный_градиент_162-2" x1="0" y1="33.12" x2="110.32" y2="33.12" xlink:href="#Безымянный_градиент_162"/><linearGradient id="Безымянный_градиент_161-12" x1="5.73" y1="26.35" x2="106.11" y2="26.35" xlink:href="#Безымянный_градиент_161"/><linearGradient id="Безымянный_градиент_161-13" x1="2.06" y1="28.76" x2="97.48" y2="28.76" xlink:href="#Безымянный_градиент_161"/><linearGradient id="Безымянный_градиент_161-14" x1="0.06" y1="30.38" x2="53.37" y2="30.38" xlink:href="#Безымянный_градиент_161"/><linearGradient id="Безымянный_градиент_161-15" x1="8.02" y1="22.29" x2="109.14" y2="22.29" xlink:href="#Безымянный_градиент_161"/><linearGradient id="Безымянный_градиент_161-16" x1="0.08" y1="31.35" x2="91.45" y2="31.35" xlink:href="#Безымянный_градиент_161"/><linearGradient id="Безымянный_градиент_161-17" x1="69.81" y1="46.18" x2="109" y2="46.18" xlink:href="#Безымянный_градиент_161"/><linearGradient id="Безымянный_градиент_161-18" x1="9.04" y1="44.06" x2="108.76" y2="44.06" xlink:href="#Безымянный_градиент_161"/><linearGradient id="Безымянный_градиент_161-19" x1="14.63" y1="20.07" x2="110.29" y2="20.07" xlink:href="#Безымянный_градиент_161"/><linearGradient id="Безымянный_градиент_161-20" x1="18.75" y1="17.44" x2="110.18" y2="17.44" xlink:href="#Безымянный_градиент_161"/><linearGradient id="Безымянный_градиент_161-21" x1="1.44" y1="35.72" x2="96.93" y2="35.72" xlink:href="#Безымянный_градиент_161"/><linearGradient id="Безымянный_градиент_161-22" x1="22.15" y1="49.61" x2="108.16" y2="49.61" xlink:href="#Безымянный_градиент_161"/><linearGradient id="Безымянный_градиент_161-23" x1="4.94" y1="38.46" x2="102.11" y2="38.46" xlink:href="#Безымянный_градиент_161"/><linearGradient id="Безымянный_градиент_161-24" x1="14.08" y1="46.34" x2="108.57" y2="46.34" xlink:href="#Безымянный_градиент_161"/><linearGradient id="Безымянный_градиент_161-25" x1="103.9" y1="46.55" x2="109.18" y2="46.55" xlink:href="#Безымянный_градиент_161"/><linearGradient id="Безымянный_градиент_162-3" x1="13.25" y1="159.79" x2="122.54" y2="159.79" xlink:href="#Безымянный_градиент_162"/><linearGradient id="Безымянный_градиент_161-26" x1="18.43" y1="151.01" x2="115.68" y2="151.01" xlink:href="#Безымянный_градиент_161"/><linearGradient id="Безымянный_градиент_161-27" x1="27.69" y1="152.4" x2="119.9" y2="152.4" xlink:href="#Безымянный_градиент_161"/><linearGradient id="Безымянный_градиент_161-28" x1="70.89" y1="149.19" x2="122.38" y2="149.19" xlink:href="#Безымянный_градиент_161"/><linearGradient id="Безымянный_градиент_161-29" x1="15.07" y1="148.24" x2="113.09" y2="148.24" xlink:href="#Безымянный_градиент_161"/><linearGradient id="Безымянный_градиент_161-30" x1="34.09" y1="154.5" x2="122.52" y2="154.5" xlink:href="#Безымянный_градиент_161"/><linearGradient id="Безымянный_градиент_161-31" x1="19.43" y1="177.99" x2="57.34" y2="177.99" xlink:href="#Безымянный_градиент_161"/><linearGradient id="Безымянный_градиент_161-32" x1="20.31" y1="169.55" x2="115.54" y2="169.55" xlink:href="#Безымянный_градиент_161"/><linearGradient id="Безымянный_градиент_161-33" x1="13.33" y1="146.99" x2="105.7" y2="146.99" xlink:href="#Безымянный_градиент_161"/><linearGradient id="Безымянный_градиент_161-34" x1="13.27" y1="144.94" x2="101.1" y2="144.94" xlink:href="#Безымянный_градиент_161"/><linearGradient id="Безымянный_градиент_161-35" x1="29.92" y1="159.36" x2="121.68" y2="159.36" xlink:href="#Безымянный_градиент_161"/><linearGradient id="Безымянный_градиент_161-36" x1="21.49" y1="175.95" x2="104.35" y2="175.95" xlink:href="#Безымянный_градиент_161"/><linearGradient id="Безымянный_градиент_161-37" x1="25.36" y1="163.13" x2="118.97" y2="163.13" xlink:href="#Безымянный_градиент_161"/><linearGradient id="Безымянный_градиент_161-38" x1="20.76" y1="172.24" x2="111.22" y2="172.24" xlink:href="#Безымянный_градиент_161"/><linearGradient id="Безымянный_градиент_161-39" x1="19.34" y1="181.78" x2="24.41" y2="181.78" xlink:href="#Безымянный_градиент_161"/><linearGradient id="Безымянный_градиент_92" x1="39.81" y1="244.56" x2="85.17" y2="244.56" gradientUnits="userSpaceOnUse"><stop offset="0" stop-color="#6bbe8a"/><stop offset="1" stop-color="#22797a"/></linearGradient><linearGradient id="Безымянный_градиент_92-2" x1="39.81" y1="251.82" x2="57.98" y2="251.82" xlink:href="#Безымянный_градиент_92"/><linearGradient id="Безымянный_градиент_92-3" x1="48.66" y1="242.21" x2="59.27" y2="242.21" xlink:href="#Безымянный_градиент_92"/><linearGradient id="Безымянный_градиент_92-4" x1="60.23" y1="243.86" x2="65.01" y2="243.86" xlink:href="#Безымянный_градиент_92"/><linearGradient id="Безымянный_градиент_92-5" x1="62.77" y1="246.03" x2="76.06" y2="246.03" xlink:href="#Безымянный_градиент_92"/><linearGradient id="Безымянный_градиент_92-6" x1="67.87" y1="251.72" x2="86.31" y2="251.72" xlink:href="#Безымянный_градиент_92"/><linearGradient id="Безымянный_градиент_92-7" x1="63.51" y1="251.05" x2="77.62" y2="251.05" xlink:href="#Безымянный_градиент_92"/><linearGradient id="Безымянный_градиент_92-8" x1="61.94" y1="247.28" x2="68.16" y2="247.28" xlink:href="#Безымянный_градиент_92"/><linearGradient id="Безымянный_градиент_92-9" x1="59.47" y1="245.88" x2="60.62" y2="245.88" xlink:href="#Безымянный_градиент_92"/><linearGradient id="Безымянный_градиент_92-10" x1="51.86" y1="242.07" x2="56.28" y2="242.07" xlink:href="#Безымянный_градиент_92"/><linearGradient id="Безымянный_градиент_92-11" x1="44.29" y1="253.11" x2="55.38" y2="253.11" xlink:href="#Безымянный_градиент_92"/></defs><g class="cls-1"><g id="Слой_2" data-name="Слой 2"><g id="Объекты"><g id="УКАЗАТЕЛЬ"><path class="cls-2" d="M54.78.88s5,76.3,4.13,85-2.44,50.41-1,61.28-1.43,69.66-2.29,80,1.8,28.19,1.8,28.19-.2,4.71,3.77,4.43c6.92-.5,6.92-5.93,6.92-5.93s0-21.75-1-29.65-1.64-67.19-.31-76.58-1.44-37.62-.5-48.43S66.61,2.86,65.65.88,54.78.88,54.78.88Z"/><path class="cls-3" d="M67.13,224.24c-1-7.91-1.64-67.19-.31-76.58s-1.44-37.62-.5-48.43S66.61,2.86,65.65.88s-10.87,0-10.87,0v.21c2.48-.21,5-.16,5.42.78,1,2,1.62,87.54.68,98.35s1.82,39,.49,48.43-.72,68.67.31,76.58,1,29.65,1,29.65a6,6,0,0,1-2.91,4.79,3.75,3.75,0,0,0,1.43.15c6.92-.5,6.92-5.93,6.92-5.93S68.16,232.14,67.13,224.24Z"/><path class="cls-4" d="M99.05,60.05c-2.13.06-.22,13.29-.75,15.89-3.65,1.39-10.23.06-14.15-.48-5.16-.72-10.46-.94-15.64-1.67-10-1.39-20.61-1-30.67-1.75a111.42,111.42,0,0,0-14.76-.62c-4.63.26-9.45,2.24-13.94,1.66L7.38,74.89c-.08,5.82.39,11.26.39,16.8,2.61-.36,4.37.65,6.79,1.62a12.1,12.1,0,0,0-5.31,2.11c1.17,4,.77,9.08.89,13.52,2.36.54,5.12-.76,7.5-.87,3.29-.16,6.38-.71,9.58-1.07,5.35-.59,10.63.22,15.93.93,12.05,1.61,24.46,1.16,36.48.44,6.6-.38,13.37-1.3,20-.8-.28,5,0,15.23.79,15.92.32.28,27.48-29.22,27.43-32.86C127.75,85.82,101.76,60,99.05,60.05Z"/><path class="cls-5" d="M105.63,67.13c-2.49-.24-5-.64-7.59-.93,0,.82.07,1.66.11,2.51,2,.1,3.87.23,5.29.33,2.42.18,4.8.42,7.19.65-.81-.8-1.61-1.57-2.39-2.31Z"/><path class="cls-6" d="M102,65.17c1.46.1,2.9.24,4.32.38-3.59-3.29-6.42-5.52-7.22-5.5S98,62.26,98,65C99.37,65.05,100.69,65.09,102,65.17Z"/><path class="cls-7" d="M118.81,103.21a55.27,55.27,0,0,0-5.93.78c-6.88,1.27-14.29,1.17-21,2.53a54.85,54.85,0,0,1-9.36,1.14,21,21,0,0,0-6.3.82l-.27.1q1.84-.09,3.66-.21c6.6-.38,13.37-1.3,20-.8-.08,1.49-.12,3.45-.1,5.48l2.17.15c2.62.2,5.2.46,7.79.7C112.47,110.57,115.81,106.77,118.81,103.21Z"/><path class="cls-8" d="M10.24,76.75c9.88.41,19.88-1.42,29.6-1.58,13.27-.22,25.62,2.46,38.48,3.21,9.86.57,23.48,1.53,30.45-1.31,2.28-.92,4.19-1.23,7.87-1.25-1.46-1.55-3-3.11-4.47-4.6L108,70.75c-3.65-.42-6.44-.75-9.82-.91a37.73,37.73,0,0,1,.09,6.1c-3.65,1.39-10.23.06-14.15-.48-5.16-.72-10.46-.94-15.64-1.67-10-1.39-20.61-1-30.67-1.75a111.42,111.42,0,0,0-14.76-.62c-4.63.26-9.45,2.24-13.94,1.66L7.38,74.89c0,.55,0,1.1,0,1.65C8.32,76.63,9.27,76.71,10.24,76.75Z"/><path class="cls-9" d="M112,76.94c-1.55.3-2.54,1.27-4,1.7-3.57,1-9.31,1.1-14,1-6.62-.19-13.18-.5-19.76-.82-7.84-.38-14.46-1.31-22-2.13-11.26-1.24-22.32.11-33.25.49-3.42.11-7.61.22-11.56.15,0,.72,0,1.44,0,2.15,1.15,0,2.16,0,2.88,0,4,0,7.9-.3,11.89-.45a265.6,265.6,0,0,1,27.51-.11c17.82,1.15,35.52,4.23,53.79,3,1.71-.12,5.35-.82,7-.41,2.87.74-1.52,1.23-3.2,1.33-5.85.32-12.14.23-18.19.16a300,300,0,0,1-36.19-2.5,170.63,170.63,0,0,0-28.16-1c-2.3.11-9.64.54-17.27.79,0,.7.05,1.4.07,2.09,2-.19,4-.42,6.16-.62,13.17-1.25,27.06.16,40,1.36C69.94,84.6,91,87.56,107.4,85.18c5-.72,9.73-1.74,14.54-2.54l.69-.1c-1.45-1.75-3.12-3.63-4.89-5.54A26.27,26.27,0,0,0,112,76.94Z"/><path class="cls-10" d="M122.61,96.43c-4.19.08-8.17.07-12.1.51a26.26,26.26,0,0,0-8.73,2.43c-7.35,3-21.3,3.75-32.22,4.46-6,.39-9.46.91-13.58,2.52-2.61,1-4.85,1.05-8.2,1.64a7,7,0,0,0-1.28.34,172.19,172.19,0,0,0,24,.5,27.77,27.77,0,0,1,4.76-1.54c6.12-1.61,15.76-1.59,23-2.44,6.49-.76,14-2.09,21.44-2.76,1.7-2,3.26-4,4.55-5.66C123.73,96.42,123.16,96.42,122.61,96.43Z"/><path class="cls-11" d="M9.79,89c2.74-.1,5.44-.18,8.19-.29,8.14-.33,15.5-.94,23.46.27,6.75,1,13.12,2.5,19.52,3.75,7.82,1.51-2.76,3.13-7,3.52C39.42,97.53,25.1,98.81,9.86,98.54c.1.89.17,1.8.2,2.73,5.91.33,12.4.39,18,.21s11.14-.6,16.6-.87A114.05,114.05,0,0,0,57.17,99c4.3-.68,8.4-1.51,12.43-2.37S76.85,94.5,81.51,94c1.88-.22,12.35-.55,10.88-1.23s-11.89-.25-14.27-.24c-10.85,0-19.85-2.1-29.2-3.85-6.11-1.14-12.54-2.62-19.46-3a158.71,158.71,0,0,0-21.82.32c0,1,.07,2.1.1,3.15C8.41,89,9.09,89,9.79,89Z"/><path class="cls-12" d="M27.22,107c5.35-.59,10.63.22,15.93.93h.09c1.91-.33,3.92-.65,5.18-1,5.16-1.43,9.63-3.48,15.94-4.34,5.28-.72,10.69-.49,16.24-.67a62.31,62.31,0,0,0,12.68-1.68c4.81-1.12,8.14-2.85,13.24-3.82A91.68,91.68,0,0,1,123.87,95h1.49c1.53-2.11,2.47-3.69,2.46-4.37,0-1.19-1.61-3.65-4-6.69-1.42,0-2.61.11-3.24.18-4.9.61-9.85,1.52-14.22,2.44-9.4,2-20,.8-30.51,0-7.49-.58-14.72-1.12-22.21-1.9-8.11-.83-16.28-2-24.6-2.37-6-.28-11.39.37-17.32.48-1.11,0-2.55.1-4.15.19,0,.71,0,1.42.08,2.13,3.24-.18,6.34-.46,9.55-.68,11.21-.75,23.77,1,33.44,2.9,9.16,1.8,16,4.24,26.95,4.59,7.49.25,15.43.23,22.22,1.54,8.57,1.65-4.72,1.19-8.14,1.16-9.48-.09-14.39,2.38-21.7,4-4.2.93-9.61,1.59-14.25,2.25-5.54.79-11.57,1.39-17.61,1.65-9,.38-18.73-.06-28-.42.06,2.3,0,4.66.05,6.86,2.36.54,5.12-.76,7.5-.87C20.93,107.91,24,107.36,27.22,107Z"/><path class="cls-13" d="M108.34,115.15l-2.08-.24c-2.5-.29-4.59-.54-6.75-.71.07,4.42.36,8.85.88,9.29C100.5,123.59,103.93,120,108.34,115.15Z"/><path class="cls-14" d="M10.21,91.74A62.2,62.2,0,0,1,18.82,91c4.95,0,20.82-.91,23.17,1.25,2.76,2.55-12.47,2.29-16.35,2.32-5.85,0-10.81,1-16.24,1.4q.19.78.33,1.62c5.89.09,11.2-.35,17.06-.39,5.33,0,11-.52,16.29-.86a70.1,70.1,0,0,0,13.88-2c4.64-1.24-3.6-1.49-6.65-2-4.48-.76-8-2.06-12.71-2.73-6-.85-13.89-.08-19.93.25-3.31.18-6.6.32-9.91.44,0,.45,0,.9,0,1.35A7.59,7.59,0,0,1,10.21,91.74Z"/><path class="cls-15" d="M11.79,94.68c6.56-.4,13-1,19.38-1.5,2-.14,6-.17,3-1.05-1.6-.47-5.31-.36-7.31-.35-4.69,0-9.47.38-14.07.78l1.79.75a15.4,15.4,0,0,0-4.23,1.38C10.91,94.7,11.41,94.7,11.79,94.68Z"/><g class="cls-16"><path class="cls-17" d="M126.64,87.93l-.27,0c.17,3.39-2.13,4.39-4.1,6.77s-3.34,4.65-5.5,6.81c-2.74,2.74-5.7,5-8.63,7.43-1.63,1.35-3.73,5.36-5.53,5.62.33-1.54,1-7.26-.25-8.49s-7-.47-9.06-.47c-10.22,0-20.22-.05-30.42.81-11.83,1-22.9-3.16-34.7-2.73-5.23.19-10.66,1-15.7,1.66a10.77,10.77,0,0,1-2.4,0c0,1.2,0,2.4,0,3.54,2.36.54,5.12-.75,7.5-.87,3.29-.16,6.38-.71,9.58-1.06,5.35-.6,10.63.21,15.93.92,12,1.62,24.46,1.16,36.48.45,6.6-.39,13.37-1.31,20-.8-.28,5,0,15.23.78,15.91.33.28,27.49-29.22,27.44-32.85A6.54,6.54,0,0,0,126.64,87.93Z"/><path class="cls-17" d="M10.35,94.68a30.4,30.4,0,0,0,3.49-1.21A13.65,13.65,0,0,0,10.35,94.68Z"/><path class="cls-17" d="M7.74,91.71c2.53-.35,4.26.58,6.56,1.52A2.07,2.07,0,0,0,15.38,92c.6-2.63-4.15-3.76-7.7-4C7.71,89.24,7.74,90.47,7.74,91.71Z"/></g><path class="cls-18" d="M21.93,45.72c2,1.55,4.32,1.6,6.89,2.13,4.32.89,8.76,1.14,13.14,1.63a137.83,137.83,0,0,0,15.1,1.23c6.5,0,13-.2,19.52-.06A111.31,111.31,0,0,1,93.21,52c2.1.36,15.15,3.17,15.27-.56l.67-4.51C110.08,44.18,99,41.45,98,40.65c-1.35-1.1-2.76-2.25-4.21-3.26-1.18-.83-3.14-1.44-3.88-2.64,3.94-2,8.36-3.21,12.33-5.4,3-1.69,8.87-2.66,8-7.29-.81-4.19-4.09-3.24-7.51-3.12-4.08.13-8.32-.37-12.45-.65-5.79-.39-11.59-.58-17.35-1a91.82,91.82,0,0,1-14.59-2.61A82.81,82.81,0,0,0,39.88,13c-5.25,0-10.65-.07-15.9.12-1.71.06-3.76-.22-5,.8C17.6,15.07-.14,25.65,0,29,2.67,36.34,16,41.13,21.93,45.72Z"/><path class="cls-19" d="M89.27,27.29a70.14,70.14,0,0,1-8.12.41A51.75,51.75,0,0,1,72,26.39c-5.25-1-10.11-1.47-15.86-2.07-6.33-.66-12-.38-18.31-.68-7.64-.37-15.38-.59-23-1.11a65,65,0,0,1-7.46-.76c-.54.39-1.07.78-1.57,1.16L7,23.14c3,.44,6.09.74,9.18,1,6.4.58,12.87.68,19.13.72,6.56,0,12.16-.21,19.06.37C60,25.72,63.72,27,68.26,28c2.91.63,6,.94,9.25,1.31,4,.46,8.23,1,12.38,1.23,3,.19,6,.31,9.07.44,1.11-.49,2.21-1,3.28-1.6s2.51-1.1,3.87-1.72c-1.36-.14-2.7-.28-4.12-.37A76.81,76.81,0,0,0,89.27,27.29Z"/><path class="cls-20" d="M2.06,26c1.7.15,3.24.31,4.31.41,4.93.48,10.77.83,15.68,1,2.61.08,5.25.09,7.84.11,3.68,0,7-.22,10.74-.11,9.14.26,17.8,1.69,26.07,3,4.52.73,9.38,1.29,14,2a97.55,97.55,0,0,0,12,1.12c1.58-.66,3.19-1.27,4.8-1.93-3.4-.17-7.17-.09-9.5-.14a71.48,71.48,0,0,1-12.31-1.15c-7.59-1.44-14.27-3.75-23.11-4.46-6.4-.52-13-.34-19.15-.38s-11.88-.22-18.07-.51a100.09,100.09,0,0,1-11-.89C3.47,24.71,2.7,25.36,2.06,26Z"/><path class="cls-21" d="M.22,28.17a2.68,2.68,0,0,0-.16.36c1,0,2,.08,3,.14,4.67.26,9.14.6,13.68,1,6.76.62,12.81,1,19.38,1.95a77.83,77.83,0,0,0,9.74,1,36.58,36.58,0,0,0,3.73-.39c1.18-.1,4,0,3.77-.45-1.31-.2-3-.25-4.4-.35-10.92-.7-21.8-1.2-32.72-1.93C12.65,29.22,9,29,5.47,28.69,4.74,28.63,2.16,28.41.22,28.17Z"/><path class="cls-22" d="M21.34,22c3.93.19,7.9.4,11.85.63,5,.29,9.84.39,14.83.57,5.67.21,11.42.59,17.06,1.15,3.67.37,6.11,1.13,9.51,1.67,3,.46,6.07.7,9.21.92,6.94.47,11.38-.51,17.35-.78a63.43,63.43,0,0,1,7.41,0,5.71,5.71,0,0,0,.58-.51c-2.46-.05-5.17-.2-7-.31-3.31-.19-6.58-.43-9.88-.58-3.7-.17-7.56-.29-11.27-.53-7-.46-12.46-2-18.51-3.06-6.28-1.08-14.23-1.59-21-2.11-5.31-.4-10.69-.8-16-1-3.82-.17-7.95-.43-11.92-.59C11.82,18.62,9.88,19.92,8,21.25,12.47,21.51,16.86,21.81,21.34,22Z"/><path class="cls-23" d="M91.45,34l-3-.21c-4.5-.3-8.91-.59-13.24-1.2-3-.42-5.93-.93-8.83-1.4-5.08-.82-9.8-1.93-15.35-2.43C46,28.32,40.48,28,35.51,28c-5.19,0-9.85.33-15.31,0-3.45-.24-6.76-.58-10.21-.77-2.89-.16-5.75-.33-8.64-.51a9.59,9.59,0,0,0-.77.91c1.13.08,2.36.2,3.05.25,2.39.16,4.64.45,7,.64,5.65.45,11.3.9,16.86.93a249.85,249.85,0,0,1,33,2.57c2,.29,3.56.59.87.6-2.48,0-4.91-.1-7.28,0-2.61.14-5.33.39-8.23.34a73.71,73.71,0,0,1-7.52-.68c-7.95-1-15.71-1.84-23.95-2.39-3.64-.24-7.58-.52-11.15-.57H.08A9.91,9.91,0,0,0,1,31l.65,0c3,.14,5.92.27,8.92.47,6,.4,12,.77,17.88,1.35s12,1.38,18,1.7c3.12.17,6.84.17,9.68,0a53.87,53.87,0,0,1,8.68-.09c5.94.47,12.14.71,18.14,1,1.42.08,5,.37,8.48.51a4.08,4.08,0,0,1-1.44-1.27Z"/><path class="cls-24" d="M105.13,44.61c-6.45-.36-13-.6-19.35-.75-3-.07-6,0-8.74.15-1.23.05-2.53.18-3.87.15a30.09,30.09,0,0,0-3.36-.08c1.83.6,7.11.53,9.41.59A67.1,67.1,0,0,1,90.89,46c4,.81,7.21,1.33,11.71,1.83,2.11.23,4.18.51,6.28.72l.12-.79c-2.69-.38-5.77-1.23-7.65-1.43-2.06-.22-4.11-.47-6.17-.69a20.1,20.1,0,0,1-4.26-.55c1.45-.31,6.47.2,8.69.36,3,.2,5.82.29,8.75.41l.57,0a4.24,4.24,0,0,0-1.1-1C106.72,44.74,105.68,44.64,105.13,44.61Z"/><path class="cls-25" d="M13.08,39.9A187.21,187.21,0,0,1,32.3,41.2c3.44.42,6.92.94,10.09,1.53,4,.74,7.71,1.7,12,2.33,4.64.7,8,.5,12.58.63,4.41.12,9,.76,13.3,1.21,5.76.61,12,1.12,17.55,2,2.85.44,5,.87,8.07,1.09.92.07,1.84.17,2.77.28l.14-.91c-.86-.06-1.75-.1-2.49-.19-2.25-.26-4.51-.77-6.61-1.14-4.65-.84-9.24-1.3-14-2a78.65,78.65,0,0,0-11.6-.9,40.1,40.1,0,0,1-5.87-.39c-1.57-.23-5.07-.86-5.3-1.34s2.09-.18,3.5-.17c2.81,0,4.85-.44,7.8-.39,6.4.1,13.24.28,19.73.53,4,.15,8.48.38,12.66.72-.78-.4-1.67-.79-2.57-1.15-1.69-.1-3.5-.29-5-.41-5.33-.44-10.55-1-15.81-1.6-4.81-.52-12.58-1.56-16.79-1-4.52.62-4.15,2.71-11.06,2.48-6.26-.2-12.67-1.57-18.63-2.3C32,39.55,27,39,22.28,38.53A91.85,91.85,0,0,0,9,38c1.05.66,2.13,1.3,3.21,1.92Z"/><path class="cls-26" d="M93.65,22.71a136,136,0,0,1-19.81-2.24C66.66,19.3,59,18.54,51.35,17.87c-6-.53-12.12-.95-18.09-1.51a126,126,0,0,0-13.8-1c-.85,0-1.84,0-2.84.09l-2,1.3,1.48.06c9.38.52,18.76,1.08,28,1.27a106.21,106.21,0,0,1,13.82,1c6.55,1.07,11.62,2.8,18.51,3.76,2.81.39,5.92.57,8.82.82,3.43.3,6.69.54,10.13.66,3.64.13,7.56.24,11.13.28,1.13,0,2.26,0,3.32.09a3.63,3.63,0,0,0,.43-2.06C104.69,22.82,95.15,22.74,93.65,22.71Z"/><path class="cls-27" d="M39.85,13c-5.25,0-10.64-.07-15.9.12-1.7.06-3.76-.23-5,.8a1.86,1.86,0,0,1-.23.18c3.42.06,6.88.22,9.51.31,5.61.18,11.31.43,17,.82,8.71.59,13.93,2.18,21.2,3.57,7.69,1.46,15.64,1.44,23.74,2.18,6.42.58,12.45.75,18.84,1l1.18,0c-.84-4.07-4.09-3.14-7.49-3-4.08.13-8.32-.37-12.45-.65-5.79-.39-11.59-.58-17.35-1A90.41,90.41,0,0,1,58.31,14.7,83.48,83.48,0,0,0,39.85,13Z"/><path class="cls-28" d="M88.56,36.52c-4.52-.24-8.78-.23-13.35-.58-4.36-.33-8.38-1-12.73-.95s-7.36.5-11.43.59a63.32,63.32,0,0,1-8.89-.66c-4.28-.53-8.51-.93-12.88-1.31C21.81,33,13.49,32.06,6,31.82c-1,0-2.76-.08-4.56-.16a16.47,16.47,0,0,0,1.65,1.85c2.73.06,6.4.5,8.7.72,7.69.73,14.93,1.69,22.36,2.69,6.85.93,16,1.43,21.71.64S67.8,37,75.14,37.8c7.09.8,14.53,1.53,21.79,2-1-.82-2.07-1.64-3.15-2.39a10.57,10.57,0,0,0-1-.61C91.36,36.68,90,36.59,88.56,36.52Z"/><path class="cls-29" d="M104.92,52.05c-1.92-.1-3.84-.26-5.68-.5-2.08-.26-3.92-.66-6.06-.92-3.35-.41-6.93-.6-10.33-.74-5-.19-9.62-.64-14.65-1-3.57-.25-6.8-.33-10.23-.35-3.71,0-7.29-.57-11-.78-3.25-.18-6.17-.06-9.33-.18s-6.07-.55-9-.93c-2.19-.28-4.25-.58-6.45-.77,1.94,1.37,4.17,1.44,6.64,2,4.32.89,8.76,1.14,13.14,1.63A137.83,137.83,0,0,0,57,50.71c6.51,0,13-.2,19.52-.07A113.92,113.92,0,0,1,93.18,52c1.93.34,13,2.72,15,.26C107.05,52.18,105.87,52.11,104.92,52.05Z"/><path class="cls-30" d="M92.42,40c-6.38-.52-12.75-1-19.07-1.69-2.38-.27-5.1-.64-7.55-.69a15.9,15.9,0,0,0-4.3.53c-6.17,1.28-14.69.71-23.19-.14-6.59-.65-13.15-1.43-19.62-2.22-3.47-.42-7.07-1.16-10.7-1.14a10.48,10.48,0,0,0-3,.44c.51.41,1,.8,1.59,1.2h.09c1.21.08,2.45,0,3.71.11,2.05.14,4.11.38,6.1.63,4.81.6,9.8,1.18,14.52,1.85,7.07,1,13.59,2.09,21.2,2.19A33.36,33.36,0,0,0,56.89,41c1.94-.28,3.19-.86,5-1.2a46.8,46.8,0,0,1,10.85-.36c6,.47,11.17,1.2,17,2a87.94,87.94,0,0,0,12.39.89A33.1,33.1,0,0,1,98,40.65l-.17-.14C95.9,40.37,93.92,40.17,92.42,40Z"/><path class="cls-31" d="M96.19,49c-5.54-.86-11.49-1.24-17.27-1.8-3.55-.35-7-.71-10.57-.89-3.14-.16-6.11,0-9.24-.22-8.52-.47-14.86-1.72-22.46-3A128.38,128.38,0,0,0,18.34,41c-1.15,0-2.7-.08-4.26-.09,2.35,1.33,4.62,2.58,6.45,3.81l2.73.55a45,45,0,0,0,7,.78c2.78.15,5.56.33,8.36.52,3.56.25,7,.7,10.64.9,4.2.24,8,0,12.1.23,2.8.13,5.66.43,8.46.62,2.36.16,4.58.2,6.9.33,5.62.3,10.32.59,15.89,1.33,3.09.41,6,1,9.21,1.32,2.14.23,4.3.31,6.46.43h.06a1.82,1.82,0,0,0,.06-.35l.12-.81C104.33,50.33,99.45,49.49,96.19,49Z"/><path class="cls-32" d="M103.9,46.16c.45.4,3,.57,5.22.78v0a.94.94,0,0,0,.06-.29C107.31,46.52,105,46.32,103.9,46.16Z"/><path class="cls-33" d="M108,44.91a5.19,5.19,0,0,0-.31.59c-.63,1.34-.14,3.07-1.23,4.17s-2.45.76-3.88.54c-3.08-.47-5.91-1.33-9.18-1.55-10-.68-20.09-1.54-30.18-2.23a107,107,0,0,0-15.3,0c-5.66.42-11.23-.56-16.86-1.19A25.76,25.76,0,0,1,21.36,42c-2.65-1.5-4.83-4.12-7.41-5.89-2.85-2-5.78-3.85-8.72-5.59-1.35-.79-2.53-1.82-4.14-2a4.59,4.59,0,0,0-1,0A1.28,1.28,0,0,0,0,29c2.67,7.31,16,12.1,21.93,16.69,2,1.55,4.32,1.6,6.89,2.13,4.32.89,8.76,1.14,13.14,1.63a137.83,137.83,0,0,0,15.1,1.23c6.5,0,13-.2,19.52-.06A111.31,111.31,0,0,1,93.21,52c2.1.36,15.15,3.17,15.27-.56l.67-4.51C109.38,46.22,108.87,45.55,108,44.91Z"/><path class="cls-34" d="M107.21,18.84a5.26,5.26,0,0,1,.24,2.91c-.54,1.79-2.87,2.8-4.34,3.6-3.49,1.9-7,4.48-10.61,6-1.6.69-7.51,1.67-3.56,3.06l1,.32h0c3.94-2,8.36-3.21,12.33-5.4,3-1.69,8.87-2.66,8-7.29C109.8,19.84,108.68,19.07,107.21,18.84Z"/><path class="cls-35" d="M104.53,163.52c-1.65,1.92-3.9,2.45-6.3,3.5-4,1.77-8.34,2.93-12.52,4.31a138.54,138.54,0,0,1-14.52,4.32c-6.36,1.37-12.79,2.49-19.12,4a113,113,0,0,0-16,4.72c-2,.79-14.17,6.23-15,2.61l-1.59-4.28c-1.47-2.46,8.81-7.42,9.6-8.41,1.1-1.35,2.24-2.76,3.45-4.05,1-1.06,2.77-2,3.25-3.39-4.26-1.11-8.85-1.41-13.19-2.74-3.32-1-9.22-.77-9.29-5.48-.07-4.27,3.33-4,6.7-4.61A123.81,123.81,0,0,0,32,150.78c5.59-1.57,11.22-3,16.78-4.53a91.6,91.6,0,0,0,13.73-5.57,82.81,82.81,0,0,1,17.7-5.52c5.13-1.13,10.4-2.26,15.58-3.17,1.68-.29,3.63-1,5-.24,1.62.88,21.17,7.58,21.72,10.91C121.44,150.36,109.41,157.8,104.53,163.52Z"/><path class="cls-36" d="M34.83,159.38a68.83,68.83,0,0,0,8-1.28,51.06,51.06,0,0,0,8.71-3.17c4.93-2.06,9.58-3.53,15.09-5.3,6-1.95,11.64-2.84,17.78-4.44,7.39-1.94,14.92-3.76,22.31-5.84a65.13,65.13,0,0,0,7.15-2.29l1.77.82c-.42.17-.82.33-1.17.45-2.81,1-5.8,2-8.76,2.9-6.15,1.89-12.45,3.32-18.57,4.65-6.42,1.39-12,2.31-18.58,4.29-5.45,1.64-8.83,3.63-13.07,5.53-2.72,1.21-5.68,2.16-8.78,3.19-3.85,1.29-7.85,2.66-11.86,3.76-2.91.8-5.86,1.55-8.79,2.3-1.18-.25-2.37-.53-3.53-.88s-2.69-.57-4.14-.89c1.29-.42,2.58-.83,3.95-1.22A77.94,77.94,0,0,1,34.83,159.38Z"/><path class="cls-37" d="M119.9,140.1l-4.14,1.29c-4.72,1.49-10.36,3-15.14,4.2-2.53.62-5.12,1.17-7.65,1.72-3.58.8-6.88,1.23-10.53,2.11-8.88,2.14-17.07,5.33-24.88,8.35-4.27,1.64-8.91,3.19-13.28,4.81a96.46,96.46,0,0,1-11.5,3.56c-1.68-.32-3.39-.58-5.09-.89,3.29-.87,7-1.56,9.26-2.1a70.83,70.83,0,0,0,11.8-3.66c7.13-3,13.19-6.61,21.7-9.14,6.15-1.82,12.66-3,18.66-4.32s11.58-2.66,17.58-4.22a100.09,100.09,0,0,0,10.6-3.15C118.26,139.15,119.14,139.63,119.9,140.1Z"/><path class="cls-38" d="M122.15,141.87a2.13,2.13,0,0,1,.23.32q-1.42.34-2.91.75c-4.51,1.22-8.81,2.48-13.17,3.82-6.49,2-12.33,3.64-18.57,5.91a76.31,76.31,0,0,1-9.32,2.94c-1.38.28-2.51.24-3.73.39s-3.88.83-3.78.34c1.24-.47,2.88-.87,4.23-1.25,10.53-3,21.08-5.67,31.61-8.65,3.47-1,7-1.94,10.38-3C117.82,143.25,120.3,142.5,122.15,141.87Z"/><path class="cls-39" d="M100.22,140.21c-3.81,1-7.65,2-11.47,3.06-4.87,1.33-9.54,2.42-14.39,3.63-5.5,1.37-11,2.93-16.46,4.64-3.51,1.12-5.74,2.37-9,3.59-2.81,1.07-5.79,2-8.82,2.81-6.69,1.89-11.24,1.84-17.14,2.82a62.64,62.64,0,0,0-7.24,1.55,4.84,4.84,0,0,1-.67-.38c2.39-.55,5-1.26,6.81-1.75,3.2-.87,6.35-1.78,9.55-2.6,3.58-.93,7.34-1.85,10.92-2.85,6.76-1.89,11.77-4.54,17.48-6.81,5.92-2.36,13.59-4.5,20.1-6.4,5.12-1.49,10.3-3,15.44-4.31,3.7-1,7.69-2.07,11.54-3.05,1.92.76,4.09,1.63,6.18,2.55C108.79,137.88,104.55,139.08,100.22,140.21Z"/><path class="cls-40" d="M34.09,166.41c1.13-.34,2.16-.62,2.84-.82,4.34-1.22,8.59-2.42,12.71-3.91,2.82-1,5.61-2.13,8.35-3.19,4.81-1.85,9.19-3.91,14.52-5.54,4.89-1.49,10.22-2.93,15.08-4,5.07-1.08,9.7-1.71,15-3.2,3.32-.94,6.49-1.95,9.83-2.86,2.79-.75,5.56-1.51,8.35-2.28.36.25.67.5.94.73-1.09.31-2.27.68-2.93.87-2.31.65-4.45,1.41-6.73,2.08-5.43,1.6-10.87,3.21-16.3,4.39A250.34,250.34,0,0,0,64,158c-1.87.69-3.36,1.32-.72.77,2.42-.5,4.78-1.11,7.12-1.48,2.58-.41,5.3-.72,8.13-1.37a73.76,73.76,0,0,0,7.21-2.22c7.58-2.61,15-5,23-7.27,3.51-1,7.3-2.08,10.79-2.86,1-.24,2-.44,3-.65a9.28,9.28,0,0,1-.52,1.81c-.22.07-.43.13-.62.17-2.88.75-5.74,1.49-8.64,2.3-5.76,1.63-11.59,3.23-17.21,5s-11.46,3.83-17.22,5.37c-3,.81-6.65,1.58-9.46,2a52.41,52.41,0,0,0-8.51,1.7c-5.72,1.69-11.73,3.2-17.54,4.76-1.38.37-4.87,1.4-8.19,2.25a4,4,0,0,0,1.14-1.54C35.2,166.66,34.65,166.53,34.09,166.41Z"/><path class="cls-41" d="M22.89,179.6c6.24-1.68,12.59-3.27,18.78-4.73,2.88-.68,5.86-1.18,8.58-1.65,1.22-.21,2.52-.35,3.82-.65a30.43,30.43,0,0,1,3.27-.78c-1.66,1-6.84,2-9.09,2.52A67,67,0,0,0,37.11,178c-3.79,1.63-6.78,2.79-11.09,4.21-2,.66-4,1.37-6,2l-.28-.75c2.55-.93,5.38-2.39,7.19-3l5.89-1.94c1.3-.43,3.31-.87,4.05-1.43-1.48,0-6.28,1.54-8.42,2.15-2.94.83-5.63,1.49-8.47,2.21l-.56.14a4,4,0,0,1,.86-1.23C21.36,180.06,22.36,179.74,22.89,179.6Z"/><path class="cls-42" d="M112,156a189,189,0,0,0-18.54,5.24c-3.28,1.13-6.57,2.35-9.56,3.58-3.79,1.56-7.19,3.26-11.22,4.75-4.39,1.64-7.73,2.14-12.18,3.21-4.29,1-8.65,2.6-12.77,3.94-5.51,1.78-11.51,3.56-16.76,5.54-2.69,1-4.76,1.88-7.67,2.73-.88.25-1.77.54-2.66.84l-.32-.87c.83-.23,1.7-.45,2.39-.69,2.16-.72,4.26-1.68,6.23-2.49,4.39-1.78,8.78-3.17,13.33-4.81a76.41,76.41,0,0,1,11.16-3.27,40.93,40.93,0,0,0,5.67-1.6c1.49-.55,4.78-1.88,4.9-2.41s-2.07.26-3.45.56c-2.75.59-4.84.57-7.71,1.22-6.24,1.43-12.9,3-19.2,4.59-3.88,1-8.22,2.13-12.24,3.32.68-.55,1.47-1.11,2.28-1.65,1.63-.45,3.36-1,4.86-1.45,5.12-1.52,10.11-3.18,15.14-4.82,4.6-1.5,12-4.12,16.22-4.43,4.55-.32,4.62,1.8,11.34.15,6.08-1.49,12.07-4.16,17.75-6.1,4.47-1.52,9.17-3,13.72-4.52a91.57,91.57,0,0,1,12.84-3.26c-.89.86-1.82,1.7-2.74,2.53Z"/><path class="cls-43" d="M29.61,155.8a135.35,135.35,0,0,0,18.92-6.28c6.78-2.63,14.1-4.94,21.46-7.19,5.77-1.75,11.67-3.43,17.39-5.2a124.8,124.8,0,0,1,13.31-3.81c.83-.16,1.81-.34,2.79-.49l2.22.86c-.53.13-1,.25-1.44.36-9.07,2.44-18.13,4.92-27.15,7A105.82,105.82,0,0,0,63.81,145c-6.18,2.4-10.79,5.13-17.34,7.5-2.67,1-5.67,1.78-8.46,2.62-3.29,1-6.43,1.91-9.77,2.74-3.54.87-7.34,1.79-10.83,2.57-1.11.24-2.22.49-3.24.77a3.72,3.72,0,0,1-.84-1.92C18.83,158.19,28.15,156.14,29.61,155.8Z"/><path class="cls-44" d="M80.23,135.15c5.13-1.12,10.4-2.26,15.59-3.17,1.67-.29,3.63-1,5-.23l.26.12c-3.32.77-6.68,1.64-9.23,2.27-5.46,1.33-11,2.75-16.43,4.3-8.4,2.38-13.18,5-20,7.86-7.22,3-15,4.65-22.78,7-6.16,1.89-12,3.3-18.23,4.85l-1.15.29c0-4.16,3.36-3.92,6.71-4.51,4-.71,8.07-2.07,12.05-3.19,5.58-1.58,11.22-3,16.77-4.54a91.24,91.24,0,0,0,13.74-5.56A82.92,82.92,0,0,1,80.23,135.15Z"/><path class="cls-45" d="M37.43,168.26c4.38-1.16,8.55-2,13-3.32,4.19-1.22,8-2.66,12.26-3.56s7.31-1,11.3-1.77a62.91,62.91,0,0,0,8.56-2.49c4.08-1.39,8.14-2.66,12.33-3.94,7.18-2.18,15.14-4.77,22.42-6.55,1-.25,2.68-.64,4.43-1.1a18.25,18.25,0,0,1-1.23,2.16c-2.67.61-6.17,1.81-8.37,2.49-7.38,2.31-14.26,4.73-21.33,7.25-6.51,2.32-15.39,4.71-21.11,5.11s-11.8,1.88-18.81,4.21c-6.78,2.25-13.9,4.5-20.91,6.43.83-1,1.69-2,2.58-3a10,10,0,0,1,.88-.8C34.73,169,36.09,168.62,37.43,168.26Z"/><path class="cls-46" d="M24.63,186.84c1.86-.5,3.7-1.05,5.46-1.66,2-.69,3.7-1.46,5.74-2.16,3.19-1.09,6.65-2,10-2.85,4.84-1.22,9.28-2.62,14.13-4,3.44-1,6.58-1.71,9.94-2.44,3.63-.79,7-2.07,10.65-3.05,3.14-.84,6-1.33,9.09-2.1s5.83-1.79,8.61-2.76c2.08-.73,4-1.45,6.15-2.09-1.62,1.74-3.79,2.27-6.09,3.27-4.05,1.77-8.34,2.93-12.52,4.32a140.38,140.38,0,0,1-14.53,4.31c-6.36,1.38-12.79,2.5-19.11,4a111.71,111.71,0,0,0-16,4.71c-1.82.72-12.2,5.35-14.61,3.34C22.57,187.4,23.72,187.09,24.63,186.84Z"/><path class="cls-47" d="M34.39,172.51c6.13-1.83,12.27-3.61,18.31-5.6,2.27-.75,4.85-1.67,7.25-2.22a15.37,15.37,0,0,1,4.31-.37c6.3,0,14.52-2.34,22.66-4.92,6.31-2,12.57-4.12,18.73-6.23a85.06,85.06,0,0,1,10.24-3.32,10.62,10.62,0,0,1,3.08-.2c-.41.5-.86,1-1.32,1.5l-.08,0c-1.17.33-2.38.54-3.6.88-2,.55-4,1.22-5.84,1.87-4.59,1.58-9.35,3.17-13.83,4.81-6.71,2.44-12.87,4.84-20.3,6.52a34.56,34.56,0,0,1-4.67.81c-2,.13-3.29-.18-5.13-.13a46.71,46.71,0,0,0-10.7,1.88c-5.8,1.7-10.68,3.47-16.21,5.41a88.74,88.74,0,0,1-11.93,3.43,33.9,33.9,0,0,0,3.7-2.4l.14-.17C31.05,173.55,33,172.94,34.39,172.51Z"/><path class="cls-48" d="M32.54,182c5.25-2,11-3.58,16.53-5.33,3.4-1.07,6.68-2.13,10.16-3.05,3-.8,6-1.31,9-2.12,8.24-2.21,14.19-4.75,21.37-7.55a129.29,129.29,0,0,1,17.48-5.81c1.12-.27,2.62-.64,4.15-1-2,1.78-4,3.48-5.53,5.06-.84.37-1.68.74-2.55,1.1a44,44,0,0,1-6.74,2.22c-2.69.72-5.37,1.47-8.07,2.24-3.44,1-6.76,2.14-10.22,3.07-4.07,1.11-7.79,1.69-11.8,2.72-2.71.7-5.44,1.59-8.15,2.35-2.27.65-4.44,1.15-6.68,1.75-5.44,1.45-10,2.71-15.28,4.58-2.93,1-5.71,2.2-8.73,3.19-2,.67-4.15,1.19-6.23,1.76h-.07a1.18,1.18,0,0,1-.12-.33l-.29-.77C24.85,185,29.46,183.2,32.54,182Z"/><path class="cls-49" d="M24.41,180.87c-.35.47-2.8,1.17-4.94,1.83l0,0a1.36,1.36,0,0,1-.11-.28C21.16,181.92,23.33,181.25,24.41,180.87Z"/><path class="cls-33" d="M20.17,180.48a5,5,0,0,1,.43.51c.89,1.18.77,3,2.06,3.83,1.12.74,2.56.24,3.91-.27,2.91-1.1,5.5-2.52,8.67-3.42,9.67-2.73,19.34-5.65,29.07-8.4a106.41,106.41,0,0,1,15-3.21c5.63-.76,10.87-2.87,16.26-4.64a25.89,25.89,0,0,0,8.8-5.14c2.28-2,3.87-5,6-7.29,2.39-2.51,4.86-5,7.38-7.27,1.15-1.06,2.1-2.3,3.63-2.82a5.54,5.54,0,0,1,1-.22,1.42,1.42,0,0,1,.22.52c-1.1,7.7-13.13,15.14-18,20.86-1.65,1.92-3.9,2.45-6.3,3.5-4,1.77-8.34,2.93-12.52,4.31a138.54,138.54,0,0,1-14.52,4.32c-6.36,1.37-12.79,2.49-19.12,4a113,113,0,0,0-16,4.72c-2,.79-14.17,6.23-15,2.61l-1.59-4.28C19.06,182.06,19.42,181.29,20.17,180.48Z"/><path class="cls-34" d="M15.54,154.82a5.29,5.29,0,0,0,.36,2.89c.91,1.64,3.39,2.15,5,2.63,3.81,1.14,7.79,2.93,11.63,3.7,1.71.34,7.69.08,4.11,2.25-.3.19-.6.36-.9.52h0c-4.26-1.11-8.85-1.41-13.19-2.74-3.32-1-9.22-.77-9.29-5.48C13.21,156.33,14.15,155.34,15.54,154.82Z"/><polygon class="cls-50" points="57.74 50.72 66.73 50.64 66.74 55.98 57.84 52.76 57.74 50.72"/><polygon class="cls-50" points="57.75 109 57.64 112.57 66.31 114.04 66.16 108.98 57.75 109"/><polygon class="cls-50" points="57.95 178.34 66.06 176.71 66.06 181.74 57.88 180.53 57.95 178.34"/><path class="cls-51" d="M78.3,243.06A21.71,21.71,0,0,0,69,248.25a23.06,23.06,0,0,0-5.73,7.95c-.06.15-.14.33-.23.52a41.49,41.49,0,0,1,2.61-10.32c2.23-5.44,5.73-8.49,10.11-12.14a15.41,15.41,0,0,0-4.13,1.66,19.49,19.49,0,0,0-5.33,4.68,28.41,28.41,0,0,0-2,3.11,31.07,31.07,0,0,0-2.84,8.45c-.16.73-.35,1.5-.54,2.3a110,110,0,0,1,.67-11.89c.62-5,2.21-9.7,3.19-14.61A23.78,23.78,0,0,0,63,230.81,58.2,58.2,0,0,0,59.6,243.1a31.43,31.43,0,0,0-.32,5.31A28.63,28.63,0,0,0,56.81,239a15.07,15.07,0,0,0-3.54-4.58,8.44,8.44,0,0,0-5-1.58c5.93,4.24,7.26,11.68,7.77,18.94a9.37,9.37,0,0,0-4.45-4.38c-3.21-1.43-7.45-2-10.85-.53a8.17,8.17,0,0,0-.68.52l-.22.22a11.36,11.36,0,0,1,9.89,3.22A16,16,0,0,1,54,256.77a25,25,0,0,1,1.16,4.38H68.66a.19.19,0,0,0-.09-.09c.18-.75.4-1.47.63-2.19a23.13,23.13,0,0,1,4.25-8.37,25.42,25.42,0,0,1,11.72-7.78C83.36,241.86,80.1,242.65,78.3,243.06Z"/><path class="cls-52" d="M49.08,245.74a12.32,12.32,0,0,0-4.16-.35c-.26,0-.53.09-.79.15a8.86,8.86,0,0,0-4.1,1.85l-.22.22.33-.06a13,13,0,0,1,10.55-.2c4,1.53,6,7.21,7.15,10.91,0,.08.15,0,.14-.09C57.17,252.68,54.9,247.3,49.08,245.74Z"/><path class="cls-53" d="M57.07,239.18a16.65,16.65,0,0,0-2.7-3.85,8.43,8.43,0,0,0-5.71-2.49c1.26.58,3.71,1.77,3.83,1.86a13.11,13.11,0,0,1,3.74,5c1.81,3.66,2.2,7.9,2.89,11.86,0,.11.16,0,.15-.06A34.36,34.36,0,0,0,57.07,239.18Z"/><path class="cls-54" d="M65,227.69c-.4.52-.77,1.05-1.12,1.6a47,47,0,0,0-3,12.58c-.78,5.93-1.12,12.16,0,18.06.05.22.33,0,.32-.15A118.57,118.57,0,0,1,65,227.69Z"/><path class="cls-55" d="M73.33,235.09c-7.34,4.7-10.57,14.28-10.56,22.68,0,.21.26.09.28-.06,1.35-9.45,5.29-17.81,13-23.52A15.32,15.32,0,0,0,73.33,235.09Z"/><path class="cls-56" d="M73.45,250.5c3.38-4.17,7.91-6.57,12.86-8.16-4.46-.39-8.55,1.95-11.81,4.88-3.47,3.12-7.12,8.94-6.58,13.93h.75A23.86,23.86,0,0,1,73.45,250.5Z"/><path class="cls-57" d="M77.59,243.49a22.46,22.46,0,0,0-9.27,6c-2.26,2.53-4.39,5.58-4.81,9,0,.16.2.09.23,0,1.77-7.05,7.42-12.1,13.86-14.94C77.63,243.54,77.63,243.48,77.59,243.49Z"/><path class="cls-58" d="M68.11,239.13A22.35,22.35,0,0,0,62,255.42c0,.07.1,0,.11,0a26.91,26.91,0,0,1,6.09-16.23S68.14,239.1,68.11,239.13Z"/><path class="cls-59" d="M60.62,240.31c0-.05-.06,0-.06,0-.32,1.76-.79,3.49-1,5.27a35.71,35.71,0,0,0,0,5.85c0,.1.16,0,.16-.06,0-1.94,0-3.9.1-5.84C60,243.79,60.4,242.05,60.62,240.31Z"/><path class="cls-60" d="M55,241.34a13.75,13.75,0,0,0-3.1-6s0,0,0,0a17.82,17.82,0,0,1,2.9,6.48c.57,2.29.83,4.62,1.38,6.91,0,.09.14,0,.14-.06A39.13,39.13,0,0,0,55,241.34Z"/><path class="cls-61" d="M51.58,251.43a11.41,11.41,0,0,0-7.23-4.15s-.08.06,0,.07c5.48,1.51,9.16,6.31,10.91,11.57,0,.08.17,0,.16-.1A17.19,17.19,0,0,0,51.58,251.43Z"/><text class="cls-62" transform="translate(18.96 93.63)">Пр<tspan class="cls-63" x="19.41" y="0">и</tspan><tspan x="28.37" y="0">л</tspan><tspan class="cls-64" x="36.51" y="0">о</tspan><tspan class="cls-65" x="45.2" y="0">ж</tspan><tspan x="55.82" y="0">ение</tspan></text><text class="cls-62" transform="translate(29.22 35.02)">А<tspan class="cls-66" x="9.83" y="0">к</tspan><tspan x="17.69" y="0">а</tspan><tspan class="cls-67" x="25.43" y="0">д</tspan><tspan x="33.88" y="0">ем</tspan></text></g></g></g></g></svg>